<svg width="24" height="21" viewBox="0 0 24 21" fill="none" xmlns="http://www.w3.org/2000/svg">
<path d="M19.0229 2.24841V0.884208C19.0229 0.378946 18.6187 0 18.1387 0H0.884199C0.378943 0 0 0.404209 0 0.884208V2.24841L9.49883 6.26524L19.0229 2.24841Z" fill="#2271B1"/>
<path d="M18.7198 8.36208C18.8208 8.36208 18.9219 8.36208 19.0229 8.36208V4.19367L9.85251 8.05892C9.72619 8.10945 9.62514 8.13471 9.49883 8.13471C9.37251 8.13471 9.2462 8.10945 9.14515 8.05892L0 4.19367V12.2779C0 12.7579 0.404205 13.1621 0.884199 13.1621H11.9998C12.9598 10.3831 15.6124 8.36208 18.7198 8.36208Z" fill="#2271B1"/>
<path d="M18.7196 10.1557C15.8144 10.1557 13.4397 12.5305 13.4397 15.4357C13.4144 18.3662 15.7891 20.7157 18.7196 20.7157C21.6248 20.7157 23.9995 18.341 23.9995 15.4357C23.9995 12.5305 21.6248 10.1557 18.7196 10.1557ZM20.8669 16.522C21.1701 16.8252 21.1701 17.3052 20.8669 17.6083C20.7153 17.7599 20.5132 17.8357 20.3364 17.8357C20.1596 17.8357 19.9575 17.7599 19.8059 17.6083L18.7196 16.522L17.6333 17.6083C17.4817 17.7599 17.2796 17.8357 17.1028 17.8357C16.9259 17.8357 16.7238 17.7599 16.5722 17.6083C16.2691 17.3052 16.2691 16.8252 16.5722 16.522L17.6585 15.4357L16.547 14.3494C16.2438 14.0462 16.2438 13.5662 16.547 13.2631C16.8501 12.9599 17.3301 12.9599 17.6333 13.2631L18.7196 14.3494L19.8059 13.2631C20.109 12.9599 20.589 12.9599 20.8922 13.2631C21.1953 13.5662 21.1953 14.0462 20.8922 14.3494L19.8059 15.4357L20.8669 16.522Z" fill="#2271B1"/>
</svg>
