<?xml version="1.0" encoding="UTF-8"?>
<svg xmlns="http://www.w3.org/2000/svg" xmlns:xlink="http://www.w3.org/1999/xlink" version="1.1" viewBox="0 0 461.4 85.5">
  <defs>
    <style>
      .cls-1 {
        fill: #000;
      }

      .cls-1, .cls-2, .cls-3 {
        stroke-width: 0px;
      }

      .cls-2 {
        fill: #0f62af;
      }

      .cls-4 {
        fill: #333;
        font-family: ArialMT, Arial;
        font-size: 90px;
        stroke: #333;
        stroke-miterlimit: 10;
        stroke-width: 2px;
      }

      .cls-3 {
        fill: #20adee;
      }

      .cls-5 {
        display: none;
      }
    </style>
  </defs>
  <g id="katman_1" data-name="katman 1" class="cls-5">
    <image width="671" height="122" transform="translate(-17.9 83.7) scale(.8)" xlink:href="logo-1.png"/>
    <text/>
    <text/>
  </g>
  <g id="katman_2" data-name="katman 2">
    <path class="cls-3" d="M218,35.2s13-10.6,13.9-11.2.8,0,.8,0v3l12.7-9V0l-27.4,20.2"/>
    <path class="cls-2" d="M218,20.2L190.7,0v18s12.7,9,12.7,9v-3s0-.7.8,0l13.9,11.2"/>
    <polyline class="cls-3" points="218 60 245.4 38.3 245.4 63.7 257.4 54.7 257.4 15.7 218 45"/>
    <polyline class="cls-2" points="218 45 178.7 15.7 178.6 54 190.6 63.7 190.7 38.2 218 60"/>
    <polyline class="cls-2" points="218 85.5 200.4 71.2 200.4 57 218 71.2"/>
    <polyline class="cls-3" points="218 71.2 235.6 57 235.6 71.2 218 85.5"/>
    <path class="cls-1" d="M204.1,24"/>
    <text class="cls-4" transform="translate(-1.4 69.8)"><tspan x="0" y="0" xml:space="preserve">safe    zone</tspan></text>
  </g>
</svg>