<svg width="48" height="48" viewBox="0 0 48 48" fill="none" xmlns="http://www.w3.org/2000/svg">
<path d="M24.0002 4.80005C24.0002 4.80005 31.2002 9.60005 40.8002 9.60005C40.8002 36.0001 24.0002 43.2001 24.0002 43.2001C24.0002 43.2001 7.2002 36.0001 7.2002 9.60005C16.8002 9.60005 24.0002 4.80005 24.0002 4.80005Z" fill="#2271B1"/>
<path d="M35.5574 35.3684H36.3153V34.6105L36.3153 32.3368V34.6105V35.3684H37.0732L39.3469 35.3684H37.0732H36.3153V36.1263L36.3153 38.4V36.1263V35.3684H35.5574L33.2837 35.3684H35.5574ZM27.9784 35.3684C27.9784 39.9726 31.711 43.7052 36.3153 43.7052C40.9195 43.7052 44.6521 39.9727 44.6521 35.3684C44.6521 30.7641 40.9195 27.0315 36.3153 27.0315C31.711 27.0315 27.9784 30.7641 27.9784 35.3684Z" fill="#72AEE6" stroke="#E5EEF7" stroke-width="1.51579"/>
</svg>
