<svg width="16" height="12" viewBox="0 0 16 12" fill="none" xmlns="http://www.w3.org/2000/svg">
<g clip-path="url(#clip0_8_24127)">
<rect width="16" height="12" fill="white"/>
<path fill-rule="evenodd" clip-rule="evenodd" d="M0 0V12H16V0H0Z" fill="#5BA3DA"/>
<mask id="mask0_8_24127" style="mask-type:luminance" maskUnits="userSpaceOnUse" x="0" y="0" width="16" height="12">
<path fill-rule="evenodd" clip-rule="evenodd" d="M0 0V12H16V0H0Z" fill="white"/>
</mask>
<g mask="url(#mask0_8_24127)">
<path fill-rule="evenodd" clip-rule="evenodd" d="M2.7803 4.28984L0.242249 3.53561L2.83666 2.79649L3.47003 0.436432L4.20125 2.86859L6.60054 3.51045L4.19416 4.23355L3.47598 6.55786L2.7803 4.28984Z" fill="#EF2929"/>
<path fill-rule="evenodd" clip-rule="evenodd" d="M2.7803 4.28984L0.242249 3.53561L2.83666 2.79649L3.47003 0.436432L4.20125 2.86859L6.60054 3.51045L4.19416 4.23355L3.47598 6.55786L2.7803 4.28984Z" fill="#FF0000"/>
<path fill-rule="evenodd" clip-rule="evenodd" d="M16.0001 7H6.10352e-05V8.00006H16.0001V7ZM16.0001 9.00004H6.10352e-05V10.0001H16.0001V9.00004Z" fill="#FAD615"/>
</g>
</g>
<defs>
<clipPath id="clip0_8_24127">
<rect width="16" height="12" fill="white"/>
</clipPath>
</defs>
</svg>
