<svg width="16" height="12" viewBox="0 0 16 12" fill="none" xmlns="http://www.w3.org/2000/svg">
<g clip-path="url(#clip0_8_24068)">
<rect width="16" height="12" fill="white"/>
<path fill-rule="evenodd" clip-rule="evenodd" d="M11 0H16V12H11V0Z" fill="#2E42A5"/>
<path fill-rule="evenodd" clip-rule="evenodd" d="M5 0H11V12H5V0Z" fill="#FECA00"/>
<path fill-rule="evenodd" clip-rule="evenodd" d="M0 0H5V12H0V0Z" fill="#2E42A5"/>
<path fill-rule="evenodd" clip-rule="evenodd" d="M9.21711 7.63654C9.53351 6.98203 9.8985 5.78769 9.8985 5.78769L10.1754 4.96538L9.07787 5.36282L9.33761 5.51367C9.33761 5.51367 8.88493 6.41856 8.65694 6.86061C8.42894 7.30266 8.40637 7.01062 8.40637 7.01062L8.44538 3.92626L8.69729 3.85796L8.06948 2.65201L7.26852 3.87468L7.62145 3.88419C7.62145 3.88419 7.59211 7.1385 7.54306 7.01062C7.51568 6.93798 7.44284 7.16248 7.40734 7.07552C7.18483 6.53042 6.88051 5.47395 6.88051 5.47395L7.05858 5.30736L5.86444 5.06168L6.22095 5.79581C6.22095 5.79581 6.53533 7.10401 6.88051 7.7429C6.95824 7.94504 7.33381 8.03126 7.33381 8.03126C7.33381 8.03126 7.51719 7.84512 7.56262 8.03126C7.60804 8.2174 7.56262 8.96875 7.56262 8.96875H8.40637C8.40637 8.96875 8.34696 8.25994 8.40637 8.03126C8.46578 7.80258 8.64992 8.03126 8.64992 8.03126C8.64992 8.03126 9.13951 7.83868 9.21711 7.63654Z" fill="black"/>
</g>
<defs>
<clipPath id="clip0_8_24068">
<rect width="16" height="12" fill="white"/>
</clipPath>
</defs>
</svg>
