<svg width="16" height="12" viewBox="0 0 16 12" fill="none" xmlns="http://www.w3.org/2000/svg">
<g clip-path="url(#clip0_8_24042)">
<rect width="16" height="12" fill="white"/>
<path fill-rule="evenodd" clip-rule="evenodd" d="M0 0V12H16V0H0Z" fill="#279E19"/>
<mask id="mask0_8_24042" style="mask-type:luminance" maskUnits="userSpaceOnUse" x="0" y="0" width="16" height="12">
<path fill-rule="evenodd" clip-rule="evenodd" d="M0 0V12H16V0H0Z" fill="white"/>
</mask>
<g mask="url(#mask0_8_24042)">
<path fill-rule="evenodd" clip-rule="evenodd" d="M8 0H9V7H16V8H9V12H8V8H0V7H8V0Z" fill="#F7FCFF"/>
<path fill-rule="evenodd" clip-rule="evenodd" d="M7 0H8V6H16V7H8V12H7V7H0V6H7V0Z" fill="#272727"/>
<path fill-rule="evenodd" clip-rule="evenodd" d="M6 0H7V5H16V6H7V12H6V6H0V5H6V0Z" fill="#FECA00"/>
<path fill-rule="evenodd" clip-rule="evenodd" d="M8 10C10.2091 10 12 8.20914 12 6C12 3.79086 10.2091 2 8 2C5.79086 2 4 3.79086 4 6C4 8.20914 5.79086 10 8 10Z" fill="#C51918"/>
<path fill-rule="evenodd" clip-rule="evenodd" d="M7.36296 4.20648C7.36296 4.20648 7.55293 3.59001 7.99424 3.90849C8.68627 4.24934 8.91453 4.64092 9.1817 5.08438C9.44887 5.52783 8.52665 5.20306 8.35461 4.95347C8.18256 4.70388 7.22824 4.62296 7.36296 4.41472C7.49768 4.20648 7.36296 4.20648 7.36296 4.20648Z" fill="#804BFF"/>
<path fill-rule="evenodd" clip-rule="evenodd" d="M7.20654 7.36273C7.20654 7.36273 6.7367 8.00548 7.20654 8.00548C7.67639 8.00548 9.58124 7.8672 9.35292 7.68411C9.12461 7.50101 7.4323 7.68411 7.4323 7.68411L7.20654 7.36273Z" fill="#A95601"/>
<path fill-rule="evenodd" clip-rule="evenodd" d="M7.90898 7.34249C7.86026 7.28753 7.00418 5.34492 7.40221 4.94117C7.80024 4.53742 8.03349 4.77467 8.03349 5.38009C8.03349 5.98551 8.05742 7.49208 7.90898 7.34249Z" fill="#804BFF"/>
<path fill-rule="evenodd" clip-rule="evenodd" d="M7.85862 7.02723C7.85862 7.02723 7.80921 7.49942 8.05205 8.05065C8.29488 8.60189 8.78538 8.59126 8.78538 8.14009C8.78538 7.68891 9.14336 8.11232 9.28081 8.41344C9.41825 8.71455 9.0623 5.73959 8.55718 5.07403C8.05205 4.40846 7.56468 4.36573 7.71165 4.79583C7.85862 5.22592 7.85862 7.02723 7.85862 7.02723Z" fill="#279E19"/>
<path fill-rule="evenodd" clip-rule="evenodd" d="M7.56366 3.8C7.56366 3.8 7.34998 3.93702 7.34998 4.31443C7.34998 4.69183 7.8559 4.19758 7.8559 4.19758L7.56366 3.8Z" fill="#FECA00"/>
<path fill-rule="evenodd" clip-rule="evenodd" d="M7.60912 3.65677L8.04996 3.425L8.4908 3.65677L8.40661 3.16588L8.76325 2.81824L8.27038 2.74662L8.04996 2.3L7.82954 2.74662L7.33667 2.81824L7.69332 3.16588L7.60912 3.65677ZM7.60912 9.55676L8.04996 9.325L8.4908 9.55676L8.40661 9.06588L8.76325 8.71823L8.27038 8.64662L8.04996 8.2L7.82954 8.64662L7.33667 8.71823L7.69332 9.06588L7.60912 9.55676ZM10.4091 6.75676L10.4933 6.26588L10.1367 5.91823L10.6295 5.84661L10.85 5.39999L11.0704 5.84661L11.5632 5.91823L11.2066 6.26588L11.2908 6.75676L10.85 6.52499L10.4091 6.75676ZM4.70916 6.75676L5.15 6.52499L5.59084 6.75676L5.50665 6.26588L5.86329 5.91823L5.37042 5.84661L5.15 5.39999L4.92958 5.84661L4.43671 5.91823L4.79335 6.26588L4.70916 6.75676ZM6.23392 4.35099L6.0944 4.8291L5.79978 4.42755L5.30196 4.4426L5.59282 4.03831L5.42466 3.5695L5.89905 3.72119L6.29295 3.4164L6.29527 3.91445L6.70687 4.19488L6.23392 4.35099ZM10.3385 8.73002L10.478 8.25191L10.951 8.09579L10.5394 7.81536L10.537 7.31732L10.1431 7.62211L9.66876 7.47042L9.83692 7.93922L9.54606 8.34352L10.0439 8.32846L10.3385 8.73002ZM10.4089 4.29272L10.2694 4.77083L9.97476 4.36927L9.47694 4.38433L9.7678 3.98004L9.59964 3.51123L10.074 3.66292L10.4679 3.35813L10.4703 3.85617L10.8818 4.13661L10.4089 4.29272ZM6.21073 8.87103L6.35025 8.39292L6.82319 8.23681L6.4116 7.95638L6.40927 7.45833L6.01537 7.76312L5.54099 7.61143L5.70914 8.08024L5.41828 8.48453L5.9161 8.46947L6.21073 8.87103Z" fill="#FECA00"/>
</g>
</g>
<defs>
<clipPath id="clip0_8_24042">
<rect width="16" height="12" fill="white"/>
</clipPath>
</defs>
</svg>
