<svg width="16" height="12" viewBox="0 0 16 12" fill="none" xmlns="http://www.w3.org/2000/svg">
<g clip-path="url(#clip0_8_24137)">
<rect width="16" height="12" fill="white"/>
<path fill-rule="evenodd" clip-rule="evenodd" d="M0 0V12H16V0H0Z" fill="#C51918"/>
<mask id="mask0_8_24137" style="mask-type:luminance" maskUnits="userSpaceOnUse" x="0" y="0" width="16" height="12">
<path fill-rule="evenodd" clip-rule="evenodd" d="M0 0V12H16V0H0Z" fill="white"/>
</mask>
<g mask="url(#mask0_8_24137)">
<path fill-rule="evenodd" clip-rule="evenodd" d="M7 0H9V5H16V7H9V12H7V7H0V5H7V0Z" fill="#F7FCFF"/>
<rect width="7" height="5" fill="#4257BF"/>
<rect x="9" y="7" width="7" height="5" fill="#4257BF"/>
<path d="M6.81847 5.55536L7.3162 5.603C7.23101 6.49306 7.34171 6.86809 7.52161 6.86809V7.36809C6.89941 7.36809 6.70727 6.71718 6.81847 5.55536Z" fill="#309404"/>
<path d="M9.21333 5.55536L8.7156 5.603C8.80079 6.49306 8.69009 6.86809 8.51019 6.86809V7.36809C9.13239 7.36809 9.32453 6.71718 9.21333 5.55536Z" fill="#309404"/>
<rect x="7.36365" y="5.34615" width="0.472727" height="0.738462" fill="#003994"/>
<path d="M8.09094 6.22307H8.56367V6.59789C8.56367 6.79872 8.40086 6.96153 8.20003 6.96153H8.09094V6.22307Z" fill="#003994"/>
<rect x="8.05457" y="5.3" width="0.472727" height="0.738462" fill="#DE2110"/>
<path d="M7.36365 6.22307H7.83637V6.96153H7.72728C7.52645 6.96153 7.36365 6.79872 7.36365 6.59789V6.22307Z" fill="#DE2110"/>
<path d="M7.16726 5.30468L6.83282 4.93299C7.186 4.61521 7.55407 4.45 7.93315 4.45C8.31223 4.45 8.68031 4.61521 9.03348 4.93299L8.69905 5.30468C8.43157 5.06401 8.17757 4.95 7.93315 4.95C7.68874 4.95 7.43474 5.06401 7.16726 5.30468Z" fill="#00319C"/>
<path d="M7.20358 7.79699L6.86914 7.4253C7.22231 7.10752 7.59039 6.94231 7.96947 6.94231C8.34855 6.94231 8.71662 7.10752 9.0698 7.4253L8.73536 7.79699C8.46788 7.55632 8.21389 7.44231 7.96947 7.44231C7.72505 7.44231 7.47106 7.55632 7.20358 7.79699Z" fill="#DE2110"/>
</g>
</g>
<defs>
<clipPath id="clip0_8_24137">
<rect width="16" height="12" fill="white"/>
</clipPath>
</defs>
</svg>
