<svg width="16" height="12" viewBox="0 0 16 12" fill="none" xmlns="http://www.w3.org/2000/svg">
<g clip-path="url(#clip0_8_24045)">
<rect width="16" height="12" fill="white"/>
<path fill-rule="evenodd" clip-rule="evenodd" d="M0 0V12H16V0H0Z" fill="#2E42A5"/>
<mask id="mask0_8_24045" style="mask-type:luminance" maskUnits="userSpaceOnUse" x="0" y="0" width="16" height="12">
<path fill-rule="evenodd" clip-rule="evenodd" d="M0 0V12H16V0H0Z" fill="white"/>
</mask>
<g mask="url(#mask0_8_24045)">
<path fill-rule="evenodd" clip-rule="evenodd" d="M0 0V6H16V0H0Z" fill="#FECA00"/>
<path fill-rule="evenodd" clip-rule="evenodd" d="M0 9V12H16V9H0Z" fill="#E31D1C"/>
<path fill-rule="evenodd" clip-rule="evenodd" d="M4.60632 2.89596C4.54611 2.76016 6.86162 2.07297 7.03512 2.07297C7.20862 2.07297 7.42808 2.48447 7.42808 2.48447L8.83627 2.59837C8.83627 2.59837 8.66991 2.07297 8.83627 2.07297C9.00262 2.07297 11.5521 2.95855 11.5521 2.95855C11.5521 2.95855 8.36503 3.34272 8.36503 3.42922C8.36503 3.51572 8.5738 3.9906 8.5738 3.9906L7.98442 4.18373C7.98442 4.18373 8.01903 3.61144 7.92293 3.61144C7.82683 3.61144 7.54154 4.29593 7.54154 4.29593L7.26179 3.42922C7.26179 3.42922 4.66652 3.03176 4.60632 2.89596Z" fill="#7B2900"/>
<path d="M4.61629 5.00899L5.24667 5.15973C4.58712 7.91789 5.19674 9.24063 7.07389 9.36355L7.03154 10.0103C4.67914 9.85627 3.87461 8.11063 4.61629 5.00899Z" fill="#FECA00"/>
<path d="M5.00016 4.63719L5.64052 4.7374C5.18884 7.62376 5.55056 8.92887 6.56439 8.89316L6.58721 9.54091C4.96744 9.59795 4.49219 7.88324 5.00016 4.63719Z" fill="#07138E"/>
<path d="M5.64836 4.37248L6.28871 4.47269C5.83703 7.35905 6.19875 8.66416 7.21259 8.62845L7.2354 9.2762C5.61564 9.33324 5.14039 7.61853 5.64836 4.37248Z" fill="#E10001"/>
<path d="M6.85101 9.63672L7.49612 9.57399C7.54923 10.1202 7.50901 10.5912 7.37063 10.9866L6.75885 10.7726C6.8633 10.4741 6.89563 10.0955 6.85101 9.63672Z" fill="#07138E"/>
<path d="M10.7499 5.08435C10.7499 5.08435 11.7829 9.73074 8.59966 9.65032" stroke="#FECA00" stroke-width="0.648148"/>
<path d="M10.6812 4.63719L10.0408 4.7374C10.4925 7.62376 10.1308 8.92887 9.11694 8.89316L9.09413 9.54091C10.7139 9.59795 11.1891 7.88324 10.6812 4.63719Z" fill="#07138E"/>
<path d="M10.033 4.37248L9.39269 4.47269C9.84437 7.35905 9.48264 8.66416 8.46881 8.62845L8.446 9.2762C10.0658 9.33324 10.541 7.61853 10.033 4.37248Z" fill="#E10001"/>
<path d="M8.70426 9.64031L8.0599 9.57039C8.00578 10.0692 8.04696 10.5013 8.18903 10.8651L8.79279 10.6294C8.69203 10.3713 8.66066 10.0422 8.70426 9.64031Z" fill="#07138E"/>
<path fill-rule="evenodd" clip-rule="evenodd" d="M6.93329 8.75H8.87773V9.67647H6.93329V8.75Z" fill="#908F89"/>
<path d="M7.90553 9C8.45376 9 8.92729 8.69098 9.25417 8.23709C9.58131 7.78283 9.7759 7.16787 9.7759 6.5C9.7759 5.83213 9.58131 5.21717 9.25417 4.76291C8.92729 4.30902 8.45376 4 7.90553 4C7.3573 4 6.88376 4.30902 6.55688 4.76291C6.22974 5.21717 6.03516 5.83213 6.03516 6.5C6.03516 7.16787 6.22974 7.78283 6.55688 8.23709C6.88376 8.69098 7.3573 9 7.90553 9Z" stroke="#FEE901" stroke-width="0.5"/>
<mask id="mask1_8_24045" style="mask-type:luminance" maskUnits="userSpaceOnUse" x="5" y="3" width="6" height="7">
<path d="M7.90553 9C8.45376 9 8.92729 8.69098 9.25417 8.23709C9.58131 7.78283 9.7759 7.16787 9.7759 6.5C9.7759 5.83213 9.58131 5.21717 9.25417 4.76291C8.92729 4.30902 8.45376 4 7.90553 4C7.3573 4 6.88376 4.30902 6.55688 4.76291C6.22974 5.21717 6.03516 5.83213 6.03516 6.5C6.03516 7.16787 6.22974 7.78283 6.55688 8.23709C6.88376 8.69098 7.3573 9 7.90553 9Z" fill="white" stroke="white" stroke-width="0.5"/>
</mask>
<g mask="url(#mask1_8_24045)">
<path fill-rule="evenodd" clip-rule="evenodd" d="M9.07902 7.70251C9.07902 7.70251 8.29128 7.27385 8.06519 7.12105C7.83911 6.96825 7.96962 6.62736 7.58023 6.71847C7.19083 6.80958 6.878 6.96825 6.878 7.40324C6.878 7.83823 6.57228 8.09648 6.46809 7.79928C6.3639 7.50208 5.87397 6.11234 6.46809 6.11234C7.06221 6.11234 8.45093 6.42401 8.85973 6.42401C9.26852 6.42401 9.5065 6.63612 9.5065 7.01968C9.5065 7.53559 9.07902 7.70251 9.07902 7.70251Z" fill="#8DDD61"/>
<path fill-rule="evenodd" clip-rule="evenodd" d="M7.90556 5.44118C8.08454 5.44118 8.22963 5.29304 8.22963 5.1103C8.22963 4.92756 8.08454 4.77942 7.90556 4.77942C7.72657 4.77942 7.58148 4.92756 7.58148 5.1103C7.58148 5.29304 7.72657 5.44118 7.90556 5.44118Z" fill="#FEE901"/>
<path fill-rule="evenodd" clip-rule="evenodd" d="M6.83473 5.47025C6.83473 5.47025 7.21171 5.37907 7.7326 5.7301C8.2535 6.08112 9.5164 6.28101 9.5164 6.00555C9.5164 5.7301 9.5164 6.54212 9.5164 6.54212C9.5164 6.54212 6.71414 6.36765 6.56422 6.54212C6.4143 6.7166 6.39934 5.56776 6.56422 5.47025C6.7291 5.37274 6.83473 5.47025 6.83473 5.47025Z" fill="#F7FCFF"/>
</g>
</g>
</g>
<defs>
<clipPath id="clip0_8_24045">
<rect width="16" height="12" fill="white"/>
</clipPath>
</defs>
</svg>
