<svg width="16" height="12" viewBox="0 0 16 12" fill="none" xmlns="http://www.w3.org/2000/svg">
<g clip-path="url(#clip0_8_24048)">
<rect width="16" height="12" fill="white"/>
<path fill-rule="evenodd" clip-rule="evenodd" d="M0 0V12H16V0H0Z" fill="#FFB400"/>
<mask id="mask0_8_24048" style="mask-type:luminance" maskUnits="userSpaceOnUse" x="0" y="0" width="16" height="12">
<path fill-rule="evenodd" clip-rule="evenodd" d="M0 0V12H16V0H0Z" fill="white"/>
</mask>
<g mask="url(#mask0_8_24048)">
<path fill-rule="evenodd" clip-rule="evenodd" d="M0 0V3H16V0H0Z" fill="#C51918"/>
<path fill-rule="evenodd" clip-rule="evenodd" d="M0 9V12H16V9H0Z" fill="#C51918"/>
<rect x="2.504" y="5.136" width="0.56" height="2.912" fill="#F1F9FF"/>
<path fill-rule="evenodd" clip-rule="evenodd" d="M3.288 4.632H2.28V4.912H2.448V5.136H3.12V4.912H3.288V4.632Z" fill="#C88A02"/>
<path fill-rule="evenodd" clip-rule="evenodd" d="M3.12 8.216H3.288V8.496H2.28V8.216H2.448V7.992H3.12V8.216Z" fill="#C88A02"/>
<path fill-rule="evenodd" clip-rule="evenodd" d="M2.784 4.68801C2.90586 4.68801 2.91825 4.64212 2.99015 4.57358C3.04598 4.52036 3.176 4.45436 3.176 4.38001C3.176 4.2099 3.00049 4.07201 2.784 4.07201C2.5675 4.07201 2.392 4.2099 2.392 4.38001C2.392 4.46284 2.48154 4.51823 2.54924 4.57358C2.62057 4.6319 2.67293 4.68801 2.784 4.68801Z" fill="#AD1619"/>
<path fill-rule="evenodd" clip-rule="evenodd" d="M2.28 8.496H3.288V8.944C3.288 8.944 3.162 8.888 3.036 8.888C2.91 8.888 2.784 8.944 2.784 8.944C2.784 8.944 2.658 8.888 2.532 8.888C2.406 8.888 2.28 8.944 2.28 8.944V8.496Z" fill="#005BBF"/>
<mask id="mask1_8_24048" style="mask-type:luminance" maskUnits="userSpaceOnUse" x="2" y="8" width="2" height="1">
<path fill-rule="evenodd" clip-rule="evenodd" d="M2.28 8.496H3.288V8.944C3.288 8.944 3.162 8.888 3.036 8.888C2.91 8.888 2.784 8.944 2.784 8.944C2.784 8.944 2.658 8.888 2.532 8.888C2.406 8.888 2.28 8.944 2.28 8.944V8.496Z" fill="white"/>
</mask>
<g mask="url(#mask1_8_24048)">
</g>
<rect x="7.992" y="5.136" width="0.56" height="2.912" fill="#F1F9FF"/>
<path fill-rule="evenodd" clip-rule="evenodd" d="M8.77601 4.632H7.76801V4.912H7.93601V5.136H8.60801V4.912H8.77601V4.632Z" fill="#C88A02"/>
<path fill-rule="evenodd" clip-rule="evenodd" d="M8.60801 8.216H8.77601V8.496H7.76801V8.216H7.93601V7.992H8.60801V8.216Z" fill="#C88A02"/>
<path fill-rule="evenodd" clip-rule="evenodd" d="M8.272 4.68801C8.39387 4.68801 8.40626 4.64212 8.47815 4.57358C8.53398 4.52036 8.664 4.45436 8.664 4.38001C8.664 4.2099 8.4885 4.07201 8.272 4.07201C8.05551 4.07201 7.88 4.2099 7.88 4.38001C7.88 4.46284 7.96954 4.51823 8.03725 4.57358C8.10857 4.6319 8.16093 4.68801 8.272 4.68801Z" fill="#AD1619"/>
<path fill-rule="evenodd" clip-rule="evenodd" d="M7.76801 8.496H8.77601V8.944C8.77601 8.944 8.65001 8.888 8.52401 8.888C8.39801 8.888 8.27201 8.944 8.27201 8.944C8.27201 8.944 8.14601 8.888 8.02001 8.888C7.89401 8.888 7.76801 8.944 7.76801 8.944V8.496Z" fill="#005BBF"/>
<mask id="mask2_8_24048" style="mask-type:luminance" maskUnits="userSpaceOnUse" x="7" y="8" width="2" height="1">
<path fill-rule="evenodd" clip-rule="evenodd" d="M7.76801 8.496H8.77601V8.944C8.77601 8.944 8.65001 8.888 8.52401 8.888C8.39801 8.888 8.27201 8.944 8.27201 8.944C8.27201 8.944 8.14601 8.888 8.02001 8.888C7.89401 8.888 7.76801 8.944 7.76801 8.944V8.496Z" fill="white"/>
</mask>
<g mask="url(#mask2_8_24048)">
</g>
<path fill-rule="evenodd" clip-rule="evenodd" d="M2.49397 7.83997C2.59493 7.71757 2.65139 7.60621 2.65139 7.48794C2.65139 7.41337 2.6292 7.34896 2.59032 7.29634L2.59689 7.29339C2.59629 7.29366 2.70765 7.24512 2.74642 7.22653C2.8185 7.19197 2.882 7.15536 2.94391 7.11034C2.98343 7.08159 3.03639 7.05029 3.11712 7.00693L3.21347 6.95571C3.25271 6.93477 3.28193 6.91873 3.30907 6.90298C3.39365 6.85392 3.44955 6.81337 3.4923 6.75915C3.59356 6.63075 3.57254 6.45669 3.43064 6.36008C3.36112 6.31275 3.26731 6.28559 3.1298 6.26421L2.93312 6.23372C2.86731 6.22339 2.8086 6.21375 2.75624 6.2046C3.10052 6.14731 3.59214 6.16837 3.80839 6.28002L4.01392 5.88195C3.57325 5.65442 2.56918 5.67766 2.19412 5.93595C1.91902 6.12541 1.95593 6.41179 2.24216 6.53511C2.36176 6.58664 2.51767 6.62083 2.8062 6.66718C2.75785 6.69523 2.71776 6.72086 2.68041 6.74802C2.64253 6.77556 2.60195 6.79896 2.55273 6.82256C2.52919 6.83385 2.45949 6.86445 2.42753 6.87848L2.42751 6.87849L2.42751 6.8785L2.41145 6.88557C2.17831 6.99158 2.06516 7.13823 2.09897 7.40296L2.11727 7.54627L2.1501 7.55635L2.49397 7.83997ZM2.20578 7.46963L2.20507 7.47169L2.20561 7.47023L2.20578 7.46963ZM8.35297 7.48794C8.35297 7.60621 8.40943 7.71757 8.51039 7.83997L8.85425 7.55635L8.88709 7.54627L8.90539 7.40296C8.9392 7.13823 8.82605 6.99158 8.59291 6.88557L8.57685 6.87849C8.5449 6.86447 8.47518 6.83385 8.45163 6.82256C8.40241 6.79896 8.36182 6.77556 8.32395 6.74802C8.2866 6.72086 8.24651 6.69523 8.19816 6.66718C8.48668 6.62083 8.6426 6.58664 8.7622 6.53511C9.04843 6.41179 9.08534 6.12541 8.81024 5.93595C8.43518 5.67766 7.43111 5.65442 6.99044 5.88195L7.19597 6.28002C7.41222 6.16837 7.90384 6.14731 8.24812 6.2046C8.19576 6.21375 8.13705 6.22339 8.07124 6.23372L7.87456 6.26421C7.73705 6.28559 7.64324 6.31275 7.57372 6.36008C7.43182 6.45669 7.4108 6.63075 7.51206 6.75915C7.55481 6.81337 7.6107 6.85392 7.69529 6.90298C7.72243 6.91873 7.75165 6.93477 7.79089 6.95571L7.88724 7.00693C7.96797 7.05029 8.02093 7.08159 8.06045 7.11034C8.12236 7.15536 8.18586 7.19197 8.25794 7.22653C8.29671 7.24512 8.40807 7.29366 8.40747 7.29339L8.41404 7.29634C8.37516 7.34896 8.35297 7.41337 8.35297 7.48794Z" fill="#AD1619"/>
<path d="M2.96168 6.20001L3.12697 6.23421V6.48058C2.95092 6.62104 2.504 6.85779 2.504 6.85779V6.20001H2.96168Z" fill="#F1F9FF"/>
<path d="M8.15728 6.20001L7.99199 6.23421V6.48058C8.16804 6.62104 8.61496 6.85779 8.61496 6.85779V6.20001H8.15728Z" fill="#F1F9FF"/>
<path fill-rule="evenodd" clip-rule="evenodd" d="M7.38801 3.60298V3.52099C7.09997 3.31427 6.79833 3.21091 6.4831 3.21091C6.18088 3.07717 5.87499 3.02526 5.5654 3.05517C5.56549 3.05421 5.56553 3.05373 5.56553 3.05373C5.10004 3.00818 4.63093 3.21091 4.63093 3.21091C4.15807 3.21091 3.72601 3.52099 3.72601 3.52099V3.60298L4.29083 4.17025C4.29083 4.17025 4.44975 4.71605 5.56264 4.58799C5.56303 4.58886 5.56323 4.58931 5.56323 4.58931C5.56323 4.58931 6.30041 4.56919 6.3522 4.55196C6.37276 4.54512 6.39407 4.5389 6.41585 4.53254C6.56024 4.49038 6.72508 4.44226 6.82319 4.17025L7.38801 3.60298ZM5.56287 3.0845C5.56054 3.11201 5.55685 3.15681 5.55248 3.21408C5.55802 3.17304 5.56174 3.12998 5.56287 3.0845Z" fill="#AD1619"/>
<path fill-rule="evenodd" clip-rule="evenodd" d="M3.75989 3.69922L3.79826 3.65843L4.31111 4.14093C4.40846 4.11476 4.93687 3.9801 5.52711 3.97348V3.97322L5.54957 3.97329L5.57202 3.97322V3.97348C6.22597 3.98082 6.80402 4.14532 6.80402 4.14532C6.80402 4.14532 6.79783 4.19839 6.78278 4.26079C6.79871 4.22813 6.81758 4.19183 6.8394 4.15177L6.8448 4.14476L7.36172 3.65843L7.40009 3.69922L6.88644 4.18248C6.8115 4.32049 6.77376 4.41158 6.77376 4.44943C6.77376 4.50716 6.62357 4.54142 6.33044 4.57662C6.1008 4.60419 5.82978 4.62269 5.60809 4.62546V4.62582L5.57999 4.62573L5.55189 4.62582V4.62546C5.3302 4.62269 5.05918 4.60419 4.82954 4.57662C4.53641 4.54142 4.38622 4.50716 4.38622 4.44943C4.38622 4.44227 4.38487 4.4332 4.38217 4.42227C4.35261 4.38463 4.33183 4.32305 4.318 4.2675C4.30502 4.24153 4.2902 4.21316 4.27354 4.18248L3.75989 3.69922ZM6.62653 4.45052C6.66576 4.46888 6.69721 4.45057 6.72208 4.41541C6.71993 4.42512 6.71858 4.4339 6.71804 4.44176C6.71476 4.44391 6.70972 4.4465 6.70311 4.44928C6.68466 4.45703 6.65649 4.46529 6.61985 4.47365C6.54781 4.49009 6.44528 4.50642 6.32376 4.52101C6.08647 4.54951 5.80431 4.56825 5.57999 4.56973C5.35567 4.56825 5.07351 4.54951 4.83622 4.52101C4.7147 4.50642 4.61217 4.49009 4.54014 4.47365C4.50942 4.46665 4.48465 4.45971 4.46658 4.45308L4.47261 4.45052C4.59495 4.39328 5.40389 4.33956 5.54957 4.33029C5.69525 4.33956 6.50419 4.39328 6.62653 4.45052ZM6.7808 4.44026L6.77995 4.44124L6.78046 4.44053L6.7808 4.44026Z" fill="#C88A02"/>
<path fill-rule="evenodd" clip-rule="evenodd" d="M5.55612 2.67354C5.64891 2.67354 5.72412 2.59832 5.72412 2.50554C5.72412 2.41276 5.64891 2.33754 5.55612 2.33754C5.46334 2.33754 5.38812 2.41276 5.38812 2.50554C5.38812 2.59832 5.46334 2.67354 5.55612 2.67354Z" fill="#005BBF"/>
<path fill-rule="evenodd" clip-rule="evenodd" d="M5.49343 2.0383H5.6101V2.112H5.68633V2.22867H5.6101V2.462H5.68633V2.57867H5.41602V2.462H5.49343V2.22867H5.41602V2.112H5.49343V2.0383Z" fill="#C88A02"/>
<rect x="5.47202" y="2.672" width="0.224" height="0.728" fill="#C88A02"/>
<path d="M3.85388 3.64843L3.54626 3.63686C3.6914 2.79807 4.40619 2.38708 5.5484 2.38708C6.69209 2.38708 7.40435 2.79985 7.53857 3.64176L7.12253 3.6854C7.05721 3.2757 6.37098 2.90493 5.55441 2.90493C4.73636 2.90493 3.92531 3.23561 3.85388 3.64843Z" fill="#C88A02"/>
<path opacity="0.3" fill-rule="evenodd" clip-rule="evenodd" d="M3.73599 4.632H7.37599V7.90242C7.37599 7.90242 7.1056 9 5.55599 9C4.00638 9 3.73599 7.87348 3.73599 7.87348V4.632Z" fill="#E1E5E8"/>
<mask id="mask3_8_24048" style="mask-type:luminance" maskUnits="userSpaceOnUse" x="3" y="4" width="5" height="5">
<path fill-rule="evenodd" clip-rule="evenodd" d="M3.73599 4.632H7.37599V7.90242C7.37599 7.90242 7.1056 9 5.55599 9C4.00638 9 3.73599 7.87348 3.73599 7.87348V4.632Z" fill="white"/>
</mask>
<g mask="url(#mask3_8_24048)">
<rect x="3.73599" y="6.64801" width="1.848" height="2.184" fill="#FFC034"/>
<rect x="3.73599" y="4.576" width="1.848" height="2.128" fill="#AD1619"/>
<rect x="5.52798" y="6.59201" width="1.848" height="2.128" fill="#AD1619"/>
<rect x="5.52798" y="4.632" width="1.96" height="2.072" fill="#F1F9FF"/>
<path fill-rule="evenodd" clip-rule="evenodd" d="M6.74136 8.72135C6.74136 8.72135 5.55526 8.8146 5.55526 8.04962C5.55526 8.04962 5.54395 8.72135 4.30545 8.72135V9.32526H6.74136V8.72135Z" fill="#F1F9FF"/>
<path fill-rule="evenodd" clip-rule="evenodd" d="M5.55599 7.096C5.78795 7.096 5.97599 6.89542 5.97599 6.648C5.97599 6.40057 5.78795 6.2 5.55599 6.2C5.32403 6.2 5.13599 6.40057 5.13599 6.648C5.13599 6.89542 5.32403 7.096 5.55599 7.096Z" fill="#005BBF" stroke="#AD1619" stroke-width="0.583333"/>
</g>
<path fill-rule="evenodd" clip-rule="evenodd" d="M4.5 6C4.77614 6 5 5.77614 5 5.5C5 5.22386 4.77614 5 4.5 5C4.22386 5 4 5.22386 4 5.5C4 5.77614 4.22386 6 4.5 6Z" fill="#C88A02"/>
<path fill-rule="evenodd" clip-rule="evenodd" d="M6.5 6C6.77614 6 7 5.77614 7 5.5C7 5.22386 6.77614 5 6.5 5C6.22386 5 6 5.22386 6 5.5C6 5.77614 6.22386 6 6.5 6Z" fill="#C37C9C"/>
<path fill-rule="evenodd" clip-rule="evenodd" d="M6.5 8C6.77614 8 7 7.77614 7 7.5C7 7.22386 6.77614 7 6.5 7C6.22386 7 6 7.22386 6 7.5C6 7.77614 6.22386 8 6.5 8Z" fill="#FFC034"/>
<path d="M4.5 8C4.77614 8 5 7.77614 5 7.5C5 7.22386 4.77614 7 4.5 7C4.22386 7 4 7.22386 4 7.5C4 7.77614 4.22386 8 4.5 8Z" fill="#AD1619"/>
</g>
</g>
<defs>
<clipPath id="clip0_8_24048">
<rect width="16" height="12" fill="white"/>
</clipPath>
</defs>
</svg>
