<svg width="16" height="12" viewBox="0 0 16 12" fill="none" xmlns="http://www.w3.org/2000/svg">
<g clip-path="url(#clip0_8_24049)">
<rect width="16" height="12" fill="white"/>
<path fill-rule="evenodd" clip-rule="evenodd" d="M0 0V12H16V0H0Z" fill="#67BFE5"/>
<g clip-path="url(#clip1_8_24049)">
<rect width="9" height="7" fill="#2E42A5"/>
<path d="M-1.00214 6.49991L0.978339 7.36851L9.04494 0.944368L10.0896 -0.346397L7.97176 -0.636709L4.68159 2.13164L2.03334 3.99685L-1.00214 6.49991Z" fill="#F7FCFF"/>
<path d="M-0.731018 7.10847L0.277943 7.61253L9.71445 -0.466324H8.29775L-0.731018 7.10847Z" fill="#F50100"/>
<path d="M10.0021 6.49991L8.02166 7.36851L-0.0449371 0.944368L-1.08959 -0.346397L1.02824 -0.636709L4.31841 2.13164L6.96666 3.99685L10.0021 6.49991Z" fill="#F7FCFF"/>
<path d="M9.93457 6.93667L8.92561 7.44073L4.90745 3.98176L3.71615 3.59529L-1.1901 -0.341973H0.226597L5.13009 3.50184L6.43256 3.96525L9.93457 6.93667Z" fill="#F50100"/>
<path fill-rule="evenodd" clip-rule="evenodd" d="M4.99226 0H3.99226V3H0V4H3.99226V7H4.99226V4H9V3H4.99226V0Z" fill="#F50100"/>
<path fill-rule="evenodd" clip-rule="evenodd" d="M3.24226 -0.75H5.74226V2.25H9.75V4.75H5.74226V7.75H3.24226V4.75H-0.75V2.25H3.24226V-0.75ZM3.99226 3H0V4H3.99226V7H4.99226V4H9V3H4.99226V0H3.99226V3Z" fill="#F7FCFF"/>
</g>
<path fill-rule="evenodd" clip-rule="evenodd" d="M10 5H14.8276V9.16667C14.8276 9.16667 14.4228 11 12.4138 11C10.4048 11 10 9.16667 10 9.16667V5Z" fill="#F7FCFF"/>
<mask id="mask0_8_24049" style="mask-type:luminance" maskUnits="userSpaceOnUse" x="10" y="5" width="5" height="6">
<path fill-rule="evenodd" clip-rule="evenodd" d="M10 5H14.8276V9.16667C14.8276 9.16667 14.4228 11 12.4138 11C10.4048 11 10 9.16667 10 9.16667V5Z" fill="white"/>
</mask>
<g mask="url(#mask0_8_24049)">
<rect x="10" y="5" width="4.82759" height="1.5" fill="#C3352C"/>
<rect x="12.069" y="6.33334" width="0.689655" height="4.66667" fill="#C3352C"/>
<path fill-rule="evenodd" clip-rule="evenodd" d="M10 8.16666H14.8276V8.83333H10V8.16666Z" fill="#C3352C"/>
<path fill-rule="evenodd" clip-rule="evenodd" d="M11.2702 10.3685C11.5605 10.7789 11.7971 10.939 11.9643 10.6972C12.0818 10.5273 12.0939 10.3573 11.9265 10.3241C11.8294 10.2006 11.7608 10.1044 11.7217 10.0372L11.7273 10.032C11.7743 9.9863 11.776 9.92543 11.7668 9.90273C11.7633 9.87167 11.7865 9.82947 11.9374 9.71414C12.074 9.60967 12.1346 9.51132 12.0451 9.40298C11.998 9.34605 11.9557 9.33464 11.8223 9.31403L11.7813 9.30766C11.7418 9.30132 11.7131 9.29503 11.695 9.28959L11.6022 9.11178C11.4084 9.10586 11.257 9.14002 11.0913 9.20996C11.0199 9.24009 10.9718 9.26057 10.9398 9.27424C10.8909 9.29504 10.8791 9.30005 10.8788 9.29931C10.8786 9.29907 10.8797 9.29825 10.881 9.29718C10.8848 9.29414 10.8913 9.28906 10.882 9.28906C10.847 9.28906 10.8092 9.28513 10.7042 9.2718L10.6836 9.26919C10.3819 9.23129 10.3063 9.23247 10.2574 9.37297C10.183 9.58671 10.6235 9.9785 10.8573 10.0256C10.9745 10.0491 11.1147 10.1613 11.2702 10.3685ZM11.5984 10.0743C11.6267 10.0743 11.6486 10.0731 11.6679 10.0679L11.6737 10.0551C11.658 10.0658 11.6344 10.0743 11.5984 10.0743ZM10.497 9.48407C10.4909 9.47683 10.4892 9.46748 10.4935 9.45515C10.4926 9.45769 10.4954 9.46317 10.5013 9.47096C10.5071 9.47863 10.5158 9.48853 10.5269 9.50007C10.5135 9.49622 10.5031 9.49116 10.497 9.48407ZM10.9067 9.78049C10.8228 9.76362 10.6097 9.58626 10.5269 9.50007C10.5486 9.50629 10.5782 9.50931 10.61 9.51257C10.6239 9.51399 10.6382 9.51545 10.6525 9.51724L10.6727 9.51981C10.7907 9.53479 10.8318 9.53906 10.882 9.53906C10.9109 9.53906 10.9049 9.54903 10.9013 9.55509C10.9002 9.55695 10.8993 9.55845 10.8997 9.55916C10.9014 9.56201 10.9242 9.55234 11.0381 9.50397L11.0381 9.50397L11.1885 9.44027C11.2771 9.40289 11.3579 9.37868 11.4466 9.36779C11.4564 9.40966 11.4807 9.44752 11.5204 9.47832C11.5737 9.51962 11.6338 9.53698 11.7372 9.55379C11.6087 9.65957 11.5441 9.74808 11.5238 9.83438C11.4081 9.87096 11.4187 10.0013 11.488 10.1315C11.5364 10.2223 11.6278 10.351 11.7638 10.5212L11.8615 10.5682C11.8326 10.5682 11.8165 10.555 11.8043 10.545C11.7889 10.5323 11.7796 10.5247 11.7586 10.555C11.7572 10.5571 11.6663 10.4955 11.4723 10.2213C11.2812 9.96677 11.096 9.81859 10.9067 9.78049ZM11.5164 9.9303C11.5181 9.92884 11.5179 9.92689 11.5177 9.92494L11.5177 9.92489L11.5164 9.9303ZM11.5963 9.82432L11.5888 9.82442L11.5923 9.82469C11.5937 9.82446 11.595 9.82436 11.5963 9.82432ZM11.5984 9.82429C11.5977 9.82429 11.597 9.8243 11.5963 9.82432L11.5984 9.82429Z" fill="#979797"/>
<path d="M10.8275 8.05509C10.8275 8.05509 10.589 7.72508 10.589 7.60744" stroke="#964C36" stroke-width="0.5"/>
<path d="M10.6794 7.77142C10.6794 7.77142 10.3744 7.64116 10.3744 7.77142" stroke="#2A8E51" stroke-width="0.5"/>
<path d="M10.6744 7.63444C10.6744 7.63444 10.4599 7.36153 10.2986 7.36153C10.1374 7.36153 10.1412 7.49799 10.1412 7.49799" stroke="#2A8E51" stroke-width="0.5"/>
<path d="M10.552 7.36099C10.552 7.36099 10.4563 6.9146 10.303 6.9146C10.1497 6.9146 10.1497 7.13779 10.1497 7.13779" stroke="#2A8E51" stroke-width="0.5"/>
<path d="M10.5907 7.36011C10.5907 7.36011 10.548 6.97755 10.7454 6.97755" stroke="#2A8E51" stroke-width="0.5"/>
<path d="M11.1305 7.99056C11.1305 7.99056 11.0192 7.59886 11.0594 7.48831" stroke="#964C36" stroke-width="0.5"/>
<path d="M11.0884 7.67332C11.0884 7.67332 10.8463 7.4466 10.8018 7.56901" stroke="#2A8E51" stroke-width="0.5"/>
<path d="M11.1305 7.5429C11.1305 7.5429 11.0223 7.21308 10.8707 7.15792C10.7192 7.10276 10.6761 7.2323 10.6761 7.2323" stroke="#2A8E51" stroke-width="0.5"/>
<path d="M11.109 7.24406C11.109 7.24406 11.1717 6.79186 11.0277 6.73942C10.8836 6.68699 10.8073 6.89672 10.8073 6.89672" stroke="#2A8E51" stroke-width="0.5"/>
<path d="M11.1457 7.25649C11.1457 7.25649 11.2364 6.8824 11.4219 6.94992" stroke="#2A8E51" stroke-width="0.5"/>
<path d="M11.376 8.13006C11.376 8.13006 11.5342 7.75484 11.5078 7.64021" stroke="#964C36" stroke-width="0.35"/>
<path d="M11.4565 7.82032C11.4565 7.82032 11.7244 7.6248 11.7537 7.75171" stroke="#2A8E51" stroke-width="0.35"/>
<path d="M11.4306 7.68574C11.4306 7.68574 11.5782 7.37157 11.7354 7.33528C11.8925 7.299 11.9195 7.43283 11.9195 7.43283" stroke="#2A8E51" stroke-width="0.35"/>
<path d="M11.4884 7.39175C11.4884 7.39175 11.4813 6.93528 11.6306 6.90079C11.78 6.8663 11.8302 7.08377 11.8302 7.08377" stroke="#2A8E51" stroke-width="0.35"/>
<path d="M11.4504 7.39961C11.4504 7.39961 11.406 7.01726 11.2136 7.06166" stroke="#2A8E51" stroke-width="0.35"/>
<path d="M13.349 7.90091C13.349 7.90091 13.47 7.34418 13.8143 7.34418C14.1586 7.34418 14.3127 7.93239 14.3127 7.93239" stroke="#2A8E51" stroke-width="0.35"/>
<path d="M13.0646 7.52083C13.0646 7.52083 13.2501 7.19198 13.862 7.21887C14.4739 7.24576 14.5854 7.52083 14.5854 7.52083" stroke="#2A8E51" stroke-width="0.35"/>
<path d="M12.941 7.10266C12.941 7.10266 13.2771 6.68631 13.7482 7.03922L13.9078 7.10266C13.9078 7.10266 14.0678 6.63083 14.841 7.10266" stroke="#2A8E51" stroke-width="0.35"/>
<path d="M13.8692 8.01847C13.8692 8.01847 13.8938 7.49883 13.9762 7.3561" stroke="#964C36" stroke-width="0.5"/>
<path d="M14.5494 9.15695C14.5494 9.15695 14.2403 9.0116 14.1478 9.15695C14.0554 9.30231 12.9414 10.6379 12.9414 10.6379" stroke="#964C36" stroke-width="0.5"/>
<path fill-rule="evenodd" clip-rule="evenodd" d="M13.4821 9.2976L14.1725 9.78022C14.1725 9.78022 14.4903 9.55355 14.3314 9.42557C14.1725 9.2976 13.7396 9.07196 13.7396 9.07196L13.4821 9.2976Z" fill="#FFF203"/>
<path fill-rule="evenodd" clip-rule="evenodd" d="M13.4583 9.32227C13.4583 9.32227 13.2984 9.48972 13.2984 9.61769C13.2984 9.74566 13.1495 10.0887 13.1495 10.0887C13.1495 10.0887 13.5657 10.3449 13.6522 10.1817C13.7386 10.0185 14.2999 10.1162 14.2009 9.86697C14.1019 9.61769 13.4583 9.32227 13.4583 9.32227Z" fill="#00A651"/>
<path fill-rule="evenodd" clip-rule="evenodd" d="M10.5282 5.59115C10.5282 5.59115 10.8968 5.40198 11.0793 5.59115C11.2618 5.78032 11.4113 5.57548 11.4113 5.46137C11.4113 5.34725 11.7011 4.95552 11.7011 5.27333C11.7011 5.59115 11.6109 5.77059 11.8655 5.77059C12.1202 5.77059 13.2671 5.33158 13.5421 5.46137C13.8171 5.59115 14.0276 5.55887 13.9577 5.37265C13.8878 5.18643 13.7081 5.07005 13.3621 5.17169C13.0161 5.27333 13.0978 5.37265 12.7988 5.37265C12.4998 5.37265 12.167 5.27333 12.167 5.27333C12.167 5.27333 12.2604 5.10634 12.6018 5.22512C12.9432 5.34391 13.4141 5.07801 13.5421 5.07801C13.6702 5.07801 14.0226 5.07005 14.0576 5.17169C14.0925 5.27333 14.3053 5.36661 14.1431 5.46137C13.9809 5.55612 13.7134 5.61548 13.8974 5.73689C14.0815 5.85829 14.5047 5.83489 14.5251 5.96118C14.5455 6.08746 14.7461 6.27605 14.6656 6.27605C14.5851 6.27605 14.4396 6.4539 14.3041 6.39975C14.1686 6.34559 14.1527 6.29804 14.2826 6.25417C14.4125 6.2103 14.4113 6.02581 14.3041 6.02581C14.197 6.02581 14.2493 6.09045 14.0053 6.02581C13.7613 5.96118 13.4385 5.88932 13.4579 6.02581C13.4773 6.16231 13.6361 6.37182 13.3431 6.39975C13.05 6.42767 12.9129 6.53978 12.8558 6.4495C12.7988 6.35922 12.5949 6.23892 12.7552 6.20034C12.9155 6.16177 13.0687 6.33146 13.1265 6.30375C13.1842 6.27605 13.3151 6.26062 13.2055 6.14322C13.0959 6.02581 12.9151 5.9567 13.0827 5.86882C13.2502 5.78094 13.118 5.77914 12.7988 5.96118C12.4796 6.14322 12.302 6.29792 12.0217 6.27605C11.7415 6.25417 11.6365 6.28368 11.5464 6.25417C11.4564 6.22466 11.0177 6.58021 10.8913 6.48998C10.765 6.39975 10.3572 6.36513 10.4306 6.25417C10.504 6.14322 10.6026 6.08609 10.7124 6.14322C10.8221 6.20034 10.9312 6.25747 11.0053 6.20034C11.0793 6.14322 11.2931 5.9472 11.2393 5.90801C11.1855 5.86882 11.2376 5.73689 10.9331 5.73689C10.6286 5.73689 10.5215 5.88392 10.4492 5.79128C10.377 5.69863 10.5282 5.59115 10.5282 5.59115Z" fill="#FFD100"/>
</g>
</g>
<defs>
<clipPath id="clip0_8_24049">
<rect width="16" height="12" fill="white"/>
</clipPath>
<clipPath id="clip1_8_24049">
<rect width="9" height="7" fill="white"/>
</clipPath>
</defs>
</svg>
