<svg width="16" height="12" viewBox="0 0 16 12" fill="none" xmlns="http://www.w3.org/2000/svg">
<g clip-path="url(#clip0_8_24253)">
<rect width="16" height="12" fill="white"/>
<path fill-rule="evenodd" clip-rule="evenodd" d="M0 0V12H16V0H0Z" fill="#2E42A5"/>
<g clip-path="url(#clip1_8_24253)">
<rect width="9" height="7" fill="#2E42A5"/>
<path d="M-1.00214 6.49991L0.978339 7.36851L9.04494 0.944368L10.0896 -0.346397L7.97176 -0.636709L4.68159 2.13164L2.03334 3.99685L-1.00214 6.49991Z" fill="#F7FCFF"/>
<path d="M-0.731018 7.10847L0.277943 7.61253L9.71445 -0.466324H8.29775L-0.731018 7.10847Z" fill="#F50100"/>
<path d="M10.0021 6.49991L8.02166 7.36851L-0.0449371 0.944368L-1.08959 -0.346397L1.02824 -0.636709L4.31841 2.13164L6.96666 3.99685L10.0021 6.49991Z" fill="#F7FCFF"/>
<path d="M9.93457 6.93667L8.92561 7.44073L4.90745 3.98176L3.71615 3.59529L-1.1901 -0.341973H0.226597L5.13009 3.50184L6.43256 3.96525L9.93457 6.93667Z" fill="#F50100"/>
<path fill-rule="evenodd" clip-rule="evenodd" d="M4.99226 0H3.99226V3H0V4H3.99226V7H4.99226V4H9V3H4.99226V0Z" fill="#F50100"/>
<path fill-rule="evenodd" clip-rule="evenodd" d="M3.24226 -0.75H5.74226V2.25H9.75V4.75H5.74226V7.75H3.24226V4.75H-0.75V2.25H3.24226V-0.75ZM3.99226 3H0V4H3.99226V7H4.99226V4H9V3H4.99226V0H3.99226V3Z" fill="#F7FCFF"/>
</g>
<path d="M11.4816 9.19685C11.4816 9.19685 11.9736 9.66809 11.6765 9.98737C11.3794 10.3067 11.1071 10.1212 11.1071 10.1212" stroke="#B85F3C" stroke-width="0.5"/>
<path d="M14.5249 9.19685C14.5249 9.19685 14.0329 9.66809 14.33 9.98737C14.6271 10.3067 14.8995 10.1212 14.8995 10.1212" stroke="#B85F3C" stroke-width="0.5"/>
<path d="M11.1603 9.57658C11.1603 9.57658 12.0079 10.3866 13.0499 10.3866C14.0919 10.3866 14.9304 9.76776 14.9304 9.76776" stroke="#CB8B73" stroke-width="0.5"/>
</g>
<defs>
<clipPath id="clip0_8_24253">
<rect width="16" height="12" fill="white"/>
</clipPath>
<clipPath id="clip1_8_24253">
<rect width="9" height="7" fill="white"/>
</clipPath>
</defs>
</svg>
