<svg width="16" height="12" viewBox="0 0 16 12" fill="none" xmlns="http://www.w3.org/2000/svg">
<g clip-path="url(#clip0_8_24055)">
<rect width="16" height="12" fill="white"/>
<path fill-rule="evenodd" clip-rule="evenodd" d="M0 0H16V11C16 11.5523 15.5523 12 15 12H1C0.447715 12 0 11.5523 0 11V0Z" fill="#C51918"/>
<path fill-rule="evenodd" clip-rule="evenodd" d="M3 3H13V9H3V3Z" fill="#FECA00"/>
<mask id="mask0_8_24055" style="mask-type:luminance" maskUnits="userSpaceOnUse" x="3" y="3" width="10" height="6">
<path fill-rule="evenodd" clip-rule="evenodd" d="M3 3H13V9H3V3Z" fill="white"/>
</mask>
<g mask="url(#mask0_8_24055)">
<path fill-rule="evenodd" clip-rule="evenodd" d="M3 3L8 6L3 9V3Z" fill="#23875F"/>
<path fill-rule="evenodd" clip-rule="evenodd" d="M13 3L8 6L13 9V3Z" fill="#23875F"/>
<mask id="mask1_8_24055" style="mask-type:luminance" maskUnits="userSpaceOnUse" x="8" y="3" width="5" height="6">
<path fill-rule="evenodd" clip-rule="evenodd" d="M13 3L8 6L13 9V3Z" fill="white"/>
</mask>
<g mask="url(#mask1_8_24055)">
</g>
<path fill-rule="evenodd" clip-rule="evenodd" d="M8 8C9.10457 8 10 7.10457 10 6C10 4.89543 9.10457 4 8 4C6.89543 4 6 4.89543 6 6C6 7.10457 6.89543 8 8 8Z" fill="#C51918"/>
<path fill-rule="evenodd" clip-rule="evenodd" d="M7.96473 6.65664L6.92927 7.37486L7.26014 6.14472L6.5 5.35891L7.52927 5.31642L7.96473 4.10001L8.40019 5.31642H9.42771L8.66932 6.14472L9.04913 7.30225L7.96473 6.65664Z" fill="#FECA00"/>
</g>
<path fill-rule="evenodd" clip-rule="evenodd" d="M4.38833 2.22102L4.95422 1.87012L5.54685 2.18554L5.33928 1.62001L5.75374 1.21533H5.1922L4.95422 0.621017L4.71623 1.21533L4.15374 1.23608L4.56915 1.62001L4.38833 2.22102ZM7.38833 2.22102L7.95422 1.87012L8.54685 2.18554L8.33928 1.62001L8.75374 1.21533H8.1922L7.95422 0.621017L7.71623 1.21533L7.15374 1.23608L7.56915 1.62001L7.38833 2.22102ZM10.9542 1.87012L10.3883 2.22102L10.5692 1.62001L10.1537 1.23608L10.7162 1.21533L10.9542 0.621017L11.1922 1.21533H11.7537L11.3393 1.62001L11.5468 2.18554L10.9542 1.87012ZM4.38786 11.0836L4.95374 10.7327L5.54637 11.0481L5.3388 10.4826L5.75326 10.0779H5.19172L4.95374 9.48358L4.71576 10.0779L4.15326 10.0986L4.56868 10.4826L4.38786 11.0836ZM7.95374 10.7327L7.38786 11.0836L7.56868 10.4826L7.15326 10.0986L7.71576 10.0779L7.95374 9.48358L8.19172 10.0779H8.75326L8.3388 10.4826L8.54637 11.0481L7.95374 10.7327ZM10.3879 11.0836L10.9537 10.7327L11.5464 11.0481L11.3388 10.4826L11.7533 10.0779H11.1917L10.9537 9.48358L10.7158 10.0779L10.1533 10.0986L10.5687 10.4826L10.3879 11.0836Z" fill="#FECA00"/>
<path fill-rule="evenodd" clip-rule="evenodd" d="M4.31737 6.386C4.31737 6.386 4.58665 6.62572 4.73331 6.70734C4.78388 6.51568 4.67105 6.08146 4.67105 6.08146C4.63939 5.97766 4.29214 5.79157 4.29214 5.79157C4.29214 5.79157 4.19461 6.11925 4.31737 6.386Z" fill="#C51918"/>
<path fill-rule="evenodd" clip-rule="evenodd" d="M4.5979 6.96509C4.5979 6.96509 3.90628 6.64206 3.836 6.18516C3.76572 5.72826 3.91477 4.99988 3.91477 4.99988C3.91477 4.99988 5.03787 5.25546 5.11428 5.80306C5.19069 6.35067 4.93702 6.69468 4.93702 6.69468C4.93702 6.69468 4.67725 6.02714 4.43211 5.95309C4.43211 5.95309 4.43211 6.61467 4.5979 6.96509Z" fill="#FECA00"/>
</g>
<defs>
<clipPath id="clip0_8_24055">
<rect width="16" height="12" fill="white"/>
</clipPath>
</defs>
</svg>
