<svg width="16" height="12" viewBox="0 0 16 12" fill="none" xmlns="http://www.w3.org/2000/svg">
<g clip-path="url(#clip0_8_24142)">
<rect width="16" height="12" fill="white"/>
<rect width="16" height="12" fill="#F7FCFF"/>
<path fill-rule="evenodd" clip-rule="evenodd" d="M0 8H16V12H0V8Z" fill="#C51918"/>
<path fill-rule="evenodd" clip-rule="evenodd" d="M8.22899 0.633335H7.28162V1.48095H7.74924L7.71588 3.81191H6.33426V2.75238H6.80794V1.90476H5.86057V2.32857H5.38689V1.90476H4.43952V2.75238H4.9132V3.81191H3.91428V4.65953L4.38796 4.65953V7.20238H3.91428V8.05H12.9143V7.20238H11.9669V4.65953H12.9143V3.81191H11.9857L12.0091 2.75238H12.4922V1.90476H11.5448V2.32857H11.0711V1.90476H10.1237V2.75238H10.588L10.5646 3.81191H9.13693L9.1703 1.48095H9.65005V0.633335H8.70268V1.05714H8.22899V0.633335Z" fill="#DB000B"/>
<path fill-rule="evenodd" clip-rule="evenodd" d="M5.80792 6.84516C5.80792 6.53995 6.05534 6.29253 6.36055 6.29253C6.66576 6.29253 6.91319 6.53995 6.91319 6.84516V7.75919H5.80792V6.84516Z" fill="#272727"/>
<path fill-rule="evenodd" clip-rule="evenodd" d="M9.86057 6.84516C9.86057 6.53995 10.108 6.29253 10.4132 6.29253C10.7184 6.29253 10.9658 6.53995 10.9658 6.84516V7.75919H9.86057V6.84516Z" fill="#272727"/>
<path fill-rule="evenodd" clip-rule="evenodd" d="M7.65005 6.6627C7.65005 6.25576 7.97995 5.92586 8.3869 5.92586C8.79384 5.92586 9.12374 6.25576 9.12374 6.6627V8.12586H7.65005V6.6627Z" fill="#272727"/>
<path fill-rule="evenodd" clip-rule="evenodd" d="M8.66118 7.59864L8.57077 7.76462L8.40241 7.5134L7.02298 8.43788L8.56092 9.16979L9.91729 8.28283L8.66118 7.59864ZM8.03131 8.36401L8.47505 8.06662L8.94385 8.32197L8.52226 8.59765L8.03131 8.36401Z" fill="#E8AA00"/>
<path fill-rule="evenodd" clip-rule="evenodd" d="M7.57895 10.2667H8.31579V11H7.57895V10.2667Z" fill="#E8AA00"/>
<path fill-rule="evenodd" clip-rule="evenodd" d="M8 9H8.87441V11H8V9Z" fill="#E8AA00"/>
</g>
<defs>
<clipPath id="clip0_8_24142">
<rect width="16" height="12" fill="white"/>
</clipPath>
</defs>
</svg>
