<svg width="16" height="12" viewBox="0 0 16 12" fill="none" xmlns="http://www.w3.org/2000/svg">
<g clip-path="url(#clip0_8_24244)">
<rect width="16" height="12" fill="white"/>
<path fill-rule="evenodd" clip-rule="evenodd" d="M0 0V12.288H16.384V0H0Z" fill="#F7FCFF"/>
<mask id="mask0_8_24244" style="mask-type:luminance" maskUnits="userSpaceOnUse" x="0" y="0" width="17" height="13">
<path fill-rule="evenodd" clip-rule="evenodd" d="M0 0V12.288H16.384V0H0Z" fill="white"/>
</mask>
<g mask="url(#mask0_8_24244)">
<path fill-rule="evenodd" clip-rule="evenodd" d="M0 0V4.096H16.384V0H0Z" fill="#009D00"/>
<path fill-rule="evenodd" clip-rule="evenodd" d="M0 4.096V8.192H16.384V4.096H0Z" fill="white"/>
<path fill-rule="evenodd" clip-rule="evenodd" d="M0 8.192V12.288H16.384V8.192H0Z" fill="#F80000"/>
</g>
<path fill-rule="evenodd" clip-rule="evenodd" d="M0 0V12.288L4.096 6.2218L0 0Z" fill="#0075D5"/>
<mask id="mask1_8_24244" style="mask-type:luminance" maskUnits="userSpaceOnUse" x="0" y="0" width="5" height="13">
<path fill-rule="evenodd" clip-rule="evenodd" d="M0 0V12.288L4.096 6.2218L0 0Z" fill="white"/>
</mask>
<g mask="url(#mask1_8_24244)">
</g>
<path d="M7.46044 4.55019L7.46297 4.56137L7.44696 4.54658L7.34441 4.45184L7.3316 4.59086L7.34301 4.59191L7.32399 4.60257L7.20221 4.67082L7.33046 4.72597L7.33499 4.71545L7.33924 4.73682L7.36652 4.87374L7.4586 4.7688L7.44999 4.76125L7.47164 4.7638L7.61028 4.78017L7.53894 4.66017L7.52909 4.66602L7.53821 4.64622L7.59662 4.51942L7.46044 4.55019Z" fill="#FFD500" stroke="black" stroke-width="0.03"/>
<path d="M7.97247 4.55019L7.97499 4.56137L7.95898 4.54658L7.85644 4.45184L7.84362 4.59086L7.85503 4.59191L7.83602 4.60257L7.71423 4.67082L7.84248 4.72597L7.84701 4.71545L7.85127 4.73682L7.87855 4.87374L7.97063 4.7688L7.96202 4.76125L7.98366 4.7638L8.12231 4.78017L8.05096 4.66017L8.04111 4.66602L8.05023 4.64622L8.10864 4.51942L7.97247 4.55019Z" fill="#FFD500" stroke="black" stroke-width="0.03"/>
<path d="M8.48443 4.55019L8.48696 4.56137L8.47095 4.54658L8.3684 4.45184L8.35558 4.59086L8.36699 4.59191L8.34798 4.60257L8.22619 4.67082L8.35445 4.72597L8.35897 4.71545L8.36323 4.73682L8.39051 4.87374L8.48259 4.7688L8.47398 4.76125L8.49562 4.7638L8.63427 4.78017L8.56293 4.66017L8.55308 4.66602L8.5622 4.64622L8.6206 4.51942L8.48443 4.55019Z" fill="#FFD500" stroke="black" stroke-width="0.03"/>
<path d="M8.99645 4.55019L8.99898 4.56137L8.98297 4.54658L8.88042 4.45184L8.86761 4.59086L8.87902 4.59191L8.86 4.60257L8.73822 4.67082L8.86647 4.72597L8.871 4.71545L8.87526 4.73682L8.90253 4.87374L8.99462 4.7688L8.986 4.76125L9.00765 4.7638L9.14629 4.78017L9.07495 4.66017L9.0651 4.66602L9.07422 4.64622L9.13263 4.51942L8.99645 4.55019Z" fill="#FFD500" stroke="black" stroke-width="0.03"/>
<path d="M9.50842 4.55019L9.51094 4.56137L9.49493 4.54658L9.39239 4.45184L9.37957 4.59086L9.39098 4.59191L9.37197 4.60257L9.25018 4.67082L9.37843 4.72597L9.38296 4.71545L9.38722 4.73682L9.4145 4.87374L9.50658 4.7688L9.49797 4.76125L9.51961 4.7638L9.65826 4.78017L9.58691 4.66017L9.57706 4.66602L9.58618 4.64622L9.64459 4.51942L9.50842 4.55019Z" fill="#FFD500" stroke="black" stroke-width="0.03"/>
<path d="M10.0204 4.55019L10.023 4.56137L10.007 4.54658L9.90441 4.45184L9.89159 4.59086L9.903 4.59191L9.88399 4.60257L9.7622 4.67082L9.89046 4.72597L9.89498 4.71545L9.89924 4.73682L9.92652 4.87374L10.0186 4.7688L10.01 4.76125L10.0316 4.7638L10.1703 4.78017L10.0989 4.66017L10.0891 4.66602L10.0982 4.64622L10.1566 4.51942L10.0204 4.55019Z" fill="#FFD500" stroke="black" stroke-width="0.03"/>
<path d="M7.70999 5.15H9.69799V6.656C9.69799 7.20497 9.25296 7.65 8.70399 7.65C8.15502 7.65 7.70999 7.20497 7.70999 6.656V5.15Z" stroke="#373737" stroke-width="0.06"/>
<path fill-rule="evenodd" clip-rule="evenodd" d="M8.56389 6.12343C8.56389 6.12343 8.46061 7.33445 8.35752 7.40784C8.25442 7.48124 8.85156 7.51789 8.90862 7.46287C8.96568 7.40784 8.64821 6.42101 8.75742 6.12343C8.86663 5.82585 9.04253 5.80173 9.04253 5.80173C9.04253 5.80173 8.82079 5.75486 8.75742 5.84416C8.69406 5.93345 8.50507 5.80173 8.50507 5.80173L8.56389 6.12343Z" fill="#6F3E1D"/>
<path fill-rule="evenodd" clip-rule="evenodd" d="M8.54131 6.055H8.46185C8.46185 6.055 8.40805 6.2653 8.28466 6.16015C8.16127 6.055 7.98718 6.09207 7.98718 6.09207C7.98718 6.09207 8.00279 5.96622 8.19225 5.91619C8.3817 5.86616 8.46185 5.45993 8.46185 5.45993C8.46185 5.45993 8.72995 5.36013 8.89305 5.56464C9.05615 5.76915 9.28592 5.6819 9.28592 5.6819C9.28592 5.6819 9.45386 5.77739 9.36989 5.91619C9.28592 6.055 9.14268 6.15654 9.01786 6.055C8.89305 5.95346 8.54131 6.055 8.54131 6.055Z" fill="#009D29"/>
</g>
<defs>
<clipPath id="clip0_8_24244">
<rect width="16" height="12" fill="white"/>
</clipPath>
</defs>
</svg>
