<svg width="16" height="12" viewBox="0 0 16 12" fill="none" xmlns="http://www.w3.org/2000/svg">
<g clip-path="url(#clip0_8_24061)">
<rect width="16" height="12" fill="white"/>
<path fill-rule="evenodd" clip-rule="evenodd" d="M0 0H16V12H0V0Z" fill="#2B409A"/>
<path d="M11.7518 3.41211C11.7518 3.41211 11.5305 3.12109 11.5305 3.05468" stroke="#CDAD56" stroke-width="0.25" stroke-linecap="round"/>
<path d="M11.9305 3.41211C11.9305 3.41211 12.1518 3.12109 12.1518 3.05468" stroke="#CDAD56" stroke-width="0.25" stroke-linecap="round"/>
<path d="M12.159 9.27572C12.1282 9.27572 12.0168 9.21567 12.0168 9.21567C12.0168 9.21567 11.936 9.34348 11.8937 9.35087C11.8514 9.35842 11.6323 9.27211 11.6323 9.27211C11.6323 9.27211 11.4785 9.39222 11.4439 9.38467C11.4093 9.37729 11.0556 9.30214 11.0556 9.30214L10.8633 9.18187C10.8633 9.18187 10.7557 9.35465 10.7518 9.35087C10.748 9.3471 10.4289 9.28704 10.4289 9.28704C10.4289 9.28704 10.525 9.15561 10.525 9.15184C10.525 9.14807 10.4789 9.13297 10.4789 9.13297L10.4097 9.18941L10.1252 9.21567L10.1944 9.02025L10.3059 8.85502L11.6707 7.55878L12.3435 8.77232L12.2436 9.13675C12.2436 9.13675 12.1897 9.27572 12.159 9.27572Z" fill="#6A4C2D"/>
<path d="M10.8552 9.03044C10.9028 9.08793 11.529 9.72807 11.6305 10.0309C11.732 10.3338 10.807 9.94692 10.807 9.94692C10.807 9.94692 11.9718 9.19035 12.5537 9.19035C13.1355 9.19035 14.2791 9.94692 14.2791 9.94692C14.2791 9.94692 13.5117 10.4874 13.5196 10.1466C13.5275 9.80582 13.8798 9.13454 14.3003 9.03044" stroke="#FFBB00" stroke-width="0.5" stroke-linecap="round" stroke-linejoin="round"/>
<path d="M14.8902 9.05835V8.67789L13.7088 8.73286L13.0693 8.55835L12.7996 8.7382L12.9448 8.92781L13.2996 9.05835H14.8902Z" fill="#F7FCFF"/>
<g filter="url(#filter0_d_8_24061)">
<path d="M11.9694 4.93306C11.9759 4.94944 12.119 4.92039 12.1494 5.00607C12.3033 4.77874 12.484 4.99554 12.484 4.99554L12.636 4.81553L12.8077 4.97809L12.9652 4.96583L13.1298 5.3521L11.831 5.32774C11.831 5.32774 11.9629 4.91667 11.9694 4.93306Z" fill="#656263"/>
</g>
<path d="M13.3157 6.57697C13.3052 6.45465 13.1968 6.44035 13.1363 6.44443C13.0757 6.44852 13.0215 6.49946 13.0215 6.49946L12.8212 6.3751C12.8212 6.3751 12.9214 5.75725 13.0277 5.71857C13.1288 5.64735 13.1466 5.61654 13.1466 5.60035C13.1466 5.584 13.1091 5.5178 13.1091 5.5178L12.456 5.44234L11.8383 5.51372C11.8383 5.51372 11.7904 5.61041 11.7967 5.63902C11.8029 5.66748 11.805 5.69813 11.9156 5.78177C12.038 5.87374 12.1221 6.40167 12.1221 6.40167C12.1221 6.40167 11.949 6.48515 11.9386 6.47493C11.9281 6.46487 11.876 6.45465 11.8488 6.45874C11.8218 6.46283 11.732 6.50763 11.732 6.62382C11.732 6.74016 11.8218 6.80744 11.8218 6.80744C11.8218 6.80744 12.4122 7.24016 12.4999 7.3991C12.5855 7.20746 13.1466 6.77474 13.2134 6.74204C13.2406 6.72585 13.3262 6.69928 13.3157 6.57697Z" fill="#656263"/>
<path d="M13.905 6.00077C13.9541 5.96886 14.2809 5.95282 14.3594 6.00077C14.4377 6.04872 14.6404 6.12576 14.6436 6.18644C14.6469 6.24713 14.7807 6.35737 14.7807 6.35737C14.7807 6.35737 15.0113 6.84302 15.0145 7.14315C15.044 7.34753 15.0374 7.89353 14.9558 8.10106C14.9524 8.35983 14.6208 8.54907 14.6208 8.54907C14.6208 8.54907 14.6469 8.59372 14.6436 8.64167C14.6403 8.68962 14.6142 8.73427 14.6142 8.73427L14.3692 8.83961L14.0979 8.79496L13.7906 7.89757L13.8626 6.38076L13.8822 6.3042L13.8495 6.09982C13.8495 6.09982 13.8561 6.03269 13.905 6.00077Z" fill="black"/>
<path d="M12.131 6.79707C12.131 6.79707 12.4616 6.79707 12.4973 6.90193C12.5599 6.76217 12.8458 6.77097 12.8458 6.77097C13.0186 6.76515 13.1914 6.75934 13.364 6.75352C13.367 7.16102 13.3699 7.56852 13.373 7.97602C13.2718 8.45034 12.9203 8.78521 12.533 8.92781C12.0713 8.78222 11.7795 8.40098 11.6842 7.96722C11.6662 7.58016 11.6484 7.19294 11.6305 6.80587C11.7973 6.80288 11.9642 6.80005 12.131 6.79707Z" fill="#F7FCFF"/>
<path d="M11.8088 6.80131L12.5377 8.69953L13.1962 6.75996C12.9919 6.77286 12.5537 6.72852 12.4993 6.91058C12.415 6.7477 11.9539 6.81342 11.8088 6.80131V6.80131Z" fill="#006B00"/>
<path fill-rule="evenodd" clip-rule="evenodd" d="M12.6537 6.939C12.6537 6.939 12.72 7.11196 12.6537 7.19758C12.5874 7.2832 12.6592 7.35335 12.6992 7.35335C12.7392 7.35335 12.8765 7.4893 12.7651 7.4893C12.6537 7.4893 12.5908 7.44698 12.5908 7.56647C12.5908 7.68597 12.7303 8.14462 12.7303 8.00433C12.7303 7.86403 12.7651 7.70789 12.7651 7.70789C12.7651 7.70789 12.8236 7.75175 12.782 7.91192C12.7404 8.07209 12.5492 8.30446 12.5014 8.31357C12.4536 8.32267 12.3802 8.3972 12.3704 8.2597C12.3606 8.12221 12.3213 8.05785 12.3529 8.03109C12.3846 8.00433 12.4267 7.90868 12.4402 7.98389C12.4538 8.05911 12.3943 8.13099 12.404 8.15808C12.4137 8.18517 12.4191 8.24657 12.4603 8.19514C12.5014 8.14371 12.5256 8.05892 12.5564 8.13753C12.5872 8.21614 12.5878 8.1541 12.5241 8.00433C12.4603 7.85455 12.4061 7.77125 12.4137 7.63976C12.4214 7.50827 12.411 7.45902 12.4214 7.41676C12.4317 7.37449 12.3071 7.16866 12.3387 7.10939C12.3704 7.05012 12.3825 6.85877 12.4214 6.89322C12.4603 6.92766 12.4803 6.97391 12.4603 7.02542C12.4402 7.07693 12.4202 7.12811 12.4402 7.16284C12.4603 7.19758 12.529 7.29789 12.5427 7.27266C12.5564 7.24743 12.6027 7.27183 12.6027 7.12897C12.6027 6.98611 12.5511 6.93588 12.5836 6.90197C12.6161 6.86806 12.6537 6.939 12.6537 6.939Z" fill="#FFD100"/>
<path d="M13.2004 6.76028L13.2987 6.75792L13.1232 6.97519L13.3338 7.21542L12.9195 7.72542L13.3104 8.18512C13.2675 8.2881 13.2176 8.3818 13.1512 8.46654L12.9266 8.22395L13.3338 7.72778L12.9991 7.35723L13.2004 6.76028Z" fill="#1E5AA6"/>
<path d="M11.6907 6.80603L11.8873 7.01403L11.6791 7.26793L12.112 7.72778L11.7539 8.1966C11.7969 8.29957 11.8585 8.41387 11.9248 8.49845L12.1378 8.23543L11.7002 7.7597L12.0208 7.36179L11.7961 6.80367L11.6907 6.80603Z" fill="#1E5AA6"/>
<path d="M14.1927 6.42557C14.1927 6.45748 14.2275 8.34161 14.2657 8.32362C14.3604 8.27882 14.3822 8.37661 14.3822 8.37661C14.3822 8.37661 14.4149 8.68648 14.3332 8.72798C14.1861 8.80455 14.1218 8.82143 14.1218 8.82143L13.9804 8.71839C13.9804 8.71839 13.8365 8.51716 13.8039 8.4277C13.7712 8.33841 13.732 7.93924 13.745 7.85293C13.758 7.76677 13.7678 7.26211 13.7614 7.23664C13.7548 7.21102 13.7287 6.78952 13.745 6.72569C13.7614 6.66186 13.8626 6.38076 13.8594 6.38076C13.8594 6.38076 14.1927 6.39365 14.1927 6.42557Z" fill="url(#paint0_linear_8_24061)"/>
<path d="M13.8659 6.10296C13.9345 6.10296 13.9868 6.1605 14.0032 6.2116C14.0064 6.23392 13.9966 6.24996 13.9998 6.29146C14.0032 6.33297 13.5032 6.3009 13.4999 6.29775C13.4999 6.29775 13.7319 6.07749 13.8659 6.10296Z" fill="#FF7000"/>
<path d="M14.2045 6.25518C14.2045 6.28279 14.1821 6.30518 14.1545 6.30518C14.1269 6.30518 14.1045 6.28279 14.1045 6.25518C14.1045 6.22756 14.1269 6.20518 14.1545 6.20518C14.1821 6.20518 14.2045 6.22756 14.2045 6.25518Z" fill="black"/>
<path d="M12.9103 5.95439C12.9103 5.95439 13.1706 6.22968 13.339 6.22669C13.3696 6.3075 13.2625 6.38265 13.2197 6.41849C13.1339 6.39161 13.0564 6.42337 12.8574 6.18409C12.8697 6.03143 12.9133 5.96037 12.9103 5.95439Z" fill="#F7FCFF"/>
<path d="M13.9452 4.56901C13.9697 4.74557 14.3845 4.96221 14.5038 4.81553C14.4916 4.8814 14.514 5.0868 13.8831 5.08382C14.1221 5.30533 13.6452 5.54453 13.5104 5.49061C13.7584 5.3051 13.4401 5.19442 13.2625 5.31406C13.2961 5.21234 13.5442 4.70076 13.9452 4.56901Z" fill="#F7FCFF"/>
<path fill-rule="evenodd" clip-rule="evenodd" d="M13.5251 5.80834C13.4778 5.61389 13.4549 5.39051 13.5595 5.3051C13.4216 5.21234 13.2716 5.30808 13.2716 5.30808C13.2706 5.3104 13.2678 5.31432 13.2638 5.31985C13.2317 5.36414 13.1246 5.51222 13.2716 5.77818C12.8797 5.67646 13.0437 6.03222 13.0726 6.0591C13.0879 6.00219 13.2961 5.94842 13.3482 6.23864C13.3657 6.29744 13.2602 6.38226 13.2263 6.40948C13.2188 6.41552 13.2148 6.41872 13.2165 6.41818C13.2165 6.41818 13.5481 6.4855 13.591 6.04734C13.6478 6.01355 13.9229 5.83012 13.9145 5.45178C13.6617 5.45697 13.55 5.73546 13.5251 5.80834Z" fill="#F7FCFF"/>
<path d="M12.0438 6.03222C12.0438 6.03222 11.7898 6.2476 11.6458 6.17874C11.5387 6.24163 11.4131 6.13095 11.4131 6.13095C11.4131 6.13095 11.5601 6.66045 12.0868 6.27747C12.0776 6.16082 12.0499 6.04118 12.0438 6.03222Z" fill="#F7FCFF"/>
<path d="M11.6427 6.16978C11.6641 6.0591 11.7529 6.00517 11.8234 6.10988C11.9183 6.12796 12.0132 5.74797 11.6763 5.8107C11.7713 5.31406 11.4866 5.12854 11.4866 5.12854C11.4866 5.12854 11.3856 5.67911 11.4315 5.78083C11.4774 5.88255 11.3641 5.59233 10.9998 5.51152C10.9936 5.92751 11.407 6.12199 11.407 6.12199C11.407 6.12199 11.5233 6.22669 11.6427 6.16978Z" fill="#F7FCFF"/>
<path d="M11.2983 5.56943C11.1911 5.60228 10.9305 5.44517 11.0958 5.24158C10.5539 5.22963 10.2589 4.77178 10.4395 4.85908C10.6201 4.94639 10.7492 4.76035 10.8839 4.85908C10.7185 4.70957 10.9416 4.58992 10.9416 4.58992C10.9416 4.58992 11.4039 4.72466 11.4866 5.12556C11.459 5.20338 11.4468 5.34094 11.4407 5.33497C11.4407 5.33198 11.1544 5.32999 11.2983 5.56943Z" fill="#F7FCFF"/>
<path d="M12.3481 3.43431C12.2796 3.65957 12.0326 3.57411 12.0326 3.57411C12.0326 3.57411 12.0408 3.68685 12.0162 3.74094C12.0365 3.75773 12.1825 3.8842 12.3358 3.91683C12.5563 3.96375 13.0078 3.83539 13.1594 4.02504C13.311 4.21469 13.303 4.36777 13.303 4.36777C13.303 4.36777 13.1057 4.39313 13.1606 4.47136C13.1962 4.52215 13.2943 4.55989 13.303 4.61238C13.3307 4.77948 13.2105 5.08012 13.2537 5.19306C13.1854 5.19993 13.1801 5.2786 13.1801 5.2786C13.1762 5.36793 12.9792 5.31485 12.9792 5.31485C12.9792 5.31485 13.1021 4.96748 13.1103 4.88645C13.1185 4.80517 13.0242 4.66087 12.9505 4.66087C12.8767 4.66087 12.8235 4.91796 12.8235 4.91796C12.8235 4.91796 12.7867 5.11179 12.7989 5.12979C12.8112 5.1478 12.7496 5.06677 12.7496 5.06677C12.7496 5.06677 12.7303 5.14549 12.6986 5.19306C12.6629 5.24656 12.6144 5.26959 12.6144 5.26959C12.6144 5.26959 12.5776 5.1523 12.5899 5.10728C12.6021 5.06226 12.7908 4.88645 12.7744 4.76015C12.7671 4.70442 12.7606 4.60713 12.6986 4.57485C12.6201 4.53398 12.4762 4.56379 12.3892 4.54363C12.3414 4.63528 12.3194 5.1388 12.3521 5.17055C12.3851 5.20206 12.2703 5.26959 12.2703 5.26959L12.1351 5.2741C12.1329 5.20585 12.2148 5.01938 12.2148 4.86157C12.2148 4.70376 12.2251 4.53463 12.2251 4.53463C12.2251 4.53463 12.1342 4.56039 12.0858 4.66087C12.0452 4.74513 12.0452 4.90438 12.049 4.92697C12.0572 4.97649 12.0981 5.11629 12.0858 5.15704C12.0735 5.19756 11.8606 5.25159 11.8606 5.25159L11.8522 5.12079C11.8522 5.12079 11.9424 5.05776 11.9424 4.89995C11.9424 4.74215 11.9506 4.51657 11.9465 4.50306C11.944 4.49495 11.8727 4.14961 11.7788 3.91683C11.7162 3.76158 11.6196 3.69045 11.6147 3.67782C11.6024 3.64626 11.6024 3.61017 11.6024 3.61017C11.6024 3.61017 11.467 3.71841 11.3072 3.48842C11.4536 3.35092 11.6106 3.45234 11.6106 3.45234C11.6106 3.45234 11.6515 3.32607 11.8399 3.33509C12.0285 3.34412 12.0653 3.46136 12.0572 3.44784C12.0572 3.44784 12.1965 3.31254 12.3481 3.43431Z" fill="#923F00"/>
<path d="M11.8139 5.68178L12.4581 6.09369L13.0382 5.71244C13.0382 5.71244 13.1592 5.6472 13.1487 5.60035C13.1384 5.55334 13.0966 5.57173 13.0757 5.57991C13.0549 5.58808 12.4685 5.99386 12.4685 5.99386L11.8446 5.60836C11.8446 5.60836 11.7988 5.59421 11.7904 5.62267C11.7821 5.65128 11.8076 5.66748 11.8139 5.68178Z" fill="#B4B6B9"/>
<path d="M13.9734 8.71368C13.9734 8.71368 13.7337 8.6976 13.7703 8.76701C13.7907 8.80553 14.1081 8.80109 14.1081 8.80109L13.9734 8.71368Z" fill="#FF7000"/>
<path d="M14.0875 8.80675L13.8375 8.81382C13.8375 8.81382 13.7746 8.86964 13.7706 8.883C13.7667 8.89652 13.8119 8.90029 13.8119 8.90029C13.8119 8.90029 14.0698 8.96585 14.2649 8.9234C14.3634 8.88976 14.3806 8.84936 14.3116 8.82483C14.2427 8.8003 14.0894 8.80769 14.0875 8.80675Z" fill="#FF7000"/>
<path d="M11.1953 6.4949C11.1953 6.4949 11.1628 6.59489 11.1953 6.64488C11.2279 6.69488 11.4325 7.09939 11.4325 7.09939C11.4325 7.09939 11.5721 6.93117 11.6233 6.92661C11.6744 6.92221 11.6511 7.36304 11.6511 7.36304C11.6511 7.36304 11.5674 7.44024 11.5163 7.43568C11.4651 7.43112 11.6418 7.60846 11.6371 7.75844C11.6324 7.90842 11.4046 8.65378 11.3209 8.6673C11.2372 8.68098 11.1649 8.52695 11.1649 8.39383C11.1649 8.2607 11.2511 8.04929 11.2465 7.99017C11.2419 7.93106 10.8305 8.62365 10.8056 8.73179C10.8009 8.75229 10.8279 8.8264 10.8279 8.8264C10.8279 8.8264 10.6667 8.83961 10.7024 9.04462C10.228 8.88096 9.46888 8.78474 9.47353 8.49845C9.47532 8.3887 9.65602 7.68415 9.75888 7.3991C9.92447 6.94018 10.505 6.66834 10.5078 6.61791C10.5125 6.536 10.545 6.49968 10.5497 6.45425C10.5543 6.40881 10.6 6.18582 10.6465 6.14494C10.6931 6.10406 10.9349 6.00407 10.9953 6.00863C11.0558 6.01319 11.107 6.05407 11.107 6.05407C11.107 6.05407 11.3349 6.05407 11.3488 6.14038C11.3628 6.22685 11.3023 6.25861 11.3023 6.25861C11.3023 6.25861 11.3349 6.38139 11.1953 6.4949Z" fill="#8A9396"/>
<path d="M11.331 9.07276C11.4079 9.1259 11.5853 9.15734 11.5853 9.15734C11.5853 9.15734 11.1494 9.27478 10.7064 9.04682C10.6659 8.86932 10.8014 8.8297 10.835 8.82829C10.9132 8.80785 11.2542 9.01946 11.331 9.07276Z" fill="#2B2B2B"/>
<g clip-path="url(#clip1_8_24061)">
<rect width="9" height="7" fill="#2E42A5"/>
<path d="M-1.00214 6.49991L0.978339 7.36851L9.04494 0.944372L10.0896 -0.346394L7.97176 -0.636705L4.68159 2.13164L2.03334 3.99686L-1.00214 6.49991Z" fill="#F7FCFF"/>
<path d="M-0.731018 7.10847L0.277943 7.61254L9.71445 -0.46632H8.29775L-0.731018 7.10847Z" fill="#F50100"/>
<path d="M10.0021 6.49991L8.02166 7.36851L-0.0449371 0.944372L-1.08959 -0.346394L1.02824 -0.636705L4.31841 2.13164L6.96666 3.99686L10.0021 6.49991Z" fill="#F7FCFF"/>
<path d="M9.93457 6.93667L8.92561 7.44073L4.90745 3.98176L3.71615 3.59529L-1.1901 -0.341973H0.226597L5.13009 3.50184L6.43256 3.96525L9.93457 6.93667Z" fill="#F50100"/>
<path fill-rule="evenodd" clip-rule="evenodd" d="M4.99226 0H3.99226V3H0V4H3.99226V7H4.99226V4H9V3H4.99226V0Z" fill="#F50100"/>
<path fill-rule="evenodd" clip-rule="evenodd" d="M3.24226 -0.75H5.74226V2.25H9.75V4.75H5.74226V7.75H3.24226V4.75H-0.75V2.25H3.24226V-0.75ZM3.99226 3H0V4H3.99226V7H4.99226V4H9V3H4.99226V0H3.99226V3Z" fill="#F7FCFF"/>
</g>
</g>
<defs>
<filter id="filter0_d_8_24061" x="11.831" y="4.81553" width="1.29877" height="0.786575" filterUnits="userSpaceOnUse" color-interpolation-filters="sRGB">
<feFlood flood-opacity="0" result="BackgroundImageFix"/>
<feColorMatrix in="SourceAlpha" type="matrix" values="0 0 0 0 0 0 0 0 0 0 0 0 0 0 0 0 0 0 127 0" result="hardAlpha"/>
<feOffset dy="0.25"/>
<feColorMatrix type="matrix" values="0 0 0 0 1 0 0 0 0 1 0 0 0 0 1 0 0 0 1 0"/>
<feBlend mode="normal" in2="BackgroundImageFix" result="effect1_dropShadow_8_24061"/>
<feBlend mode="normal" in="SourceGraphic" in2="effect1_dropShadow_8_24061" result="shape"/>
</filter>
<linearGradient id="paint0_linear_8_24061" x1="14.1774" y1="7.80355" x2="14.7495" y2="7.79392" gradientUnits="userSpaceOnUse">
<stop stop-color="#D5DFFF"/>
<stop offset="1" stop-color="white"/>
</linearGradient>
<clipPath id="clip0_8_24061">
<rect width="16" height="12" fill="white"/>
</clipPath>
<clipPath id="clip1_8_24061">
<rect width="9" height="7" fill="white"/>
</clipPath>
</defs>
</svg>
