<svg width="16" height="12" viewBox="0 0 16 12" fill="none" xmlns="http://www.w3.org/2000/svg">
<g clip-path="url(#clip0_8_24237)">
<rect width="16" height="12" fill="white"/>
<path fill-rule="evenodd" clip-rule="evenodd" d="M11 0H16V12H11V0Z" fill="#58A5FF"/>
<path fill-rule="evenodd" clip-rule="evenodd" d="M0 0H6V12H0V0Z" fill="#58A5FF"/>
<path fill-rule="evenodd" clip-rule="evenodd" d="M5 0H11V12H5V0Z" fill="white"/>
<path d="M6.38231 8.5187L6.01904 8.17513L9.86277 4.11108L10.226 4.45465L6.38231 8.5187Z" fill="#C6C6C6"/>
<path fill-rule="evenodd" clip-rule="evenodd" d="M6.49241 4.05272C6.49241 4.05272 5.26196 4.7953 5.26196 6.65689C5.26196 8.51848 8.25761 8.77033 8.25761 8.77033C8.25761 8.77033 6.46492 7.6769 6.23029 6.8941C5.99566 6.1113 6.49241 4.05272 6.49241 4.05272Z" fill="#5AB92D"/>
<path fill-rule="evenodd" clip-rule="evenodd" d="M9.52718 4.05272C9.52718 4.05272 10.7576 4.7953 10.7576 6.65689C10.7576 8.51848 7.76198 8.77033 7.76198 8.77033C7.76198 8.77033 9.64588 7.68992 9.90991 6.65689C10.1739 5.62386 9.52718 4.05272 9.52718 4.05272Z" fill="#5AB92D"/>
<path d="M7.40387 3.79978L7.90183 3.84498C7.88545 4.02539 7.98401 4.20902 8.22769 4.40611C9.01202 5.04048 9.43359 5.8318 9.10322 6.73103C8.86349 7.38354 8.53788 7.93448 8.12588 8.38196L7.75804 8.0433C8.12388 7.64595 8.41599 7.15168 8.63389 6.5586C8.87118 5.91274 8.55 5.30987 7.91326 4.79487C7.55046 4.50144 7.3706 4.16633 7.40387 3.79978Z" fill="#5AB92D"/>
<path fill-rule="evenodd" clip-rule="evenodd" d="M7.08691 4.90447L7.61155 6.38755H7.2259C7.2259 6.38755 7.08691 6.85558 7.34923 6.85558C7.61155 6.85558 8.96335 6.85558 8.96335 6.85558C8.96335 6.85558 9.13909 6.73823 9.05122 6.38755C8.96335 6.03687 8.51936 5.06881 8.51936 5.06881C8.51936 5.06881 8.70908 4.90814 8.70908 4.78905C8.70908 4.66996 8.51936 4.65685 8.51936 4.65685H7.3218C7.16894 4.68327 7.08691 4.90447 7.08691 4.90447Z" fill="#EFE298"/>
</g>
<defs>
<clipPath id="clip0_8_24237">
<rect width="16" height="12" fill="white"/>
</clipPath>
</defs>
</svg>
