<svg width="16" height="12" viewBox="0 0 16 12" fill="none" xmlns="http://www.w3.org/2000/svg">
<g clip-path="url(#clip0_8_24219)">
<rect width="16" height="12" fill="white"/>
<path fill-rule="evenodd" clip-rule="evenodd" d="M0 0V12H16V0H0Z" fill="#EA1A1A"/>
<mask id="mask0_8_24219" style="mask-type:luminance" maskUnits="userSpaceOnUse" x="0" y="0" width="16" height="12">
<path fill-rule="evenodd" clip-rule="evenodd" d="M0 0V12H16V0H0Z" fill="white"/>
</mask>
<g mask="url(#mask0_8_24219)">
<path fill-rule="evenodd" clip-rule="evenodd" d="M7.93474 5.78738C7.93474 5.78738 5.03989 3.20575 8.49432 1.70156C8.49432 1.70156 9.49893 2.80987 8.74528 4.0541C8.49802 4.46218 8.28948 4.75359 8.13277 4.97258C7.81169 5.42125 7.70813 5.56596 7.93474 5.78738ZM3.66235 3.93375C3.46354 7.69617 7.06701 6.26103 7.06701 6.26103C6.76777 6.36468 6.68462 6.20736 6.42691 5.71976L6.42691 5.71975C6.30107 5.48166 6.13361 5.16481 5.87904 4.76115C5.10307 3.53067 3.66235 3.93375 3.66235 3.93375ZM9.11905 5.91353C9.11905 5.91353 12.835 7.02598 10.343 9.8518C10.343 9.8518 8.96333 9.27321 9.11905 7.827C9.17016 7.35278 9.23558 7.00056 9.28476 6.73583C9.38555 6.19323 9.41807 6.01817 9.11905 5.91353ZM8.14235 6.78085C8.14235 6.78085 8.80852 10.602 5.16682 9.63634C5.16682 9.63634 5.06767 8.14365 6.43091 7.63641C6.87807 7.47 7.22244 7.37102 7.48123 7.29663L7.48124 7.29663L7.48127 7.29662L7.48127 7.29662C8.01147 7.14423 8.18248 7.09507 8.14235 6.78085ZM12.7393 5.13765C10.4616 2.13656 8.63689 5.55924 8.63689 5.55924C8.79851 5.28682 8.96358 5.35325 9.47512 5.55911C9.72499 5.65966 10.0575 5.79348 10.5127 5.93733C11.8997 6.37568 12.7393 5.13765 12.7393 5.13765Z" fill="white"/>
<path d="M5.08063 5.10404C5.08063 5.10404 5.80853 6.24962 7.00058 6.24962" stroke="#EA1A1A" stroke-width="0.5"/>
<path d="M7.93011 3.52512C7.93011 3.52512 7.27688 4.73024 7.83651 5.78275" stroke="#EA1A1A" stroke-width="0.5"/>
<path d="M11.055 4.88079C11.055 4.88079 9.5299 4.64959 8.73226 5.53545" stroke="#EA1A1A" stroke-width="0.5"/>
<path d="M10.1642 7.67248C10.1642 7.67248 9.85983 6.16028 8.75459 5.71373" stroke="#EA1A1A" stroke-width="0.5"/>
<path d="M6.96661 8.49332C6.96661 8.49332 8.28352 7.69012 8.32512 6.49881" stroke="#EA1A1A" stroke-width="0.5"/>
</g>
</g>
<defs>
<clipPath id="clip0_8_24219">
<rect width="16" height="12" fill="white"/>
</clipPath>
</defs>
</svg>
