<svg width="16" height="12" viewBox="0 0 16 12" fill="none" xmlns="http://www.w3.org/2000/svg">
<g clip-path="url(#clip0_8_24118)">
<rect width="16" height="12" fill="white"/>
<path fill-rule="evenodd" clip-rule="evenodd" d="M0 0H16V12H0V0Z" fill="#2E42A5"/>
<g clip-path="url(#clip1_8_24118)">
<rect width="9" height="7" fill="#2E42A5"/>
<path d="M-1.00214 6.49991L0.978339 7.36851L9.04494 0.944368L10.0896 -0.346397L7.97176 -0.636709L4.68159 2.13164L2.03334 3.99685L-1.00214 6.49991Z" fill="#F7FCFF"/>
<path d="M-0.731018 7.10847L0.277943 7.61253L9.71445 -0.466324H8.29775L-0.731018 7.10847Z" fill="#F50100"/>
<path d="M10.0021 6.49991L8.02166 7.36851L-0.0449371 0.944368L-1.08959 -0.346397L1.02824 -0.636709L4.31841 2.13164L6.96666 3.99685L10.0021 6.49991Z" fill="#F7FCFF"/>
<path d="M9.93457 6.93667L8.92561 7.44073L4.90745 3.98176L3.71615 3.59529L-1.1901 -0.341973H0.226597L5.13009 3.50184L6.43256 3.96525L9.93457 6.93667Z" fill="#F50100"/>
<path fill-rule="evenodd" clip-rule="evenodd" d="M4.99226 0H3.99226V3H0V4H3.99226V7H4.99226V4H9V3H4.99226V0Z" fill="#F50100"/>
<path fill-rule="evenodd" clip-rule="evenodd" d="M3.24226 -0.75H5.74226V2.25H9.75V4.75H5.74226V7.75H3.24226V4.75H-0.75V2.25H3.24226V-0.75ZM3.99226 3H0V4H3.99226V7H4.99226V4H9V3H4.99226V0H3.99226V3Z" fill="#F7FCFF"/>
</g>
<g clip-path="url(#clip2_8_24118)">
<path d="M4.40798 9.83424L3.81755 10.3799L3.87602 9.57807L3.0813 9.45665L3.74464 9.00244L3.34406 8.3054L4.11277 8.54083L4.40798 7.79305L4.70319 8.54083L5.4719 8.3054L5.07132 9.00244L5.73466 9.45665L4.93994 9.57807L4.99841 10.3799L4.40798 9.83424Z" fill="#F7FCFF"/>
<path d="M10.776 6.06898L10.3824 6.43274L10.4213 5.8982L9.89152 5.81725L10.3337 5.51445L10.0667 5.04975L10.5792 5.2067L10.776 4.70818L10.9728 5.2067L11.4853 5.04975L11.2182 5.51445L11.6604 5.81725L11.1306 5.8982L11.1696 6.43274L10.776 6.06898Z" fill="#F7FCFF"/>
<path d="M11.7147 2.37668L11.3211 2.74044L11.3601 2.20589L10.8302 2.12495L11.2725 1.82214L11.0054 1.35745L11.5179 1.5144L11.7147 1.01588L11.9115 1.5144L12.424 1.35745L12.1569 1.82214L12.5991 2.12495L12.0693 2.20589L12.1083 2.74044L11.7147 2.37668Z" fill="#F7FCFF"/>
<path d="M14.0613 4.22283L13.6677 4.58659L13.7067 4.05204L13.1769 3.9711L13.6191 3.66829L13.352 3.2036L13.8645 3.36055L14.0613 2.86203L14.2581 3.36055L14.7706 3.2036L14.5035 3.66829L14.9458 3.9711L14.416 4.05204L14.4549 4.58659L14.0613 4.22283Z" fill="#F7FCFF"/>
<path d="M12.184 9.53052L11.7904 9.89428L11.8294 9.35974L11.2995 9.27879L11.7418 8.97599L11.4747 8.51129L11.9872 8.66824L12.184 8.16972L12.3808 8.66824L12.8933 8.51129L12.6262 8.97599L13.0684 9.27879L12.5386 9.35974L12.5776 9.89428L12.184 9.53052Z" fill="#F7FCFF"/>
<path d="M13.8266 6.64789L13.4267 6.85814L13.5031 6.41282L13.1795 6.09743L13.6267 6.03246L13.8266 5.62729L14.0266 6.03246L14.4737 6.09743L14.1502 6.41282L14.2266 6.85814L13.8266 6.64789Z" fill="#F7FCFF"/>
</g>
</g>
<defs>
<clipPath id="clip0_8_24118">
<rect width="16" height="12" fill="white"/>
</clipPath>
<clipPath id="clip1_8_24118">
<rect width="9" height="7" fill="white"/>
</clipPath>
<clipPath id="clip2_8_24118">
<rect width="12" height="10" fill="white" transform="translate(3 1)"/>
</clipPath>
</defs>
</svg>
