<svg width="16" height="12" viewBox="0 0 16 12" fill="none" xmlns="http://www.w3.org/2000/svg">
<g clip-path="url(#clip0_8_24259)">
<rect width="16" height="12" fill="white"/>
<path fill-rule="evenodd" clip-rule="evenodd" d="M0 0V12H16V0H0Z" fill="#F7FCFF"/>
<mask id="mask0_8_24259" style="mask-type:luminance" maskUnits="userSpaceOnUse" x="0" y="0" width="16" height="12">
<path fill-rule="evenodd" clip-rule="evenodd" d="M0 0V12H16V0H0Z" fill="white"/>
</mask>
<g mask="url(#mask0_8_24259)">
<path fill-rule="evenodd" clip-rule="evenodd" d="M0 0V4H16V0H0Z" fill="#E31D1C"/>
<path fill-rule="evenodd" clip-rule="evenodd" d="M0 8V12H16V8H0Z" fill="#3D58DB"/>
<rect x="5.03827" y="3.19866" width="5.7" height="2" fill="#E31D1C"/>
<path d="M5.3261 4.47991H10.3904C10.3989 4.86439 10.4015 5.53509 10.4014 6.18076C10.4014 6.59772 10.4003 6.99914 10.3992 7.29636L10.3977 7.65284L10.3972 7.75162L10.3972 7.76583L10.3969 7.76748C10.3947 7.78079 10.3909 7.80173 10.3852 7.82921C10.3737 7.88426 10.3543 7.96506 10.3234 8.06297C10.2615 8.25963 10.155 8.52038 9.97759 8.77947C9.63037 9.28641 8.99991 9.80764 7.82486 9.80764C6.65141 9.80764 6.05147 9.28711 5.73213 8.78503C5.56816 8.52721 5.47452 8.26736 5.42211 8.07086C5.39603 7.97308 5.38053 7.89236 5.37167 7.83737C5.36724 7.80991 5.36449 7.789 5.36291 7.77571L5.36196 7.76711L5.36169 7.74507L5.3605 7.64692L5.35625 7.29265C5.35274 6.99721 5.34806 6.59789 5.34337 6.18237C5.33621 5.54747 5.32908 4.87668 5.3261 4.47991ZM5.36112 7.75927C5.36111 7.75913 5.36111 7.75913 5.36112 7.75925L5.36112 7.75927Z" fill="#F7FCFF" stroke="#E31D1C" stroke-width="0.5625"/>
<mask id="mask1_8_24259" style="mask-type:luminance" maskUnits="userSpaceOnUse" x="5" y="4" width="6" height="7">
<path d="M5.3261 4.47991H10.3904C10.3989 4.86439 10.4015 5.53509 10.4014 6.18076C10.4014 6.59772 10.4003 6.99914 10.3992 7.29636L10.3977 7.65284L10.3972 7.75162L10.3972 7.76583L10.3969 7.76748C10.3947 7.78079 10.3909 7.80173 10.3852 7.82921C10.3737 7.88426 10.3543 7.96506 10.3234 8.06297C10.2615 8.25963 10.155 8.52038 9.97759 8.77947C9.63037 9.28641 8.99991 9.80764 7.82486 9.80764C6.65141 9.80764 6.05147 9.28711 5.73213 8.78503C5.56816 8.52721 5.47452 8.26736 5.42211 8.07086C5.39603 7.97308 5.38053 7.89236 5.37167 7.83737C5.36724 7.80991 5.36449 7.789 5.36291 7.77571L5.36196 7.76711L5.36169 7.74507L5.3605 7.64692L5.35625 7.29265C5.35274 6.99721 5.34806 6.59789 5.34337 6.18237C5.33621 5.54747 5.32908 4.87668 5.3261 4.47991ZM5.36112 7.75927C5.36111 7.75913 5.36111 7.75913 5.36112 7.75925L5.36112 7.75927Z" fill="white" stroke="white" stroke-width="0.5625"/>
</mask>
<g mask="url(#mask1_8_24259)">
<path fill-rule="evenodd" clip-rule="evenodd" d="M5.24921 4.51994H6.30389V5.59089H5.24921V4.51994ZM7.35858 5.59089H6.30389V6.66184H5.24921V7.73279H6.30389V8.80375H5.24921V9.8747H6.30389V8.80375H7.35858V9.8747H8.41327V8.80375H9.46796V9.8747H10.5226V8.80375H9.46796V7.73279H10.5226V6.66184H9.46796V5.59089H10.5226V4.51994H9.46796V5.59089H8.41327V4.51994H7.35858V5.59089ZM7.35858 6.66184V5.59089H8.41327V6.66184H7.35858ZM7.35858 7.73279V6.66184H6.30389V7.73279H7.35858ZM8.41327 7.73279V8.80375H7.35858V7.73279H8.41327ZM8.41327 7.73279V6.66184H9.46796V7.73279H8.41327Z" fill="#F50100"/>
</g>
<path fill-rule="evenodd" clip-rule="evenodd" d="M5.22651 4.08132C5.22651 4.08132 5.55273 3.90707 5.83097 3.81727C6.10921 3.72747 6.32913 3.67841 6.32913 3.67841L5.91516 2.15236L5.086 1.84258L4.61639 2.61663L5.22651 4.08132Z" fill="#56C6F5" stroke="white" stroke-width="0.15"/>
<path fill-rule="evenodd" clip-rule="evenodd" d="M7.27034 3.5379C7.27034 3.5379 7.54855 3.51307 7.84086 3.51875C8.13318 3.52443 8.38047 3.52651 8.38047 3.52651L8.52325 2.02177L7.89709 1.45607L7.20106 2.03506L7.27034 3.5379Z" fill="#56C6F5" stroke="white" stroke-width="0.15"/>
<path d="M6.23426 3.66597L6.25587 3.73937L6.32882 3.71629L6.32883 3.71629L6.32886 3.71628L6.32901 3.71624L6.32965 3.71603L6.33227 3.71521L6.3426 3.712L6.38124 3.70024C6.41413 3.69037 6.45999 3.67693 6.5118 3.66266C6.61649 3.63384 6.74173 3.60273 6.83369 3.58995C6.92813 3.57683 7.04504 3.56732 7.13936 3.56108C7.1863 3.55797 7.22723 3.5557 7.25641 3.55421L7.29059 3.55254L7.29969 3.55214L7.30201 3.55204L7.30258 3.55202L7.30271 3.55201L7.30274 3.55201L7.30274 3.55201L7.38113 3.54879L7.37439 3.47063L7.24825 2.00842L7.24526 1.97382L7.21695 1.95372L6.53559 1.46981L6.48298 1.43245L6.43818 1.47889L5.81895 2.12085L5.78866 2.15225L5.80098 2.1941L6.23426 3.66597Z" fill="#2E42A5" stroke="white" stroke-width="0.15"/>
<mask id="mask2_8_24259" style="mask-type:luminance" maskUnits="userSpaceOnUse" x="5" y="1" width="3" height="3">
<path d="M6.23426 3.66597L6.25587 3.73937L6.32882 3.71629L6.32883 3.71629L6.32886 3.71628L6.32901 3.71624L6.32965 3.71603L6.33227 3.71521L6.3426 3.712L6.38124 3.70024C6.41413 3.69037 6.45999 3.67693 6.5118 3.66266C6.61649 3.63384 6.74173 3.60273 6.83369 3.58995C6.92813 3.57683 7.04504 3.56732 7.13936 3.56108C7.1863 3.55797 7.22723 3.5557 7.25641 3.55421L7.29059 3.55254L7.29969 3.55214L7.30201 3.55204L7.30258 3.55202L7.30271 3.55201L7.30274 3.55201L7.30274 3.55201L7.38113 3.54879L7.37439 3.47063L7.24825 2.00842L7.24526 1.97382L7.21695 1.95372L6.53559 1.46981L6.48298 1.43245L6.43818 1.47889L5.81895 2.12085L5.78866 2.15225L5.80098 2.1941L6.23426 3.66597Z" fill="white" stroke="white" stroke-width="0.15"/>
</mask>
<g mask="url(#mask2_8_24259)">
</g>
<path d="M9.47005 3.66433L9.44966 3.7399L9.37503 3.71629L9.37502 3.71629L9.37499 3.71628L9.37484 3.71624L9.3742 3.71603L9.37158 3.71521L9.36125 3.712L9.32261 3.70024C9.28972 3.69037 9.24386 3.67693 9.19205 3.66266C9.08735 3.63384 8.96212 3.60273 8.87016 3.58995C8.77572 3.57683 8.6588 3.56732 8.56449 3.56108C8.51755 3.55797 8.47662 3.5557 8.44744 3.55421L8.41326 3.55254L8.40416 3.55214L8.40184 3.55204L8.40127 3.55202L8.40114 3.55201L8.40111 3.55201L8.40111 3.55201L8.32272 3.54879L8.32946 3.47063L8.4556 2.00842L8.45859 1.97382L8.4869 1.95372L9.16826 1.46981L9.22235 1.4314L9.26707 1.48039L9.85092 2.11993L9.87866 2.15031L9.86794 2.19003L9.47005 3.66433Z" fill="#2E42A5" stroke="white" stroke-width="0.15"/>
<mask id="mask3_8_24259" style="mask-type:luminance" maskUnits="userSpaceOnUse" x="8" y="1" width="2" height="3">
<path d="M9.47005 3.66433L9.44966 3.7399L9.37503 3.71629L9.37502 3.71629L9.37499 3.71628L9.37484 3.71624L9.3742 3.71603L9.37158 3.71521L9.36125 3.712L9.32261 3.70024C9.28972 3.69037 9.24386 3.67693 9.19205 3.66266C9.08735 3.63384 8.96212 3.60273 8.87016 3.58995C8.77572 3.57683 8.6588 3.56732 8.56449 3.56108C8.51755 3.55797 8.47662 3.5557 8.44744 3.55421L8.41326 3.55254L8.40416 3.55214L8.40184 3.55204L8.40127 3.55202L8.40114 3.55201L8.40111 3.55201L8.40111 3.55201L8.32272 3.54879L8.32946 3.47063L8.4556 2.00842L8.45859 1.97382L8.4869 1.95372L9.16826 1.46981L9.22235 1.4314L9.26707 1.48039L9.85092 2.11993L9.87866 2.15031L9.86794 2.19003L9.47005 3.66433Z" fill="white" stroke="white" stroke-width="0.15"/>
</mask>
<g mask="url(#mask3_8_24259)">
</g>
<path d="M10.6303 4.07308L10.5979 4.1477L10.5262 4.10937L10.5262 4.10937L10.5262 4.10937L10.5262 4.10936L10.526 4.10928L10.5254 4.10895L10.5228 4.10755L10.5122 4.10204C10.503 4.09722 10.4894 4.09019 10.4722 4.08146C10.4378 4.06399 10.389 4.03974 10.3317 4.01272C10.2164 3.95844 10.0686 3.89399 9.93402 3.85054C9.79654 3.80617 9.67339 3.77184 9.58465 3.74862C9.5403 3.73701 9.5046 3.7282 9.48008 3.7223L9.45199 3.71566L9.44483 3.71402L9.44307 3.71362L9.44266 3.71353L9.44257 3.71351L9.44257 3.71351L9.44256 3.71351L9.44256 3.71351L9.36503 3.69621L9.38676 3.6198L9.80975 2.13186L9.82012 2.09538L9.85565 2.08211L10.6848 1.77232L10.743 1.75059L10.7752 1.80367L11.2448 2.57772L11.2649 2.61089L11.2495 2.64648L10.6303 4.07308Z" fill="#56C6F5" stroke="white" stroke-width="0.15"/>
<mask id="mask4_8_24259" style="mask-type:luminance" maskUnits="userSpaceOnUse" x="9" y="1" width="3" height="4">
<path d="M10.6303 4.07308L10.5979 4.1477L10.5262 4.10937L10.5262 4.10937L10.5262 4.10937L10.5262 4.10936L10.526 4.10928L10.5254 4.10895L10.5228 4.10755L10.5122 4.10204C10.503 4.09722 10.4894 4.09019 10.4722 4.08146C10.4378 4.06399 10.389 4.03974 10.3317 4.01272C10.2164 3.95844 10.0686 3.89399 9.93402 3.85054C9.79654 3.80617 9.67339 3.77184 9.58465 3.74862C9.5403 3.73701 9.5046 3.7282 9.48008 3.7223L9.45199 3.71566L9.44483 3.71402L9.44307 3.71362L9.44266 3.71353L9.44257 3.71351L9.44257 3.71351L9.44256 3.71351L9.44256 3.71351L9.36503 3.69621L9.38676 3.6198L9.80975 2.13186L9.82012 2.09538L9.85565 2.08211L10.6848 1.77232L10.743 1.75059L10.7752 1.80367L11.2448 2.57772L11.2649 2.61089L11.2495 2.64648L10.6303 4.07308Z" fill="white" stroke="white" stroke-width="0.15"/>
</mask>
<g mask="url(#mask4_8_24259)">
</g>
</g>
</g>
<defs>
<clipPath id="clip0_8_24259">
<rect width="16" height="12" fill="white"/>
</clipPath>
</defs>
</svg>
