<svg width="16" height="12" viewBox="0 0 16 12" fill="none" xmlns="http://www.w3.org/2000/svg">
<g clip-path="url(#clip0_8_24140)">
<rect width="16" height="12" fill="white"/>
<path fill-rule="evenodd" clip-rule="evenodd" d="M0 0V12H16V0H0Z" fill="#2E42A5"/>
<mask id="mask0_8_24140" style="mask-type:luminance" maskUnits="userSpaceOnUse" x="0" y="0" width="16" height="12">
<path fill-rule="evenodd" clip-rule="evenodd" d="M0 0V12H16V0H0Z" fill="white"/>
</mask>
<g mask="url(#mask0_8_24140)">
<path fill-rule="evenodd" clip-rule="evenodd" d="M0 6V12H16V6H0Z" fill="#E31D1C"/>
<rect x="3" y="2" width="10" height="8" fill="white"/>
<mask id="mask1_8_24140" style="mask-type:luminance" maskUnits="userSpaceOnUse" x="3" y="2" width="10" height="8">
<rect x="3" y="2" width="10" height="8" fill="white"/>
</mask>
<g mask="url(#mask1_8_24140)">
<path fill-rule="evenodd" clip-rule="evenodd" d="M3 8.3849C3 8.3849 5.40028 7.32124 8 7.38615C10.5997 7.45106 13 8.63459 13 8.63459V10H3L3 8.3849Z" fill="#279E19"/>
<path fill-rule="evenodd" clip-rule="evenodd" d="M5.71992 3.50933C5.69291 3.54133 5.69185 3.58583 5.7142 3.62125C5.87449 3.87522 6.57986 4.87805 7.72466 4.87805C8.82701 4.87805 9.64813 3.9482 9.88139 3.65249C9.92 3.60354 9.90849 3.53456 9.85525 3.50211C9.6853 3.39856 9.30185 3.2 8.86024 3.2C8.26286 3.2 7.72466 3.45514 7.72466 3.45514C7.72466 3.45514 6.92389 3.2 6.41388 3.2C6.0279 3.2 5.80534 3.40811 5.71992 3.50933Z" fill="#026A16"/>
<path fill-rule="evenodd" clip-rule="evenodd" d="M7.89467 7.40698L6.99856 6.84025C6.47498 7.08251 6.2132 7.56223 6.2132 8.27942L6.90715 9.41874H8.32447H9.02381L9.52471 8.27942C9.52471 8.27942 9.71978 6.8062 9.02381 6.56853L7.89467 7.40698Z" fill="#C51918"/>
<path fill-rule="evenodd" clip-rule="evenodd" d="M5.93407 5.816C5.93407 5.816 4.58142 6.28559 4.58142 8.01791L6.38558 8.37473C6.38558 8.37473 6.36445 7.38222 6.90374 6.91666L5.93407 5.816Z" fill="#0A328C"/>
<path d="M5.26801 5.2638L5.48335 5.04623L8.00004 7.52332L7.7847 7.7409L5.26801 5.2638Z" fill="#FFD018"/>
<path d="M4.48126 5.84543L4.65823 5.59309L7.8946 8.05588L7.71763 8.30822L4.48126 5.84543Z" fill="#FFD018"/>
<path d="M3.94312 6.81095L4.08217 6.53405L7.75905 8.53765L7.61999 8.81455L3.94312 6.81095Z" fill="#FFD018"/>
<path fill-rule="evenodd" clip-rule="evenodd" d="M4.59076 8.00436L7.01128 8.3215L6.87501 8.71737H6.49126L6.75262 8.94104L7.34199 9.10267V8.71737H7.85814V9.53596H6.75262L6.32861 8.94104C6.32861 8.94104 5.97249 9.35242 5.62493 9.35242C5.27737 9.35242 4.93472 9.21882 4.93472 8.77016C4.93472 8.3215 4.93472 8.45802 4.93472 8.45802L4.59076 8.3215V8.00436Z" fill="#FECA00"/>
<path fill-rule="evenodd" clip-rule="evenodd" d="M9.80826 5.72269C9.80826 5.72269 11.3944 6.2856 11.3944 8.01792L9.57424 8.3743C9.57424 8.3743 9.49148 7.09335 8.92972 6.62779L9.80826 5.72269Z" fill="#0A328C"/>
<path d="M10.6792 5.2638L10.4549 5.04623L7.74335 7.32271L7.96766 7.54028L10.6792 5.2638Z" fill="#FFD018"/>
<path d="M11.4987 5.84543L11.3144 5.59309L7.94316 8.05588V8.51756L11.4987 5.84543Z" fill="#FFD018"/>
<path d="M12.0583 6.81144L11.9154 6.53356L7.85705 8.50532L8.00002 8.78319L12.0583 6.81144Z" fill="#FFD018"/>
<path fill-rule="evenodd" clip-rule="evenodd" d="M11.3846 8.00436L8.86326 8.3215L9.00521 8.71737H9.40495L9.1327 8.94104L8.51878 9.10267V8.71737H7.98112V9.53596H9.1327L9.57439 8.94104C9.57439 8.94104 9.94534 9.35242 10.3074 9.35242C10.6694 9.35242 11.0263 9.21882 11.0263 8.77016C11.0263 8.3215 11.0263 8.45802 11.0263 8.45802L11.3846 8.3215V8.00436Z" fill="#FECA00"/>
<path fill-rule="evenodd" clip-rule="evenodd" d="M7.69154 4.67871C7.69154 4.67871 7.52814 5.88238 7.52814 6.37225C7.52814 6.86212 7.69154 9.46606 7.69154 9.46606H8.11179C8.11179 9.46606 8.11179 6.7812 8.11179 6.37225C8.11179 5.9633 7.8652 4.67871 7.8652 4.67871H7.69154Z" fill="#FECA00"/>
</g>
</g>
</g>
<defs>
<clipPath id="clip0_8_24140">
<rect width="16" height="12" fill="white"/>
</clipPath>
</defs>
</svg>
