<svg width="16" height="12" viewBox="0 0 16 12" fill="none" xmlns="http://www.w3.org/2000/svg">
<g clip-path="url(#clip0_8_24184)">
<rect width="16" height="12" fill="white"/>
<path fill-rule="evenodd" clip-rule="evenodd" d="M0 0V12H16V0H0Z" fill="#F7FCFF"/>
<mask id="mask0_8_24184" style="mask-type:luminance" maskUnits="userSpaceOnUse" x="0" y="0" width="16" height="12">
<path fill-rule="evenodd" clip-rule="evenodd" d="M0 0V12H16V0H0Z" fill="white"/>
</mask>
<g mask="url(#mask0_8_24184)">
<path fill-rule="evenodd" clip-rule="evenodd" d="M0 2V3.78274H16V2H0Z" fill="#3D58DB"/>
<path fill-rule="evenodd" clip-rule="evenodd" d="M0 8.174V10H16V8.174H0Z" fill="#3D58DB"/>
<path fill-rule="evenodd" clip-rule="evenodd" d="M5.69061 7.46939H10.3791L8.05797 3.45914L5.69061 7.46939ZM9.42528 6.91938H6.65398L8.05329 4.54899L9.42528 6.91938Z" fill="#3D58DB"/>
<path fill-rule="evenodd" clip-rule="evenodd" d="M5.54578 4.46267H10.3404L8.06793 8.4855L5.54578 4.46267ZM9.39801 5.01267H6.53976L8.04332 7.41083L9.39801 5.01267Z" fill="#3D58DB"/>
</g>
</g>
<defs>
<clipPath id="clip0_8_24184">
<rect width="16" height="12" fill="white"/>
</clipPath>
</defs>
</svg>
