<svg width="16" height="12" viewBox="0 0 16 12" fill="none" xmlns="http://www.w3.org/2000/svg">
<g clip-path="url(#clip0_8_24202)">
<rect width="16" height="12" fill="white"/>
<path fill-rule="evenodd" clip-rule="evenodd" d="M0 0V12H16V0H0Z" fill="#E31D1C"/>
<mask id="mask0_8_24202" style="mask-type:luminance" maskUnits="userSpaceOnUse" x="0" y="0" width="16" height="12">
<path fill-rule="evenodd" clip-rule="evenodd" d="M0 0V12H16V0H0Z" fill="white"/>
</mask>
<g mask="url(#mask0_8_24202)">
<path fill-rule="evenodd" clip-rule="evenodd" d="M3.04676 2.0705C3.04291 2.02424 3.09827 2.0018 3.12958 2.03608C3.35414 2.2819 3.94767 2.89389 4.29091 2.89389C4.72041 2.89389 6.40721 1.47257 6.90578 1.70411C7.40436 1.93564 8.41381 4.35646 8.41381 4.35646L7.75599 5.18159L6.90578 4.71778L6.67048 3.17156C6.67048 3.17156 5.10857 3.95421 4.29091 3.64868L3.83127 3.81633C3.83127 3.81633 3.38862 2.93983 3.21431 2.67174C3.09898 2.49436 3.05996 2.22945 3.04676 2.0705Z" fill="#F7FCFF"/>
<path fill-rule="evenodd" clip-rule="evenodd" d="M4.00001 4.13762L3.41222 4.44664L3.52448 3.79213L3.04895 3.3286L3.70611 3.23311L4.00001 2.63762L4.2939 3.23311L4.95106 3.3286L4.47553 3.79213L4.58779 4.44664L4.00001 4.13762Z" fill="#FECA00"/>
<path fill-rule="evenodd" clip-rule="evenodd" d="M6.56569 1.76835C6.57321 1.6744 6.65165 1.60199 6.7459 1.60199C6.85142 1.60199 6.93451 1.692 6.9261 1.79719L6.81552 3.17925C6.80801 3.2732 6.72957 3.34561 6.63532 3.34561C6.52979 3.34561 6.4467 3.2556 6.45512 3.15041L6.56569 1.76835Z" fill="#FECA00"/>
<path fill-rule="evenodd" clip-rule="evenodd" d="M12.6101 2.55172C12.6513 2.57297 12.641 2.6318 12.5954 2.64019C12.2679 2.70037 11.4344 2.8794 11.2525 3.17049C11.0249 3.53473 11.3364 5.7184 10.8758 6.01852C10.4153 6.31864 7.82736 5.89186 7.82736 5.89186L7.4762 4.89675L8.32008 4.42151L9.80103 5.01154C9.80103 5.01154 9.94022 3.33287 10.6326 2.80137L10.7138 2.29187C10.7138 2.29187 11.6917 2.38096 12.0114 2.3752C12.2229 2.3714 12.4683 2.47868 12.6101 2.55172Z" fill="#F7FCFF"/>
<path fill-rule="evenodd" clip-rule="evenodd" d="M10.2526 2.4282L10.302 1.76597L10.7976 2.20801L11.4426 2.05037L11.1754 2.65828L11.5246 3.22308L10.8639 3.15675L10.4347 3.66345L10.2936 3.01455L9.67903 2.76291L10.2526 2.4282Z" fill="#FECA00"/>
<path fill-rule="evenodd" clip-rule="evenodd" d="M10.9767 5.59919C11.0572 5.65784 11.0806 5.76771 11.0309 5.85404C10.9719 5.95666 10.8358 5.98346 10.7423 5.91088L9.78035 5.16437C9.71936 5.11704 9.69617 5.03557 9.72311 4.96321C9.76393 4.85357 9.89812 4.81318 9.99267 4.88208L10.9767 5.59919Z" fill="#FECA00"/>
<path fill-rule="evenodd" clip-rule="evenodd" d="M7.43125 10.4918C7.39221 10.5169 7.34642 10.4786 7.36198 10.4349C7.47361 10.1212 7.73532 9.3098 7.57418 9.00674C7.37254 8.62751 5.32568 7.80542 5.29605 7.25651C5.26641 6.70759 6.92996 4.6798 6.92996 4.6798L7.96733 4.87324L7.95696 5.84168L6.61135 6.82759C6.61135 6.82759 8.12732 7.77879 8.24142 8.64418L8.60443 8.97952C8.60443 8.97952 8.03833 9.78184 7.88346 10.0616C7.78098 10.2467 7.5654 10.4055 7.43125 10.4918Z" fill="#F7FCFF"/>
<path fill-rule="evenodd" clip-rule="evenodd" d="M8.9461 8.45708L9.4949 8.83099L8.8643 9.03915L8.67828 9.67663L8.28544 9.14121L7.62168 9.16129L8.0095 8.62223L7.78529 7.99716L8.41781 8.19941L8.943 7.79302L8.9461 8.45708Z" fill="#FECA00"/>
<path fill-rule="evenodd" clip-rule="evenodd" d="M5.55181 7.47815C5.44027 7.52093 5.31609 7.4587 5.28359 7.34375C5.25515 7.24316 5.30771 7.1374 5.40507 7.09932L6.41411 6.70466C6.50688 6.66838 6.61233 6.70342 6.66493 6.78801C6.73349 6.89826 6.68463 7.04367 6.56342 7.09016L5.55181 7.47815Z" fill="#FECA00"/>
<path d="M6.83126 4.88246C6.76903 4.86072 6.73579 4.79141 6.75702 4.72767C6.77824 4.66392 6.87794 4.55744 6.94016 4.57919L7.80806 4.88246C7.85284 4.89811 7.88432 4.93943 7.88826 4.98773L7.96587 5.93966C7.97134 6.00678 7.87358 6.06107 7.80806 6.06668C7.74254 6.07228 7.68499 6.02242 7.67952 5.9553L7.60765 5.13667L6.83126 4.88246Z" fill="#FECA00"/>
<path d="M8.34026 4.38377C8.39213 4.3424 8.48476 4.39036 8.52516 4.4435C8.56555 4.49664 8.55624 4.57326 8.50437 4.61464L7.90316 5.23085C7.85128 5.27223 7.73461 5.19152 7.69422 5.13837C7.65383 5.08523 7.64234 4.94047 7.69422 4.89909L8.34026 4.38377Z" fill="#FECA00"/>
</g>
</g>
<defs>
<clipPath id="clip0_8_24202">
<rect width="16" height="12" fill="white"/>
</clipPath>
</defs>
</svg>
