<svg width="16" height="12" viewBox="0 0 16 12" fill="none" xmlns="http://www.w3.org/2000/svg">
<g clip-path="url(#clip0_8_24245)">
<rect width="16" height="12" fill="white"/>
<path fill-rule="evenodd" clip-rule="evenodd" d="M0 0V12H16V0H0Z" fill="#F7FCFF"/>
<path fill-rule="evenodd" clip-rule="evenodd" d="M-0.752869 1.64574L-0.0092963 2.35426C0.604717 1.77383 1.18408 1.5 1.73466 1.5C2.00067 1.5 2.11396 1.56425 2.42074 1.85426C2.90736 2.31425 3.23485 2.5 3.8504 2.5C4.46594 2.5 4.79344 2.31425 5.28006 1.85426C5.58684 1.56425 5.70013 1.5 5.96614 1.5C6.23215 1.5 6.34544 1.56425 6.65222 1.85426C7.13884 2.31425 7.46634 2.5 8.08188 2.5C8.69743 2.5 9.02492 2.31425 9.51154 1.85426C9.81832 1.56425 9.93161 1.5 10.1976 1.5C10.4636 1.5 10.5769 1.56425 10.8837 1.85426C11.3703 2.31425 11.6978 2.5 12.3134 2.5C12.9289 2.5 13.2564 2.31425 13.743 1.85426C14.0498 1.56425 14.1631 1.5 14.4291 1.5C14.9797 1.5 15.559 1.77383 16.1731 2.35426L16.9166 1.64574C16.1202 0.892834 15.289 0.5 14.4291 0.5C13.8136 0.5 13.4861 0.685748 12.9994 1.14574C12.6927 1.43575 12.5794 1.5 12.3134 1.5C12.0473 1.5 11.9341 1.43575 11.6273 1.14574C11.1407 0.685748 10.8132 0.5 10.1976 0.5C9.58208 0.5 9.25458 0.685748 8.76797 1.14574C8.46118 1.43575 8.34789 1.5 8.08188 1.5C7.81587 1.5 7.70258 1.43575 7.3958 1.14574C6.90918 0.685748 6.58169 0.5 5.96614 0.5C5.35059 0.5 5.0231 0.685748 4.53648 1.14574C4.2297 1.43575 4.11641 1.5 3.8504 1.5C3.58439 1.5 3.4711 1.43575 3.16432 1.14574C2.6777 0.685748 2.3502 0.5 1.73466 0.5C0.874748 0.5 0.0436121 0.892834 -0.752869 1.64574ZM-0.0092963 4.35426L-0.752869 3.64574C0.0436121 2.89283 0.874748 2.5 1.73466 2.5C2.3502 2.5 2.6777 2.68575 3.16432 3.14574C3.4711 3.43575 3.58439 3.5 3.8504 3.5C4.11641 3.5 4.2297 3.43575 4.53648 3.14574C5.0231 2.68575 5.35059 2.5 5.96614 2.5C6.58169 2.5 6.90918 2.68575 7.3958 3.14574C7.70258 3.43575 7.81587 3.5 8.08188 3.5C8.34789 3.5 8.46118 3.43575 8.76797 3.14574C9.25458 2.68575 9.58208 2.5 10.1976 2.5C10.8132 2.5 11.1407 2.68575 11.6273 3.14574C11.9341 3.43575 12.0473 3.5 12.3134 3.5C12.5794 3.5 12.6927 3.43575 12.9994 3.14574C13.4861 2.68575 13.8136 2.5 14.4291 2.5C15.289 2.5 16.1202 2.89283 16.9166 3.64574L16.1731 4.35426C15.559 3.77383 14.9797 3.5 14.4291 3.5C14.1631 3.5 14.0498 3.56425 13.743 3.85426C13.2564 4.31425 12.9289 4.5 12.3134 4.5C11.6978 4.5 11.3703 4.31425 10.8837 3.85426C10.5769 3.56425 10.4636 3.5 10.1976 3.5C9.93161 3.5 9.81832 3.56425 9.51154 3.85426C9.02492 4.31425 8.69743 4.5 8.08188 4.5C7.46634 4.5 7.13884 4.31425 6.65222 3.85426C6.34544 3.56425 6.23215 3.5 5.96614 3.5C5.70013 3.5 5.58684 3.56425 5.28006 3.85426C4.79344 4.31425 4.46594 4.5 3.8504 4.5C3.23485 4.5 2.90736 4.31425 2.42074 3.85426C2.11396 3.56425 2.00067 3.5 1.73466 3.5C1.18408 3.5 0.604717 3.77383 -0.0092963 4.35426ZM-0.0092963 6.35426L-0.752869 5.64574C0.0436121 4.89283 0.874748 4.5 1.73466 4.5C2.3502 4.5 2.6777 4.68575 3.16432 5.14574C3.4711 5.43575 3.58439 5.5 3.8504 5.5C4.11641 5.5 4.2297 5.43575 4.53648 5.14574C5.0231 4.68575 5.35059 4.5 5.96614 4.5C6.58169 4.5 6.90918 4.68575 7.3958 5.14574C7.70258 5.43575 7.81587 5.5 8.08188 5.5C8.34789 5.5 8.46118 5.43575 8.76797 5.14574C9.25458 4.68575 9.58208 4.5 10.1976 4.5C10.8132 4.5 11.1407 4.68575 11.6273 5.14574C11.9341 5.43575 12.0473 5.5 12.3134 5.5C12.5794 5.5 12.6927 5.43575 12.9994 5.14574C13.4861 4.68575 13.8136 4.5 14.4291 4.5C15.289 4.5 16.1202 4.89283 16.9166 5.64574L16.1731 6.35426C15.559 5.77383 14.9797 5.5 14.4291 5.5C14.1631 5.5 14.0498 5.56425 13.743 5.85426C13.2564 6.31425 12.9289 6.5 12.3134 6.5C11.6978 6.5 11.3703 6.31425 10.8837 5.85426C10.5769 5.56425 10.4636 5.5 10.1976 5.5C9.93161 5.5 9.81832 5.56425 9.51154 5.85426C9.02492 6.31425 8.69743 6.5 8.08188 6.5C7.46634 6.5 7.13884 6.31425 6.65222 5.85426C6.34544 5.56425 6.23215 5.5 5.96614 5.5C5.70013 5.5 5.58684 5.56425 5.28006 5.85426C4.79344 6.31425 4.46594 6.5 3.8504 6.5C3.23485 6.5 2.90736 6.31425 2.42074 5.85426C2.11396 5.56425 2.00067 5.5 1.73466 5.5C1.18408 5.5 0.604717 5.77383 -0.0092963 6.35426ZM-0.0092963 8.35426L-0.752869 7.64574C0.0436121 6.89283 0.874748 6.5 1.73466 6.5C2.3502 6.5 2.6777 6.68575 3.16432 7.14574C3.4711 7.43575 3.58439 7.5 3.8504 7.5C4.11641 7.5 4.2297 7.43575 4.53648 7.14574C5.0231 6.68575 5.35059 6.5 5.96614 6.5C6.58169 6.5 6.90918 6.68575 7.3958 7.14574C7.70258 7.43575 7.81587 7.5 8.08188 7.5C8.34789 7.5 8.46118 7.43575 8.76797 7.14574C9.25458 6.68575 9.58208 6.5 10.1976 6.5C10.8132 6.5 11.1407 6.68575 11.6273 7.14574C11.9341 7.43575 12.0473 7.5 12.3134 7.5C12.5794 7.5 12.6927 7.43575 12.9994 7.14574C13.4861 6.68575 13.8136 6.5 14.4291 6.5C15.289 6.5 16.1202 6.89283 16.9166 7.64574L16.1731 8.35426C15.559 7.77383 14.9797 7.5 14.4291 7.5C14.1631 7.5 14.0498 7.56425 13.743 7.85426C13.2564 8.31425 12.9289 8.5 12.3134 8.5C11.6978 8.5 11.3703 8.31425 10.8837 7.85426C10.5769 7.56425 10.4636 7.5 10.1976 7.5C9.93161 7.5 9.81832 7.56425 9.51154 7.85426C9.02492 8.31425 8.69743 8.5 8.08188 8.5C7.46634 8.5 7.13884 8.31425 6.65222 7.85426C6.34544 7.56425 6.23215 7.5 5.96614 7.5C5.70013 7.5 5.58684 7.56425 5.28006 7.85426C4.79344 8.31425 4.46594 8.5 3.8504 8.5C3.23485 8.5 2.90736 8.31425 2.42074 7.85426C2.11396 7.56425 2.00067 7.5 1.73466 7.5C1.18408 7.5 0.604717 7.77383 -0.0092963 8.35426ZM-0.0092963 10.3543L-0.752869 9.64574C0.0436121 8.89283 0.874748 8.5 1.73466 8.5C2.3502 8.5 2.6777 8.68575 3.16432 9.14574C3.4711 9.43575 3.58439 9.5 3.8504 9.5C4.11641 9.5 4.2297 9.43575 4.53648 9.14574C5.0231 8.68575 5.35059 8.5 5.96614 8.5C6.58169 8.5 6.90918 8.68575 7.3958 9.14574C7.70258 9.43575 7.81587 9.5 8.08188 9.5C8.34789 9.5 8.46118 9.43575 8.76797 9.14574C9.25458 8.68575 9.58208 8.5 10.1976 8.5C10.8132 8.5 11.1407 8.68575 11.6273 9.14574C11.9341 9.43575 12.0473 9.5 12.3134 9.5C12.5794 9.5 12.6927 9.43575 12.9994 9.14574C13.4861 8.68575 13.8136 8.5 14.4291 8.5C15.289 8.5 16.1202 8.89283 16.9166 9.64574L16.1731 10.3543C15.559 9.77383 14.9797 9.5 14.4291 9.5C14.1631 9.5 14.0498 9.56425 13.743 9.85426C13.2564 10.3143 12.9289 10.5 12.3134 10.5C11.6978 10.5 11.3703 10.3143 10.8837 9.85426C10.5769 9.56425 10.4636 9.5 10.1976 9.5C9.93161 9.5 9.81832 9.56425 9.51154 9.85426C9.02492 10.3143 8.69743 10.5 8.08188 10.5C7.46634 10.5 7.13884 10.3143 6.65222 9.85426C6.34544 9.56425 6.23215 9.5 5.96614 9.5C5.70013 9.5 5.58684 9.56425 5.28006 9.85426C4.79344 10.3143 4.46594 10.5 3.8504 10.5C3.23485 10.5 2.90736 10.3143 2.42074 9.85426C2.11396 9.56425 2.00067 9.5 1.73466 9.5C1.18408 9.5 0.604717 9.77383 -0.0092963 10.3543ZM-0.0092963 12.3543L-0.752869 11.6457C0.0436121 10.8928 0.874748 10.5 1.73466 10.5C2.3502 10.5 2.6777 10.6857 3.16432 11.1457C3.4711 11.4357 3.58439 11.5 3.8504 11.5C4.11641 11.5 4.2297 11.4357 4.53648 11.1457C5.0231 10.6857 5.35059 10.5 5.96614 10.5C6.58169 10.5 6.90918 10.6857 7.3958 11.1457C7.70258 11.4357 7.81587 11.5 8.08188 11.5C8.34789 11.5 8.46118 11.4357 8.76797 11.1457C9.25458 10.6857 9.58208 10.5 10.1976 10.5C10.8132 10.5 11.1407 10.6857 11.6273 11.1457C11.9341 11.4357 12.0473 11.5 12.3134 11.5C12.5794 11.5 12.6927 11.4357 12.9994 11.1457C13.4861 10.6857 13.8136 10.5 14.4291 10.5C15.289 10.5 16.1202 10.8928 16.9166 11.6457L16.1731 12.3543C15.559 11.7738 14.9797 11.5 14.4291 11.5C14.1631 11.5 14.0498 11.5643 13.743 11.8543C13.2564 12.3143 12.9289 12.5 12.3134 12.5C11.6978 12.5 11.3703 12.3143 10.8837 11.8543C10.5769 11.5643 10.4636 11.5 10.1976 11.5C9.93161 11.5 9.81832 11.5643 9.51154 11.8543C9.02492 12.3143 8.69743 12.5 8.08188 12.5C7.46634 12.5 7.13884 12.3143 6.65222 11.8543C6.34544 11.5643 6.23215 11.5 5.96614 11.5C5.70013 11.5 5.58684 11.5643 5.28006 11.8543C4.79344 12.3143 4.46594 12.5 3.8504 12.5C3.23485 12.5 2.90736 12.3143 2.42074 11.8543C2.11396 11.5643 2.00067 11.5 1.73466 11.5C1.18408 11.5 0.604717 11.7738 -0.0092963 12.3543Z" fill="#2E42A5"/>
<g clip-path="url(#clip1_8_24245)">
<rect width="9" height="7" fill="#2E42A5"/>
<path d="M-1.0022 6.49991L0.978278 7.36852L9.04488 0.944376L10.0895 -0.34639L7.9717 -0.636702L4.68153 2.13164L2.03327 3.99686L-1.0022 6.49991Z" fill="#F7FCFF"/>
<path d="M-0.731079 7.10847L0.277882 7.61253L9.71439 -0.466324H8.29769L-0.731079 7.10847Z" fill="#F50100"/>
<path d="M10.0021 6.49991L8.0216 7.36852L-0.0449982 0.944376L-1.08965 -0.34639L1.02818 -0.636702L4.31835 2.13164L6.9666 3.99686L10.0021 6.49991Z" fill="#F7FCFF"/>
<path d="M9.93451 6.93667L8.92555 7.44073L4.90738 3.98176L3.71609 3.59529L-1.19016 -0.341973H0.226536L5.13003 3.50184L6.4325 3.96525L9.93451 6.93667Z" fill="#F50100"/>
<path fill-rule="evenodd" clip-rule="evenodd" d="M4.99219 0H3.99219V3H-6.10352e-05V4H3.99219V7H4.99219V4H8.99994V3H4.99219V0Z" fill="#F50100"/>
<path fill-rule="evenodd" clip-rule="evenodd" d="M3.24219 -0.75H5.74219V2.25H9.74994V4.75H5.74219V7.75H3.24219V4.75H-0.750061V2.25H3.24219V-0.75ZM3.99219 3H-6.10352e-05V4H3.99219V7H4.99219V4H8.99994V3H4.99219V0H3.99219V3Z" fill="#F7FCFF"/>
</g>
<rect x="10.2" y="4.68933" width="0.5" height="6.31068" rx="0.25" fill="#D86D00"/>
<path d="M10.2021 1.02876C10.713 1.72937 10.7778 2.67017 10.713 3.51304L10.3141 3.48416C10.3759 2.68011 10.2021 1.02876 10.2021 1.02876Z" fill="#449A01"/>
<path d="M10.8535 3.69206L10.4856 3.53969C10.8403 2.41743 12.6097 1.46187 12.6097 1.46187C11.8171 1.84057 11.5477 2.86738 10.8535 3.69206Z" fill="#449A01"/>
<path d="M10.6882 3.92521L10.4949 3.58518C11.4408 2.92754 12.9689 2.78564 12.9689 2.78564C12.1806 3.00935 11.3844 3.55225 10.6882 3.92521Z" fill="#449A01"/>
<path d="M10.4421 4.09062L10.6088 3.73758C12.459 4.3119 12.7302 5.27223 12.7302 5.27223C12.4874 5.05793 11.7158 4.65733 10.4421 4.09062Z" fill="#449A01"/>
<path d="M10.2476 4.06487L10.6405 3.99182C10.7765 4.68127 11.1271 5.09902 11.3126 5.54158C11.3126 5.54158 10.2742 5.07781 10.2476 4.06487Z" fill="#449A01"/>
<path d="M10.2177 3.74155L10.6413 3.84807C9.9463 4.69774 8.91355 5.14407 8.50519 5.28998C8.50519 5.28998 9.4025 4.48066 10.2177 3.74155Z" fill="#449A01"/>
<path d="M10.4058 3.55765L10.3414 3.95244C9.51383 3.70003 8.02417 3.80578 8.02417 3.80578C8.6495 3.65768 9.51383 3.41233 10.4058 3.55765Z" fill="#449A01"/>
<path d="M10.4773 3.35562L10.3146 3.71038C9.09265 3.18205 8.43958 2.19452 8.43958 2.19452C8.48104 2.37617 9.39832 2.88909 10.4773 3.35562Z" fill="#449A01"/>
<path fill-rule="evenodd" clip-rule="evenodd" d="M10.5 4C10.7761 4 11 3.77614 11 3.5C11 3.22386 10.7761 3 10.5 3C10.2239 3 10 3.22386 10 3.5C10 3.77614 10.2239 4 10.5 4Z" fill="#449A01"/>
<path fill-rule="evenodd" clip-rule="evenodd" d="M11.956 7.65376V7.58159C11.7256 7.39962 11.4843 7.30863 11.2321 7.30863C10.9903 7.19091 10.7456 7.14521 10.4979 7.17154C10.498 7.1707 10.498 7.17027 10.498 7.17027C10.1257 7.13018 9.75036 7.30863 9.75036 7.30863C9.37208 7.30863 9.02643 7.58159 9.02643 7.58159V7.65376L9.47828 8.1531C9.47828 8.1531 9.60547 8.63372 10.4962 8.52076V8.52198C10.4962 8.52198 11.0859 8.50427 11.1274 8.4891C11.1438 8.48309 11.1609 8.47761 11.1783 8.47201C11.2938 8.4349 11.4257 8.39254 11.5042 8.1531L11.956 7.65376ZM10.4962 7.19362C10.4833 7.35987 10.4099 8.36201 10.4962 8.51738V7.19362Z" fill="#F50100"/>
<path fill-rule="evenodd" clip-rule="evenodd" d="M10.0973 6.87593C9.89249 6.87593 9.80836 6.93083 9.7603 7.09293C9.72968 7.19622 9.75938 7.28439 9.8557 7.36669L9.80074 7.44455C9.68102 7.34226 9.63572 7.21789 9.67039 7.07965C9.43847 7.0709 9.26527 7.0979 9.15167 7.15891C9.05317 7.21182 9.03516 7.34605 9.10969 7.57956L9.02515 7.61223C8.93744 7.33744 8.96249 7.15082 9.11237 7.07032C9.24443 6.99938 9.43691 6.97051 9.69074 6.98183L9.68936 7.01953C9.75438 6.84484 9.87397 6.77734 10.0973 6.77734C10.2318 6.77734 10.3409 6.81045 10.4232 6.87767V6.83426H10.6024V6.8593C10.6797 6.80953 10.7767 6.78496 10.8925 6.78496C11.1206 6.78496 11.2405 6.8553 11.3045 7.03821L11.3043 7.03113C11.5581 7.01981 11.7506 7.04868 11.8826 7.11961C12.0325 7.20011 12.0576 7.38673 11.9699 7.66153L11.8853 7.62886C11.9599 7.39535 11.9418 7.26111 11.8433 7.20821C11.7302 7.14745 11.558 7.12042 11.3276 7.12884C11.3442 7.25047 11.2967 7.36024 11.1891 7.45217L11.1342 7.3743C11.2305 7.29201 11.2602 7.20384 11.2296 7.10054C11.1815 6.93845 11.0974 6.88355 10.8925 6.88355C10.7653 6.88355 10.6693 6.91616 10.6024 6.98005V7.41324L10.6024 7.47508H10.4232V7.40562H10.3875V6.97243C10.3206 6.90854 10.2246 6.87593 10.0973 6.87593ZM9.08422 7.70257L9.05352 7.73847L9.46444 8.16386C9.47777 8.19088 9.48963 8.21585 9.50001 8.23871C9.51108 8.28761 9.5277 8.34182 9.55135 8.37495C9.55351 8.38457 9.55459 8.39255 9.55459 8.39885C9.55459 8.44967 9.67474 8.47983 9.90925 8.51081C10.093 8.53508 10.3098 8.55137 10.4871 8.55381V8.55412L10.5096 8.55404L10.5321 8.55412V8.55381C10.7094 8.55137 10.9262 8.53508 11.11 8.51081C11.3445 8.47983 11.4646 8.44967 11.4646 8.39885C11.4646 8.36554 11.4948 8.28535 11.5548 8.16386L11.9657 7.73847L11.935 7.70257L11.5215 8.13067L11.5171 8.13683C11.4997 8.1721 11.4846 8.20405 11.4718 8.2328C11.4839 8.17787 11.4888 8.13116 11.4888 8.13116C11.4888 8.13116 11.0264 7.98636 10.5032 7.97989V7.97967L10.4853 7.97972L10.4673 7.97967V7.97989C9.99511 7.98573 9.57238 8.10426 9.4945 8.12729L9.08422 7.70257ZM11.4233 8.36891C11.4034 8.39985 11.3782 8.41598 11.3468 8.39981C11.249 8.34943 10.6018 8.30214 10.4853 8.29398C10.3687 8.30214 9.72157 8.34943 9.6237 8.39981L9.61888 8.40207C9.63334 8.4079 9.65315 8.41401 9.67772 8.42018C9.73535 8.43464 9.81737 8.44902 9.91459 8.46187C10.1044 8.48695 10.3302 8.50345 10.5096 8.50475C10.6891 8.50345 10.9148 8.48695 11.1046 8.46187C11.2018 8.44902 11.2839 8.43464 11.3415 8.42018C11.3708 8.41282 11.3933 8.40555 11.4081 8.39872C11.4134 8.39627 11.4174 8.394 11.42 8.3921C11.4205 8.38518 11.4216 8.37745 11.4233 8.36891ZM11.4762 8.39165L11.4769 8.39078L11.4766 8.39102L11.4762 8.39165Z" fill="#FECA00"/>
<path d="M9.70184 6.94158L9.70106 6.99086C9.30382 6.98323 9.07595 7.04702 9.01811 7.17415C8.95831 7.30558 8.96943 7.46536 9.05322 7.65516L9.01293 7.6767C8.92353 7.47419 8.91132 7.29876 8.97805 7.15208C9.04675 7.0011 9.28779 6.93362 9.70184 6.94158Z" fill="white"/>
<path d="M9.77869 7.37869L9.75572 7.42101C9.66921 7.36418 9.62592 7.26718 9.62592 7.13352C9.62592 6.94141 9.71585 6.82875 9.91479 6.75166C10.0418 6.70246 10.2152 6.72263 10.4356 6.81056L10.4203 6.8569C10.2088 6.77249 10.045 6.75345 9.92968 6.79816C9.7472 6.86887 9.67072 6.96467 9.67072 7.13352C9.67072 7.25082 9.70668 7.33138 9.77869 7.37869Z" fill="white"/>
<path d="M11.2652 6.99088L11.266 7.04016C11.6632 7.03253 11.8911 7.09632 11.9489 7.22345C12.0087 7.35489 11.9976 7.51466 11.9138 7.70446L11.9541 7.726C12.0435 7.52349 12.0557 7.34806 11.989 7.20138C11.9203 7.0504 11.6792 6.98292 11.2652 6.99088Z" fill="white"/>
<path d="M11.1249 7.38894L11.1479 7.43127C11.2344 7.37443 11.2777 7.27744 11.2777 7.14377C11.2777 6.95166 11.1878 6.83901 10.9888 6.76192C10.8619 6.71271 10.6884 6.73289 10.468 6.82082L10.4833 6.86716C10.6949 6.78275 10.8586 6.76371 10.9739 6.80841C11.1564 6.87912 11.2329 6.97493 11.2329 7.14377C11.2329 7.26107 11.1969 7.34163 11.1249 7.38894Z" fill="white"/>
</g>
<defs>
<clipPath id="clip0_8_24245">
<rect width="16" height="12" fill="white"/>
</clipPath>
<clipPath id="clip1_8_24245">
<rect width="9" height="7" fill="white"/>
</clipPath>
</defs>
</svg>
