<svg width="16" height="12" viewBox="0 0 16 12" fill="none" xmlns="http://www.w3.org/2000/svg">
<g clip-path="url(#clip0_8_24104)">
<rect width="16" height="12" fill="white"/>
<path fill-rule="evenodd" clip-rule="evenodd" d="M0 0V12H16V0H0Z" fill="#F7FCFF"/>
<mask id="mask0_8_24104" style="mask-type:luminance" maskUnits="userSpaceOnUse" x="0" y="0" width="16" height="12">
<path fill-rule="evenodd" clip-rule="evenodd" d="M0 0V12H16V0H0Z" fill="white"/>
</mask>
<g mask="url(#mask0_8_24104)">
<path fill-rule="evenodd" clip-rule="evenodd" d="M0 0V4H16V0H0Z" fill="#5EAA22"/>
<path fill-rule="evenodd" clip-rule="evenodd" d="M0 8V12H16V8H0Z" fill="#E31D1C"/>
<path d="M0.186342 8.68347H-0.950684" stroke="#F7FCFF" stroke-width="0.5"/>
<path d="M-0.962402 9.13364V8.87263H-0.592269V9.12487H-0.218255V8.87291H-0.412299" stroke="#F7FCFF" stroke-width="0.5"/>
<path d="M0.169181 9.12305H-0.0192871V8.87814H0.377528V8.67751V9.12305H0.557096V8.67751" stroke="#F7FCFF" stroke-width="0.5"/>
<path d="M0.759146 8.70401C0.759146 8.72863 0.759146 9.12493 0.759146 9.12493H0.572754" stroke="#F7FCFF" stroke-width="0.5"/>
<path d="M2.13757 8.68347H1.00055" stroke="#F7FCFF" stroke-width="0.5"/>
<path d="M0.988831 9.13364V8.87263H1.35896V9.12487H1.73298V8.87291H1.53893" stroke="#F7FCFF" stroke-width="0.5"/>
<path d="M2.1552 9.12305H1.96674V8.87814H2.36355V8.67751V9.12305H2.54312V8.67751" stroke="#F7FCFF" stroke-width="0.5"/>
<path d="M2.74517 8.70401C2.74517 8.72863 2.74517 9.12493 2.74517 9.12493H2.55878" stroke="#F7FCFF" stroke-width="0.5"/>
<path d="M4.1236 8.68347H2.98657" stroke="#F7FCFF" stroke-width="0.5"/>
<path d="M2.97485 9.13364V8.87263H3.34499V9.12487H3.719V8.87291H3.52496" stroke="#F7FCFF" stroke-width="0.5"/>
<path d="M4.10644 9.12305H3.91797V8.87814H4.31478V8.67751V9.12305H4.49435V8.67751" stroke="#F7FCFF" stroke-width="0.5"/>
<path d="M4.6964 8.70401C4.6964 8.72863 4.6964 9.12493 4.6964 9.12493H4.51001" stroke="#F7FCFF" stroke-width="0.5"/>
<path d="M6.07483 8.68347H4.93781" stroke="#F7FCFF" stroke-width="0.5"/>
<path d="M4.92609 9.13364V8.87263H5.29622V9.12487H5.67023V8.87291H5.47619" stroke="#F7FCFF" stroke-width="0.5"/>
<path d="M6.05767 9.12305H5.8692V8.87814H6.26602V8.67751V9.12305H6.44558V8.67751" stroke="#F7FCFF" stroke-width="0.5"/>
<path d="M6.64763 8.70401C6.64763 8.72863 6.64763 9.12493 6.64763 9.12493H6.46124" stroke="#F7FCFF" stroke-width="0.5"/>
<path d="M8.02606 8.68347H6.88904" stroke="#F7FCFF" stroke-width="0.5"/>
<path d="M6.87732 9.13364V8.87263H7.24745V9.12487H7.62147V8.87291H7.42742" stroke="#F7FCFF" stroke-width="0.5"/>
<path d="M8.04375 9.12305H7.85529V8.87814H8.2521V8.67751V9.12305H8.43167V8.67751" stroke="#F7FCFF" stroke-width="0.5"/>
<path d="M8.63372 8.70401C8.63372 8.72863 8.63372 9.12493 8.63372 9.12493H8.44733" stroke="#F7FCFF" stroke-width="0.5"/>
<path d="M10.0121 8.68347H8.87512" stroke="#F7FCFF" stroke-width="0.5"/>
<path d="M8.8634 9.13364V8.87263H9.23354V9.12487H9.60755V8.87291H9.41351" stroke="#F7FCFF" stroke-width="0.5"/>
<path d="M10.0298 9.12305H9.84131V8.87814H10.2381V8.67751V9.12305H10.4177V8.67751" stroke="#F7FCFF" stroke-width="0.5"/>
<path d="M10.6197 8.70401C10.6197 8.72863 10.6197 9.12493 10.6197 9.12493H10.4333" stroke="#F7FCFF" stroke-width="0.5"/>
<path d="M11.9982 8.68347H10.8611" stroke="#F7FCFF" stroke-width="0.5"/>
<path d="M10.8494 9.13364V8.87263H11.2196V9.12487H11.5936V8.87291H11.3995" stroke="#F7FCFF" stroke-width="0.5"/>
<path d="M12.0159 9.12305H11.8274V8.87814H12.2242V8.67751V9.12305H12.4038V8.67751" stroke="#F7FCFF" stroke-width="0.5"/>
<path d="M12.6058 8.70401C12.6058 8.72863 12.6058 9.12493 12.6058 9.12493H12.4194" stroke="#F7FCFF" stroke-width="0.5"/>
<path d="M13.9843 8.68347H12.8472" stroke="#F7FCFF" stroke-width="0.5"/>
<path d="M12.8355 9.13364V8.87263H13.2056V9.12487H13.5797V8.87291H13.3856" stroke="#F7FCFF" stroke-width="0.5"/>
<path d="M13.9671 9.12305H13.7786V8.87814H14.1754V8.67751V9.12305H14.355V8.67751" stroke="#F7FCFF" stroke-width="0.5"/>
<path d="M14.5571 8.70401C14.5571 8.72863 14.5571 9.12493 14.5571 9.12493H14.3707" stroke="#F7FCFF" stroke-width="0.5"/>
<path d="M15.9355 8.68347H14.7985" stroke="#F7FCFF" stroke-width="0.5"/>
<path d="M14.7867 9.13364V8.87263H15.1569V9.12487H15.5309V8.87291H15.3368" stroke="#F7FCFF" stroke-width="0.5"/>
<path d="M16.0228 9.12305H15.8344V8.87814H16.2312V8.67751V9.12305H16.4107V8.67751" stroke="#F7FCFF" stroke-width="0.5"/>
<path d="M0.186342 2.58346H-0.950684" stroke="#F7FCFF" stroke-width="0.5"/>
<path d="M-0.962402 3.03363V2.77263H-0.592269V3.02487H-0.218255V2.77291H-0.412299" stroke="#F7FCFF" stroke-width="0.5"/>
<path d="M0.169181 3.02304H-0.0192871V2.77813H0.377528V2.5775V3.02304H0.557096V2.5775" stroke="#F7FCFF" stroke-width="0.5"/>
<path d="M0.759146 2.604C0.759146 2.62863 0.759146 3.02492 0.759146 3.02492H0.572754" stroke="#F7FCFF" stroke-width="0.5"/>
<path d="M2.13757 2.58346H1.00055" stroke="#F7FCFF" stroke-width="0.5"/>
<path d="M0.988831 3.03363V2.77263H1.35896V3.02487H1.73298V2.77291H1.53893" stroke="#F7FCFF" stroke-width="0.5"/>
<path d="M2.1552 3.02304H1.96674V2.77813H2.36355V2.5775V3.02304H2.54312V2.5775" stroke="#F7FCFF" stroke-width="0.5"/>
<path d="M2.74517 2.604C2.74517 2.62863 2.74517 3.02492 2.74517 3.02492H2.55878" stroke="#F7FCFF" stroke-width="0.5"/>
<path d="M4.1236 2.58346H2.98657" stroke="#F7FCFF" stroke-width="0.5"/>
<path d="M2.97485 3.03363V2.77263H3.34499V3.02487H3.719V2.77291H3.52496" stroke="#F7FCFF" stroke-width="0.5"/>
<path d="M4.10644 3.02304H3.91797V2.77813H4.31478V2.5775V3.02304H4.49435V2.5775" stroke="#F7FCFF" stroke-width="0.5"/>
<path d="M4.6964 2.604C4.6964 2.62863 4.6964 3.02492 4.6964 3.02492H4.51001" stroke="#F7FCFF" stroke-width="0.5"/>
<path d="M6.07483 2.58346H4.93781" stroke="#F7FCFF" stroke-width="0.5"/>
<path d="M4.92609 3.03363V2.77263H5.29622V3.02487H5.67023V2.77291H5.47619" stroke="#F7FCFF" stroke-width="0.5"/>
<path d="M6.05767 3.02304H5.8692V2.77813H6.26602V2.5775V3.02304H6.44558V2.5775" stroke="#F7FCFF" stroke-width="0.5"/>
<path d="M6.64763 2.604C6.64763 2.62863 6.64763 3.02492 6.64763 3.02492H6.46124" stroke="#F7FCFF" stroke-width="0.5"/>
<path d="M8.02606 2.58346H6.88904" stroke="#F7FCFF" stroke-width="0.5"/>
<path d="M6.87732 3.03363V2.77263H7.24745V3.02487H7.62147V2.77291H7.42742" stroke="#F7FCFF" stroke-width="0.5"/>
<path d="M8.04375 3.02304H7.85529V2.77813H8.2521V2.5775V3.02304H8.43167V2.5775" stroke="#F7FCFF" stroke-width="0.5"/>
<path d="M8.63372 2.604C8.63372 2.62863 8.63372 3.02492 8.63372 3.02492H8.44733" stroke="#F7FCFF" stroke-width="0.5"/>
<path d="M10.0121 2.58346H8.87512" stroke="#F7FCFF" stroke-width="0.5"/>
<path d="M8.8634 3.03363V2.77263H9.23354V3.02487H9.60755V2.77291H9.41351" stroke="#F7FCFF" stroke-width="0.5"/>
<path d="M10.0298 3.02304H9.84131V2.77813H10.2381V2.5775V3.02304H10.4177V2.5775" stroke="#F7FCFF" stroke-width="0.5"/>
<path d="M10.6197 2.604C10.6197 2.62863 10.6197 3.02492 10.6197 3.02492H10.4333" stroke="#F7FCFF" stroke-width="0.5"/>
<path d="M11.9982 2.58346H10.8611" stroke="#F7FCFF" stroke-width="0.5"/>
<path d="M10.8494 3.03363V2.77263H11.2196V3.02487H11.5936V2.77291H11.3995" stroke="#F7FCFF" stroke-width="0.5"/>
<path d="M12.0159 3.02304H11.8274V2.77813H12.2242V2.5775V3.02304H12.4038V2.5775" stroke="#F7FCFF" stroke-width="0.5"/>
<path d="M12.6058 2.604C12.6058 2.62863 12.6058 3.02492 12.6058 3.02492H12.4194" stroke="#F7FCFF" stroke-width="0.5"/>
<path d="M13.9843 2.58346H12.8472" stroke="#F7FCFF" stroke-width="0.5"/>
<path d="M12.8355 3.03363V2.77263H13.2056V3.02487H13.5797V2.77291H13.3856" stroke="#F7FCFF" stroke-width="0.5"/>
<path d="M13.9671 3.02304H13.7786V2.77813H14.1754V2.5775V3.02304H14.355V2.5775" stroke="#F7FCFF" stroke-width="0.5"/>
<path d="M14.5571 2.604C14.5571 2.62863 14.5571 3.02492 14.5571 3.02492H14.3707" stroke="#F7FCFF" stroke-width="0.5"/>
<path d="M15.9355 2.58346H14.7985" stroke="#F7FCFF" stroke-width="0.5"/>
<path d="M14.7867 3.03363V2.77263H15.1569V3.02487H15.5309V2.77291H15.3368" stroke="#F7FCFF" stroke-width="0.5"/>
<path d="M16.0228 3.02304H15.8344V2.77813H16.2312V2.5775V3.02304H16.4107V2.5775" stroke="#F7FCFF" stroke-width="0.5"/>
<path fill-rule="evenodd" clip-rule="evenodd" d="M7.30316 4.125C7.30316 4.125 7.51682 4.2375 7.73551 4.2375C7.9542 4.2375 8.17424 4.125 8.17424 4.125V4.275C8.17424 4.275 7.93402 4.3875 7.72127 4.3875C7.50852 4.3875 7.30316 4.275 7.30316 4.275V4.125ZM5.72821 5.8953C5.72821 5.0063 6.94921 4.425 6.94921 4.425C6.94921 4.425 6.24349 4.8031 6.24349 5.85804C6.24349 6.91299 6.60984 7.36983 6.60984 7.36983C6.60984 7.36983 5.72821 6.7843 5.72821 5.8953ZM9.84705 5.84624C9.84705 4.95724 8.6272 4.425 8.6272 4.425C8.6272 4.425 9.33291 4.8031 9.33291 5.85804C9.33291 6.91299 8.96656 7.36983 8.96656 7.36983C8.96656 7.36983 9.84705 6.73524 9.84705 5.84624ZM6.56176 6.08879C6.51524 5.20101 7.25377 4.40526 7.25377 4.40526C7.25377 4.40526 6.98497 4.77092 7.04018 5.82442C7.05913 6.18614 7.20161 6.72431 7.38112 7.04159V4.4625H8.13112V7.06396C8.31086 6.76758 8.44936 6.26228 8.46859 5.8953C8.5238 4.8418 8.26789 4.40526 8.26789 4.40526C8.26789 4.40526 9.00642 5.20101 8.9599 6.08879C8.93219 6.61753 8.52534 7.17671 8.20079 7.54253C8.35849 7.5777 8.56987 7.62057 8.86044 7.67793C8.86664 7.71008 8.80189 7.70859 8.67323 7.70563C8.53118 7.70236 8.31122 7.6973 8.02283 7.73375C7.89024 7.86964 7.79796 7.95019 7.79796 7.95019C7.79796 7.95019 7.78337 7.93048 7.76083 7.90321C7.7383 7.93048 7.72371 7.95019 7.72371 7.95019C7.72371 7.95019 7.63142 7.86964 7.49883 7.73375C7.21044 7.6973 6.99048 7.70236 6.84843 7.70563C6.71977 7.70859 6.65502 7.71008 6.66122 7.67793C6.95179 7.62057 7.16317 7.5777 7.32087 7.54253C6.99632 7.17671 6.58947 6.61753 6.56176 6.08879Z" fill="#E31D1C"/>
</g>
</g>
<defs>
<clipPath id="clip0_8_24104">
<rect width="16" height="12" fill="white"/>
</clipPath>
</defs>
</svg>
