<svg width="16" height="12" viewBox="0 0 16 12" fill="none" xmlns="http://www.w3.org/2000/svg">
<g clip-path="url(#clip0_8_24083)">
<rect width="16" height="12" fill="white"/>
<path d="M0 0H16V12H0V0Z" fill="#032EA1"/>
<path d="M0 3H16V9H0V3Z" fill="#E00025"/>
<path fill-rule="evenodd" clip-rule="evenodd" d="M5.16699 5.51999V5.54999H6.11199V5.51999H7.43499V5.57999H8.32299V5.51999H9.64899V5.54999H10.594V5.51999H10.704V6.82599H5.00399V5.51999H5.16699ZM5.00399 6.82599H4.70199V7.07499H5.39199V7.07999H4.39599V7.5057H5.39199V7.50999H4.20099V7.88499H11.56V7.50999H10.366V7.5057H11.368V7.07999H10.366V7.07499H11.062V6.82599H10.704V6.83399H5.00399V6.82599ZM10.594 5.51999V4.67999C10.5797 4.67999 10.5702 4.70019 10.5587 4.72459C10.541 4.76188 10.5188 4.80899 10.468 4.80899C10.423 4.80899 10.426 4.75499 10.453 4.71299C10.474 4.67399 10.501 4.62299 10.465 4.52399C10.438 4.59899 10.372 4.62299 10.384 4.57799C10.3906 4.55242 10.4014 4.53343 10.4116 4.51554C10.4337 4.47676 10.4528 4.44316 10.42 4.35899C10.405 4.46099 10.339 4.45799 10.354 4.39799C10.3584 4.38123 10.364 4.36677 10.3693 4.35311C10.3858 4.31052 10.3993 4.27567 10.363 4.20299C10.336 4.31399 10.303 4.30799 10.303 4.23899C10.303 4.13699 10.303 4.02899 10.177 3.98999C10.177 3.98999 10.168 3.89999 10.12 3.89999C10.075 3.89999 10.066 3.98999 10.066 3.98999C9.93985 4.02813 9.93992 4.13511 9.93999 4.23239C9.93999 4.2346 9.93999 4.2368 9.93999 4.23899C9.93999 4.30799 9.90699 4.31399 9.87999 4.20299C9.84365 4.27567 9.85717 4.31052 9.8737 4.35311C9.879 4.36677 9.88462 4.38123 9.88899 4.39799C9.90399 4.45799 9.83799 4.46099 9.82299 4.35899C9.79014 4.44316 9.80927 4.47676 9.83136 4.51554C9.84154 4.53343 9.85236 4.55242 9.85899 4.57799C9.87099 4.62299 9.80499 4.59899 9.77799 4.52399C9.74199 4.62299 9.76899 4.67399 9.78999 4.71299C9.81399 4.75499 9.81999 4.80899 9.77499 4.80899C9.72422 4.80899 9.70195 4.76297 9.68432 4.72656C9.67278 4.70272 9.66323 4.68299 9.64899 4.68299V5.51999H10.594ZM8.32299 5.51999H7.43499V5.41499C7.43499 5.36947 7.41032 5.34685 7.38771 5.32614C7.36861 5.30863 7.35099 5.29248 7.35099 5.26499C7.35099 5.26499 7.33899 5.17499 7.36299 5.13299C7.39599 5.25299 7.45299 5.23199 7.45299 5.18099C7.45299 5.14224 7.42745 5.1035 7.36931 5.01527L7.35399 4.99199C7.32999 4.95899 7.34499 4.85399 7.37499 4.81499C7.38699 4.90499 7.40199 4.94999 7.44099 4.94999C7.46499 4.94999 7.48299 4.93499 7.48299 4.88999C7.48299 4.85176 7.46715 4.82571 7.45023 4.79787C7.4406 4.78202 7.43061 4.76559 7.42299 4.74599C7.40187 4.69111 7.41477 4.62894 7.45599 4.58699C7.45862 4.60277 7.46069 4.61689 7.46254 4.62944L7.46254 4.62946C7.47123 4.68851 7.47483 4.71299 7.50699 4.71299C7.58176 4.68807 7.51849 4.58646 7.49416 4.54738L7.48899 4.53899C7.47099 4.50599 7.51899 4.43699 7.51899 4.43699C7.54299 4.51799 7.54899 4.52399 7.57899 4.51499C7.61499 4.50599 7.60899 4.45499 7.56699 4.41299C7.53999 4.38299 7.54299 4.34399 7.57299 4.31399C7.60299 4.37099 7.63899 4.36799 7.64199 4.33199L7.61799 4.19999H7.65099L7.63899 4.09999H8.11599L8.10399 4.19999H8.13999L8.11299 4.32899C8.10699 4.36499 8.15499 4.37399 8.18499 4.31399C8.21499 4.34399 8.21799 4.38599 8.19099 4.41299C8.14899 4.45499 8.14299 4.50599 8.17899 4.51499C8.20899 4.52399 8.21499 4.51499 8.23899 4.43699C8.23899 4.43699 8.28399 4.48199 8.26899 4.53899L8.26453 4.54628C8.24075 4.58483 8.17548 4.69062 8.25099 4.71299C8.28315 4.71299 8.28675 4.68851 8.29543 4.62946L8.29544 4.62944L8.29544 4.62939C8.29729 4.61685 8.29936 4.60275 8.30199 4.58699C8.34217 4.62959 8.35388 4.69168 8.33199 4.74599C8.32496 4.76709 8.31426 4.78452 8.30384 4.80151C8.28758 4.82801 8.27199 4.85343 8.27199 4.88999C8.27199 4.93499 8.29299 4.94999 8.31699 4.94999C8.35599 4.94999 8.37099 4.90799 8.38299 4.81499C8.41299 4.85399 8.42799 4.95899 8.40399 4.99499L8.37873 5.03211C8.32691 5.10799 8.30199 5.14449 8.30199 5.18099C8.30199 5.23199 8.36199 5.25299 8.39199 5.13299C8.41899 5.17499 8.40699 5.26499 8.40699 5.26499C8.40699 5.29273 8.38968 5.30893 8.37077 5.32662C8.34877 5.34721 8.3246 5.36982 8.32299 5.41499V5.51999ZM5.16699 5.51999V4.67999C5.18123 4.67999 5.19078 4.70019 5.20232 4.72459C5.21995 4.76188 5.24222 4.80899 5.29299 4.80899C5.33799 4.80899 5.33499 4.75499 5.30799 4.71299C5.28699 4.67399 5.25999 4.62299 5.29599 4.52399C5.32299 4.59899 5.38899 4.62299 5.37699 4.57799C5.37036 4.55242 5.35954 4.53343 5.34936 4.51554C5.32727 4.47676 5.30814 4.44316 5.34099 4.35899C5.35599 4.46099 5.42199 4.45799 5.40699 4.39799C5.40262 4.38123 5.397 4.36677 5.3917 4.35311C5.37517 4.31052 5.36165 4.27567 5.39799 4.20299C5.42499 4.31399 5.45799 4.30799 5.45799 4.23899C5.45799 4.13699 5.45799 4.02899 5.58399 3.98999C5.58399 3.98999 5.59299 3.89999 5.64099 3.89999C5.68599 3.89999 5.69499 3.98999 5.69499 3.98999C5.82113 4.02813 5.82106 4.13511 5.82099 4.23239L5.82099 4.23899C5.82099 4.30799 5.85399 4.31399 5.88099 4.20299C5.91733 4.27567 5.9038 4.31052 5.88728 4.35311C5.88197 4.36677 5.87636 4.38123 5.87199 4.39799C5.85699 4.45799 5.92299 4.46099 5.93799 4.35899C5.97084 4.44316 5.9517 4.47676 5.92962 4.51554C5.91943 4.53343 5.90862 4.55242 5.90199 4.57799C5.88999 4.62299 5.95599 4.59899 5.98299 4.52399C6.01899 4.62299 5.99199 4.67399 5.97099 4.71299C5.94699 4.75499 5.94099 4.80899 5.98599 4.80899C6.03675 4.80899 6.05903 4.76297 6.07666 4.72656C6.0882 4.70272 6.09775 4.68299 6.11199 4.68299V5.51999H5.16699ZM7.80999 4.09299C7.80999 4.09299 7.80699 3.96999 7.87899 3.96699C7.94799 3.96699 7.94499 4.09299 7.94499 4.09299H7.80999Z" fill="white"/>
<path d="M5.16699 5.54999H5.15199L5.16699 5.56499V5.54999ZM6.11199 5.54999V5.56499L6.12699 5.54999H6.11199ZM7.43499 5.57999H7.41999L7.43499 5.59499V5.57999ZM8.32299 5.57999V5.59499L8.33799 5.57999H8.32299ZM9.64899 5.54999H9.63399L9.64899 5.56499V5.54999ZM10.594 5.54999V5.56499L10.609 5.54999H10.594ZM10.704 5.51999H10.719L10.704 5.50499V5.51999ZM5.00399 5.51999V5.50499L4.98899 5.51999H5.00399ZM4.70199 6.82599V6.81099L4.68699 6.82599H4.70199ZM4.70199 7.07499H4.68699L4.70199 7.08999V7.07499ZM5.39199 7.07499H5.40699L5.39199 7.05999V7.07499ZM5.39199 7.07999V7.09499L5.40699 7.07999H5.39199ZM4.39599 7.07999V7.06499L4.38099 7.07999H4.39599ZM4.39599 7.5057H4.38099L4.39599 7.5207V7.5057ZM5.39199 7.5057H5.40699L5.39199 7.4907V7.5057ZM5.39199 7.50999V7.52499L5.40699 7.50999H5.39199ZM4.20099 7.50999V7.49499L4.18599 7.50999H4.20099ZM4.20099 7.88499H4.18599L4.20099 7.89999V7.88499ZM11.56 7.88499V7.89999L11.575 7.88499H11.56ZM11.56 7.50999H11.575L11.56 7.49499V7.50999ZM10.366 7.50999H10.351L10.366 7.52499V7.50999ZM10.366 7.5057V7.4907L10.351 7.5057H10.366ZM11.368 7.5057V7.5207L11.383 7.5057H11.368ZM11.368 7.07999H11.383L11.368 7.06499V7.07999ZM10.366 7.07999H10.351L10.366 7.09499V7.07999ZM10.366 7.07499V7.05999L10.351 7.07499H10.366ZM11.062 7.07499V7.08999L11.077 7.07499H11.062ZM11.062 6.82599H11.077L11.062 6.81099V6.82599ZM10.704 6.83399V6.84899L10.719 6.83399H10.704ZM5.00399 6.83399H4.98899L5.00399 6.84899V6.83399ZM10.594 4.67999H10.609L10.594 4.66499V4.67999ZM10.5587 4.72459L10.5722 4.73101V4.73101L10.5587 4.72459ZM10.453 4.71299L10.4656 4.72113L10.4662 4.72011L10.453 4.71299ZM10.465 4.52399L10.4791 4.51887L10.4509 4.51891L10.465 4.52399ZM10.384 4.57799L10.3985 4.58186L10.3985 4.58176L10.384 4.57799ZM10.4116 4.51554L10.3986 4.50812V4.50812L10.4116 4.51554ZM10.42 4.35899L10.434 4.35354L10.4051 4.35681L10.42 4.35899ZM10.354 4.39799L10.3395 4.39421L10.3394 4.39436L10.354 4.39799ZM10.3693 4.35311L10.3553 4.34768V4.34768L10.3693 4.35311ZM10.363 4.20299L10.3764 4.19629L10.3484 4.19945L10.363 4.20299ZM10.177 3.98999L10.1621 3.99149L10.1726 4.00432L10.177 3.98999ZM10.066 3.98999L10.0703 4.00435L10.0809 3.99149L10.066 3.98999ZM9.93999 4.23239L9.95499 4.23238V4.23238L9.93999 4.23239ZM9.87999 4.20299L9.89456 4.19945L9.86657 4.19629L9.87999 4.20299ZM9.8737 4.35311L9.88768 4.34768V4.34768L9.8737 4.35311ZM9.88899 4.39799L9.90354 4.39436L9.9035 4.39421L9.88899 4.39799ZM9.82299 4.35899L9.83783 4.35681L9.80901 4.35354L9.82299 4.35899ZM9.83136 4.51554L9.84439 4.50812V4.50812L9.83136 4.51554ZM9.85899 4.57799L9.84447 4.58176L9.8445 4.58186L9.85899 4.57799ZM9.77799 4.52399L9.7921 4.51891L9.76389 4.51887L9.77799 4.52399ZM9.78999 4.71299L9.77678 4.72011L9.77696 4.72044L9.78999 4.71299ZM9.68432 4.72656L9.67082 4.73309V4.73309L9.68432 4.72656ZM9.64899 4.68299V4.66799L9.63399 4.68299H9.64899ZM7.38771 5.32614L7.37758 5.3372L7.38771 5.32614ZM7.35099 5.26499H7.36612L7.36586 5.26301L7.35099 5.26499ZM7.36299 5.13299L7.37745 5.12902L7.34997 5.12555L7.36299 5.13299ZM7.36931 5.01527L7.35679 5.02352L7.35679 5.02353L7.36931 5.01527ZM7.35399 4.99199L7.36653 4.98374L7.36612 4.98317L7.35399 4.99199ZM7.37499 4.81499L7.38986 4.81301L7.3631 4.80585L7.37499 4.81499ZM7.45023 4.79787L7.46305 4.79008V4.79008L7.45023 4.79787ZM7.42299 4.74599L7.40899 4.75138L7.40901 4.75143L7.42299 4.74599ZM7.45599 4.58699L7.47078 4.58453L7.44529 4.57648L7.45599 4.58699ZM7.46254 4.62944L7.4477 4.63162L7.44773 4.63184L7.46254 4.62944ZM7.46254 4.62946L7.47739 4.62728L7.47735 4.62707L7.46254 4.62946ZM7.50699 4.71299V4.72881L7.51173 4.72722L7.50699 4.71299ZM7.49416 4.54738L7.48139 4.55525L7.48143 4.55531L7.49416 4.54738ZM7.48899 4.53899L7.4758 4.54619L7.47622 4.54686L7.48899 4.53899ZM7.51899 4.43699L7.53337 4.43273L7.50668 4.42843L7.51899 4.43699ZM7.57899 4.51499L7.57535 4.50043L7.57468 4.50063L7.57899 4.51499ZM7.56699 4.41299L7.55582 4.42304L7.55638 4.4236L7.56699 4.41299ZM7.57299 4.31399L7.58626 4.30701L7.56238 4.30339L7.57299 4.31399ZM7.64199 4.33199L7.65747 4.33328L7.65675 4.32931L7.64199 4.33199ZM7.61799 4.19999V4.18499L7.60323 4.20268L7.61799 4.19999ZM7.65099 4.19999V4.21499L7.66588 4.19821L7.65099 4.19999ZM7.63899 4.09999V4.08499L7.6241 4.10178L7.63899 4.09999ZM8.11599 4.09999L8.13088 4.10178L8.11599 4.08499V4.09999ZM8.10399 4.19999L8.0891 4.19821L8.10399 4.21499V4.19999ZM8.13999 4.19999L8.15467 4.20307L8.13999 4.18499V4.19999ZM8.11299 4.32899L8.09829 4.32592L8.09819 4.32653L8.11299 4.32899ZM8.18499 4.31399L8.1956 4.30339L8.17157 4.30729L8.18499 4.31399ZM8.19099 4.41299L8.18038 4.40239V4.40239L8.19099 4.41299ZM8.17899 4.51499L8.1833 4.50061L8.18263 4.50044L8.17899 4.51499ZM8.23899 4.43699L8.2496 4.42639L8.22465 4.43258L8.23899 4.43699ZM8.26899 4.53899L8.28235 4.54717L8.28349 4.54281L8.26899 4.53899ZM8.26453 4.54628L8.27729 4.55416L8.27732 4.55412L8.26453 4.54628ZM8.25099 4.71299L8.24654 4.72799H8.25099V4.71299ZM8.29543 4.62946L8.31028 4.63164L8.3103 4.63143L8.29543 4.62946ZM8.29544 4.62944L8.28062 4.62706L8.28057 4.62747L8.29544 4.62944ZM8.29544 4.62939L8.31026 4.63176L8.31029 4.63157L8.29544 4.62939ZM8.30199 4.58699L8.3129 4.5767L8.28719 4.58453L8.30199 4.58699ZM8.33199 4.74599L8.31805 4.74038L8.31776 4.74125L8.33199 4.74599ZM8.30384 4.80151L8.31663 4.80935V4.80935L8.30384 4.80151ZM8.38299 4.81499L8.39488 4.80585L8.36811 4.81307L8.38299 4.81499ZM8.40399 4.99499L8.41639 5.00343L8.41647 5.00331L8.40399 4.99499ZM8.37873 5.03211L8.39112 5.04057L8.39113 5.04055L8.37873 5.03211ZM8.39199 5.13299L8.40461 5.12488L8.37744 5.12936L8.39199 5.13299ZM8.40699 5.26499L8.39199 5.26299V5.26499H8.40699ZM8.37077 5.32662L8.36052 5.31567V5.31567L8.37077 5.32662ZM8.32299 5.41499L8.30799 5.41446V5.41499H8.32299ZM5.16699 4.67999V4.66499L5.15199 4.67999H5.16699ZM5.20232 4.72459L5.21588 4.71818L5.21588 4.71818L5.20232 4.72459ZM5.30799 4.71299L5.29474 4.72013L5.29537 4.72111L5.30799 4.71299ZM5.29599 4.52399L5.3101 4.51891L5.28189 4.51887L5.29599 4.52399ZM5.37699 4.57799L5.36247 4.58176L5.3625 4.58186L5.37699 4.57799ZM5.34936 4.51554L5.36239 4.50811V4.50811L5.34936 4.51554ZM5.34099 4.35899L5.35583 4.35681L5.32702 4.35354L5.34099 4.35899ZM5.40699 4.39799L5.42154 4.39436L5.4215 4.39421L5.40699 4.39799ZM5.3917 4.35311L5.37772 4.35853V4.35853L5.3917 4.35311ZM5.39799 4.20299L5.41256 4.19945L5.38457 4.19629L5.39799 4.20299ZM5.58399 3.98999L5.58842 4.00432L5.59891 3.99149L5.58399 3.98999ZM5.69499 3.98999L5.68006 3.99149L5.69065 4.00435L5.69499 3.98999ZM5.82099 4.23239L5.80599 4.23238V4.23239L5.82099 4.23239ZM5.82099 4.23899L5.80599 4.23899V4.23899H5.82099ZM5.88099 4.20299L5.89441 4.19629L5.86641 4.19945L5.88099 4.20299ZM5.88728 4.35311L5.90126 4.35853L5.88728 4.35311ZM5.87199 4.39799L5.85747 4.39421L5.85744 4.39436L5.87199 4.39799ZM5.93799 4.35899L5.95196 4.35354L5.92315 4.35681L5.93799 4.35899ZM5.92962 4.51554L5.91659 4.50811V4.50811L5.92962 4.51554ZM5.90199 4.57799L5.91648 4.58186L5.91651 4.58176L5.90199 4.57799ZM5.98299 4.52399L5.99709 4.51887L5.96888 4.51891L5.98299 4.52399ZM5.97099 4.71299L5.98402 4.72044L5.9842 4.72011L5.97099 4.71299ZM6.07666 4.72656L6.06316 4.72002L6.07666 4.72656ZM6.11199 4.68299H6.12699L6.11199 4.66799V4.68299ZM7.87899 3.96699V3.95198L7.87836 3.95201L7.87899 3.96699ZM7.80999 4.09299L7.79499 4.09336L7.80999 4.10799V4.09299ZM7.94499 4.09299V4.10799L7.95998 4.09335L7.94499 4.09299ZM5.18199 5.54999V5.51999H5.15199V5.54999H5.18199ZM6.11199 5.53499H5.16699V5.56499H6.11199V5.53499ZM6.09699 5.51999V5.54999H6.12699V5.51999H6.09699ZM7.43499 5.50499H6.11199V5.53499H7.43499V5.50499ZM7.44999 5.57999V5.51999H7.41999V5.57999H7.44999ZM8.32299 5.56499H7.43499V5.59499H8.32299V5.56499ZM8.30799 5.51999V5.57999H8.33799V5.51999H8.30799ZM9.64899 5.50499H8.32299V5.53499H9.64899V5.50499ZM9.66399 5.54999V5.51999H9.63399V5.54999H9.66399ZM10.594 5.53499H9.64899V5.56499H10.594V5.53499ZM10.579 5.51999V5.54999H10.609V5.51999H10.579ZM10.704 5.50499H10.594V5.53499H10.704V5.50499ZM10.719 6.82599V5.51999H10.689V6.82599H10.719ZM10.704 6.81099H5.00399V6.84099H10.704V6.81099ZM4.98899 5.51999V6.82599H5.01899V5.51999H4.98899ZM5.16699 5.50499H5.00399V5.53499H5.16699V5.50499ZM5.00399 6.81099H4.70199V6.84099H5.00399V6.81099ZM4.68699 6.82599V7.07499H4.71699V6.82599H4.68699ZM4.70199 7.08999H5.39199V7.05999H4.70199V7.08999ZM5.37699 7.07499V7.07999H5.40699V7.07499H5.37699ZM5.39199 7.06499H4.39599V7.09499H5.39199V7.06499ZM4.38099 7.07999V7.5057H4.41099V7.07999H4.38099ZM4.39599 7.5207H5.39199V7.4907H4.39599V7.5207ZM5.37699 7.5057V7.50999H5.40699V7.5057H5.37699ZM5.39199 7.49499H4.20099V7.52499H5.39199V7.49499ZM4.18599 7.50999V7.88499H4.21599V7.50999H4.18599ZM4.20099 7.89999H11.56V7.86999H4.20099V7.89999ZM11.575 7.88499V7.50999H11.545V7.88499H11.575ZM11.56 7.49499H10.366V7.52499H11.56V7.49499ZM10.381 7.50999V7.5057H10.351V7.50999H10.381ZM10.366 7.5207H11.368V7.4907H10.366V7.5207ZM11.383 7.5057V7.07999H11.353V7.5057H11.383ZM11.368 7.06499H10.366V7.09499H11.368V7.06499ZM10.381 7.07999V7.07499H10.351V7.07999H10.381ZM10.366 7.08999H11.062V7.05999H10.366V7.08999ZM11.077 7.07499V6.82599H11.047V7.07499H11.077ZM11.062 6.81099H10.704V6.84099H11.062V6.81099ZM10.719 6.83399V6.82599H10.689V6.83399H10.719ZM5.00399 6.84899H10.704V6.81899H5.00399V6.84899ZM4.98899 6.82599V6.83399H5.01899V6.82599H4.98899ZM10.579 4.67999V5.51999H10.609V4.67999H10.579ZM10.5722 4.73101C10.5782 4.71841 10.5829 4.70854 10.5876 4.70168C10.59 4.69834 10.5918 4.69651 10.593 4.69559C10.5936 4.69517 10.5939 4.69504 10.594 4.695C10.594 4.69499 10.594 4.69499 10.594 4.69499C10.594 4.69499 10.594 4.69499 10.594 4.69499C10.594 4.69499 10.594 4.69499 10.594 4.69499V4.66499C10.579 4.66499 10.5691 4.67572 10.563 4.6846C10.5565 4.69394 10.5507 4.70637 10.5451 4.71818L10.5722 4.73101ZM10.468 4.82399C10.4989 4.82399 10.521 4.80936 10.5371 4.79055C10.5528 4.77231 10.5636 4.74928 10.5722 4.73101L10.5451 4.71818C10.5361 4.73719 10.5269 4.75637 10.5144 4.771C10.5023 4.78507 10.4879 4.79399 10.468 4.79399V4.82399ZM10.4404 4.70488C10.4257 4.72764 10.4167 4.75489 10.4185 4.77794C10.4195 4.78967 10.4234 4.80147 10.4322 4.81042C10.4412 4.81958 10.4536 4.82399 10.468 4.82399V4.79399C10.4599 4.79399 10.4558 4.79165 10.4536 4.78938C10.4511 4.78689 10.449 4.78257 10.4484 4.77555C10.4473 4.76109 10.4532 4.74035 10.4656 4.72111L10.4404 4.70488ZM10.4509 4.52912C10.4682 4.57661 10.47 4.61151 10.4656 4.63859C10.4611 4.66587 10.4503 4.68641 10.4398 4.70588L10.4662 4.72011C10.4767 4.70058 10.4899 4.67612 10.4952 4.6434C10.5005 4.61048 10.4978 4.57038 10.4791 4.51887L10.4509 4.52912ZM10.3695 4.57413C10.3661 4.58676 10.3659 4.60358 10.3802 4.612C10.3865 4.61572 10.3934 4.61614 10.3993 4.61531C10.4053 4.61448 10.4112 4.61224 10.4169 4.60924C10.4392 4.59743 10.4646 4.56938 10.4791 4.52907L10.4509 4.51891C10.4384 4.55361 10.4173 4.57506 10.4028 4.58274C10.3993 4.58462 10.3967 4.58539 10.3951 4.5856C10.3935 4.58583 10.394 4.58536 10.3954 4.58617C10.3998 4.58878 10.3959 4.59173 10.3985 4.58186L10.3695 4.57413ZM10.3986 4.50812C10.3884 4.52598 10.3767 4.54652 10.3695 4.57423L10.3985 4.58176C10.4046 4.55832 10.4145 4.54088 10.4247 4.52296L10.3986 4.50812ZM10.406 4.36445C10.4218 4.40502 10.4245 4.43176 10.4216 4.45214C10.4186 4.47272 10.4098 4.4885 10.3986 4.50812L10.4247 4.52296C10.4356 4.5038 10.4474 4.48339 10.4512 4.45643C10.4552 4.42928 10.451 4.39713 10.434 4.35354L10.406 4.36445ZM10.3394 4.39436C10.3352 4.41142 10.3358 4.42745 10.343 4.43932C10.3467 4.44543 10.3521 4.45028 10.3589 4.45291C10.3657 4.45553 10.3729 4.45557 10.3797 4.45372C10.3929 4.4501 10.4048 4.43939 10.414 4.42441C10.4234 4.40915 10.4309 4.38816 10.4348 4.36118L10.4051 4.35681C10.4016 4.38083 10.3952 4.39771 10.3885 4.40871C10.3815 4.41998 10.375 4.42389 10.3718 4.42477C10.3703 4.42517 10.3698 4.42493 10.3697 4.42492C10.3697 4.4249 10.3696 4.42486 10.3694 4.42474C10.3693 4.42461 10.369 4.42433 10.3687 4.42379C10.3673 4.42141 10.3653 4.41457 10.3685 4.40163L10.3394 4.39436ZM10.3553 4.34768C10.35 4.36129 10.3441 4.3765 10.3395 4.39421L10.3685 4.40178C10.3726 4.38596 10.3779 4.37225 10.3833 4.35853L10.3553 4.34768ZM10.3496 4.2097C10.367 4.24449 10.3717 4.26884 10.371 4.28875C10.3702 4.309 10.3637 4.3261 10.3553 4.34768L10.3833 4.35853C10.3914 4.33753 10.3999 4.31592 10.4009 4.28992C10.402 4.26359 10.3954 4.23418 10.3764 4.19629L10.3496 4.2097ZM10.288 4.23899C10.288 4.25704 10.2901 4.27263 10.2947 4.2838C10.297 4.28934 10.3005 4.29523 10.306 4.29928C10.3122 4.30386 10.3199 4.30521 10.3275 4.30277C10.3341 4.30062 10.3395 4.29594 10.3436 4.29103C10.3479 4.28595 10.3519 4.27944 10.3557 4.27179C10.3632 4.25646 10.3707 4.23487 10.3776 4.20654L10.3484 4.19945C10.3418 4.22662 10.335 4.2459 10.3288 4.25851C10.3257 4.26483 10.3229 4.26906 10.3207 4.27169C10.3183 4.27449 10.3174 4.2745 10.3183 4.27422C10.32 4.27366 10.3223 4.27406 10.3237 4.27511C10.3244 4.27562 10.3237 4.27536 10.3224 4.27237C10.32 4.26649 10.318 4.25545 10.318 4.23899H10.288ZM10.1726 4.00432C10.2309 4.02239 10.2589 4.05561 10.2731 4.09586C10.2878 4.1376 10.288 4.18735 10.288 4.23899H10.318C10.318 4.18864 10.3182 4.13338 10.3014 4.08588C10.2841 4.03688 10.2491 3.9966 10.1814 3.97566L10.1726 4.00432ZM10.12 3.91499C10.1267 3.91499 10.1325 3.91793 10.138 3.92409C10.1438 3.93052 10.1486 3.93978 10.1524 3.95016C10.1562 3.96038 10.1586 3.97077 10.1601 3.97872C10.1608 3.98266 10.1613 3.98593 10.1616 3.98818C10.1618 3.9893 10.1619 3.99017 10.162 3.99074C10.162 3.99102 10.162 3.99123 10.162 3.99136C10.1621 3.99142 10.1621 3.99146 10.1621 3.99148C10.1621 3.99149 10.1621 3.9915 10.1621 3.9915C10.1621 3.9915 10.1621 3.9915 10.1621 3.9915C10.1621 3.9915 10.1621 3.99149 10.1621 3.99149C10.1621 3.99149 10.1621 3.99149 10.177 3.98999C10.1919 3.9885 10.1919 3.9885 10.1919 3.98849C10.1919 3.98849 10.1919 3.98849 10.1919 3.98848C10.1919 3.98847 10.1919 3.98846 10.1919 3.98845C10.1919 3.98843 10.1919 3.98841 10.1919 3.98837C10.1919 3.98831 10.1919 3.98822 10.1919 3.98812C10.1919 3.9879 10.1918 3.9876 10.1918 3.98723C10.1917 3.98648 10.1916 3.98541 10.1914 3.98407C10.191 3.98141 10.1904 3.97764 10.1896 3.97315C10.1879 3.96422 10.1851 3.95211 10.1806 3.93983C10.1761 3.92771 10.1697 3.91447 10.1603 3.90402C10.1507 3.89331 10.1373 3.88499 10.12 3.88499V3.91499ZM10.066 3.98999C10.0809 3.99149 10.0809 3.99149 10.0809 3.99149C10.0809 3.99149 10.0809 3.9915 10.0809 3.9915C10.0809 3.9915 10.0809 3.9915 10.0809 3.9915C10.0809 3.9915 10.0809 3.99149 10.0809 3.99148C10.0809 3.99146 10.0809 3.99141 10.0809 3.99135C10.0809 3.99122 10.081 3.99101 10.081 3.99072C10.0811 3.99015 10.0812 3.98928 10.0813 3.98814C10.0816 3.98588 10.0821 3.98259 10.0829 3.97864C10.0843 3.97066 10.0867 3.96022 10.0903 3.94995C10.0939 3.9395 10.0985 3.93021 10.104 3.92377C10.1093 3.91757 10.1144 3.91499 10.12 3.91499V3.88499C10.1031 3.88499 10.0902 3.89367 10.0811 3.90434C10.0723 3.91478 10.0662 3.92799 10.062 3.94004C10.0577 3.95226 10.055 3.96433 10.0533 3.97323C10.0525 3.97771 10.052 3.98145 10.0516 3.98411C10.0514 3.98544 10.0513 3.9865 10.0512 3.98724C10.0512 3.98762 10.0511 3.98791 10.0511 3.98812C10.0511 3.98823 10.0511 3.98831 10.0511 3.98838C10.0511 3.98841 10.0511 3.98844 10.0511 3.98846C10.0511 3.98847 10.0511 3.98848 10.0511 3.98848C10.0511 3.98849 10.0511 3.98849 10.0511 3.98849C10.0511 3.9885 10.0511 3.9885 10.066 3.98999ZM9.95499 4.23238C9.95495 4.18311 9.95509 4.13484 9.96977 4.0941C9.98392 4.05483 10.0119 4.02203 10.0703 4.00435L10.0616 3.97564C9.99398 3.99609 9.95888 4.03585 9.94155 4.08393C9.92475 4.13053 9.92495 4.18439 9.92499 4.2324L9.95499 4.23238ZM9.95499 4.23899C9.95499 4.23679 9.95499 4.23459 9.95499 4.23238L9.92499 4.2324C9.92499 4.23461 9.92499 4.2368 9.92499 4.23899H9.95499ZM9.86541 4.20654C9.8723 4.23487 9.87974 4.25646 9.8873 4.27179C9.89108 4.27944 9.89509 4.28595 9.89937 4.29103C9.90351 4.29594 9.90884 4.30062 9.91551 4.30277C9.92306 4.30521 9.93077 4.30386 9.93701 4.29928C9.94252 4.29523 9.946 4.28934 9.94828 4.2838C9.95288 4.27263 9.95499 4.25704 9.95499 4.23899H9.92499C9.92499 4.25545 9.92297 4.26649 9.92054 4.27237C9.91931 4.27536 9.91854 4.27562 9.91924 4.27511C9.92066 4.27406 9.92298 4.27366 9.92472 4.27422C9.92558 4.2745 9.92467 4.27449 9.9223 4.27169C9.92009 4.26906 9.91732 4.26483 9.91421 4.25851C9.90798 4.2459 9.90117 4.22662 9.89456 4.19945L9.86541 4.20654ZM9.88768 4.34768C9.87931 4.3261 9.8728 4.309 9.87201 4.28875C9.87123 4.26884 9.87601 4.24449 9.8934 4.2097L9.86657 4.19629C9.84763 4.23418 9.841 4.26359 9.84203 4.28992C9.84305 4.31592 9.85156 4.33753 9.85972 4.35853L9.88768 4.34768ZM9.9035 4.39421C9.89888 4.3765 9.89297 4.36129 9.88768 4.34768L9.85972 4.35853C9.86504 4.37225 9.87035 4.38596 9.87447 4.40178L9.9035 4.39421ZM9.80815 4.36118C9.81212 4.38816 9.81959 4.40915 9.82896 4.42441C9.83816 4.43939 9.85004 4.4501 9.86329 4.45372C9.87007 4.45557 9.87728 4.45553 9.88406 4.45291C9.89086 4.45028 9.89625 4.44543 9.89995 4.43932C9.90713 4.42745 9.90781 4.41142 9.90354 4.39436L9.87444 4.40163C9.87767 4.41457 9.87572 4.42141 9.87428 4.42379C9.87395 4.42433 9.87368 4.42461 9.87353 4.42474C9.87339 4.42486 9.8733 4.4249 9.87325 4.42492C9.87323 4.42493 9.87265 4.42517 9.87119 4.42477C9.86794 4.42389 9.86144 4.41998 9.85452 4.40871C9.84777 4.39771 9.84136 4.38083 9.83783 4.35681L9.80815 4.36118ZM9.84439 4.50812C9.83322 4.4885 9.8244 4.47272 9.82142 4.45214C9.81847 4.43176 9.82113 4.40502 9.83696 4.36445L9.80901 4.35354C9.792 4.39713 9.7878 4.42928 9.79173 4.45643C9.79563 4.48339 9.80741 4.5038 9.81832 4.52296L9.84439 4.50812ZM9.87351 4.57423C9.86633 4.54652 9.85456 4.52598 9.84439 4.50812L9.81832 4.52296C9.82852 4.54088 9.83839 4.55832 9.84447 4.58176L9.87351 4.57423ZM9.76388 4.52907C9.77839 4.56938 9.80381 4.59743 9.82608 4.60924C9.83174 4.61224 9.83771 4.61448 9.84367 4.61531C9.84955 4.61614 9.85652 4.61572 9.86282 4.612C9.87708 4.60358 9.87685 4.58676 9.87348 4.57413L9.8445 4.58186C9.84713 4.59173 9.84314 4.58878 9.84756 4.58617C9.84894 4.58536 9.84946 4.58583 9.84784 4.5856C9.84628 4.58539 9.84368 4.58462 9.84014 4.58274C9.82567 4.57506 9.80459 4.55361 9.7921 4.51891L9.76388 4.52907ZM9.8032 4.70588C9.79271 4.68641 9.78185 4.66587 9.77742 4.63859C9.77302 4.61151 9.77482 4.57661 9.79209 4.52912L9.76389 4.51887C9.74516 4.57038 9.74246 4.61048 9.74781 4.6434C9.75313 4.67612 9.76627 4.70058 9.77678 4.72011L9.8032 4.70588ZM9.77499 4.82399C9.78937 4.82399 9.80176 4.81957 9.81061 4.81019C9.81919 4.80109 9.82264 4.7892 9.82334 4.77764C9.8247 4.75491 9.81581 4.72795 9.80301 4.70555L9.77696 4.72044C9.78817 4.74004 9.79428 4.76108 9.79339 4.77585C9.79296 4.78304 9.79098 4.78728 9.78878 4.78961C9.78684 4.79166 9.78311 4.79399 9.77499 4.79399V4.82399ZM9.67082 4.73309C9.67946 4.75094 9.69026 4.77348 9.70596 4.79134C9.72216 4.80976 9.74426 4.82399 9.77499 4.82399V4.79399C9.75495 4.79399 9.74053 4.78521 9.72849 4.77153C9.71596 4.75727 9.70681 4.73859 9.69782 4.72002L9.67082 4.73309ZM9.64899 4.69799C9.64899 4.69799 9.649 4.69799 9.6491 4.69802C9.64921 4.69806 9.64955 4.6982 9.65012 4.69861C9.65135 4.6995 9.65313 4.70127 9.65543 4.70451C9.66016 4.71118 9.66486 4.72078 9.67082 4.73309L9.69782 4.72002C9.69224 4.7085 9.68639 4.69631 9.6799 4.68716C9.67368 4.67838 9.66382 4.66799 9.64899 4.66799V4.69799ZM9.66399 5.51999V4.68299H9.63399V5.51999H9.66399ZM10.594 5.50499H9.64899V5.53499H10.594V5.50499ZM7.43499 5.53499H8.32299V5.50499H7.43499V5.53499ZM7.41999 5.41499V5.51999H7.44999V5.41499H7.41999ZM7.37758 5.3372C7.40009 5.35783 7.41999 5.3765 7.41999 5.41499H7.44999C7.44999 5.36244 7.42055 5.33588 7.39785 5.31508L7.37758 5.3372ZM7.33599 5.26499C7.33599 5.30001 7.35927 5.32041 7.37758 5.3372L7.39785 5.31508C7.37795 5.29685 7.36599 5.28494 7.36599 5.26499H7.33599ZM7.34997 5.12555C7.34268 5.1383 7.33855 5.15382 7.33617 5.16901C7.33376 5.18438 7.33299 5.20039 7.33299 5.21474C7.33299 5.22914 7.33377 5.24212 7.33454 5.25151C7.33493 5.25621 7.33532 5.26003 7.33561 5.26269C7.33576 5.26403 7.33588 5.26507 7.33597 5.2658C7.33602 5.26616 7.33605 5.26644 7.33608 5.26664C7.33609 5.26674 7.3361 5.26682 7.33611 5.26687C7.33611 5.2669 7.33611 5.26692 7.33612 5.26694C7.33612 5.26695 7.33612 5.26696 7.33612 5.26696C7.33612 5.26697 7.33612 5.26697 7.33612 5.26697C7.33612 5.26697 7.33612 5.26698 7.35099 5.26499C7.36586 5.26301 7.36586 5.26301 7.36586 5.26302C7.36586 5.26302 7.36586 5.26302 7.36586 5.26302C7.36586 5.26302 7.36586 5.26302 7.36586 5.26301C7.36586 5.26301 7.36586 5.263 7.36585 5.26298C7.36585 5.26295 7.36584 5.2629 7.36583 5.26283C7.36582 5.26268 7.36579 5.26246 7.36575 5.26215C7.36567 5.26153 7.36556 5.26061 7.36543 5.2594C7.36516 5.25697 7.3648 5.25343 7.36444 5.24904C7.36371 5.24024 7.36299 5.2281 7.36299 5.21474C7.36299 5.20134 7.36372 5.18699 7.36581 5.17366C7.36792 5.16017 7.3713 5.14869 7.37601 5.14044L7.34997 5.12555ZM7.43799 5.18099C7.43799 5.19116 7.43512 5.19846 7.43189 5.20247C7.42896 5.2061 7.42608 5.20692 7.42307 5.20637C7.41923 5.20566 7.412 5.20204 7.40322 5.18963C7.39457 5.1774 7.38542 5.15799 7.37745 5.12902L7.34853 5.13697C7.35706 5.168 7.36741 5.19096 7.37873 5.20696C7.38991 5.22276 7.40313 5.2332 7.41765 5.23587C7.43303 5.2387 7.44645 5.2322 7.45524 5.2213C7.46373 5.21078 7.46799 5.19632 7.46799 5.18099H7.43799ZM7.35679 5.02353C7.38603 5.0679 7.40648 5.09895 7.41972 5.12375C7.43287 5.14837 7.43799 5.16518 7.43799 5.18099H7.46799C7.46799 5.15806 7.46034 5.13612 7.44618 5.10962C7.43213 5.0833 7.41074 5.05087 7.38184 5.00702L7.35679 5.02353ZM7.34146 5.00024L7.35679 5.02352L7.38184 5.00702L7.36652 4.98375L7.34146 5.00024ZM7.3631 4.80585C7.3457 4.82847 7.33398 4.86762 7.32936 4.90384C7.327 4.9223 7.32636 4.9409 7.328 4.95738C7.32959 4.97342 7.33352 4.98935 7.34186 5.00082L7.36612 4.98317C7.36246 4.97813 7.35926 4.96857 7.35785 4.95442C7.35649 4.94071 7.35697 4.92444 7.35912 4.90764C7.36349 4.87337 7.37428 4.84052 7.38688 4.82414L7.3631 4.80585ZM7.44099 4.93499C7.43441 4.93499 7.4295 4.9332 7.42524 4.92981C7.42068 4.92619 7.41603 4.92005 7.41154 4.91009C7.40242 4.88981 7.39586 4.85807 7.38986 4.81301L7.36012 4.81698C7.36611 4.86192 7.37306 4.89768 7.38419 4.9224C7.38983 4.93493 7.39698 4.94567 7.40658 4.9533C7.41648 4.96117 7.42807 4.96499 7.44099 4.96499V4.93499ZM7.46799 4.88999C7.46799 4.91089 7.46374 4.92191 7.45928 4.9275C7.45532 4.93244 7.44968 4.93499 7.44099 4.93499V4.96499C7.4563 4.96499 7.47166 4.96004 7.4827 4.94624C7.49323 4.93307 7.49799 4.9141 7.49799 4.88999H7.46799ZM7.43741 4.80566C7.45443 4.83366 7.46799 4.85643 7.46799 4.88999H7.49799C7.49799 4.8471 7.47988 4.81776 7.46305 4.79008L7.43741 4.80566ZM7.40901 4.75143C7.41717 4.77242 7.42784 4.78991 7.43741 4.80566L7.46305 4.79008C7.45335 4.77412 7.44404 4.75875 7.43697 4.74056L7.40901 4.75143ZM7.44529 4.57648C7.39995 4.62262 7.38576 4.69101 7.40899 4.75138L7.43699 4.74061C7.41798 4.69121 7.42959 4.63526 7.46669 4.59751L7.44529 4.57648ZM7.47738 4.62726C7.47554 4.61471 7.47344 4.60046 7.47078 4.58453L7.44119 4.58946C7.4438 4.60508 7.44585 4.61906 7.4477 4.63162L7.47738 4.62726ZM7.47735 4.62707L7.47735 4.62705L7.44773 4.63184L7.44774 4.63185L7.47735 4.62707ZM7.50699 4.69799C7.50082 4.69799 7.49766 4.69682 7.49582 4.69564C7.49401 4.69447 7.49189 4.69228 7.48967 4.68728C7.48471 4.67614 7.48188 4.65785 7.47738 4.62728L7.4477 4.63164C7.45189 4.66013 7.4552 4.68361 7.46226 4.69947C7.46604 4.70797 7.4714 4.71559 7.47958 4.72086C7.48772 4.7261 7.49708 4.72799 7.50699 4.72799V4.69799ZM7.48143 4.55531C7.4938 4.57519 7.51448 4.60858 7.52331 4.6396C7.52773 4.65514 7.52857 4.66808 7.52561 4.67768C7.52299 4.68618 7.51688 4.69389 7.50225 4.69876L7.51173 4.72722C7.53448 4.71964 7.5485 4.7053 7.55428 4.68652C7.55973 4.66884 7.55725 4.64926 7.55216 4.63139C7.54197 4.59561 7.51885 4.55866 7.50689 4.53945L7.48143 4.55531ZM7.47622 4.54686L7.48139 4.55525L7.50693 4.53951L7.50176 4.53112L7.47622 4.54686ZM7.51899 4.43699C7.50668 4.42843 7.50667 4.42843 7.50667 4.42843C7.50667 4.42843 7.50667 4.42844 7.50667 4.42844C7.50666 4.42845 7.50666 4.42845 7.50665 4.42846C7.50664 4.42847 7.50663 4.42849 7.50661 4.42852C7.50658 4.42856 7.50654 4.42863 7.50648 4.42871C7.50637 4.42887 7.50622 4.42909 7.50603 4.42937C7.50564 4.42995 7.50509 4.43077 7.50441 4.43181C7.50305 4.43389 7.50115 4.43687 7.49893 4.44054C7.49452 4.44784 7.48878 4.45802 7.48359 4.46939C7.47845 4.48067 7.47359 4.49367 7.47131 4.50652C7.46908 4.5191 7.46896 4.53361 7.47582 4.54618L7.50216 4.53181C7.50001 4.52788 7.49914 4.52139 7.50085 4.51175C7.50251 4.50238 7.50628 4.49195 7.51089 4.48184C7.51545 4.47184 7.52058 4.46271 7.52461 4.45605C7.52661 4.45273 7.52832 4.45006 7.52951 4.44824C7.53011 4.44733 7.53057 4.44663 7.53088 4.44618C7.53103 4.44595 7.53115 4.44578 7.53122 4.44568C7.53126 4.44563 7.53128 4.44559 7.53129 4.44557C7.5313 4.44556 7.53131 4.44555 7.53131 4.44555C7.53131 4.44555 7.53131 4.44555 7.53131 4.44555C7.53131 4.44555 7.53131 4.44556 7.53131 4.44556C7.5313 4.44556 7.5313 4.44556 7.51899 4.43699ZM7.57468 4.50063C7.56718 4.50288 7.5638 4.50328 7.56196 4.50308C7.56146 4.50303 7.5606 4.50311 7.55853 4.50048C7.55591 4.49714 7.55262 4.4909 7.54832 4.47938C7.54412 4.46809 7.53937 4.45297 7.53337 4.43273L7.50461 4.44126C7.51061 4.46152 7.51561 4.47752 7.52022 4.48986C7.52473 4.50196 7.52932 4.51185 7.53494 4.51901C7.54113 4.52688 7.54889 4.53183 7.55871 4.53291C7.56718 4.53383 7.57579 4.53161 7.5833 4.52936L7.57468 4.50063ZM7.55638 4.4236C7.57577 4.44299 7.5856 4.46329 7.58734 4.47812C7.5882 4.48544 7.58702 4.49052 7.5852 4.4937C7.58356 4.49656 7.58075 4.49909 7.57535 4.50044L7.58263 4.52955C7.59523 4.52639 7.60517 4.51918 7.61122 4.50863C7.61708 4.4984 7.61852 4.48642 7.61714 4.47462C7.61438 4.4512 7.60021 4.425 7.5776 4.40239L7.55638 4.4236ZM7.56238 4.30339C7.54527 4.3205 7.53505 4.34103 7.53365 4.36252C7.53223 4.38415 7.53988 4.40529 7.55584 4.42303L7.57814 4.40296C7.5671 4.3907 7.56274 4.37734 7.56358 4.36447C7.56443 4.35145 7.57071 4.33749 7.5836 4.3246L7.56238 4.30339ZM7.62704 4.33075C7.62648 4.33751 7.62451 4.34078 7.62333 4.34201C7.62255 4.34282 7.62172 4.3433 7.61974 4.34302C7.61404 4.34221 7.60068 4.33439 7.58626 4.30701L7.55972 4.32098C7.5753 4.35059 7.59493 4.36978 7.61549 4.37272C7.62663 4.37431 7.63724 4.37086 7.64499 4.36276C7.65235 4.35508 7.656 4.34448 7.65694 4.33324L7.62704 4.33075ZM7.60323 4.20268L7.62723 4.33468L7.65675 4.32931L7.63275 4.19731L7.60323 4.20268ZM7.65099 4.18499H7.61799V4.21499H7.65099V4.18499ZM7.6241 4.10178L7.6361 4.20178L7.66588 4.19821L7.65388 4.09821L7.6241 4.10178ZM8.11599 4.08499H7.63899V4.11499H8.11599V4.08499ZM8.11888 4.20178L8.13088 4.10178L8.1011 4.09821L8.0891 4.19821L8.11888 4.20178ZM8.13999 4.18499H8.10399V4.21499H8.13999V4.18499ZM8.12767 4.33207L8.15467 4.20307L8.12531 4.19692L8.09831 4.32592L8.12767 4.33207ZM8.17157 4.30729C8.1578 4.33482 8.14212 4.34214 8.13474 4.34251C8.13126 4.34269 8.12972 4.34152 8.12903 4.34069C8.12828 4.33979 8.12683 4.33717 8.12778 4.33146L8.09819 4.32653C8.09615 4.33881 8.09844 4.35082 8.10595 4.35986C8.11351 4.36896 8.12471 4.37305 8.13624 4.37248C8.15886 4.37134 8.18217 4.35317 8.19841 4.3207L8.17157 4.30729ZM8.2016 4.4236C8.23569 4.38951 8.23014 4.33793 8.1956 4.30339L8.17438 4.3246C8.19984 4.35006 8.20029 4.38248 8.18038 4.40239L8.2016 4.4236ZM8.18263 4.50044C8.17723 4.49909 8.17442 4.49656 8.17278 4.4937C8.17096 4.49052 8.16977 4.48544 8.17064 4.47812C8.17238 4.46329 8.18221 4.44299 8.2016 4.4236L8.18038 4.40239C8.15777 4.425 8.1436 4.4512 8.14084 4.47462C8.13945 4.48642 8.1409 4.4984 8.14676 4.50863C8.15281 4.51918 8.16275 4.52639 8.17535 4.52955L8.18263 4.50044ZM8.22465 4.43258C8.21865 4.45209 8.2139 4.46687 8.20967 4.47806C8.20537 4.48945 8.20205 4.49592 8.19929 4.49955C8.19697 4.50261 8.19585 4.50267 8.19535 4.50275C8.19374 4.503 8.19051 4.50279 8.1833 4.50063L8.17468 4.52936C8.18247 4.5317 8.19124 4.53374 8.19994 4.5324C8.20975 4.53088 8.21726 4.5255 8.22319 4.51768C8.22868 4.51045 8.23323 4.5006 8.23774 4.48865C8.24233 4.47649 8.24733 4.4609 8.25333 4.44141L8.22465 4.43258ZM8.28349 4.54281C8.29225 4.50954 8.28336 4.48015 8.27298 4.4598C8.26776 4.44958 8.26204 4.44137 8.25761 4.43569C8.25539 4.43284 8.25347 4.4306 8.25207 4.42903C8.25137 4.42825 8.25079 4.42763 8.25037 4.42719C8.25016 4.42697 8.24999 4.42679 8.24986 4.42665C8.24979 4.42659 8.24974 4.42653 8.24969 4.42649C8.24967 4.42647 8.24965 4.42645 8.24964 4.42643C8.24963 4.42642 8.24962 4.42641 8.24961 4.42641C8.24961 4.4264 8.24961 4.4264 8.2496 4.4264C8.2496 4.42639 8.2496 4.42639 8.23899 4.43699C8.22838 4.4476 8.22838 4.4476 8.22837 4.44759C8.22837 4.44759 8.22837 4.44759 8.22837 4.44759C8.22836 4.44758 8.22836 4.44758 8.22836 4.44758C8.22835 4.44757 8.22835 4.44757 8.22835 4.44757C8.22835 4.44757 8.22836 4.44757 8.22838 4.44759C8.22842 4.44763 8.22849 4.44772 8.22861 4.44784C8.22884 4.44808 8.22922 4.44849 8.22972 4.44904C8.23072 4.45016 8.23219 4.45188 8.23396 4.45414C8.2375 4.45868 8.24209 4.46528 8.24625 4.47344C8.25462 4.48984 8.26073 4.51145 8.25448 4.53518L8.28349 4.54281ZM8.27732 4.55412L8.28178 4.54683L8.2562 4.53116L8.25173 4.53845L8.27732 4.55412ZM8.25525 4.69861C8.24067 4.69429 8.23478 4.6869 8.23227 4.67859C8.22937 4.66901 8.23032 4.65583 8.23493 4.63987C8.24412 4.60811 8.26521 4.57375 8.27729 4.55416L8.25176 4.53841C8.24007 4.55736 8.21663 4.59518 8.20612 4.63154C8.20088 4.64965 8.19819 4.66952 8.20355 4.68727C8.20929 4.70629 8.22356 4.72051 8.24673 4.72738L8.25525 4.69861ZM8.28059 4.62728C8.2761 4.65785 8.27326 4.67614 8.26831 4.68728C8.26609 4.69228 8.26397 4.69447 8.26216 4.69564C8.26031 4.69682 8.25716 4.69799 8.25099 4.69799V4.72799C8.2609 4.72799 8.27025 4.7261 8.2784 4.72086C8.28658 4.71559 8.29194 4.70797 8.29572 4.69947C8.30278 4.68361 8.30608 4.66013 8.31027 4.63164L8.28059 4.62728ZM8.28057 4.62747L8.28056 4.62749L8.3103 4.63143L8.31031 4.63141L8.28057 4.62747ZM8.28063 4.62701L8.28063 4.62706L8.31025 4.63181L8.31026 4.63176L8.28063 4.62701ZM8.28719 4.58453C8.28454 4.60044 8.28245 4.61467 8.2806 4.6272L8.31029 4.63157C8.31213 4.61902 8.31419 4.60505 8.31678 4.58946L8.28719 4.58453ZM8.3459 4.7516C8.36998 4.69186 8.3571 4.62356 8.3129 4.5767L8.29108 4.59729C8.32724 4.63563 8.33778 4.6915 8.31808 4.74039L8.3459 4.7516ZM8.31663 4.80935C8.32696 4.79252 8.33857 4.7737 8.34622 4.75074L8.31776 4.74125C8.31135 4.76048 8.30157 4.77653 8.29106 4.79367L8.31663 4.80935ZM8.28699 4.88999C8.28699 4.85815 8.30025 4.83605 8.31663 4.80935L8.29106 4.79367C8.27492 4.81997 8.25699 4.84871 8.25699 4.88999H8.28699ZM8.31699 4.93499C8.30818 4.93499 8.30149 4.93234 8.29675 4.92696C8.29177 4.9213 8.28699 4.91039 8.28699 4.88999H8.25699C8.25699 4.91459 8.26271 4.93369 8.27423 4.94678C8.28599 4.96015 8.3018 4.96499 8.31699 4.96499V4.93499ZM8.36811 4.81307C8.3621 4.85965 8.35555 4.89131 8.34647 4.91113C8.34203 4.92083 8.33745 4.92664 8.33298 4.93004C8.32878 4.93324 8.32381 4.93499 8.31699 4.93499V4.96499C8.32967 4.96499 8.3412 4.9615 8.35116 4.95391C8.36084 4.94653 8.36807 4.93603 8.37375 4.92361C8.38493 4.89918 8.39187 4.86334 8.39787 4.81691L8.36811 4.81307ZM8.41647 5.00331C8.42448 4.99131 8.42839 4.97511 8.42998 4.95861C8.43161 4.94175 8.43098 4.92289 8.42862 4.90424C8.424 4.86763 8.41229 4.82848 8.39488 4.80585L8.3711 4.82414C8.38369 4.84051 8.39448 4.87335 8.39886 4.908C8.401 4.92498 8.40149 4.94155 8.40012 4.95572C8.39872 4.97025 8.3955 4.98068 8.39151 4.98667L8.41647 5.00331ZM8.39113 5.04055L8.41639 5.00343L8.39159 4.98655L8.36633 5.02367L8.39113 5.04055ZM8.31699 5.18099C8.31699 5.16638 8.3219 5.15074 8.33408 5.12853C8.34635 5.10615 8.36503 5.07877 8.39112 5.04057L8.36634 5.02365C8.34061 5.06133 8.32092 5.09014 8.30778 5.11411C8.29454 5.13824 8.28699 5.1591 8.28699 5.18099H8.31699ZM8.37744 5.12936C8.37021 5.15826 8.36143 5.17758 8.35297 5.18971C8.34441 5.20198 8.33713 5.20563 8.33308 5.20636C8.32971 5.20696 8.32645 5.20597 8.32333 5.20225C8.31994 5.19821 8.31699 5.19098 8.31699 5.18099H8.28699C8.28699 5.19651 8.29153 5.21102 8.30034 5.22152C8.3094 5.23233 8.32302 5.23865 8.3384 5.23588C8.3531 5.23324 8.36644 5.22282 8.37757 5.20687C8.3888 5.19078 8.39877 5.16772 8.40654 5.13663L8.37744 5.12936ZM8.40699 5.26499C8.42186 5.26698 8.42186 5.26697 8.42186 5.26697C8.42186 5.26697 8.42186 5.26696 8.42186 5.26696C8.42186 5.26696 8.42186 5.26695 8.42186 5.26694C8.42186 5.26692 8.42187 5.2669 8.42187 5.26687C8.42188 5.26681 8.42189 5.26673 8.4219 5.26663C8.42193 5.26643 8.42196 5.26615 8.42201 5.26578C8.4221 5.26505 8.42222 5.264 8.42236 5.26266C8.42265 5.25998 8.42303 5.25615 8.4234 5.25143C8.42413 5.24202 8.42481 5.22898 8.42461 5.21454C8.42424 5.18666 8.42061 5.14978 8.40461 5.12488L8.37937 5.14111C8.39037 5.15821 8.39424 5.18733 8.39462 5.21495C8.39479 5.22825 8.39417 5.24035 8.39349 5.24912C8.39315 5.2535 8.3928 5.25702 8.39254 5.25943C8.39241 5.26063 8.3923 5.26156 8.39223 5.26216C8.39219 5.26247 8.39216 5.26269 8.39214 5.26284C8.39213 5.26291 8.39213 5.26296 8.39212 5.26299C8.39212 5.263 8.39212 5.26301 8.39212 5.26302C8.39212 5.26302 8.39212 5.26302 8.39212 5.26302C8.39212 5.26302 8.39212 5.26302 8.39212 5.26302C8.39212 5.26301 8.39212 5.26301 8.40699 5.26499ZM8.38102 5.33758C8.39922 5.32054 8.42199 5.30013 8.42199 5.26499H8.39199C8.39199 5.28533 8.38014 5.29731 8.36052 5.31567L8.38102 5.33758ZM8.33798 5.41553C8.33936 5.37694 8.35917 5.35802 8.38102 5.33758L8.36052 5.31567C8.33837 5.33639 8.30985 5.36271 8.308 5.41446L8.33798 5.41553ZM8.33799 5.51999V5.41499H8.30799V5.51999H8.33799ZM5.15199 4.67999V5.51999H5.18199V4.67999H5.15199ZM5.21588 4.71818C5.2103 4.70637 5.20447 4.69394 5.198 4.6846C5.19185 4.67572 5.18198 4.66499 5.16699 4.66499V4.69499C5.16699 4.69499 5.16699 4.69499 5.16698 4.69499C5.16697 4.69499 5.16696 4.69499 5.16695 4.69499C5.16693 4.69499 5.16694 4.69499 5.16699 4.695C5.16708 4.69504 5.16741 4.69517 5.16798 4.69559C5.16922 4.69651 5.17102 4.69834 5.17334 4.70168C5.17809 4.70854 5.1828 4.71841 5.18876 4.73101L5.21588 4.71818ZM5.29299 4.79399C5.27309 4.79399 5.25869 4.78507 5.24661 4.771C5.23404 4.75637 5.22487 4.73719 5.21588 4.71818L5.18876 4.73101C5.1974 4.74928 5.20818 4.77231 5.22385 4.79055C5.24 4.80936 5.26212 4.82399 5.29299 4.82399V4.79399ZM5.29537 4.72111C5.30774 4.74035 5.31369 4.76109 5.31254 4.77555C5.31197 4.78257 5.30987 4.78689 5.30742 4.78938C5.30518 4.79165 5.30111 4.79399 5.29299 4.79399V4.82399C5.30737 4.82399 5.31979 4.81958 5.32881 4.81042C5.33761 4.80147 5.3415 4.78967 5.34244 4.77794C5.34428 4.75489 5.33523 4.72764 5.32061 4.70488L5.29537 4.72111ZM5.28189 4.51887C5.26316 4.57038 5.26046 4.61048 5.26581 4.6434C5.27113 4.67612 5.28427 4.70058 5.29478 4.72011L5.3212 4.70588C5.31071 4.68641 5.29985 4.66587 5.29542 4.63859C5.29102 4.61151 5.29282 4.57661 5.31009 4.52912L5.28189 4.51887ZM5.3625 4.58186C5.36513 4.59173 5.36114 4.58878 5.36557 4.58617C5.36694 4.58536 5.36746 4.58583 5.36584 4.5856C5.36428 4.58539 5.36168 4.58462 5.35814 4.58274C5.34367 4.57506 5.32259 4.55361 5.3101 4.51891L5.28188 4.52907C5.29639 4.56938 5.32181 4.59742 5.34408 4.60924C5.34974 4.61224 5.35571 4.61448 5.36167 4.61531C5.36755 4.61614 5.37452 4.61572 5.38082 4.612C5.39508 4.60358 5.39485 4.58676 5.39148 4.57413L5.3625 4.58186ZM5.33632 4.52296C5.34652 4.54088 5.35639 4.55832 5.36247 4.58176L5.39151 4.57423C5.38433 4.54652 5.37256 4.52598 5.36239 4.50811L5.33632 4.52296ZM5.32702 4.35354C5.31 4.39713 5.3058 4.42928 5.30973 4.45643C5.31363 4.48339 5.32541 4.5038 5.33632 4.52296L5.36239 4.50811C5.35122 4.4885 5.3424 4.47272 5.33942 4.45214C5.33647 4.43176 5.33913 4.40502 5.35496 4.36445L5.32702 4.35354ZM5.39244 4.40163C5.39567 4.41457 5.39372 4.42141 5.39228 4.42379C5.39195 4.42433 5.39168 4.42461 5.39153 4.42474C5.39139 4.42486 5.3913 4.4249 5.39125 4.42492C5.39123 4.42493 5.39065 4.42517 5.38919 4.42477C5.38594 4.42389 5.37944 4.41998 5.37252 4.40871C5.36577 4.39771 5.35936 4.38083 5.35583 4.35681L5.32615 4.36118C5.33012 4.38816 5.33759 4.40915 5.34696 4.42441C5.35616 4.43939 5.36804 4.4501 5.38129 4.45372C5.38808 4.45557 5.39528 4.45553 5.40206 4.45291C5.40886 4.45028 5.41425 4.44543 5.41795 4.43932C5.42513 4.42745 5.42581 4.41142 5.42154 4.39436L5.39244 4.40163ZM5.37772 4.35853C5.38304 4.37225 5.38835 4.38596 5.39247 4.40178L5.4215 4.39421C5.41688 4.3765 5.41097 4.36129 5.40568 4.34768L5.37772 4.35853ZM5.38457 4.19629C5.36563 4.23418 5.359 4.26359 5.36003 4.28992C5.36105 4.31592 5.36956 4.33753 5.37772 4.35853L5.40568 4.34768C5.39731 4.3261 5.3908 4.309 5.39001 4.28875C5.38923 4.26884 5.39401 4.24449 5.41141 4.2097L5.38457 4.19629ZM5.44299 4.23899C5.44299 4.25545 5.44097 4.26649 5.43854 4.27237C5.43731 4.27536 5.43654 4.27562 5.43724 4.27511C5.43866 4.27406 5.44098 4.27366 5.44272 4.27422C5.44358 4.2745 5.44267 4.27449 5.4403 4.27169C5.43809 4.26906 5.43532 4.26483 5.43221 4.25851C5.42598 4.2459 5.41917 4.22662 5.41256 4.19945L5.38341 4.20654C5.3903 4.23487 5.39774 4.25646 5.4053 4.27179C5.40908 4.27944 5.41309 4.28595 5.41737 4.29103C5.42151 4.29594 5.42684 4.30062 5.43351 4.30277C5.44106 4.30521 5.44877 4.30386 5.45501 4.29928C5.46052 4.29523 5.464 4.28934 5.46628 4.2838C5.47088 4.27263 5.47299 4.25704 5.47299 4.23899H5.44299ZM5.57955 3.97566C5.51192 3.9966 5.47689 4.03688 5.45959 4.08588C5.44283 4.13338 5.44299 4.18864 5.44299 4.23899H5.47299C5.47299 4.18735 5.47315 4.1376 5.48788 4.09586C5.50209 4.05561 5.53006 4.02239 5.58842 4.00432L5.57955 3.97566ZM5.64099 3.88499C5.62368 3.88499 5.61033 3.89331 5.60068 3.90402C5.59128 3.91447 5.58485 3.92771 5.58041 3.93983C5.5759 3.95211 5.57309 3.96422 5.57141 3.97315C5.57056 3.97764 5.56998 3.98141 5.56961 3.98407C5.56943 3.98541 5.56929 3.98648 5.5692 3.98723C5.56916 3.9876 5.56913 3.9879 5.5691 3.98812C5.56909 3.98822 5.56908 3.98831 5.56908 3.98837C5.56907 3.98841 5.56907 3.98843 5.56907 3.98845C5.56907 3.98846 5.56907 3.98847 5.56907 3.98848C5.56906 3.98849 5.56906 3.98849 5.56906 3.98849C5.56906 3.9885 5.56906 3.9885 5.58399 3.98999C5.59891 3.99149 5.59891 3.99149 5.59891 3.99149C5.59891 3.99149 5.59891 3.9915 5.59891 3.9915C5.59891 3.9915 5.59891 3.9915 5.59891 3.9915C5.59891 3.9915 5.59891 3.99149 5.59891 3.99148C5.59892 3.99146 5.59892 3.99142 5.59893 3.99136C5.59894 3.99123 5.59897 3.99102 5.599 3.99074C5.59907 3.99017 5.59917 3.9893 5.59933 3.98818C5.59964 3.98593 5.60014 3.98266 5.60088 3.97872C5.60238 3.97077 5.60482 3.96038 5.60857 3.95016C5.61238 3.93978 5.61719 3.93052 5.62298 3.92409C5.62853 3.91793 5.6343 3.91499 5.64099 3.91499V3.88499ZM5.69499 3.98999C5.70991 3.9885 5.70991 3.9885 5.70991 3.98849C5.70991 3.98849 5.70991 3.98849 5.70991 3.98848C5.70991 3.98848 5.70991 3.98847 5.70991 3.98846C5.70991 3.98844 5.7099 3.98841 5.7099 3.98838C5.7099 3.98831 5.70989 3.98823 5.70987 3.98812C5.70985 3.98791 5.70982 3.98762 5.70978 3.98724C5.70969 3.9865 5.70956 3.98544 5.70938 3.98411C5.70902 3.98145 5.70845 3.97771 5.70763 3.97323C5.706 3.96433 5.7033 3.95226 5.69902 3.94004C5.6948 3.92799 5.68871 3.91478 5.67984 3.90434C5.67077 3.89367 5.65792 3.88499 5.64099 3.88499V3.91499C5.64656 3.91499 5.65171 3.91757 5.65698 3.92377C5.66245 3.93021 5.66705 3.9395 5.67071 3.94995C5.6743 3.96022 5.67666 3.97066 5.67813 3.97864C5.67885 3.98259 5.67934 3.98588 5.67965 3.98814C5.6798 3.98928 5.67991 3.99015 5.67998 3.99072C5.68001 3.99101 5.68003 3.99122 5.68005 3.99135C5.68006 3.99141 5.68006 3.99146 5.68006 3.99148C5.68006 3.99149 5.68006 3.9915 5.68006 3.9915C5.68006 3.9915 5.68006 3.9915 5.68006 3.9915C5.68006 3.9915 5.68006 3.99149 5.68006 3.99149C5.68006 3.99149 5.68006 3.99149 5.69499 3.98999ZM5.83599 4.2324C5.83602 4.18439 5.83623 4.13053 5.81943 4.08393C5.8021 4.03585 5.76699 3.99609 5.69933 3.97564L5.69065 4.00435C5.74912 4.02203 5.77705 4.05483 5.79121 4.0941C5.80589 4.13484 5.80602 4.18311 5.80599 4.23238L5.83599 4.2324ZM5.83599 4.239L5.83599 4.2324L5.80599 4.23239L5.80599 4.23899L5.83599 4.239ZM5.86641 4.19945C5.8598 4.22662 5.85299 4.2459 5.84677 4.25851C5.84366 4.26483 5.84089 4.26906 5.83867 4.27169C5.83631 4.27449 5.8354 4.2745 5.83626 4.27422C5.838 4.27366 5.84032 4.27406 5.84174 4.27511C5.84243 4.27562 5.84167 4.27536 5.84044 4.27237C5.83801 4.26649 5.83599 4.25545 5.83599 4.23899H5.80599C5.80599 4.25704 5.80809 4.27263 5.8127 4.2838C5.81498 4.28934 5.81846 4.29523 5.82397 4.29928C5.83021 4.30386 5.83791 4.30521 5.84547 4.30277C5.85214 4.30062 5.85746 4.29594 5.86161 4.29103C5.86589 4.28595 5.8699 4.27944 5.87368 4.27179C5.88123 4.25646 5.88867 4.23487 5.89556 4.20654L5.86641 4.19945ZM5.90126 4.35853C5.90941 4.33753 5.91793 4.31592 5.91895 4.28992C5.91998 4.26359 5.91335 4.23418 5.89441 4.19629L5.86757 4.2097C5.88497 4.24449 5.88975 4.26884 5.88897 4.28875C5.88818 4.309 5.88167 4.3261 5.87329 4.34768L5.90126 4.35853ZM5.8865 4.40178C5.89063 4.38596 5.89594 4.37225 5.90126 4.35853L5.87329 4.34768C5.86801 4.36129 5.86209 4.3765 5.85747 4.39421L5.8865 4.40178ZM5.92315 4.35681C5.91962 4.38083 5.91321 4.39771 5.90646 4.40871C5.89953 4.41998 5.89304 4.42389 5.88979 4.42477C5.88833 4.42517 5.88775 4.42493 5.88773 4.42492C5.88768 4.4249 5.88759 4.42486 5.88745 4.42474C5.8873 4.42461 5.88703 4.42433 5.8867 4.42379C5.88525 4.42141 5.88331 4.41457 5.88654 4.40163L5.85744 4.39436C5.85317 4.41142 5.85385 4.42745 5.86103 4.43932C5.86473 4.44543 5.87011 4.45028 5.87692 4.45291C5.8837 4.45553 5.8909 4.45557 5.89769 4.45372C5.91094 4.4501 5.92282 4.43939 5.93202 4.42441C5.94139 4.40915 5.94886 4.38816 5.95283 4.36118L5.92315 4.35681ZM5.94266 4.52296C5.95357 4.5038 5.96535 4.48339 5.96925 4.45643C5.97318 4.42928 5.96897 4.39713 5.95196 4.35354L5.92402 4.36445C5.93985 4.40502 5.94251 4.43176 5.93956 4.45214C5.93658 4.47272 5.92776 4.4885 5.91659 4.50811L5.94266 4.52296ZM5.91651 4.58176C5.92258 4.55832 5.93246 4.54088 5.94266 4.52296L5.91659 4.50811C5.90641 4.52598 5.89465 4.54652 5.88747 4.57423L5.91651 4.58176ZM5.96888 4.51891C5.95639 4.55361 5.93531 4.57506 5.92083 4.58274C5.9173 4.58462 5.9147 4.58539 5.91314 4.5856C5.91152 4.58583 5.91203 4.58536 5.91341 4.58617C5.91783 4.58878 5.91385 4.59173 5.91648 4.58186L5.8875 4.57413C5.88413 4.58676 5.88389 4.60358 5.89816 4.612C5.90446 4.61572 5.91142 4.61614 5.91731 4.61531C5.92326 4.61448 5.92924 4.61224 5.93489 4.60924C5.95717 4.59743 5.98259 4.56938 5.9971 4.52907L5.96888 4.51891ZM5.9842 4.72011C5.99471 4.70058 6.00785 4.67612 6.01317 4.6434C6.01852 4.61048 6.01582 4.57038 5.99709 4.51887L5.96889 4.52912C5.98616 4.57661 5.98796 4.61151 5.98356 4.63859C5.97913 4.66587 5.96827 4.68641 5.95778 4.70588L5.9842 4.72011ZM5.98599 4.79399C5.97787 4.79399 5.97414 4.79166 5.9722 4.78961C5.97 4.78728 5.96802 4.78304 5.96759 4.77585C5.9667 4.76108 5.97281 4.74004 5.98401 4.72044L5.95797 4.70555C5.94517 4.72795 5.93628 4.75491 5.93764 4.77764C5.93833 4.7892 5.94179 4.80109 5.95037 4.81019C5.95922 4.81957 5.97161 4.82399 5.98599 4.82399V4.79399ZM6.06316 4.72002C6.05417 4.73859 6.04502 4.75727 6.03249 4.77153C6.02045 4.78521 6.00602 4.79399 5.98599 4.79399V4.82399C6.01672 4.82399 6.03881 4.80976 6.05502 4.79134C6.07072 4.77348 6.08152 4.75094 6.09016 4.73309L6.06316 4.72002ZM6.11199 4.66799C6.09716 4.66799 6.0873 4.67838 6.08107 4.68716C6.07458 4.69631 6.06874 4.7085 6.06316 4.72002L6.09016 4.73309C6.09612 4.72078 6.10082 4.71118 6.10555 4.70451C6.10784 4.70127 6.10963 4.6995 6.11086 4.69861C6.11143 4.6982 6.11176 4.69806 6.11188 4.69802C6.11197 4.69799 6.11198 4.69799 6.11199 4.69799V4.66799ZM6.12699 5.51999V4.68299H6.09699V5.51999H6.12699ZM5.16699 5.53499H6.11199V5.50499H5.16699V5.53499ZM7.87836 3.95201C7.85546 3.95296 7.83837 3.9637 7.82625 3.97841C7.81449 3.9927 7.80739 4.01067 7.80299 4.02728C7.79855 4.04404 7.79657 4.0605 7.79568 4.07264C7.79524 4.07874 7.79507 4.08384 7.795 4.08744C7.79497 4.08925 7.79497 4.09068 7.79497 4.09168C7.79498 4.09219 7.79498 4.09258 7.79498 4.09287C7.79499 4.09301 7.79499 4.09312 7.79499 4.0932C7.79499 4.09324 7.79499 4.09328 7.79499 4.0933C7.79499 4.09332 7.79499 4.09333 7.79499 4.09334C7.79499 4.09334 7.79499 4.09335 7.79499 4.09335C7.79499 4.09335 7.79499 4.09336 7.80999 4.09299C7.82498 4.09263 7.82498 4.09263 7.82498 4.09264C7.82498 4.09264 7.82498 4.09264 7.82498 4.09264C7.82498 4.09264 7.82498 4.09264 7.82498 4.09264C7.82498 4.09264 7.82498 4.09263 7.82498 4.09261C7.82498 4.09257 7.82498 4.09251 7.82498 4.09242C7.82498 4.09223 7.82497 4.09194 7.82497 4.09154C7.82497 4.09074 7.82497 4.08953 7.825 4.08796C7.82505 4.08483 7.82521 4.08029 7.82561 4.07482C7.82641 4.0638 7.82818 4.04932 7.83199 4.03496C7.83584 4.02044 7.84149 4.0071 7.84941 3.99748C7.85698 3.98829 7.86652 3.98253 7.87961 3.98198L7.87836 3.95201ZM7.94499 4.09299C7.95998 4.09335 7.95998 4.09335 7.95998 4.09334C7.95998 4.09334 7.95998 4.09333 7.95999 4.09333C7.95999 4.09332 7.95999 4.09331 7.95999 4.0933C7.95999 4.09327 7.95999 4.09324 7.95999 4.09319C7.95999 4.09311 7.95999 4.093 7.95999 4.09286C7.96 4.09257 7.96 4.09217 7.96001 4.09166C7.96001 4.09064 7.96001 4.08918 7.95998 4.08735C7.95992 4.08369 7.95976 4.0785 7.95935 4.0723C7.95851 4.05996 7.95664 4.04326 7.95242 4.02636C7.94824 4.00965 7.94147 3.99154 7.93014 3.97733C7.91841 3.96262 7.9016 3.95199 7.87899 3.95199V3.98199C7.89088 3.98199 7.89957 3.98712 7.90668 3.99603C7.91419 4.00545 7.91961 4.01884 7.92331 4.03363C7.92696 4.04823 7.92865 4.06303 7.92941 4.07432C7.92979 4.07992 7.92994 4.08458 7.92998 4.08781C7.93001 4.08942 7.93001 4.09067 7.93001 4.0915C7.93 4.09191 7.93 4.09221 7.93 4.09241C7.93 4.0925 7.92999 4.09257 7.92999 4.09261C7.92999 4.09263 7.92999 4.09264 7.92999 4.09265C7.92999 4.09265 7.92999 4.09265 7.92999 4.09265C7.92999 4.09265 7.92999 4.09264 7.92999 4.09264C7.92999 4.09264 7.92999 4.09264 7.94499 4.09299ZM7.80999 4.10799H7.94499V4.07799H7.80999V4.10799Z" fill="white"/>
</g>
<defs>
<clipPath id="clip0_8_24083">
<rect width="16" height="12" fill="white"/>
</clipPath>
</defs>
</svg>
