<svg width="16" height="12" viewBox="0 0 16 12" fill="none" xmlns="http://www.w3.org/2000/svg">
<g clip-path="url(#clip0_8_24085)">
<rect width="16" height="12" fill="white"/>
<path fill-rule="evenodd" clip-rule="evenodd" d="M0 0V12H16V0H0Z" fill="#E31D1C"/>
<mask id="mask0_8_24085" style="mask-type:luminance" maskUnits="userSpaceOnUse" x="0" y="0" width="16" height="12">
<path fill-rule="evenodd" clip-rule="evenodd" d="M0 0V12H16V0H0Z" fill="white"/>
</mask>
<g mask="url(#mask0_8_24085)">
<path fill-rule="evenodd" clip-rule="evenodd" d="M7.66165 8.58849L7.89055 8.09211L8.11946 8.58849L8.25533 8.05954L8.56992 8.50741L8.60838 7.9629L8.99854 8.34785L8.93837 7.80528L9.39155 8.11495L9.23467 7.59175L9.73632 7.81618L9.48777 7.32918L10.0218 7.46116L9.68954 7.026L10.2387 7.06128L9.83349 6.69196L10.3802 6.62941L9.91498 6.33779L10.4416 6.17943L9.93142 5.97488L10.4211 5.72579L9.88225 5.6149L10.3192 5.28309L9.76907 5.2694L10.1393 4.86553L9.59552 4.9495L9.88708 4.48656L9.36717 4.66548L9.5707 4.15834L9.09135 4.42647L9.20032 3.89143L8.77694 4.24015L8.78784 3.69441L8.43405 4.1125L8.34653 3.5736L8.07368 4.04763L7.89055 3.5329L7.70743 4.04763L7.43458 3.5736L7.34706 4.1125L6.99327 3.69441L7.00417 4.24015L6.58079 3.89143L6.68976 4.42647L6.21041 4.15834L6.41394 4.66548L5.89403 4.48656L6.18559 4.9495L5.64182 4.86553L6.01203 5.2694L5.46189 5.28309L5.89886 5.6149L5.36002 5.72579L5.84969 5.97488L5.33948 6.17943L5.86612 6.33779L5.40093 6.62941L5.94762 6.69196L5.5424 7.06128L6.09157 7.026L5.75935 7.46116L6.29334 7.32918L6.04479 7.81618L6.54644 7.59175L6.38956 8.11495L6.84274 7.80528L6.78257 8.34785L7.17272 7.9629L7.21119 8.50741L7.52578 8.05954L7.66165 8.58849Z" fill="#FFC84A"/>
<path fill-rule="evenodd" clip-rule="evenodd" d="M-0.396005 6.96006L0.911418 6.42946C1.10199 6.35212 1.31538 6.35306 1.50527 6.43208L3.32064 7.18756C3.52604 7.27303 3.75814 7.26687 3.95871 7.17061L5.42302 6.46789C5.63304 6.3671 5.87708 6.36531 6.08856 6.46301L7.62228 7.17154C7.8289 7.26699 8.06688 7.26758 8.27397 7.17314L9.84334 6.45745C10.0504 6.36305 10.2883 6.3636 10.4948 6.45897L12.0443 7.17426C12.2476 7.26814 12.4815 7.27021 12.6865 7.17995L14.3795 6.43446C14.5628 6.35375 14.7701 6.34653 14.9586 6.41429L16.4765 6.96006V11.9669H-0.440491L-0.396005 6.96006Z" fill="#F7FCFF"/>
<mask id="mask1_8_24085" style="mask-type:luminance" maskUnits="userSpaceOnUse" x="-1" y="6" width="18" height="6">
<path fill-rule="evenodd" clip-rule="evenodd" d="M-0.396005 6.96006L0.911418 6.42946C1.10199 6.35212 1.31538 6.35306 1.50527 6.43208L3.32064 7.18756C3.52604 7.27303 3.75814 7.26687 3.95871 7.17061L5.42302 6.46789C5.63304 6.3671 5.87708 6.36531 6.08856 6.46301L7.62228 7.17154C7.8289 7.26699 8.06688 7.26758 8.27397 7.17314L9.84334 6.45745C10.0504 6.36305 10.2883 6.3636 10.4948 6.45897L12.0443 7.17426C12.2476 7.26814 12.4815 7.27021 12.6865 7.17995L14.3795 6.43446C14.5628 6.35375 14.7701 6.34653 14.9586 6.41429L16.4765 6.96006V11.9669H-0.440491L-0.396005 6.96006Z" fill="white"/>
</mask>
<g mask="url(#mask1_8_24085)">
<path d="M-0.395996 8.12287L0.911427 7.59227C1.102 7.51493 1.31539 7.51587 1.50528 7.59489L3.32065 8.35037C3.52605 8.43584 3.75815 8.42968 3.95872 8.33342L5.42302 7.6307C5.63305 7.52991 5.87709 7.52812 6.08857 7.62581L7.62229 8.33435C7.82891 8.4298 8.06689 8.43039 8.27398 8.33595L9.84335 7.62026C10.0504 7.52586 10.2883 7.52641 10.4949 7.62178L12.0443 8.33707C12.2476 8.43095 12.4815 8.43302 12.6865 8.34276L14.3795 7.59727C14.5628 7.51656 14.7701 7.50934 14.9586 7.5771L16.4765 8.12287" stroke="#015989"/>
<path d="M-0.395996 9.78734L0.911427 9.25675C1.102 9.17941 1.31539 9.18035 1.50528 9.25937L3.32065 10.0148C3.52605 10.1003 3.75815 10.0942 3.95872 9.9979L5.42302 9.29517C5.63305 9.19438 5.87709 9.19259 6.08857 9.29029L7.62229 9.99882C7.82891 10.0943 8.06689 10.0949 8.27398 10.0004L9.84335 9.28474C10.0504 9.19033 10.2883 9.19088 10.4949 9.28625L12.0443 10.0015C12.2476 10.0954 12.4815 10.0975 12.6865 10.0072L14.3795 9.26174C14.5628 9.18103 14.7701 9.17381 14.9586 9.24158L16.4765 9.78734" stroke="#015989"/>
<path fill-rule="evenodd" clip-rule="evenodd" d="M-0.395996 11.1137L0.149837 10.8921C0.828339 10.6168 1.58806 10.6201 2.26411 10.9015L3.32065 11.3412C3.52605 11.4266 3.75815 11.4205 3.95872 11.3242L4.57398 11.029C5.32171 10.6701 6.19059 10.6637 6.94351 11.0116L7.62229 11.3251C7.82891 11.4206 8.06689 11.4212 8.27398 11.3267L9.00845 10.9918C9.74551 10.6557 10.5925 10.6576 11.328 10.9972L12.0443 11.3279C12.2476 11.4217 12.4815 11.4238 12.6865 11.3336L13.6485 10.9099C14.3011 10.6226 15.0392 10.5969 15.7102 10.8381L16.4765 11.1137V12.7711H-0.304188L-0.395996 11.1137Z" fill="#015989"/>
</g>
<path fill-rule="evenodd" clip-rule="evenodd" d="M4.80072 1.19904C4.80072 1.19904 5.51307 1.34152 5.74738 1.34152C5.98168 1.34152 6.51028 0.983259 6.81602 1.10268C7.12176 1.2221 7.70982 1.78684 7.70982 1.78684C7.70982 1.78684 8.54273 1.16211 9.04956 1.16211C9.5564 1.16211 10.487 1.23 10.487 1.23C10.487 1.23 10.2725 1.78674 9.66923 1.88104C9.06595 1.97535 8.34418 2.43721 8.34418 2.43721C8.34418 2.43721 9.17521 2.43721 9.32469 2.43721C9.47418 2.43721 9.96882 2.71367 9.96882 2.71367C9.96882 2.71367 9.26682 2.93603 9.06595 2.93603C8.86509 2.93603 8.6432 2.93603 8.6432 2.93603C8.6432 2.93603 8.21612 3.30251 7.68852 3.22453C7.16092 3.14656 6.79183 2.8081 6.79183 2.8081C6.79183 2.8081 6.04713 2.75919 6.04713 2.67958C6.04713 2.67958 5.76269 2.5338 5.67707 2.67958C5.59145 2.82536 6.04713 2.48436 6.04713 2.48436C6.04713 2.48436 6.45869 2.15023 6.59815 2.15023C6.7376 2.15023 7.2033 2.43721 7.2033 2.43721L7.3145 2.3216L6.7376 1.88104C5.56089 2.00433 4.80072 1.19904 4.80072 1.19904Z" fill="#FFC84A"/>
</g>
</g>
<defs>
<clipPath id="clip0_8_24085">
<rect width="16" height="12" fill="white"/>
</clipPath>
</defs>
</svg>
