<svg width="16" height="12" viewBox="0 0 16 12" fill="none" xmlns="http://www.w3.org/2000/svg">
<g clip-path="url(#clip0_8_24193)">
<rect width="16" height="12" fill="white"/>
<path fill-rule="evenodd" clip-rule="evenodd" d="M0 0V12H16V0H0Z" fill="#F7FCFF"/>
<mask id="mask0_8_24193" style="mask-type:luminance" maskUnits="userSpaceOnUse" x="0" y="0" width="16" height="12">
<path fill-rule="evenodd" clip-rule="evenodd" d="M0 0V12H16V0H0Z" fill="white"/>
</mask>
<g mask="url(#mask0_8_24193)">
<path fill-rule="evenodd" clip-rule="evenodd" d="M7.8933 9.28573C9.60142 9.28573 10.9861 7.8677 10.9861 6.11848C10.9861 4.36926 9.60142 2.95123 7.8933 2.95123C6.18518 2.95123 4.80048 4.36926 4.80048 6.11848C4.80048 7.8677 6.18518 9.28573 7.8933 9.28573Z" fill="#3D58DB"/>
<mask id="mask1_8_24193" style="mask-type:luminance" maskUnits="userSpaceOnUse" x="4" y="2" width="7" height="8">
<path fill-rule="evenodd" clip-rule="evenodd" d="M7.8933 9.28573C9.60142 9.28573 10.9861 7.8677 10.9861 6.11848C10.9861 4.36926 9.60142 2.95123 7.8933 2.95123C6.18518 2.95123 4.80048 4.36926 4.80048 6.11848C4.80048 7.8677 6.18518 9.28573 7.8933 9.28573Z" fill="white"/>
</mask>
<g mask="url(#mask1_8_24193)">
<path fill-rule="evenodd" clip-rule="evenodd" d="M11.0943 6.3611C11.0943 6.3611 10.9207 4.86764 9.63502 4.78656C8.34933 4.70549 8.00266 5.88178 7.92847 6.19342C7.85428 6.50506 7.6665 7.33641 6.31282 7.33641C4.95914 7.33641 4.83704 5.22247 4.83704 5.22247V2.72981H11.0943V6.3611Z" fill="#E31D1C"/>
</g>
<path fill-rule="evenodd" clip-rule="evenodd" d="M3.64967 1.02609L4.10715 1.43986L1.98702 3.91581L1.52954 3.50204L3.64967 1.02609ZM4.40416 1.69567L4.86165 2.10943L2.81751 4.54952L2.36003 4.13575L4.40416 1.69567ZM5.61268 2.78726L5.1552 2.3735L3.10539 4.8321L3.56287 5.24586L5.61268 2.78726Z" fill="#272727"/>
<path d="M4.10715 1.43986L4.16412 1.48864L4.21159 1.43319L4.15746 1.38423L4.10715 1.43986ZM3.64967 1.02609L3.69998 0.970468L3.64282 0.918776L3.5927 0.977311L3.64967 1.02609ZM1.98702 3.91581L1.93671 3.97143L1.99387 4.02312L2.04399 3.96459L1.98702 3.91581ZM1.52954 3.50204L1.47257 3.45326L1.4251 3.50871L1.47923 3.55767L1.52954 3.50204ZM4.86165 2.10943L4.91914 2.1576L4.96551 2.10225L4.91195 2.05381L4.86165 2.10943ZM4.40416 1.69567L4.45447 1.64005L4.3967 1.58779L4.34667 1.64751L4.40416 1.69567ZM2.81751 4.54952L2.76721 4.60514L2.82498 4.6574L2.87501 4.59768L2.81751 4.54952ZM2.36003 4.13575L2.30254 4.08759L2.25617 4.14294L2.30973 4.19138L2.36003 4.13575ZM5.1552 2.3735L5.20551 2.31788L5.1476 2.2655L5.0976 2.32547L5.1552 2.3735ZM5.61268 2.78726L5.67029 2.83529L5.71642 2.77996L5.66299 2.73164L5.61268 2.78726ZM3.10539 4.8321L3.04779 4.78407L3.00166 4.8394L3.05508 4.88772L3.10539 4.8321ZM3.56287 5.24586L3.51256 5.30149L3.57048 5.35387L3.62048 5.29389L3.56287 5.24586ZM4.15746 1.38423L3.69998 0.970468L3.59936 1.08172L4.05684 1.49548L4.15746 1.38423ZM2.04399 3.96459L4.16412 1.48864L4.05018 1.39107L1.93005 3.86703L2.04399 3.96459ZM1.47923 3.55767L1.93671 3.97143L2.03733 3.86018L1.57985 3.44642L1.47923 3.55767ZM3.5927 0.977311L1.47257 3.45326L1.58651 3.55083L3.70664 1.07487L3.5927 0.977311ZM4.91195 2.05381L4.45447 1.64005L4.35386 1.7513L4.81134 2.16506L4.91195 2.05381ZM2.87501 4.59768L4.91914 2.1576L4.80415 2.06127L2.76002 4.50135L2.87501 4.59768ZM2.30973 4.19138L2.76721 4.60514L2.86782 4.49389L2.41034 4.08013L2.30973 4.19138ZM4.34667 1.64751L2.30254 4.08759L2.41753 4.18392L4.46166 1.74383L4.34667 1.64751ZM5.1049 2.42912L5.56238 2.84289L5.66299 2.73164L5.20551 2.31788L5.1049 2.42912ZM3.163 4.88013L5.21281 2.42153L5.0976 2.32547L3.04779 4.78407L3.163 4.88013ZM3.61318 5.19024L3.1557 4.77648L3.05508 4.88772L3.51256 5.30149L3.61318 5.19024ZM5.55508 2.73924L3.50527 5.19784L3.62048 5.29389L5.67029 2.83529L5.55508 2.73924Z" fill="#272727"/>
<path fill-rule="evenodd" clip-rule="evenodd" d="M12.2926 1.02609L11.8351 1.43986L13.9552 3.91581L14.4127 3.50204L12.2926 1.02609ZM11.5381 1.69567L11.0806 2.10943L13.1247 4.54952L13.5822 4.13575L11.5381 1.69567ZM10.3295 2.78726L10.787 2.3735L12.8368 4.8321L12.3794 5.24586L10.3295 2.78726Z" fill="#272727"/>
<path d="M11.8351 1.43986L11.7781 1.48864L11.7306 1.43319L11.7848 1.38423L11.8351 1.43986ZM12.2926 1.02609L12.2423 0.970468L12.2994 0.918776L12.3495 0.977311L12.2926 1.02609ZM13.9552 3.91581L14.0055 3.97143L13.9484 4.02312L13.8982 3.96459L13.9552 3.91581ZM14.4127 3.50204L14.4697 3.45326L14.5171 3.50871L14.463 3.55767L14.4127 3.50204ZM11.0806 2.10943L11.0231 2.1576L10.9767 2.10225L11.0303 2.05381L11.0806 2.10943ZM11.5381 1.69567L11.4878 1.64005L11.5455 1.58779L11.5956 1.64751L11.5381 1.69567ZM13.1247 4.54952L13.175 4.60514L13.1172 4.6574L13.0672 4.59768L13.1247 4.54952ZM13.5822 4.13575L13.6397 4.08759L13.6861 4.14294L13.6325 4.19138L13.5822 4.13575ZM10.787 2.3735L10.7367 2.31788L10.7946 2.2655L10.8446 2.32547L10.787 2.3735ZM10.3295 2.78726L10.2719 2.83529L10.2258 2.77996L10.2792 2.73164L10.3295 2.78726ZM12.8368 4.8321L12.8944 4.78407L12.9406 4.8394L12.8871 4.88772L12.8368 4.8321ZM12.3794 5.24586L12.4297 5.30149L12.3718 5.35387L12.3218 5.29389L12.3794 5.24586ZM11.7848 1.38423L12.2423 0.970468L12.3429 1.08172L11.8854 1.49548L11.7848 1.38423ZM13.8982 3.96459L11.7781 1.48864L11.892 1.39107L14.0122 3.86703L13.8982 3.96459ZM14.463 3.55767L14.0055 3.97143L13.9049 3.86018L14.3624 3.44642L14.463 3.55767ZM12.3495 0.977311L14.4697 3.45326L14.3557 3.55083L12.2356 1.07487L12.3495 0.977311ZM11.0303 2.05381L11.4878 1.64005L11.5884 1.7513L11.1309 2.16506L11.0303 2.05381ZM13.0672 4.59768L11.0231 2.1576L11.1381 2.06127L13.1822 4.50135L13.0672 4.59768ZM13.6325 4.19138L13.175 4.60514L13.0744 4.49389L13.5319 4.08013L13.6325 4.19138ZM11.5956 1.64751L13.6397 4.08759L13.5247 4.18392L11.4806 1.74383L11.5956 1.64751ZM10.8373 2.42912L10.3799 2.84289L10.2792 2.73164L10.7367 2.31788L10.8373 2.42912ZM12.7792 4.88013L10.7294 2.42153L10.8446 2.32547L12.8944 4.78407L12.7792 4.88013ZM12.329 5.19024L12.7865 4.77648L12.8871 4.88772L12.4297 5.30149L12.329 5.19024ZM10.3872 2.73924L12.437 5.19784L12.3218 5.29389L10.2719 2.83529L10.3872 2.73924Z" fill="#272727"/>
<path fill-rule="evenodd" clip-rule="evenodd" d="M3.64967 11.2459L4.10715 10.8321L1.98702 8.35615L1.52954 8.76991L3.64967 11.2459ZM4.40416 10.5763L4.86165 10.1625L2.81751 7.72244L2.36003 8.1362L4.40416 10.5763ZM5.61268 9.48469L5.1552 9.89846L3.10539 7.43986L3.56287 7.02609L5.61268 9.48469Z" fill="#272727"/>
<path d="M4.10715 10.8321L4.16412 10.7833L4.21159 10.8388L4.15746 10.8877L4.10715 10.8321ZM3.64967 11.2459L3.69998 11.3015L3.64282 11.3532L3.5927 11.2946L3.64967 11.2459ZM1.98702 8.35615L1.93671 8.30053L1.99387 8.24883L2.04399 8.30737L1.98702 8.35615ZM1.52954 8.76991L1.47257 8.81869L1.4251 8.76325L1.47923 8.71429L1.52954 8.76991ZM4.86165 10.1625L4.91914 10.1144L4.96551 10.1697L4.91195 10.2181L4.86165 10.1625ZM4.40416 10.5763L4.45447 10.6319L4.3967 10.6842L4.34667 10.6244L4.40416 10.5763ZM2.81751 7.72244L2.76721 7.66682L2.82498 7.61456L2.87501 7.67428L2.81751 7.72244ZM2.36003 8.1362L2.30254 8.18437L2.25617 8.12901L2.30973 8.08058L2.36003 8.1362ZM5.1552 9.89846L5.20551 9.95408L5.1476 10.0065L5.0976 9.94648L5.1552 9.89846ZM5.61268 9.48469L5.67029 9.43667L5.71642 9.492L5.66299 9.54032L5.61268 9.48469ZM3.10539 7.43986L3.04779 7.48788L3.00166 7.43255L3.05508 7.38423L3.10539 7.43986ZM3.56287 7.02609L3.51256 6.97047L3.57048 6.91809L3.62048 6.97807L3.56287 7.02609ZM4.15746 10.8877L3.69998 11.3015L3.59936 11.1902L4.05684 10.7765L4.15746 10.8877ZM2.04399 8.30737L4.16412 10.7833L4.05018 10.8809L1.93005 8.40493L2.04399 8.30737ZM1.47923 8.71429L1.93671 8.30053L2.03733 8.41177L1.57985 8.82554L1.47923 8.71429ZM3.5927 11.2946L1.47257 8.81869L1.58651 8.72113L3.70664 11.1971L3.5927 11.2946ZM4.91195 10.2181L4.45447 10.6319L4.35386 10.5207L4.81134 10.1069L4.91195 10.2181ZM2.87501 7.67428L4.91914 10.1144L4.80415 10.2107L2.76002 7.7706L2.87501 7.67428ZM2.30973 8.08058L2.76721 7.66682L2.86782 7.77806L2.41034 8.19183L2.30973 8.08058ZM4.34667 10.6244L2.30254 8.18437L2.41753 8.08804L4.46166 10.5281L4.34667 10.6244ZM5.1049 9.84283L5.56238 9.42907L5.66299 9.54032L5.20551 9.95408L5.1049 9.84283ZM3.163 7.39183L5.21281 9.85043L5.0976 9.94648L3.04779 7.48788L3.163 7.39183ZM3.61318 7.08172L3.1557 7.49548L3.05508 7.38423L3.51256 6.97047L3.61318 7.08172ZM5.55508 9.53272L3.50527 7.07412L3.62048 6.97807L5.67029 9.43667L5.55508 9.53272Z" fill="#272727"/>
<path fill-rule="evenodd" clip-rule="evenodd" d="M12.2926 11.2459L11.8351 10.8321L13.9552 8.35615L14.4127 8.76991L12.2926 11.2459ZM11.5381 10.5763L11.0806 10.1625L13.1247 7.72244L13.5822 8.1362L11.5381 10.5763ZM10.3295 9.48469L10.787 9.89846L12.8368 7.43986L12.3794 7.02609L10.3295 9.48469Z" fill="#272727"/>
<path d="M11.8351 10.8321L11.7781 10.7833L11.7306 10.8388L11.7848 10.8877L11.8351 10.8321ZM12.2926 11.2459L12.2423 11.3015L12.2994 11.3532L12.3495 11.2946L12.2926 11.2459ZM13.9552 8.35615L14.0055 8.30053L13.9484 8.24883L13.8982 8.30737L13.9552 8.35615ZM14.4127 8.76991L14.4697 8.81869L14.5171 8.76325L14.463 8.71429L14.4127 8.76991ZM11.0806 10.1625L11.0231 10.1144L10.9767 10.1697L11.0303 10.2181L11.0806 10.1625ZM11.5381 10.5763L11.4878 10.6319L11.5455 10.6842L11.5956 10.6244L11.5381 10.5763ZM13.1247 7.72244L13.175 7.66682L13.1172 7.61456L13.0672 7.67428L13.1247 7.72244ZM13.5822 8.1362L13.6397 8.18437L13.6861 8.12901L13.6325 8.08058L13.5822 8.1362ZM10.787 9.89846L10.7367 9.95408L10.7946 10.0065L10.8446 9.94648L10.787 9.89846ZM10.3295 9.48469L10.2719 9.43667L10.2258 9.492L10.2792 9.54032L10.3295 9.48469ZM12.8368 7.43986L12.8944 7.48788L12.9406 7.43255L12.8871 7.38423L12.8368 7.43986ZM12.3794 7.02609L12.4297 6.97047L12.3718 6.91809L12.3218 6.97807L12.3794 7.02609ZM11.7848 10.8877L12.2423 11.3015L12.3429 11.1902L11.8854 10.7765L11.7848 10.8877ZM13.8982 8.30737L11.7781 10.7833L11.892 10.8809L14.0122 8.40493L13.8982 8.30737ZM14.463 8.71429L14.0055 8.30053L13.9049 8.41177L14.3624 8.82554L14.463 8.71429ZM12.3495 11.2946L14.4697 8.81869L14.3557 8.72113L12.2356 11.1971L12.3495 11.2946ZM11.0303 10.2181L11.4878 10.6319L11.5884 10.5207L11.1309 10.1069L11.0303 10.2181ZM13.0672 7.67428L11.0231 10.1144L11.1381 10.2107L13.1822 7.7706L13.0672 7.67428ZM13.6325 8.08058L13.175 7.66682L13.0744 7.77806L13.5319 8.19183L13.6325 8.08058ZM11.5956 10.6244L13.6397 8.18437L13.5247 8.08804L11.4806 10.5281L11.5956 10.6244ZM10.8373 9.84283L10.3799 9.42907L10.2792 9.54032L10.7367 9.95408L10.8373 9.84283ZM12.7792 7.39183L10.7294 9.85043L10.8446 9.94648L12.8944 7.48788L12.7792 7.39183ZM12.329 7.08172L12.7865 7.49548L12.8871 7.38423L12.4297 6.97047L12.329 7.08172ZM10.3872 9.53272L12.437 7.07412L12.3218 6.97807L10.2719 9.43667L10.3872 9.53272Z" fill="#272727"/>
</g>
</g>
<defs>
<clipPath id="clip0_8_24193">
<rect width="16" height="12" fill="white"/>
</clipPath>
</defs>
</svg>
