<svg width="16" height="12" viewBox="0 0 16 12" fill="none" xmlns="http://www.w3.org/2000/svg">
<g clip-path="url(#clip0_8_24258)">
<rect width="16" height="12" fill="white"/>
<g clip-path="url(#clip1_8_24258)">
<path fill-rule="evenodd" clip-rule="evenodd" d="M0 0H16V12H0V0Z" fill="#2E42A5"/>
<g clip-path="url(#clip2_8_24258)">
<path d="M11.2873 6.23138H11.1623V6.35638V7.84517C11.1623 8.8309 11.5753 9.48966 11.9974 9.90027C12.2076 10.1047 12.4197 10.2474 12.5835 10.3392C12.6655 10.3852 12.736 10.4188 12.7889 10.4412C12.8153 10.4524 12.8381 10.4611 12.8564 10.4673C12.8654 10.4704 12.8743 10.4732 12.8827 10.4754L12.8832 10.4756C12.8879 10.4768 12.9051 10.4814 12.9243 10.4814C12.9439 10.4814 12.9611 10.4767 12.9662 10.4753L12.9666 10.4752C12.9753 10.4729 12.9843 10.4699 12.9932 10.4667C13.0111 10.4603 13.0331 10.4514 13.0583 10.4401C13.1087 10.4174 13.1752 10.3835 13.252 10.3374C13.4057 10.245 13.6035 10.1018 13.7991 9.89698C14.192 9.48547 14.5731 8.82765 14.5731 7.84517V7.8431V7.84103V7.83895V7.83687V7.83477V7.83267V7.83055V7.82843V7.82631V7.82417V7.82203V7.81987V7.81772V7.81555V7.81337V7.81119V7.809V7.8068V7.80459V7.80238V7.80016V7.79793V7.79569V7.79344V7.79119V7.78893V7.78666V7.78439V7.78211V7.77982V7.77752V7.77522V7.7729V7.77058V7.76826V7.76592V7.76358V7.76124V7.75888V7.75652V7.75415V7.75177V7.74939V7.747V7.7446V7.7422V7.73979V7.73737V7.73494V7.73251V7.73007V7.72763V7.72517V7.72271V7.72025V7.71778V7.7153V7.71281V7.71032V7.70782V7.70532V7.7028V7.70029V7.69776V7.69523V7.69269V7.69015V7.6876V7.68504V7.68248V7.67991V7.67734V7.67476V7.67217V7.66958V7.66698V7.66437V7.66176V7.65914V7.65652V7.65389V7.65125V7.64861V7.64596V7.64331V7.64065V7.63799V7.63532V7.63264V7.62996V7.62727V7.62458V7.62188V7.61918V7.61647V7.61375V7.61103V7.60831V7.60557V7.60284V7.6001V7.59735V7.5946V7.59184V7.58907V7.58631V7.58353V7.58075V7.57797V7.57518V7.57239V7.56959V7.56678V7.56397V7.56116V7.55834V7.55552V7.55269V7.54985V7.54701V7.54417V7.54132V7.53847V7.53561V7.53275V7.52988V7.52701V7.52414V7.52126V7.51837V7.51548V7.51259V7.50969V7.50679V7.50388V7.50097V7.49805V7.49513V7.49221V7.48928V7.48635V7.48341V7.48047V7.47752V7.47457V7.47162V7.46866V7.4657V7.46274V7.45977V7.45679V7.45382V7.45083V7.44785V7.44486V7.44187V7.43887V7.43587V7.43287V7.42986V7.42685V7.42384V7.42082V7.4178V7.41477V7.41174V7.40871V7.40568V7.40264V7.39959V7.39655V7.3935V7.39045V7.38739V7.38433V7.38127V7.37821V7.37514V7.37207V7.36899V7.36592V7.36284V7.35975V7.35667V7.35358V7.35049V7.34739V7.34429V7.34119V7.33809V7.33498V7.33187V7.32876V7.32565V7.32253V7.31941V7.31629V7.31317V7.31004V7.30691V7.30378V7.30064V7.29751V7.29437V7.29122V7.28808V7.28493V7.28179V7.27863V7.27548V7.27233V7.26917V7.26601V7.26285V7.25968V7.25652V7.25335V7.25018V7.24701V7.24384V7.24066V7.23748V7.2343V7.23112V7.22794V7.22476V7.22157V7.21838V7.21519V7.212V7.20881V7.20562V7.20242V7.19922V7.19602V7.19282V7.18962V7.18642V7.18321V7.18001V7.1768V7.17359V7.17038V7.16717V7.16396V7.16075V7.15753V7.15432V7.1511V7.14788V7.14466V7.14144V7.13822V7.135V7.13178V7.12856V7.12533V7.12211V7.11888V7.11566V7.11243V7.1092V7.10597V7.10274V7.09951V7.09628V7.09305V7.08982V7.08659V7.08336V7.08012V7.07689V7.07366V7.07042V7.06719V7.06395V7.06072V7.05748V7.05425V7.05101V7.04777V7.04454V7.0413V7.03807V7.03483V7.03159V7.02836V7.02512V7.02189V7.01865V7.01541V7.01218V7.00894V7.00571V7.00247V6.99924V6.996V6.99277V6.98954V6.9863V6.98307V6.97984V6.97661V6.97338V6.97014V6.96691V6.96368V6.96046V6.95723V6.954V6.95077V6.94755V6.94432V6.9411V6.93787V6.93465V6.93143V6.92821V6.92499V6.92177V6.91855V6.91533V6.91212V6.9089V6.90569V6.90247V6.89926V6.89605V6.89284V6.88963V6.88643V6.88322V6.88002V6.87682V6.87362V6.87042V6.86722V6.86402V6.86083V6.85763V6.85444V6.85125V6.84806V6.84487V6.84169V6.8385V6.83532V6.83214V6.82896V6.82579V6.82261V6.81944V6.81627V6.8131V6.80993V6.80677V6.8036V6.80044V6.79729V6.79413V6.79097V6.78782V6.78467V6.78152V6.77838V6.77524V6.7721V6.76896V6.76582V6.76269V6.75956V6.75643V6.7533V6.75018V6.74706V6.74394V6.74082V6.73771V6.7346V6.73149V6.72839V6.72528V6.72218V6.71909V6.71599V6.7129V6.70981V6.70673V6.70365V6.70057V6.69749V6.69442V6.69135V6.68828V6.68522V6.68216V6.6791V6.67605V6.67299V6.66995V6.6669V6.66386V6.66082V6.65779V6.65476V6.65173V6.64871V6.64569V6.64267V6.63966V6.63665V6.63364V6.63064V6.62764V6.62465V6.62166V6.61867V6.61569V6.61271V6.60973V6.60676V6.60379V6.60083V6.59787V6.59491V6.59196V6.58901V6.58607V6.58313V6.58019V6.57726V6.57433V6.57141V6.56849V6.56558V6.56267V6.55976V6.55686V6.55397V6.55107V6.54819V6.5453V6.54242V6.53955V6.53668V6.53381V6.53095V6.5281V6.52525V6.5224V6.51956V6.51672V6.51389V6.51106V6.50824V6.50542V6.50261V6.4998V6.497V6.49421V6.49141V6.48863V6.48584V6.48307V6.48029V6.47753V6.47477V6.47201V6.46926V6.46651V6.46377V6.46104V6.45831V6.45559V6.45287V6.45015V6.44745V6.44475V6.44205V6.43936V6.43667V6.43399V6.43132V6.42865V6.42599V6.42333V6.42068V6.41804V6.4154V6.41276V6.41014V6.40752V6.4049V6.40229V6.39969V6.39709V6.3945V6.39192V6.38934V6.38676V6.3842V6.38164V6.37908V6.37654V6.37399V6.37146V6.36893V6.36641V6.36389V6.36138V6.35888V6.35638V6.23138H14.4481H11.2873Z" fill="white" stroke="#F7FCFF" stroke-width="0.25"/>
<mask id="mask0_8_24258" style="mask-type:luminance" maskUnits="userSpaceOnUse" x="11" y="6" width="4" height="5">
<path d="M11.2873 6.23138H11.1623V6.35638V7.84517C11.1623 8.8309 11.5753 9.48966 11.9974 9.90027C12.2076 10.1047 12.4197 10.2474 12.5835 10.3392C12.6655 10.3852 12.736 10.4188 12.7889 10.4412C12.8153 10.4524 12.8381 10.4611 12.8564 10.4673C12.8654 10.4704 12.8743 10.4732 12.8827 10.4754L12.8832 10.4756C12.8879 10.4768 12.9051 10.4814 12.9243 10.4814C12.9439 10.4814 12.9611 10.4767 12.9662 10.4753L12.9666 10.4752C12.9753 10.4729 12.9843 10.4699 12.9932 10.4667C13.0111 10.4603 13.0331 10.4514 13.0583 10.4401C13.1087 10.4174 13.1752 10.3835 13.252 10.3374C13.4057 10.245 13.6035 10.1018 13.7991 9.89698C14.192 9.48547 14.5731 8.82765 14.5731 7.84517V7.8431V7.84103V7.83895V7.83687V7.83477V7.83267V7.83055V7.82843V7.82631V7.82417V7.82203V7.81987V7.81772V7.81555V7.81337V7.81119V7.809V7.8068V7.80459V7.80238V7.80016V7.79793V7.79569V7.79344V7.79119V7.78893V7.78666V7.78439V7.78211V7.77982V7.77752V7.77522V7.7729V7.77058V7.76826V7.76592V7.76358V7.76124V7.75888V7.75652V7.75415V7.75177V7.74939V7.747V7.7446V7.7422V7.73979V7.73737V7.73494V7.73251V7.73007V7.72763V7.72517V7.72271V7.72025V7.71778V7.7153V7.71281V7.71032V7.70782V7.70532V7.7028V7.70029V7.69776V7.69523V7.69269V7.69015V7.6876V7.68504V7.68248V7.67991V7.67734V7.67476V7.67217V7.66958V7.66698V7.66437V7.66176V7.65914V7.65652V7.65389V7.65125V7.64861V7.64596V7.64331V7.64065V7.63799V7.63532V7.63264V7.62996V7.62727V7.62458V7.62188V7.61918V7.61647V7.61375V7.61103V7.60831V7.60557V7.60284V7.6001V7.59735V7.5946V7.59184V7.58907V7.58631V7.58353V7.58075V7.57797V7.57518V7.57239V7.56959V7.56678V7.56397V7.56116V7.55834V7.55552V7.55269V7.54985V7.54701V7.54417V7.54132V7.53847V7.53561V7.53275V7.52988V7.52701V7.52414V7.52126V7.51837V7.51548V7.51259V7.50969V7.50679V7.50388V7.50097V7.49805V7.49513V7.49221V7.48928V7.48635V7.48341V7.48047V7.47752V7.47457V7.47162V7.46866V7.4657V7.46274V7.45977V7.45679V7.45382V7.45083V7.44785V7.44486V7.44187V7.43887V7.43587V7.43287V7.42986V7.42685V7.42384V7.42082V7.4178V7.41477V7.41174V7.40871V7.40568V7.40264V7.39959V7.39655V7.3935V7.39045V7.38739V7.38433V7.38127V7.37821V7.37514V7.37207V7.36899V7.36592V7.36284V7.35975V7.35667V7.35358V7.35049V7.34739V7.34429V7.34119V7.33809V7.33498V7.33187V7.32876V7.32565V7.32253V7.31941V7.31629V7.31317V7.31004V7.30691V7.30378V7.30064V7.29751V7.29437V7.29122V7.28808V7.28493V7.28179V7.27863V7.27548V7.27233V7.26917V7.26601V7.26285V7.25968V7.25652V7.25335V7.25018V7.24701V7.24384V7.24066V7.23748V7.2343V7.23112V7.22794V7.22476V7.22157V7.21838V7.21519V7.212V7.20881V7.20562V7.20242V7.19922V7.19602V7.19282V7.18962V7.18642V7.18321V7.18001V7.1768V7.17359V7.17038V7.16717V7.16396V7.16075V7.15753V7.15432V7.1511V7.14788V7.14466V7.14144V7.13822V7.135V7.13178V7.12856V7.12533V7.12211V7.11888V7.11566V7.11243V7.1092V7.10597V7.10274V7.09951V7.09628V7.09305V7.08982V7.08659V7.08336V7.08012V7.07689V7.07366V7.07042V7.06719V7.06395V7.06072V7.05748V7.05425V7.05101V7.04777V7.04454V7.0413V7.03807V7.03483V7.03159V7.02836V7.02512V7.02189V7.01865V7.01541V7.01218V7.00894V7.00571V7.00247V6.99924V6.996V6.99277V6.98954V6.9863V6.98307V6.97984V6.97661V6.97338V6.97014V6.96691V6.96368V6.96046V6.95723V6.954V6.95077V6.94755V6.94432V6.9411V6.93787V6.93465V6.93143V6.92821V6.92499V6.92177V6.91855V6.91533V6.91212V6.9089V6.90569V6.90247V6.89926V6.89605V6.89284V6.88963V6.88643V6.88322V6.88002V6.87682V6.87362V6.87042V6.86722V6.86402V6.86083V6.85763V6.85444V6.85125V6.84806V6.84487V6.84169V6.8385V6.83532V6.83214V6.82896V6.82579V6.82261V6.81944V6.81627V6.8131V6.80993V6.80677V6.8036V6.80044V6.79729V6.79413V6.79097V6.78782V6.78467V6.78152V6.77838V6.77524V6.7721V6.76896V6.76582V6.76269V6.75956V6.75643V6.7533V6.75018V6.74706V6.74394V6.74082V6.73771V6.7346V6.73149V6.72839V6.72528V6.72218V6.71909V6.71599V6.7129V6.70981V6.70673V6.70365V6.70057V6.69749V6.69442V6.69135V6.68828V6.68522V6.68216V6.6791V6.67605V6.67299V6.66995V6.6669V6.66386V6.66082V6.65779V6.65476V6.65173V6.64871V6.64569V6.64267V6.63966V6.63665V6.63364V6.63064V6.62764V6.62465V6.62166V6.61867V6.61569V6.61271V6.60973V6.60676V6.60379V6.60083V6.59787V6.59491V6.59196V6.58901V6.58607V6.58313V6.58019V6.57726V6.57433V6.57141V6.56849V6.56558V6.56267V6.55976V6.55686V6.55397V6.55107V6.54819V6.5453V6.54242V6.53955V6.53668V6.53381V6.53095V6.5281V6.52525V6.5224V6.51956V6.51672V6.51389V6.51106V6.50824V6.50542V6.50261V6.4998V6.497V6.49421V6.49141V6.48863V6.48584V6.48307V6.48029V6.47753V6.47477V6.47201V6.46926V6.46651V6.46377V6.46104V6.45831V6.45559V6.45287V6.45015V6.44745V6.44475V6.44205V6.43936V6.43667V6.43399V6.43132V6.42865V6.42599V6.42333V6.42068V6.41804V6.4154V6.41276V6.41014V6.40752V6.4049V6.40229V6.39969V6.39709V6.3945V6.39192V6.38934V6.38676V6.3842V6.38164V6.37908V6.37654V6.37399V6.37146V6.36893V6.36641V6.36389V6.36138V6.35888V6.35638V6.23138H14.4481H11.2873Z" fill="white" stroke="white" stroke-width="0.25"/>
</mask>
<g mask="url(#mask0_8_24258)">
<rect x="11.0843" y="6.10638" width="3.6" height="1.7" fill="#F50100"/>
<path d="M12.6891 8.15637C12.8043 8.15637 13.0347 7.99964 13.0923 7.96347C13.3035 7.80675 13.4571 7.95142 13.5819 8.02376C13.7163 8.09609 13.9659 8.18048 14.1195 8.02376C14.2731 7.86703 14.3595 7.87908 14.4651 7.87908C14.4843 7.69824 14.4843 7.5174 14.4843 7.31244V7.16777C14.3499 7.1316 14.2827 7.17983 14.1387 7.33656C13.9947 7.49329 13.8315 7.45712 13.6203 7.36067C13.4187 7.25216 13.2171 7.05927 13.0155 7.36067C12.9579 7.44506 12.8235 7.56562 12.6891 7.56562C12.5451 7.56562 12.4203 7.44506 12.3627 7.36067C12.1515 7.05927 11.9595 7.25216 11.7579 7.36067C11.5467 7.45712 11.3739 7.49329 11.2299 7.33656C11.0955 7.17983 11.0283 7.1316 10.8843 7.16777V7.31244C10.8843 7.5174 10.8939 7.69824 10.9131 7.87908C11.0187 7.87908 11.0955 7.86703 11.2491 8.02376C11.4027 8.18048 11.6619 8.09609 11.7867 8.02376C11.9211 7.95142 12.0747 7.80675 12.2859 7.96347C12.3435 7.99964 12.5643 8.15637 12.6891 8.15637H12.6891Z" fill="#F50100"/>
<path fill-rule="evenodd" clip-rule="evenodd" d="M11.7178 6.88083C11.7178 6.88083 11.8046 6.88586 11.9073 7.01844C12.01 7.15102 12.3881 7.06663 12.3881 6.98666C12.3881 6.90668 12.1587 6.8589 12.2468 6.72215C12.335 6.5854 12.4843 6.58516 12.6043 6.6564C12.6387 6.6564 12.6349 7.12418 12.7135 7.0985C12.9622 7.01718 13.3634 6.85604 13.4811 6.92517C13.6359 7.01613 13.7544 6.99351 13.7151 6.863C13.6757 6.73249 13.5746 6.65091 13.3798 6.72215C13.185 6.79339 13.2309 6.863 13.0626 6.863C12.8942 6.863 12.6054 6.97685 12.7337 6.72215C12.8486 6.49392 12.9857 6.48946 13.0381 6.5854C13.0648 6.63449 12.8464 6.74288 12.8464 6.79339C12.8464 6.863 13.409 6.6565 13.4811 6.6565C13.5532 6.6565 13.7516 6.65091 13.7713 6.72215C13.791 6.79339 13.9108 6.85876 13.8195 6.92517C13.7281 6.99159 13.5775 7.03319 13.6812 7.11827C13.7848 7.20336 14.0474 7.24206 14.0588 7.33056C14.0703 7.41907 14.1832 7.55124 14.1379 7.55124C14.0926 7.55124 14.0107 7.67589 13.9344 7.63794C13.8581 7.59998 13.8492 7.56666 13.9223 7.53591C13.9954 7.50516 13.9947 7.37586 13.9344 7.37586C13.8741 7.37586 13.8792 7.36607 13.7419 7.32077C13.6045 7.27547 13.4227 7.22511 13.4337 7.32077C13.4446 7.41643 13.5376 7.62175 13.3726 7.64132C13.2076 7.66089 13.1304 7.73946 13.0983 7.67619C13.0662 7.61292 12.9514 7.5286 13.0416 7.50157C13.1319 7.47453 13.2181 7.59346 13.2507 7.57405C13.2832 7.55463 13.3533 7.48534 13.2916 7.40305C13.2298 7.32077 13.11 7.31798 13.2043 7.2564C13.2986 7.19481 13.2423 7.14789 13.0626 7.27547C12.8829 7.40305 12.7829 7.51148 12.6251 7.49615C12.4673 7.48082 12.3965 7.55097 12.3458 7.53029C12.2951 7.50961 12.0481 7.7588 11.977 7.69556C11.9058 7.63232 11.6762 7.60805 11.7176 7.53029C11.7589 7.45253 11.8144 7.41249 11.8762 7.45253C11.938 7.49256 11.9994 7.5326 12.0411 7.49256C12.0828 7.45253 12.2149 7.26568 12.1846 7.23821C12.1543 7.21074 12.0476 7.16371 11.8762 7.16371C11.7048 7.16371 11.7008 7.02133 11.6601 6.9564C11.6194 6.89146 11.7178 6.88083 11.7178 6.88083Z" fill="#FFD100"/>
<path d="M12.6891 9.35638C12.8043 9.35638 13.0347 9.19965 13.0923 9.16349C13.3035 9.00676 13.4571 9.15143 13.5819 9.22377C13.7163 9.2961 13.9659 9.3805 14.1195 9.22377C14.2731 9.06704 14.3595 9.07909 14.4651 9.07909C14.4843 8.89825 14.4843 8.71741 14.4843 8.51246V8.36778C14.3499 8.33161 14.2827 8.37984 14.1387 8.53657C13.9947 8.6933 13.8315 8.65713 13.6203 8.56068C13.4187 8.45218 13.2171 8.25928 13.0155 8.56068C12.9579 8.64507 12.8235 8.76563 12.6891 8.76563C12.5451 8.76563 12.4203 8.64507 12.3627 8.56068C12.1515 8.25928 11.9595 8.45218 11.7579 8.56068C11.5467 8.65713 11.3739 8.6933 11.2299 8.53657C11.0955 8.37984 11.0283 8.33161 10.8843 8.36778V8.51246C10.8843 8.71741 10.8939 8.89825 10.9131 9.07909C11.0187 9.07909 11.0955 9.06704 11.2491 9.22377C11.4027 9.3805 11.6619 9.2961 11.7867 9.22377C11.9211 9.15143 12.0747 9.00676 12.2859 9.16349C12.3435 9.19965 12.5643 9.35638 12.6891 9.35638H12.6891Z" fill="#0B50A0"/>
<path d="M12.6891 10.5064C12.8043 10.5064 13.0347 10.3496 13.0923 10.3135C13.3035 10.1568 13.4571 10.3014 13.5819 10.3738C13.7163 10.4461 13.9659 10.5305 14.1195 10.3738C14.2731 10.217 14.3595 10.2291 14.4651 10.2291C14.4843 10.0482 14.4843 9.8674 14.4843 9.66245V9.51778C14.3499 9.48161 14.2827 9.52983 14.1387 9.68656C13.9947 9.84329 13.8315 9.80712 13.6203 9.71067C13.4187 9.60217 13.2171 9.40927 13.0155 9.71067C12.9579 9.79507 12.8235 9.91563 12.6891 9.91563C12.5451 9.91563 12.4203 9.79507 12.3627 9.71067C12.1515 9.40927 11.9595 9.60217 11.7579 9.71067C11.5467 9.80712 11.3739 9.84329 11.2299 9.68656C11.0955 9.52983 11.0283 9.48161 10.8843 9.51778V9.66245C10.8843 9.8674 10.8939 10.0482 10.9131 10.2291C11.0187 10.2291 11.0955 10.217 11.2491 10.3738C11.4027 10.5305 11.6619 10.4461 11.7867 10.3738C11.9211 10.3014 12.0747 10.1568 12.2859 10.3135C12.3435 10.3496 12.5643 10.5064 12.6891 10.5064H12.6891Z" fill="#0B50A0"/>
<mask id="path-9-inside-1_8_24258" fill="white">
<path fill-rule="evenodd" clip-rule="evenodd" d="M12.9008 10.1488L12.6147 10.3184L12.6964 9.97375L12.4223 9.7205H12.7803L12.9003 9.39438L13.0411 9.7205H13.3463L13.1065 9.97375L13.2218 10.3184L12.9008 10.1488Z"/>
</mask>
<path fill-rule="evenodd" clip-rule="evenodd" d="M12.9008 10.1488L12.6147 10.3184L12.6964 9.97375L12.4223 9.7205H12.7803L12.9003 9.39438L13.0411 9.7205H13.3463L13.1065 9.97375L13.2218 10.3184L12.9008 10.1488Z" fill="#059334"/>
<path d="M12.9008 10.1488L13.1577 9.66248L12.8853 9.51864L12.6204 9.67566L12.9008 10.1488ZM12.6147 10.3184L12.0795 10.1915L11.7806 11.452L12.8951 10.7915L12.6147 10.3184ZM12.6964 9.97375L13.2315 10.1006L13.3057 9.78791L13.0696 9.5698L12.6964 9.97375ZM12.4223 9.7205V9.1705H11.0166L12.049 10.1245L12.4223 9.7205ZM12.7803 9.7205V10.2705H13.1639L13.2964 9.91052L12.7803 9.7205ZM12.9003 9.39438L13.4053 9.17639L12.8598 7.91265L12.3842 9.20436L12.9003 9.39438ZM13.0411 9.7205L12.5362 9.93849L12.6795 10.2705H13.0411V9.7205ZM13.3463 9.7205L13.7457 10.0986L14.6245 9.1705H13.3463V9.7205ZM13.1065 9.97375L12.7071 9.59561L12.4802 9.83526L12.5849 10.1482L13.1065 9.97375ZM13.2218 10.3184L12.9649 10.8047L14.179 11.446L13.7434 10.1439L13.2218 10.3184ZM12.6204 9.67566L12.3343 9.84523L12.8951 10.7915L13.1812 10.622L12.6204 9.67566ZM13.1498 10.4453L13.2315 10.1006L12.1612 9.84686L12.0795 10.1915L13.1498 10.4453ZM13.0696 9.5698L12.7956 9.31655L12.049 10.1245L12.3231 10.3777L13.0696 9.5698ZM12.4223 10.2705H12.7803V9.1705H12.4223V10.2705ZM13.2964 9.91052L13.4165 9.5844L12.3842 9.20436L12.2642 9.53049L13.2964 9.91052ZM12.3954 9.61236L12.5362 9.93849L13.5461 9.50252L13.4053 9.17639L12.3954 9.61236ZM13.0411 10.2705H13.3463V9.1705H13.0411V10.2705ZM12.9469 9.34236L12.7071 9.59561L13.5059 10.3519L13.7457 10.0986L12.9469 9.34236ZM12.5849 10.1482L12.7002 10.4929L13.7434 10.1439L13.6281 9.79926L12.5849 10.1482ZM13.4787 9.83205L13.1577 9.66248L12.6439 10.6351L12.9649 10.8047L13.4787 9.83205Z" fill="#FFD100" mask="url(#path-9-inside-1_8_24258)"/>
<mask id="path-11-inside-2_8_24258" fill="white">
<path fill-rule="evenodd" clip-rule="evenodd" d="M12.1008 9.14881L11.8147 9.31838L11.8964 8.97375L11.6223 8.7205H11.9803L12.1004 8.39438L12.2411 8.7205H12.5463L12.3065 8.97375L12.4218 9.31838L12.1008 9.14881Z"/>
</mask>
<path fill-rule="evenodd" clip-rule="evenodd" d="M12.1008 9.14881L11.8147 9.31838L11.8964 8.97375L11.6223 8.7205H11.9803L12.1004 8.39438L12.2411 8.7205H12.5463L12.3065 8.97375L12.4218 9.31838L12.1008 9.14881Z" fill="#059334"/>
<path d="M12.1008 9.14881L12.3577 8.66248L12.0853 8.51864L11.8204 8.67566L12.1008 9.14881ZM11.8147 9.31838L11.2795 9.19148L10.9806 10.452L12.0951 9.79153L11.8147 9.31838ZM11.8964 8.97375L12.4316 9.10065L12.5057 8.78791L12.2696 8.5698L11.8964 8.97375ZM11.6223 8.7205V8.1705H10.2166L11.2491 9.12446L11.6223 8.7205ZM11.9803 8.7205V9.2705H12.3639L12.4964 8.91052L11.9803 8.7205ZM12.1004 8.39438L12.6053 8.17639L12.0598 6.91265L11.5842 8.20436L12.1004 8.39438ZM12.2411 8.7205L11.7362 8.93849L11.8795 9.2705H12.2411V8.7205ZM12.5463 8.7205L12.9457 9.09865L13.8245 8.1705H12.5463V8.7205ZM12.3065 8.97375L11.9072 8.59561L11.6802 8.83526L11.7849 9.14824L12.3065 8.97375ZM12.4218 9.31838L12.165 9.80471L13.379 10.446L12.9434 9.14389L12.4218 9.31838ZM11.8204 8.67566L11.5343 8.84523L12.0951 9.79153L12.3812 9.62196L11.8204 8.67566ZM12.3498 9.44527L12.4316 9.10065L11.3612 8.84686L11.2795 9.19148L12.3498 9.44527ZM12.2696 8.5698L11.9956 8.31655L11.2491 9.12446L11.5231 9.37771L12.2696 8.5698ZM11.6223 9.2705H11.9803V8.1705H11.6223V9.2705ZM12.4964 8.91052L12.6165 8.5844L11.5842 8.20436L11.4642 8.53049L12.4964 8.91052ZM11.5954 8.61236L11.7362 8.93849L12.7461 8.50252L12.6053 8.17639L11.5954 8.61236ZM12.2411 9.2705H12.5463V8.1705H12.2411V9.2705ZM12.1469 8.34236L11.9072 8.59561L12.7059 9.35189L12.9457 9.09865L12.1469 8.34236ZM11.7849 9.14824L11.9002 9.49287L12.9434 9.14389L12.8281 8.79926L11.7849 9.14824ZM12.6787 8.83205L12.3577 8.66248L11.8439 9.63514L12.165 9.80471L12.6787 8.83205Z" fill="#FFD100" mask="url(#path-11-inside-2_8_24258)"/>
<mask id="path-13-inside-3_8_24258" fill="white">
<path fill-rule="evenodd" clip-rule="evenodd" d="M13.7008 9.14881L13.4147 9.31838L13.4964 8.97375L13.2223 8.7205H13.5803L13.7003 8.39438L13.8411 8.7205H14.1463L13.9065 8.97375L14.0218 9.31838L13.7008 9.14881Z"/>
</mask>
<path fill-rule="evenodd" clip-rule="evenodd" d="M13.7008 9.14881L13.4147 9.31838L13.4964 8.97375L13.2223 8.7205H13.5803L13.7003 8.39438L13.8411 8.7205H14.1463L13.9065 8.97375L14.0218 9.31838L13.7008 9.14881Z" fill="#059334"/>
<path d="M13.7008 9.14881L13.9576 8.66248L13.6853 8.51864L13.4204 8.67566L13.7008 9.14881ZM13.4147 9.31838L12.8795 9.19148L12.5806 10.452L13.6951 9.79153L13.4147 9.31838ZM13.4964 8.97375L14.0315 9.10065L14.1057 8.78791L13.8696 8.5698L13.4964 8.97375ZM13.2223 8.7205V8.1705H11.8166L12.849 9.12446L13.2223 8.7205ZM13.5803 8.7205V9.2705H13.9639L14.0964 8.91052L13.5803 8.7205ZM13.7003 8.39438L14.2053 8.17639L13.6597 6.91265L13.1842 8.20436L13.7003 8.39438ZM13.8411 8.7205L13.3362 8.93849L13.4795 9.2705H13.8411V8.7205ZM14.1463 8.7205L14.5457 9.09865L15.4245 8.1705H14.1463V8.7205ZM13.9065 8.97375L13.5071 8.59561L13.2802 8.83526L13.3849 9.14824L13.9065 8.97375ZM14.0218 9.31838L13.7649 9.80471L14.979 10.446L14.5434 9.14389L14.0218 9.31838ZM13.4204 8.67566L13.1342 8.84523L13.6951 9.79153L13.9812 9.62196L13.4204 8.67566ZM13.9498 9.44527L14.0315 9.10065L12.9612 8.84686L12.8795 9.19148L13.9498 9.44527ZM13.8696 8.5698L13.5955 8.31655L12.849 9.12446L13.1231 9.37771L13.8696 8.5698ZM13.2223 9.2705H13.5803V8.1705H13.2223V9.2705ZM14.0964 8.91052L14.2165 8.5844L13.1842 8.20436L13.0641 8.53049L14.0964 8.91052ZM13.1954 8.61236L13.3362 8.93849L14.3461 8.50252L14.2053 8.17639L13.1954 8.61236ZM13.8411 9.2705H14.1463V8.1705H13.8411V9.2705ZM13.7469 8.34236L13.5071 8.59561L14.3059 9.35189L14.5457 9.09865L13.7469 8.34236ZM13.3849 9.14824L13.5002 9.49287L14.5434 9.14389L14.4281 8.79926L13.3849 9.14824ZM14.2787 8.83205L13.9576 8.66248L13.4439 9.63514L13.7649 9.80471L14.2787 8.83205Z" fill="#FFD100" mask="url(#path-13-inside-3_8_24258)"/>
</g>
</g>
<path d="M10.5238 10.3896C10.5698 10.5207 10.8989 10.6927 11.2817 10.4715C11.542 10.3159 11.7104 10.0947 11.8712 9.70145C11.9171 9.60314 11.9401 9.48026 11.8329 9.40653C11.7487 9.341 11.6109 9.26727 11.5497 9.20173C11.519 9.16896 11.4884 9.14439 11.4655 9.11981C11.4808 9.1362 11.4961 9.15258 11.5114 9.17716C11.6645 9.37376 11.5037 9.66049 11.3353 9.83252C11.2128 9.9554 10.9908 10.2585 10.6693 9.97179C10.6004 9.90625 10.4396 10.1766 10.5238 10.3896L10.5238 10.3896Z" fill="#FFD100"/>
<path d="M15.1783 10.3896C15.1247 10.5207 14.7956 10.6927 14.4204 10.4715C14.1602 10.3159 13.9917 10.0947 13.8233 9.70145C13.785 9.60314 13.7621 9.48026 13.8692 9.40653C13.9535 9.341 14.0913 9.26727 14.1525 9.20173C14.1831 9.16896 14.2061 9.14439 14.2367 9.11981C14.2214 9.1362 14.2061 9.15258 14.1908 9.17716C14.0377 9.37376 14.1984 9.66049 14.3592 9.83252C14.4817 9.9554 14.7113 10.2585 15.0329 9.97179C15.1018 9.90625 15.2549 10.1766 15.1783 10.3896L15.1783 10.3896Z" fill="#FFD100"/>
<path d="M12.8511 11.0941C13.4636 11.0941 14.4052 10.7992 14.9105 9.76699C14.9947 9.59496 14.9105 9.50484 14.8109 9.4475C14.7038 9.39835 14.5736 9.28366 14.5047 9.20993C14.6272 9.341 14.6042 9.43112 14.52 9.57857C14.1296 10.2749 13.5937 10.6272 12.8511 10.6272C12.1085 10.6272 11.5727 10.2749 11.1822 9.57857C11.098 9.43112 11.075 9.341 11.1899 9.20993C11.1286 9.28366 10.9908 9.39835 10.8837 9.4475C10.7841 9.50484 10.6999 9.59496 10.7841 9.76699C11.2894 10.7992 12.2387 11.0941 12.8511 11.0941H12.8511Z" fill="#FFD100"/>
<path d="M11.4348 9.70965C11.4195 9.62773 11.32 9.6605 11.2894 9.75881C11.2511 9.70146 11.2128 9.64412 11.1822 9.57858C11.0903 9.43112 11.075 9.33282 11.2052 9.19355C11.2664 9.12802 11.3889 9.05429 11.4731 9.13621C11.6492 9.29186 11.5573 9.54581 11.4348 9.70965L11.4348 9.70965Z" fill="#F50100"/>
<path d="M14.2597 9.70965C14.275 9.62773 14.3822 9.6605 14.4128 9.75881C14.4511 9.70146 14.4894 9.64412 14.52 9.57858C14.6119 9.43112 14.6272 9.33282 14.4894 9.19355C14.4358 9.12802 14.3133 9.05429 14.2215 9.13621C14.053 9.29186 14.1372 9.54581 14.2597 9.70965L14.2597 9.70965Z" fill="#F50100"/>
<path fill-rule="evenodd" clip-rule="evenodd" d="M12.4916 4.27204C12.265 3.94589 11.979 3.72033 11.8102 3.58719C11.7227 3.51821 11.6667 3.47403 11.6667 3.45353C11.6667 3.39593 12.122 3.54991 12.5872 3.94208C12.5974 3.91864 12.6082 3.89608 12.6195 3.87449C12.483 3.60071 12.2481 3.35822 12.1145 3.22032L12.1145 3.22032C12.0512 3.15493 12.0106 3.11306 12.0141 3.10252C12.0242 3.07216 12.4071 3.31962 12.746 3.69566C12.7789 3.66217 12.8139 3.63498 12.8506 3.61497L12.6267 3.24184H13.4267L13.1883 3.63923C13.2403 3.67604 13.2884 3.72765 13.3312 3.79134C13.6872 3.36237 14.135 3.06966 14.1459 3.10252L13.8757 3.71626C13.7483 3.7998 13.6119 3.90289 13.4771 4.02617L13.4534 4.04815L13.4613 4.07299C13.4629 4.07104 13.464 4.06895 13.4646 4.06672C13.4685 4.05317 13.4726 4.03965 13.4771 4.02617L13.5318 4.49729C13.5328 4.5214 13.5333 4.54574 13.5333 4.57029C13.7626 4.31538 14.0058 4.21417 14.0058 4.24824C14.0058 4.25946 13.9801 4.28363 13.9402 4.32138C13.8365 4.41923 13.6363 4.6083 13.5349 4.8994C13.5308 4.91114 13.5189 4.91048 13.504 4.90334C13.4315 5.29443 13.2333 5.57517 13 5.57517C12.7092 5.57517 12.4727 5.13861 12.4668 4.59589C12.3778 4.47045 12.2817 4.37971 12.2199 4.32138L12.2199 4.32138C12.1799 4.28363 12.1543 4.25946 12.1543 4.24824C12.1543 4.22182 12.3004 4.27672 12.4729 4.4215C12.4772 4.37029 12.4834 4.32037 12.4916 4.27204ZM13.5318 4.49729C13.7662 4.04754 14.1446 3.74906 14.3499 3.58719C14.4373 3.51821 14.4934 3.47403 14.4934 3.45353C14.4934 3.40869 14.2174 3.49208 13.8757 3.71626L13.5318 4.49729Z" fill="#FFD100"/>
<path d="M11.8928 5.15144C11.8287 5.04192 11.6545 4.99324 11.5812 5.09059C11.5537 5.11493 11.517 5.11493 11.4895 5.1271C11.4437 5.1271 11.3851 5.15774 11.4035 5.27943C11.4528 5.27943 11.4528 5.30963 11.4803 5.30963C11.4987 5.29746 11.5463 5.52068 11.638 5.50851C11.7388 5.50851 11.8287 5.56518 11.847 5.58952C11.8745 5.62602 11.9112 5.72337 11.8653 5.77205C11.8012 5.84506 11.7553 6.01543 11.8653 6.14928C11.9845 6.27097 12.287 6.45351 12.6262 6.10061C12.9562 5.75988 13.4696 5.95458 13.5062 6.07627C13.5521 6.19796 13.5704 6.27097 13.5796 6.33182C13.5887 6.38049 13.8362 6.45351 13.8729 6.49001C13.9188 6.52652 13.9829 6.51435 13.9646 6.40483C13.9279 6.0641 13.7721 6.01543 13.7537 5.85723C13.8454 5.8694 13.9096 5.8694 13.9463 5.82073C13.9738 5.77205 14.0104 5.68687 14.0471 5.66253C14.0746 5.63819 14.0746 5.61385 14.0379 5.62602C13.9921 5.63819 13.9646 5.66253 13.8821 5.65036C13.6869 5.6222 13.7352 4.69911 13.0897 4.51955C12.6908 4.40858 12.1935 5.16953 12.0571 5.24486C12.0541 5.2465 12.0513 5.24781 12.0487 5.24879C11.9845 5.24879 11.9295 5.21228 11.8928 5.15144Z" fill="#059334"/>
<g clip-path="url(#clip3_8_24258)">
<rect width="9" height="7" fill="#2E42A5"/>
<path d="M-1.00214 6.4999L0.978339 7.3685L9.04494 0.944361L10.0896 -0.346405L7.97176 -0.636717L4.68159 2.13163L2.03334 3.99685L-1.00214 6.4999Z" fill="#F7FCFF"/>
<path d="M-0.731018 7.10849L0.277943 7.61255L9.71445 -0.466309H8.29775L-0.731018 7.10849Z" fill="#F50100"/>
<path d="M10.0021 6.4999L8.02166 7.3685L-0.0449371 0.944361L-1.08959 -0.346405L1.02824 -0.636717L4.31841 2.13163L6.96666 3.99685L10.0021 6.4999Z" fill="#F7FCFF"/>
<path d="M9.93457 6.93667L8.92561 7.44073L4.90745 3.98176L3.71615 3.59529L-1.1901 -0.341973H0.226597L5.13009 3.50184L6.43256 3.96525L9.93457 6.93667Z" fill="#F50100"/>
<path fill-rule="evenodd" clip-rule="evenodd" d="M4.99226 0H3.99226V3H0V4H3.99226V7H4.99226V4H9V3H4.99226V0Z" fill="#F50100"/>
<path fill-rule="evenodd" clip-rule="evenodd" d="M3.24226 -0.75H5.74226V2.25H9.75V4.75H5.74226V7.75H3.24226V4.75H-0.75V2.25H3.24226V-0.75ZM3.99226 3H0V4H3.99226V7H4.99226V4H9V3H4.99226V0H3.99226V3Z" fill="#F7FCFF"/>
</g>
</g>
</g>
<defs>
<clipPath id="clip0_8_24258">
<rect width="16" height="12" fill="white"/>
</clipPath>
<clipPath id="clip1_8_24258">
<rect width="16" height="12" fill="white"/>
</clipPath>
<clipPath id="clip2_8_24258">
<rect width="4" height="4" fill="white" transform="translate(11.2843 6.35638)"/>
</clipPath>
<clipPath id="clip3_8_24258">
<rect width="9" height="7" fill="white"/>
</clipPath>
</defs>
</svg>
