<svg width="16" height="12" viewBox="0 0 16 12" fill="none" xmlns="http://www.w3.org/2000/svg">
<g clip-path="url(#clip0_8_24079)">
<rect width="16" height="12" fill="white"/>
<path fill-rule="evenodd" clip-rule="evenodd" d="M0 0V12H16V0H0Z" fill="#4EC7EE"/>
<mask id="mask0_8_24079" style="mask-type:luminance" maskUnits="userSpaceOnUse" x="0" y="0" width="16" height="12">
<path fill-rule="evenodd" clip-rule="evenodd" d="M0 0V12H16V0H0Z" fill="white"/>
</mask>
<g mask="url(#mask0_8_24079)">
<path d="M2.04498 11.6185C2.01325 11.8535 2.16377 12.0209 2.41629 12.1286C2.75575 12.2734 3.09827 12.1378 3.41333 11.7887L3.00503 11.4202C2.86507 11.5753 2.76394 11.635 2.68586 11.634C2.83873 11.5248 3.03458 11.39 3.27315 11.2298L3.38766 11.0639C3.47962 10.6694 3.19366 10.4556 2.75754 10.4556C2.50066 10.4556 2.29529 10.5065 2.16499 10.6157C1.95092 10.7952 1.98757 11.0817 2.21284 11.2308C2.23071 11.2426 2.24885 11.2533 2.26723 11.2627C2.14085 11.3695 2.06373 11.4796 2.04498 11.6185Z" fill="#FFE402"/>
<path d="M2.28247 11.2477C2.28247 11.2477 2.34486 11.1094 2.31367 11.0375" stroke="#FFE402" stroke-width="0.55"/>
<path d="M4.28467 11.6185C4.3164 11.8535 4.16588 12.0209 3.91336 12.1286C3.57391 12.2734 3.23139 12.1378 2.91632 11.7887L3.32462 11.4202C3.46458 11.5753 3.56571 11.635 3.64379 11.634C3.49092 11.5248 3.29507 11.39 3.0565 11.2298L2.94199 11.0639C2.85003 10.6694 3.13599 10.4556 3.57212 10.4556C3.82899 10.4556 4.03436 10.5065 4.16466 10.6157C4.37873 10.7952 4.34208 11.0817 4.11681 11.2308C4.09894 11.2426 4.08081 11.2533 4.06242 11.2627C4.1888 11.3695 4.26593 11.4796 4.28467 11.6185Z" fill="#FFE402"/>
<path d="M4.29785 11.1346L3.79652 11.3608C3.72615 11.2048 3.70512 11.0632 3.76368 10.9281L4.2683 11.1469C4.28526 11.1077 4.28503 11.1062 4.29785 11.1346Z" fill="#FFE402"/>
<path d="M2.04498 0.381499C2.01325 0.1465 2.16377 -0.0208841 2.41629 -0.128612C2.75575 -0.273434 3.09827 -0.137822 3.41333 0.211284L3.00503 0.579778C2.86507 0.424701 2.76394 0.364953 2.68586 0.365969C2.83873 0.475178 3.03458 0.609999 3.27315 0.770209L3.38766 0.936072C3.47962 1.33057 3.19366 1.54433 2.75754 1.54433C2.50066 1.54433 2.29529 1.4935 2.16499 1.38425C1.95092 1.20476 1.98757 0.918239 2.21284 0.769172C2.23071 0.757347 2.24885 0.746707 2.26723 0.737226C2.14085 0.630504 2.06373 0.520327 2.04498 0.381499Z" fill="#FFE402"/>
<path d="M4.28467 0.381499C4.3164 0.1465 4.16588 -0.0208841 3.91336 -0.128612C3.57391 -0.273434 3.23139 -0.137822 2.91632 0.211284L3.32462 0.579778C3.46458 0.424701 3.56571 0.364953 3.64379 0.365969C3.49092 0.475178 3.29507 0.609999 3.0565 0.770209L2.94199 0.936072C2.85003 1.33057 3.13599 1.54433 3.57212 1.54433C3.82899 1.54433 4.03436 1.4935 4.16466 1.38425C4.37873 1.20476 4.34208 0.918239 4.11681 0.769172C4.09894 0.757347 4.08081 0.746707 4.06242 0.737226C4.1888 0.630504 4.26593 0.520327 4.28467 0.381499Z" fill="#FFE402"/>
<path fill-rule="evenodd" clip-rule="evenodd" d="M2.54692 10.0315C2.23141 10.0406 2.0351 10.1057 2.0351 10.4098C2.0351 10.7452 2.36092 10.8501 2.70757 10.8501C3.02158 10.8501 3.37533 10.6552 3.37533 10.3062C3.37533 10.0938 3.10536 9.66536 2.42554 8.73651C2.40198 8.71457 2.389 8.70339 2.37861 8.70331C2.41984 8.68036 2.49244 8.65348 2.58824 8.65348C2.6215 8.65348 2.66472 8.6703 2.70757 8.69185V9.05613H3.4273V8.78113C3.4273 8.47044 2.96802 8.10348 2.58824 8.10348C2.25656 8.10348 1.99029 8.26125 1.85542 8.48824C1.72213 8.71256 1.82405 8.92789 2.01547 9.09917C2.30031 9.49202 2.52147 9.81721 2.66018 10.0309C2.60922 10.0304 2.58124 10.0305 2.54692 10.0315ZM2.58072 10.2851C2.57074 10.2829 2.56114 10.2804 2.55217 10.2778C2.55885 10.2848 2.5851 10.3161 2.5851 10.4098C2.5851 10.4608 2.58265 10.4967 2.57935 10.5219C2.48656 10.44 2.46062 10.2973 2.52852 10.1875L2.5302 10.1847L2.51985 10.1642C2.52122 10.1635 2.5226 10.1628 2.52395 10.1621C2.53994 10.1538 2.55308 10.1471 2.5302 10.1847L2.58072 10.2851ZM2.55217 10.2778L2.54264 10.2749C2.54367 10.2753 2.54501 10.2759 2.54658 10.2769L2.55217 10.2778ZM2.82534 10.3062C2.82534 10.2968 2.82214 10.2912 2.81663 10.2882L2.81983 10.2917C2.82348 10.2992 2.82534 10.3041 2.82534 10.3062Z" fill="#FFE402"/>
<path fill-rule="evenodd" clip-rule="evenodd" d="M3.78279 10.0315C4.0983 10.0406 4.29461 10.1057 4.29461 10.4098C4.29461 10.7452 3.96879 10.8501 3.62214 10.8501C3.30813 10.8501 2.95438 10.6552 2.95438 10.3062C2.95438 10.0938 3.22436 9.66536 3.90417 8.73651C3.92774 8.71457 3.94071 8.70339 3.9511 8.70331C3.90988 8.68036 3.83727 8.65348 3.74147 8.65348C3.70821 8.65348 3.66499 8.6703 3.62214 8.69185V9.05613H2.90241V8.78113C2.90241 8.47044 3.36169 8.10348 3.74147 8.10348C4.07315 8.10348 4.33942 8.26125 4.47429 8.48824C4.60758 8.71256 4.50566 8.92789 4.31424 9.09917C4.0294 9.49202 3.80824 9.81721 3.66954 10.0309C3.7205 10.0304 3.74848 10.0305 3.78279 10.0315ZM3.74899 10.2851C3.75897 10.2829 3.76857 10.2804 3.77754 10.2778C3.77086 10.2848 3.74461 10.3161 3.74461 10.4098C3.74461 10.4608 3.74707 10.4967 3.75036 10.5219C3.84315 10.44 3.86909 10.2973 3.80119 10.1875L3.79951 10.1847L3.80986 10.1642C3.80849 10.1635 3.80712 10.1628 3.80576 10.1621C3.78977 10.1538 3.77664 10.1471 3.79951 10.1847L3.74899 10.2851ZM3.77754 10.2778L3.78708 10.2749C3.78605 10.2753 3.7847 10.2759 3.78313 10.2769L3.77754 10.2778ZM3.50438 10.3062C3.50438 10.2968 3.50757 10.2912 3.51309 10.2882L3.50989 10.2917C3.50623 10.2992 3.50438 10.3041 3.50438 10.3062Z" fill="#FFE402"/>
<path fill-rule="evenodd" clip-rule="evenodd" d="M2.54692 6.67737C2.23141 6.66828 2.0351 6.6032 2.0351 6.29906C2.0351 5.96369 2.36092 5.85876 2.70757 5.85876C3.02158 5.85876 3.37533 6.05366 3.37533 6.40269C3.37533 6.61502 3.10536 7.0435 2.42554 7.97235C2.40198 7.99429 2.389 8.00548 2.37861 8.00555C2.41984 8.0285 2.49244 8.05539 2.58824 8.05539C2.6215 8.05539 2.66472 8.03856 2.70757 8.01701V7.65273H3.4273V7.92773C3.4273 8.23843 2.96802 8.60539 2.58824 8.60539C2.25656 8.60539 1.99029 8.44761 1.85542 8.22062C1.72213 7.9963 1.82405 7.78097 2.01547 7.60969C2.30031 7.21684 2.52147 6.89166 2.66018 6.678C2.60922 6.67842 2.58124 6.67835 2.54692 6.67737ZM2.58072 6.42377C2.57074 6.42599 2.56114 6.42842 2.55217 6.43102C2.55885 6.42402 2.5851 6.39273 2.5851 6.29906C2.5851 6.24807 2.58265 6.21219 2.57935 6.18697C2.48656 6.26883 2.46062 6.41153 2.52852 6.52138L2.5302 6.52412L2.51985 6.54469C2.52122 6.54538 2.5226 6.54609 2.52395 6.54679C2.53994 6.55502 2.55308 6.56178 2.5302 6.52412L2.58072 6.42377ZM2.55217 6.43102L2.54264 6.43394C2.54367 6.43361 2.54501 6.43297 2.54658 6.43195L2.55217 6.43102ZM2.82534 6.40269C2.82534 6.41208 2.82214 6.41766 2.81663 6.42065L2.81983 6.41714C2.82348 6.40962 2.82534 6.40477 2.82534 6.40269Z" fill="#FFE402"/>
<path fill-rule="evenodd" clip-rule="evenodd" d="M3.78279 6.67737C4.0983 6.66828 4.29461 6.6032 4.29461 6.29906C4.29461 5.96369 3.96879 5.85876 3.62214 5.85876C3.30813 5.85876 2.95438 6.05366 2.95438 6.40269C2.95438 6.61502 3.22436 7.0435 3.90417 7.97235C3.92774 7.99429 3.94071 8.00548 3.9511 8.00555C3.90988 8.0285 3.83727 8.05539 3.74147 8.05539C3.70821 8.05539 3.66499 8.03856 3.62214 8.01701V7.65273H2.90241V7.92773C2.90241 8.23843 3.36169 8.60539 3.74147 8.60539C4.07315 8.60539 4.33942 8.44761 4.47429 8.22062C4.60758 7.9963 4.50566 7.78097 4.31424 7.60969C4.0294 7.21684 3.80824 6.89166 3.66954 6.678C3.7205 6.67842 3.74848 6.67835 3.78279 6.67737ZM3.74899 6.42377C3.75897 6.42599 3.76857 6.42842 3.77754 6.43102C3.77086 6.42402 3.74461 6.39273 3.74461 6.29906C3.74461 6.24807 3.74707 6.21219 3.75036 6.18697C3.84315 6.26883 3.86909 6.41153 3.80119 6.52138L3.79951 6.52412L3.80986 6.54469C3.80849 6.54538 3.80712 6.54609 3.80576 6.54679C3.78977 6.55502 3.77664 6.56178 3.79951 6.52412L3.74899 6.42377ZM3.77754 6.43102L3.78708 6.43394C3.78605 6.43361 3.7847 6.43297 3.78313 6.43195L3.77754 6.43102ZM3.50438 6.40269C3.50438 6.41208 3.50757 6.41766 3.51309 6.42065L3.50989 6.41714C3.50623 6.40962 3.50438 6.40477 3.50438 6.40269Z" fill="#FFE402"/>
<path fill-rule="evenodd" clip-rule="evenodd" d="M2.54692 5.32263C2.23141 5.33172 2.0351 5.3968 2.0351 5.70094C2.0351 6.03631 2.36092 6.14124 2.70757 6.14124C3.02158 6.14124 3.37533 5.94634 3.37533 5.59731C3.37533 5.38498 3.10536 4.9565 2.42554 4.02765C2.40198 4.00571 2.389 3.99452 2.37861 3.99445C2.41984 3.9715 2.49244 3.94461 2.58824 3.94461C2.6215 3.94461 2.66472 3.96144 2.70757 3.98299V4.34727H3.4273V4.07227C3.4273 3.76157 2.96802 3.39461 2.58824 3.39461C2.25656 3.39461 1.99029 3.55239 1.85542 3.77938C1.72213 4.0037 1.82405 4.21903 2.01547 4.39031C2.30031 4.78316 2.52147 5.10834 2.66018 5.322C2.60922 5.32158 2.58124 5.32165 2.54692 5.32263ZM2.58072 5.57623C2.57074 5.57401 2.56114 5.57158 2.55217 5.56898C2.55885 5.57598 2.5851 5.60727 2.5851 5.70094C2.5851 5.75193 2.58265 5.78781 2.57935 5.81303C2.48656 5.73117 2.46062 5.58847 2.52852 5.47862L2.5302 5.47588L2.51985 5.45531C2.52122 5.45462 2.5226 5.45391 2.52395 5.45321C2.53994 5.44498 2.55308 5.43822 2.5302 5.47588L2.58072 5.57623ZM2.55217 5.56898L2.54264 5.56606C2.54367 5.56639 2.54501 5.56703 2.54658 5.56805L2.55217 5.56898ZM2.82534 5.59731C2.82534 5.58792 2.82214 5.58234 2.81663 5.57935L2.81983 5.58286C2.82348 5.59038 2.82534 5.59523 2.82534 5.59731Z" fill="#FFE402"/>
<path fill-rule="evenodd" clip-rule="evenodd" d="M3.78279 5.32263C4.0983 5.33172 4.29461 5.3968 4.29461 5.70094C4.29461 6.03631 3.96879 6.14124 3.62214 6.14124C3.30813 6.14124 2.95438 5.94634 2.95438 5.59731C2.95438 5.38498 3.22436 4.9565 3.90417 4.02765C3.92774 4.00571 3.94071 3.99452 3.9511 3.99445C3.90988 3.9715 3.83727 3.94461 3.74147 3.94461C3.70821 3.94461 3.66499 3.96144 3.62214 3.98299V4.34727H2.90241V4.07227C2.90241 3.76157 3.36169 3.39461 3.74147 3.39461C4.07315 3.39461 4.33942 3.55239 4.47429 3.77938C4.60758 4.0037 4.50566 4.21903 4.31424 4.39031C4.0294 4.78316 3.80824 5.10834 3.66954 5.322C3.7205 5.32158 3.74848 5.32165 3.78279 5.32263ZM3.74899 5.57623C3.75897 5.57401 3.76857 5.57158 3.77754 5.56898C3.77086 5.57598 3.74461 5.60727 3.74461 5.70094C3.74461 5.75193 3.74707 5.78781 3.75036 5.81303C3.84315 5.73117 3.86909 5.58847 3.80119 5.47862L3.79951 5.47588L3.80986 5.45531C3.80849 5.45462 3.80712 5.45391 3.80576 5.45321C3.78977 5.44498 3.77664 5.43822 3.79951 5.47588L3.74899 5.57623ZM3.77754 5.56898L3.78708 5.56606C3.78605 5.56639 3.7847 5.56703 3.78313 5.56805L3.77754 5.56898ZM3.50438 5.59731C3.50438 5.58792 3.50757 5.58234 3.51309 5.57935L3.50989 5.58286C3.50623 5.59038 3.50438 5.59523 3.50438 5.59731Z" fill="#FFE402"/>
<path fill-rule="evenodd" clip-rule="evenodd" d="M2.54692 1.9685C2.23141 1.95942 2.0351 1.89434 2.0351 1.5902C2.0351 1.25483 2.36092 1.1499 2.70757 1.1499C3.02158 1.1499 3.37533 1.34479 3.37533 1.69382C3.37533 1.90616 3.10536 2.33464 2.42554 3.26349C2.40198 3.28543 2.389 3.29661 2.37861 3.29669C2.41984 3.31964 2.49244 3.34652 2.58824 3.34652C2.6215 3.34652 2.66472 3.3297 2.70757 3.30815V2.94387H3.4273V3.21887C3.4273 3.52956 2.96802 3.89652 2.58824 3.89652C2.25656 3.89652 1.99029 3.73875 1.85542 3.51176C1.72213 3.28744 1.82405 3.07211 2.01547 2.90083C2.30031 2.50798 2.52147 2.18279 2.66018 1.96913C2.60922 1.96956 2.58124 1.96949 2.54692 1.9685ZM2.58072 1.71491C2.57074 1.71713 2.56114 1.71956 2.55217 1.72216C2.55885 1.71516 2.5851 1.68386 2.5851 1.5902C2.5851 1.53921 2.58265 1.50333 2.57935 1.47811C2.48656 1.55997 2.46062 1.70267 2.52852 1.81252L2.5302 1.81526L2.51985 1.83583C2.52122 1.83652 2.5226 1.83723 2.52395 1.83792C2.53994 1.84616 2.55308 1.85292 2.5302 1.81526L2.58072 1.71491ZM2.55217 1.72216L2.54264 1.72508C2.54367 1.72474 2.54501 1.72411 2.54658 1.72309L2.55217 1.72216ZM2.82534 1.69382C2.82534 1.70321 2.82214 1.7088 2.81663 1.71179L2.81983 1.70828C2.82348 1.70076 2.82534 1.6959 2.82534 1.69382Z" fill="#FFE402"/>
<path fill-rule="evenodd" clip-rule="evenodd" d="M3.78279 1.9685C4.0983 1.95942 4.29461 1.89434 4.29461 1.5902C4.29461 1.25483 3.96879 1.1499 3.62214 1.1499C3.30813 1.1499 2.95438 1.34479 2.95438 1.69382C2.95438 1.90616 3.22436 2.33464 3.90417 3.26349C3.92774 3.28543 3.94071 3.29661 3.9511 3.29669C3.90988 3.31964 3.83727 3.34652 3.74147 3.34652C3.70821 3.34652 3.66499 3.3297 3.62214 3.30815V2.94387H2.90241V3.21887C2.90241 3.52956 3.36169 3.89652 3.74147 3.89652C4.07315 3.89652 4.33942 3.73875 4.47429 3.51176C4.60758 3.28744 4.50566 3.07211 4.31424 2.90083C4.0294 2.50798 3.80824 2.18279 3.66954 1.96913C3.7205 1.96956 3.74848 1.96949 3.78279 1.9685ZM3.74899 1.71491C3.75897 1.71713 3.76857 1.71956 3.77754 1.72216C3.77086 1.71516 3.74461 1.68386 3.74461 1.5902C3.74461 1.53921 3.74707 1.50333 3.75036 1.47811C3.84315 1.55997 3.86909 1.70267 3.80119 1.81252L3.79951 1.81526L3.80986 1.83583C3.80849 1.83652 3.80712 1.83723 3.80576 1.83792C3.78977 1.84616 3.77664 1.85292 3.79951 1.81526L3.74899 1.71491ZM3.77754 1.72216L3.78708 1.72508C3.78605 1.72474 3.7847 1.72411 3.78313 1.72309L3.77754 1.72216ZM3.50438 1.69382C3.50438 1.70321 3.50757 1.7088 3.51309 1.71179L3.50989 1.70828C3.50623 1.70076 3.50438 1.6959 3.50438 1.69382Z" fill="#FFE402"/>
<path fill-rule="evenodd" clip-rule="evenodd" d="M9.49336 1.3924L9.69808 2.15625C9.69808 2.15625 9.70049 2.32979 9.50444 2.32979C9.30838 2.32979 9.29849 2.15625 9.29849 2.15625L9.49336 1.3924ZM11.2252 4.30998C11.2252 5.3041 10.4663 6.10998 9.53017 6.10998C8.59405 6.10998 7.83517 5.3041 7.83517 4.30998C7.83517 3.31587 8.59405 2.50998 9.53017 2.50998C10.4663 2.50998 11.2252 3.31587 11.2252 4.30998ZM10.2906 2.31029L10.3182 1.51995L9.90849 2.19346C9.90849 2.19346 9.8672 2.36231 10.0547 2.41963C10.2422 2.47695 10.2906 2.31029 10.2906 2.31029ZM11.0703 1.8942L10.8129 2.64195C10.8129 2.64195 10.7179 2.78717 10.5553 2.67754C10.3928 2.56791 10.4816 2.4185 10.4816 2.4185L11.0703 1.8942ZM11.2184 3.1218L11.6832 2.48199L10.9669 2.81126C10.9669 2.81126 10.8383 2.92816 10.9616 3.08052C11.085 3.23288 11.2184 3.1218 11.2184 3.1218ZM12.1055 3.23879L11.4657 3.70366C11.4657 3.70366 11.3046 3.7681 11.2343 3.58506C11.1641 3.40203 11.3225 3.33061 11.3225 3.33061L12.1055 3.23879ZM11.5439 4.34113L12.2916 4.08362L11.516 3.94251C11.516 3.94251 11.3436 3.96448 11.3573 4.16006C11.371 4.35563 11.5439 4.34113 11.5439 4.34113ZM12.2303 4.94795L11.4399 4.9756C11.4399 4.9756 11.2703 4.93891 11.3144 4.74788C11.3585 4.55685 11.5298 4.58625 11.5298 4.58625L12.2303 4.94795ZM11.1629 5.55057L11.9268 5.7552L11.3627 5.20452C11.3627 5.20452 11.2075 5.12631 11.1095 5.2961C11.0114 5.46588 11.1629 5.55057 11.1629 5.55057ZM11.4082 6.43382L10.7375 6.01479C10.7375 6.01479 10.6174 5.88951 10.7608 5.75581C10.9041 5.6221 11.0297 5.74228 11.0297 5.74228L11.4082 6.43382ZM10.2014 6.32687L10.7203 6.92367L10.5606 6.1517C10.5606 6.1517 10.4756 6.00006 10.2994 6.086C10.1232 6.17195 10.2014 6.32687 10.2014 6.32687ZM9.92417 7.18135L9.60247 6.45893C9.60247 6.45893 9.57295 6.2879 9.76659 6.25723C9.96023 6.22656 9.99714 6.39642 9.99714 6.39642L9.92417 7.18135ZM8.99949 6.39642L9.0822 7.1829L9.39416 6.45893C9.39416 6.45893 9.41155 6.28598 9.2179 6.25531C9.02426 6.22464 8.99949 6.39642 8.99949 6.39642ZM8.28519 6.92801L8.43604 6.15172C8.43604 6.15172 8.50995 5.99468 8.68616 6.08063C8.86237 6.16657 8.79518 6.32688 8.79518 6.32688L8.28519 6.92801ZM7.96689 5.74229L7.59567 6.44057L8.25913 6.01481C8.25913 6.01481 8.37026 5.88115 8.22687 5.74744C8.08349 5.61373 7.96689 5.74229 7.96689 5.74229ZM7.07475 5.76377L7.6339 5.20454C7.6339 5.20454 7.78299 5.11568 7.88102 5.28547C7.97905 5.45526 7.8337 5.5506 7.8337 5.5506L7.07475 5.76377ZM7.4668 4.58628L6.76857 4.95759L7.55669 4.97563C7.55669 4.97563 7.72356 4.92696 7.67946 4.73593C7.63535 4.5449 7.4668 4.58628 7.4668 4.58628ZM6.70428 4.09348L7.48056 3.94254C7.48056 3.94254 7.65385 3.95224 7.64017 4.14782C7.6265 4.3434 7.45269 4.34116 7.45269 4.34116L6.70428 4.09348ZM7.67406 3.33064L6.88757 3.24802L7.53086 3.70368C7.53086 3.70368 7.69642 3.75665 7.76668 3.57361C7.83694 3.39058 7.67406 3.33064 7.67406 3.33064ZM7.30721 2.48967L8.02968 2.81128C8.02968 2.81128 8.16606 2.91863 8.04268 3.07099C7.9193 3.22335 7.77821 3.12182 7.77821 3.12182L7.30721 2.48967ZM8.51495 2.41852L7.91809 1.89974L8.18368 2.64197C8.18368 2.64197 8.28892 2.78031 8.45146 2.67068C8.61399 2.56105 8.51495 2.41852 8.51495 2.41852ZM8.66898 1.52284L9.08809 2.19347C9.08809 2.19347 9.14113 2.35872 8.95364 2.41604C8.76616 2.47336 8.70596 2.31029 8.70596 2.31029L8.66898 1.52284Z" fill="#FFE402"/>
<path d="M5.77388 4L6.49547 4.07298C6.14918 6.42001 7.0831 7.47745 9.51368 7.47745C11.974 7.47745 13.1134 6.37204 13.1134 4C13.1134 4 13.6256 3.97095 13.6215 4.07298C13.511 6.80213 12.3396 8.55396 9.44203 8.55396C6.40633 8.55396 5.3377 6.95624 5.77388 4Z" fill="#FFE402"/>
<path d="M5.98921 5.39999L6.67071 5.47298C6.34366 7.82 7.22571 8.87744 9.52128 8.87744C11.845 8.87744 12.921 7.77204 12.921 5.39999C12.921 5.39999 13.4048 5.37094 13.4009 5.47298C13.2965 8.20212 12.1903 9.95395 9.45361 9.95395C6.58653 9.95395 5.57726 8.35623 5.98921 5.39999Z" fill="#FFE402"/>
</g>
</g>
<defs>
<clipPath id="clip0_8_24079">
<rect width="16" height="12" fill="white"/>
</clipPath>
</defs>
</svg>
