<svg width="16" height="12" viewBox="0 0 16 12" fill="none" xmlns="http://www.w3.org/2000/svg">
<g clip-path="url(#clip0_8_24094)">
<rect width="16" height="12" fill="white"/>
<path fill-rule="evenodd" clip-rule="evenodd" d="M16 0H0V3H16V0ZM16 9H0V12H16V9Z" fill="#F50101"/>
<path fill-rule="evenodd" clip-rule="evenodd" d="M0 3H16V9H0V3Z" fill="#F7FCFF"/>
<path fill-rule="evenodd" clip-rule="evenodd" d="M10.7574 6.25662C10.7947 6.69029 9.19432 6.07669 9.19432 6.25033C9.19432 6.42397 10.9088 6.72885 10.9059 7.11756C10.903 7.50627 8.87302 7.00666 9.32825 7.18145C9.78347 7.35625 10.7609 7.77472 10.6498 8.03543C10.4125 8.59219 8.83675 7.64917 8.70569 7.83508C8.49417 8.13494 9.8685 8.83442 9.85689 8.90126C9.83448 9.02943 8.91823 8.6998 8.70569 8.96597C8.53362 8.91744 8.45409 8.68573 8.40065 8.65499L8.06249 4.2933C8.06249 4.2933 8.36612 8.40001 7.97816 8.51812C7.59019 8.63623 6.51247 8.99534 6.48111 8.81598C6.46943 8.74914 7.77876 8.13494 7.56725 7.83508C7.41147 7.6141 5.83138 8.39775 5.73056 7.94397C5.28148 7.62024 7.18493 7.34012 7.18493 7.00906C7.18493 6.67797 5.44364 7.4009 5.65195 6.94004C5.86026 6.47917 7.2543 6.31417 7.28031 6.25033C7.32786 6.13361 5.73056 6.43205 5.73056 6.25033C5.73056 5.90649 6.68665 5.83883 7.28031 5.52939C7.31539 5.17628 5.84015 5.87702 5.73056 5.59396C5.62098 5.3109 7.61614 4.57758 7.56725 4.52045C7.49004 4.43024 5.88208 4.83732 6.14726 4.62355C6.66191 4.20865 7.66648 3.64445 7.89762 3.49396C7.89762 3.49396 7.92546 3.43718 7.95522 3.45645C7.98504 3.43718 8.01782 3.41608 8.01782 3.41608C8.01782 3.41608 8.01782 3.77109 8.01288 3.49396C8.00794 3.21683 10.3677 4.42946 10.3945 4.73687C10.4257 5.09598 8.93642 4.46613 8.97144 4.81924C9.27417 5.0068 10.1352 5.36978 10.491 5.52939C10.6523 5.60178 9.30209 5.37616 9.3306 5.48694C9.40328 5.76926 10.7186 5.80432 10.7574 6.25662Z" fill="#52AB0B"/>
</g>
<defs>
<clipPath id="clip0_8_24094">
<rect width="16" height="12" fill="white"/>
</clipPath>
</defs>
</svg>
