<svg width="16" height="12" viewBox="0 0 16 12" fill="none" xmlns="http://www.w3.org/2000/svg">
<g clip-path="url(#clip0_8_24120)">
<rect width="16" height="12" fill="white"/>
<path fill-rule="evenodd" clip-rule="evenodd" d="M0 8H16V12H0V8Z" fill="#55BA07"/>
<path fill-rule="evenodd" clip-rule="evenodd" d="M0 4H16V8H0V4Z" fill="#F7FCFF"/>
<path fill-rule="evenodd" clip-rule="evenodd" d="M0 0H16V4H0V0Z" fill="#3D58DB"/>
<path fill-rule="evenodd" clip-rule="evenodd" d="M7.625 4.12013C7.36366 4.1903 7.22566 4.37091 7.22566 4.69047C7.22566 5.05567 7.40497 5.39845 7.625 5.57523V4.12013ZM8.25 5.56545C8.46392 5.38623 8.63588 5.04983 8.63588 4.69141C8.63588 4.38103 8.5 4.20124 8.25 4.12663V5.56545ZM8.22893 3.86613C8.63814 3.95702 8.93428 4.23571 8.93428 4.68849C8.93428 5.0178 8.77762 5.41814 8.53474 5.69286L9.7516 6.88638L10.0518 6.78754L10.5 7.46738C10.5 7.46738 9.36704 7.99999 7.96671 7.99999C6.56639 7.99999 5.5 7.46738 5.5 7.46738L5.88158 6.88638L6.18974 6.9874L7.31872 5.71356C7.06522 5.43853 6.9005 5.02617 6.9005 4.68849C6.9005 4.21969 7.21796 3.93753 7.64969 3.85719C7.69721 3.7452 7.80818 3.66666 7.9375 3.66666C8.07023 3.66666 8.18363 3.7494 8.22893 3.86613Z" fill="#1D1D1D"/>
</g>
<defs>
<clipPath id="clip0_8_24120">
<rect width="16" height="12" fill="white"/>
</clipPath>
</defs>
</svg>
