<svg width="16" height="12" viewBox="0 0 16 12" fill="none" xmlns="http://www.w3.org/2000/svg">
<g clip-path="url(#clip0_8_24108)">
<rect width="16" height="12" fill="white"/>
<path fill-rule="evenodd" clip-rule="evenodd" d="M0 9H16V12H0V9Z" fill="#55BA07"/>
<path fill-rule="evenodd" clip-rule="evenodd" d="M0 3H16V9H0V3Z" fill="#1D1D1D"/>
<path fill-rule="evenodd" clip-rule="evenodd" d="M0 0H16V3H0V0Z" fill="#E11C1B"/>
<path fill-rule="evenodd" clip-rule="evenodd" d="M7.89875 7.53296C7.00271 7.34776 6.77478 6.81258 6.78438 6.08937C6.78438 5.32411 7.18281 4.61584 7.88963 4.53116C8.59645 4.44648 9.17536 4.71014 9.47882 5.07807C9.22501 4.07932 8.38422 3.97008 7.73868 3.97008C6.76678 3.96159 5.74091 4.63422 5.74091 6.1641C5.74091 7.53296 6.64861 8.20972 7.76674 8.23223C9.16463 8.23223 9.38339 7.2669 9.42362 6.93804C9.3423 6.99639 9.26696 7.06614 9.18966 7.13772C8.91026 7.39643 8.60513 7.67896 7.89875 7.53296ZM10.1076 5.60694L9.46954 5.85384L10.1315 6.14638L10.1076 6.92089L10.61 6.38626L11.339 6.53634L10.8965 5.94298L11.2824 5.37193L10.6737 5.50041L10.2435 5.01431L10.1076 5.60694Z" fill="white"/>
</g>
<defs>
<clipPath id="clip0_8_24108">
<rect width="16" height="12" fill="white"/>
</clipPath>
</defs>
</svg>
