<svg width="16" height="12" viewBox="0 0 16 12" fill="none" xmlns="http://www.w3.org/2000/svg">
<g clip-path="url(#clip0_8_24091)">
<rect width="16" height="12" fill="white"/>
<path fill-rule="evenodd" clip-rule="evenodd" d="M0 0V12H16V0H0Z" fill="#1C9975"/>
<mask id="mask0_8_24091" style="mask-type:luminance" maskUnits="userSpaceOnUse" x="0" y="0" width="16" height="12">
<path fill-rule="evenodd" clip-rule="evenodd" d="M0 0V12H16V0H0Z" fill="white"/>
</mask>
<g mask="url(#mask0_8_24091)">
<path fill-rule="evenodd" clip-rule="evenodd" d="M8.0108 3.42685L7.19394 3.91999L7.38026 2.95768L6.70001 2.23749L7.6211 2.19855L8.0108 1.29999L8.40049 2.19855H9.32001L8.64134 2.95768L8.84566 3.91999L8.0108 3.42685Z" fill="#FECA00"/>
<path fill-rule="evenodd" clip-rule="evenodd" d="M5.69128 3.79223L5.1862 4.09714L5.30141 3.50213L4.8808 3.05682L5.45033 3.03274L5.69128 2.47714L5.93224 3.03274H6.5008L6.08116 3.50213L6.20749 4.09714L5.69128 3.79223Z" fill="#FECA00"/>
<path fill-rule="evenodd" clip-rule="evenodd" d="M10.2905 3.79223L9.78538 4.09714L9.90059 3.50213L9.47998 3.05682L10.0495 3.03274L10.2905 2.47714L10.5314 3.03274H11.1L10.6803 3.50213L10.8067 4.09714L10.2905 3.79223Z" fill="#FECA00"/>
<path fill-rule="evenodd" clip-rule="evenodd" d="M4.38324 4.80531L3.97793 5.05L4.07037 4.57252L3.73285 4.21517L4.18988 4.19585L4.38324 3.75L4.5766 4.19585H5.03285L4.6961 4.57252L4.79748 5.05L4.38324 4.80531Z" fill="#FECA00"/>
<path fill-rule="evenodd" clip-rule="evenodd" d="M11.7804 4.80531L11.3751 5.05L11.4675 4.57252L11.13 4.21517L11.587 4.19585L11.7804 3.75L11.9738 4.19585H12.43L12.0933 4.57252L12.1946 5.05L11.7804 4.80531Z" fill="#FECA00"/>
<mask id="mask1_8_24091" style="mask-type:luminance" maskUnits="userSpaceOnUse" x="4" y="3" width="8" height="8">
<path fill-rule="evenodd" clip-rule="evenodd" d="M8 11C10.2091 11 12 9.20914 12 7C12 4.79086 10.2091 3 8 3C5.79086 3 4 4.79086 4 7C4 9.20914 5.79086 11 8 11Z" fill="white"/>
</mask>
<g mask="url(#mask1_8_24091)">
<path d="M6.31014 11.6392H4.35779V9.01029L6.30663 9.01032C6.99698 9.00061 7.50144 8.80343 7.83802 8.42408L8.00574 8.23505L8.19295 8.40479C8.64248 8.81238 9.0915 9.01029 9.54574 9.01029H11.6979V11.6392H9.54574C9.02389 11.6392 8.52009 11.4429 8.03835 11.0585C7.61171 11.4367 7.03241 11.629 6.31014 11.6392Z" fill="#F7FCFF"/>
</g>
<path fill-rule="evenodd" clip-rule="evenodd" d="M8.01734 3.80389C8.01734 3.80389 7.16296 4.64789 7.16296 5.80618C7.16296 6.05406 7.20208 6.28823 7.26359 6.50322C6.98833 5.89315 6.96926 5.23162 7.20682 4.51002L6.88347 4.40356C6.6418 5.13764 6.64076 5.8278 6.88068 6.46742C6.38437 6.16839 5.81336 5.96747 5.22726 5.90268L5.18986 6.24105C5.70207 6.29767 6.202 6.46846 6.64093 6.72128C6.53256 6.67759 6.41893 6.63958 6.30039 6.60932C5.21891 6.3333 4.1579 6.72469 4.1579 6.72469C4.1579 6.72469 4.76994 8.0978 5.95539 8.30028C6.01449 8.31038 6.07292 8.31824 6.13059 8.32406L6.12163 8.32408C5.55643 8.32408 5.03083 8.093 4.53864 7.62352L4.30368 7.86986C4.85651 8.39718 5.46455 8.66451 6.12163 8.66451C6.76426 8.66451 7.36108 8.40882 7.90642 7.90429C7.9939 7.85146 8.04508 7.81366 8.05327 7.80752L8.07474 7.82576C8.06349 7.84507 8.05785 7.85561 8.05785 7.85561C8.05785 7.85561 8.11162 7.88815 8.20857 7.934C8.74702 8.35135 9.42072 8.66451 9.95374 8.66451C10.6108 8.66451 11.2189 8.39718 11.7717 7.86986L11.5367 7.62352C11.0445 8.093 10.5189 8.32408 9.95374 8.32408C9.74725 8.32408 9.54491 8.29091 9.34643 8.22415C9.62435 8.23911 9.93053 8.21407 10.2475 8.11718C11.4152 7.76017 11.9019 6.68035 11.9019 6.68035C11.9019 6.68035 11.2806 6.3451 10.4915 6.34133C10.6683 6.29573 10.8528 6.26231 11.0452 6.24105L11.0078 5.90268C10.2677 5.98449 9.62734 6.2343 9.09021 6.65114C9.40427 5.96057 9.42858 5.20846 9.1636 4.40356L8.84024 4.51002C9.05677 5.16774 9.0601 5.77555 8.85055 6.33998C8.88644 6.17308 8.90766 5.99469 8.90766 5.80618C8.90766 4.58511 8.01734 3.80389 8.01734 3.80389ZM8.39319 7.37771L8.38052 7.39596L8.39598 7.37754L8.39319 7.37771ZM7.56741 7.29798L7.60087 7.26719C7.6313 7.31774 7.66165 7.36533 7.69132 7.40974C7.65284 7.37351 7.61151 7.33606 7.56741 7.29798Z" fill="#F7FCFF"/>
</g>
</g>
<defs>
<clipPath id="clip0_8_24091">
<rect width="16" height="12" fill="white"/>
</clipPath>
</defs>
</svg>
