<svg width="16" height="12" viewBox="0 0 16 12" fill="none" xmlns="http://www.w3.org/2000/svg">
<g clip-path="url(#clip0_8_24124)">
<rect width="16" height="12" fill="white"/>
<path fill-rule="evenodd" clip-rule="evenodd" d="M0 0H17V12H0V0Z" fill="#2993EC"/>
<path fill-rule="evenodd" clip-rule="evenodd" d="M3.10638 5.79167C3.10638 8.43803 5.29733 10.5833 8 10.5833C10.7027 10.5833 12.8936 8.43803 12.8936 5.79167C12.8936 3.1453 10.7027 1 8 1C5.29733 1 3.10638 3.1453 3.10638 5.79167ZM11.8298 5.79167C11.8298 7.86273 10.1151 9.54167 8 9.54167C5.88487 9.54167 4.17021 7.86273 4.17021 5.79167C4.17021 3.7206 5.88487 2.04167 8 2.04167C10.1151 2.04167 11.8298 3.7206 11.8298 5.79167Z" fill="#F1F9FF"/>
<path fill-rule="evenodd" clip-rule="evenodd" d="M3.53192 5.79166C3.53192 8.2079 5.53235 10.1667 8.00001 10.1667C10.4677 10.1667 12.4681 8.2079 12.4681 5.79166C12.4681 3.37541 10.4677 1.41666 8.00001 1.41666C5.53235 1.41666 3.53192 3.37541 3.53192 5.79166ZM12.2553 5.79166C12.2553 8.09284 10.3502 9.95832 8.00001 9.95832C5.64986 9.95832 3.74469 8.09284 3.74469 5.79166C3.74469 3.49047 5.64986 1.62499 8.00001 1.62499C10.3502 1.62499 12.2553 3.49047 12.2553 5.79166Z" fill="#E31D1C"/>
<path d="M8.00001 10.0917C5.57228 10.0917 3.60692 8.165 3.60692 5.79166H3.45692C3.45692 8.2508 5.49243 10.2417 8.00001 10.2417V10.0917ZM12.3931 5.79166C12.3931 8.165 10.4277 10.0917 8.00001 10.0917V10.2417C10.5076 10.2417 12.5431 8.2508 12.5431 5.79166H12.3931ZM8.00001 1.49166C10.4277 1.49166 12.3931 3.41831 12.3931 5.79166H12.5431C12.5431 3.33251 10.5076 1.34166 8.00001 1.34166V1.49166ZM3.60692 5.79166C3.60692 3.41831 5.57228 1.49166 8.00001 1.49166V1.34166C5.49243 1.34166 3.45692 3.33251 3.45692 5.79166H3.60692ZM8.00001 10.0333C10.3901 10.0333 12.3303 8.13575 12.3303 5.79166H12.1803C12.1803 8.04994 10.3102 9.88332 8.00001 9.88332V10.0333ZM3.66969 5.79166C3.66969 8.13575 5.60993 10.0333 8.00001 10.0333V9.88332C5.68978 9.88332 3.81969 8.04994 3.81969 5.79166H3.66969ZM8.00001 1.54999C5.60993 1.54999 3.66969 3.44757 3.66969 5.79166H3.81969C3.81969 3.53337 5.68978 1.69999 8.00001 1.69999V1.54999ZM12.3303 5.79166C12.3303 3.44757 10.3901 1.54999 8.00001 1.54999V1.69999C10.3102 1.69999 12.1803 3.53337 12.1803 5.79166H12.3303Z" fill="#E31D1C"/>
<path fill-rule="evenodd" clip-rule="evenodd" d="M7.29308 2.875C7.1097 2.875 6.97328 3.0445 7.01248 3.22364L7.20591 4.10751C7.22291 4.18516 7.27039 4.24967 7.33413 4.28959C7.27535 4.3353 7.23456 4.40354 7.22516 4.48242L6.53138 10.3052C6.51865 10.412 6.56645 10.5167 6.65985 10.5701C6.92096 10.7194 7.48708 11 8.05321 11C8.61933 11 9.18545 10.7194 9.44657 10.5701C9.53997 10.5167 9.58776 10.412 9.57503 10.3052L8.88125 4.48242C8.87186 4.40354 8.83107 4.3353 8.77228 4.28959C8.83602 4.24967 8.88351 4.18516 8.9005 4.10751L9.09393 3.22364C9.13313 3.0445 8.99672 2.875 8.81334 2.875H7.29308Z" fill="#A7A7A7"/>
<path d="M3.25964 6.00642C3.28543 5.9239 3.37465 5.87747 3.45892 5.90272C3.5432 5.92797 3.59061 6.01534 3.56482 6.09785C3.5202 6.24063 3.5202 6.4515 3.56943 6.72739C3.58831 6.83322 3.61075 6.91493 3.63836 6.98711C3.64935 7.01586 3.66073 7.04218 3.67592 7.07484C3.66916 7.0603 3.70625 7.13908 3.71527 7.15949C3.76296 7.26744 3.78405 7.36204 3.78405 7.50064C3.78405 7.58693 3.71261 7.65689 3.62448 7.65689C3.53635 7.65689 3.4649 7.58693 3.4649 7.50064C3.4649 7.40593 3.45318 7.35334 3.42235 7.28357C3.41509 7.26713 3.38045 7.19355 3.38549 7.20439C3.36748 7.16569 3.35338 7.13305 3.33948 7.0967C3.30484 7.00614 3.27726 6.90575 3.25504 6.78117C3.19793 6.46109 3.19793 6.20387 3.25964 6.00642Z" fill="#73BE4A"/>
<path fill-rule="evenodd" clip-rule="evenodd" d="M8.10638 8.08957L6.04914 9.49131L6.77491 7.14235L4.77769 5.65971L7.28348 5.60971L8.10638 3.29166L8.92928 5.60971L11.4351 5.65971L9.43786 7.14235L10.1636 9.49131L8.10638 8.08957Z" fill="#F7FCFF"/>
<path d="M12.7797 6.21473C12.7539 6.13221 12.6647 6.08579 12.5804 6.11104C12.4962 6.13629 12.4488 6.22365 12.4745 6.30617C12.5192 6.44894 12.5192 6.65981 12.4699 6.93571C12.4511 7.04153 12.4286 7.12324 12.401 7.19542C12.39 7.22418 12.3786 7.25049 12.3634 7.28316C12.3702 7.26861 12.3331 7.34739 12.3241 7.36781C12.2764 7.47575 12.2553 7.57035 12.2553 7.70895C12.2553 7.79525 12.3268 7.8652 12.4149 7.8652C12.503 7.8652 12.5745 7.79525 12.5745 7.70895C12.5745 7.61424 12.5862 7.56166 12.617 7.49189C12.6243 7.47545 12.6589 7.40186 12.6539 7.41271C12.6719 7.374 12.686 7.34137 12.6999 7.30501C12.7345 7.21445 12.7621 7.11406 12.7843 6.98948C12.8414 6.66941 12.8414 6.41218 12.7797 6.21473Z" fill="#73BE4A"/>
<path d="M8.03046 1.57379C8.03046 1.57379 8.61265 1.83316 8.36121 2.24154" stroke="#73BE4A" stroke-width="0.5" stroke-linecap="round" stroke-linejoin="round"/>
<path d="M8.45599 1.57379C8.45599 1.57379 9.03819 1.83316 8.78675 2.24154" stroke="#73BE4A" stroke-width="0.5" stroke-linecap="round" stroke-linejoin="round"/>
<path d="M4.6299 3.17838C4.67211 3.10531 4.76077 3.08332 4.82792 3.12924C4.89507 3.17516 4.91529 3.27162 4.87308 3.34468C4.7921 3.48485 4.74994 3.67717 4.74994 3.92377C4.74994 4.01007 4.68564 4.08002 4.60632 4.08002C4.52701 4.08002 4.46271 4.01007 4.46271 3.92377C4.46271 3.6224 4.51733 3.37322 4.6299 3.17838Z" fill="#73BE4A"/>
<path d="M4.40424 4.60626C4.40424 4.69255 4.33994 4.76251 4.26062 4.76251C4.1813 4.76251 4.117 4.69255 4.117 4.60626V4.16117C4.117 3.84624 4.1664 3.59823 4.27057 3.41711C4.31264 3.34396 4.40125 3.32176 4.46849 3.36753C4.53573 3.41331 4.55614 3.50972 4.51406 3.58287C4.44263 3.70707 4.40424 3.89984 4.40424 4.16117V4.60626Z" fill="#73BE4A"/>
<path d="M11.7421 4.39795C11.7421 4.48424 11.8064 4.5542 11.8857 4.5542C11.965 4.5542 12.0293 4.48424 12.0293 4.39795V3.95286C12.0293 3.63793 11.9799 3.38991 11.8757 3.2088C11.8337 3.13564 11.745 3.11345 11.6778 3.15922C11.6106 3.20499 11.5902 3.3014 11.6322 3.37456C11.7037 3.49876 11.7421 3.69153 11.7421 3.95286V4.39795Z" fill="#73BE4A"/>
<path d="M12.1676 5.1271C12.1676 5.2134 12.2319 5.28335 12.3112 5.28335C12.3905 5.28335 12.4548 5.2134 12.4548 5.1271V4.68202C12.4548 4.36709 12.4054 4.11907 12.3013 3.93795C12.2592 3.8648 12.1706 3.8426 12.1033 3.88838C12.0361 3.93415 12.0157 4.03056 12.0578 4.10371C12.1292 4.22791 12.1676 4.42068 12.1676 4.68202V5.1271Z" fill="#73BE4A"/>
</g>
<defs>
<clipPath id="clip0_8_24124">
<rect width="16" height="12" fill="white"/>
</clipPath>
</defs>
</svg>
