<svg width="16" height="12" viewBox="0 0 16 12" fill="none" xmlns="http://www.w3.org/2000/svg">
<g clip-path="url(#clip0_8_24214)">
<rect width="16" height="12" fill="white"/>
<rect width="16" height="12" fill="#21428E"/>
<path fill-rule="evenodd" clip-rule="evenodd" d="M7 0H9V5H16V7H9V12H7V7H0V5H7V0Z" fill="#F7FCFF"/>
<path d="M1.27775 3.17002C1.26454 3.16789 1.25191 3.16578 1.23999 3.16371C1.25299 3.16371 1.2655 3.16592 1.27775 3.17002C1.4995 3.20574 1.88787 3.24681 1.9248 3.16371C1.97373 3.05365 2.15716 2.54003 2.81753 2.55226C3.47789 2.56449 4.02819 2.42998 4.02819 2.00196C4.02819 1.5665 3.83253 1.54949 3.4412 1.65955C3.04988 1.76961 2.40641 1.69128 2.38951 1.43943C2.3783 1.27224 1.63547 1.36807 1.64147 1.23518C1.64374 1.18494 2.31951 1.17822 2.40695 1.07691C2.47145 0.913718 2.64749 0.820449 3.06211 0.827987C3.7347 0.840216 4.61518 1.06034 4.70079 1.65955C4.79862 2.34437 4.79862 2.77239 4.02819 2.94359C3.29989 3.10543 3.06211 3.06588 3.17217 3.16371C3.40519 3.37085 4.70079 2.95582 5.17772 3.16371C5.45819 3.28598 5.55681 4.06866 4.62741 4.08089C3.69801 4.09311 3.03765 4.22763 2.56072 3.86076C2.08379 3.4939 2.36504 3.64064 1.9248 3.56726C1.52057 3.49989 1.41534 3.216 1.27775 3.17002Z" fill="white"/>
<path d="M1.27775 10.2478C1.26454 10.2457 1.25191 10.2436 1.23999 10.2415C1.25299 10.2415 1.2655 10.2437 1.27775 10.2478C1.4995 10.2836 1.88787 10.3246 1.9248 10.2415C1.97373 10.1315 2.15716 9.61785 2.81753 9.63008C3.47789 9.64231 4.02819 9.5078 4.02819 9.07978C4.02819 8.64432 3.83253 8.62731 3.4412 8.73737C3.04988 8.84743 2.40641 8.7691 2.38951 8.51725C2.3783 8.35006 1.63547 8.44589 1.64147 8.313C1.64374 8.26276 2.31951 8.25604 2.40695 8.15473C2.47145 7.99154 2.64749 7.89827 3.06211 7.90581C3.7347 7.91804 4.61518 8.13816 4.70079 8.73737C4.79862 9.42219 4.79862 9.85021 4.02819 10.0214C3.29989 10.1833 3.06211 10.1437 3.17217 10.2415C3.40519 10.4487 4.70079 10.0336 5.17772 10.2415C5.45819 10.3638 5.55681 11.1465 4.62741 11.1587C3.69801 11.1709 3.03765 11.3055 2.56072 10.9386C2.08379 10.5717 2.36504 10.7185 1.9248 10.6451C1.52057 10.5777 1.41534 10.2938 1.27775 10.2478Z" fill="white"/>
<path d="M10.4499 3.17002C10.4367 3.16789 10.4241 3.16578 10.4122 3.16371C10.4252 3.16371 10.4377 3.16592 10.4499 3.17002C10.6717 3.20574 11.06 3.24681 11.097 3.16371C11.1459 3.05365 11.3293 2.54003 11.9897 2.55226C12.6501 2.56449 13.2004 2.42998 13.2004 2.00196C13.2004 1.5665 13.0047 1.54949 12.6134 1.65955C12.2221 1.76961 11.5786 1.69128 11.5617 1.43943C11.5505 1.27224 10.8076 1.36807 10.8137 1.23518C10.8159 1.18494 11.4917 1.17822 11.5791 1.07691C11.6436 0.913718 11.8197 0.820449 12.2343 0.827987C12.9069 0.840216 13.7874 1.06034 13.873 1.65955C13.9708 2.34437 13.9708 2.77239 13.2004 2.94359C12.4721 3.10543 12.2343 3.06588 12.3443 3.16371C12.5774 3.37085 13.873 2.95582 14.3499 3.16371C14.6304 3.28598 14.729 4.06866 13.7996 4.08089C12.8702 4.09311 12.2098 4.22763 11.7329 3.86076C11.256 3.4939 11.5372 3.64064 11.097 3.56726C10.6928 3.49989 10.5875 3.216 10.4499 3.17002Z" fill="white"/>
<path d="M10.4499 10.2478C10.4367 10.2457 10.4241 10.2436 10.4122 10.2415C10.4252 10.2415 10.4377 10.2437 10.4499 10.2478C10.6717 10.2836 11.06 10.3246 11.097 10.2415C11.1459 10.1315 11.3293 9.61785 11.9897 9.63008C12.6501 9.64231 13.2004 9.5078 13.2004 9.07978C13.2004 8.64432 13.0047 8.62731 12.6134 8.73737C12.2221 8.84743 11.5786 8.7691 11.5617 8.51725C11.5505 8.35006 10.8076 8.44589 10.8137 8.313C10.8159 8.26276 11.4917 8.25604 11.5791 8.15473C11.6436 7.99154 11.8197 7.89827 12.2343 7.90581C12.9069 7.91804 13.7874 8.13816 13.873 8.73737C13.9708 9.42219 13.9708 9.85021 13.2004 10.0214C12.4721 10.1833 12.2343 10.1437 12.3443 10.2415C12.5774 10.4487 13.873 10.0336 14.3499 10.2415C14.6304 10.3638 14.729 11.1465 13.7996 11.1587C12.8702 11.1709 12.2098 11.3055 11.7329 10.9386C11.256 10.5717 11.5372 10.7185 11.097 10.6451C10.6928 10.5777 10.5875 10.2938 10.4499 10.2478Z" fill="white"/>
</g>
<defs>
<clipPath id="clip0_8_24214">
<rect width="16" height="12" fill="white"/>
</clipPath>
</defs>
</svg>
