<svg width="16" height="12" viewBox="0 0 16 12" fill="none" xmlns="http://www.w3.org/2000/svg">
<g clip-path="url(#clip0_8_24229)">
<rect width="16" height="12" fill="white"/>
<path fill-rule="evenodd" clip-rule="evenodd" d="M0 0V12H16V0H0Z" fill="#E11C1B"/>
<mask id="mask0_8_24229" style="mask-type:luminance" maskUnits="userSpaceOnUse" x="0" y="0" width="16" height="12">
<path fill-rule="evenodd" clip-rule="evenodd" d="M0 0V12H16V0H0Z" fill="white"/>
</mask>
<g mask="url(#mask0_8_24229)">
<path fill-rule="evenodd" clip-rule="evenodd" d="M0 0V5H16V0H0Z" fill="#272727"/>
<path fill-rule="evenodd" clip-rule="evenodd" d="M0 8V12H16V8H0Z" fill="#5EAA22"/>
<path fill-rule="evenodd" clip-rule="evenodd" d="M2.00083 6.97293V6.97171L1.99615 6.97251L2.00083 6.97293ZM2.31506 5.06339H2.36655L2.28763 5.0513L2.31506 5.06339ZM3.77882 5.06339C3.805 5.01307 3.83233 4.96329 3.86079 4.91409L2.71606 4.15633L4.06625 4.59555C4.14176 4.48995 4.22273 4.38757 4.3088 4.2887L3.31659 3.34404L4.58101 4.00386C4.67376 3.91529 4.77098 3.83027 4.87236 3.74908L4.06991 2.64055L5.20318 3.5075C5.30861 3.43742 5.41757 3.37112 5.52981 3.30884L4.95182 2.06846L5.90914 3.11932C6.02323 3.06831 6.14005 3.02122 6.25937 2.97826L5.93396 1.64617L6.67523 2.84814C6.79456 2.81625 6.91594 2.78835 7.03914 2.76463L6.98476 1.38723L7.47783 2.69894C7.59958 2.68581 7.72277 2.67671 7.84723 2.67179L8.07047 1.29999L8.29377 2.67219C8.41808 2.67733 8.54113 2.68664 8.66272 2.69997L9.15617 1.38723L9.10172 2.76653C9.22448 2.7904 9.34541 2.81842 9.46431 2.85041L10.207 1.64617L9.88077 2.98153C9.99938 3.02449 10.1155 3.07153 10.2289 3.12246L11.1891 2.06846L10.6091 3.31319C10.7204 3.37525 10.8286 3.44127 10.9332 3.51101L12.071 2.64055L11.265 3.75408C11.3653 3.83478 11.4616 3.91924 11.5535 4.00718L12.8243 3.34404L11.8267 4.29384C11.9119 4.39193 11.9919 4.49346 12.0667 4.59815L13.4249 4.15633L12.273 4.91881C12.3005 4.96648 12.3269 5.01468 12.3523 5.06339H11.3698C10.6928 4.12489 9.45529 3.49657 8.04092 3.49657C6.62655 3.49657 5.38909 4.12489 4.71204 5.06339H3.77882ZM5.27984 5.06339C5.92129 4.4018 6.92848 3.97552 8.06101 3.97552C9.19354 3.97552 10.2007 4.4018 10.8422 5.06339H5.27984ZM13.7744 5.06339H13.8259L13.8533 5.0513L13.7744 5.06339ZM14.1408 6.97183L14.1448 6.97251L14.1408 6.97286V6.97183Z" fill="#E11C1B"/>
</g>
</g>
<defs>
<clipPath id="clip0_8_24229">
<rect width="16" height="12" fill="white"/>
</clipPath>
</defs>
</svg>
