<svg width="16" height="12" viewBox="0 0 16 12" fill="none" xmlns="http://www.w3.org/2000/svg">
<g clip-path="url(#clip0_8_24249)">
<rect width="16" height="12" fill="white"/>
<path fill-rule="evenodd" clip-rule="evenodd" d="M11 0H16V12H11V0Z" fill="#D9071E"/>
<path fill-rule="evenodd" clip-rule="evenodd" d="M0 0H6V12H0V0Z" fill="#006923"/>
<path fill-rule="evenodd" clip-rule="evenodd" d="M5 0H11V12H5V0Z" fill="white"/>
<path fill-rule="evenodd" clip-rule="evenodd" d="M7.19206 3.9567C7.19206 3.9567 6.84867 4.22302 6.91289 4.50696C6.97711 4.7909 7.65386 4.50696 7.57205 4.23183C7.49024 3.9567 7.19206 3.9567 7.19206 3.9567Z" fill="#FCCA3D"/>
<path fill-rule="evenodd" clip-rule="evenodd" d="M6.66767 4.63405C6.41073 4.63405 6.30361 4.41993 6.35675 4.19235C6.38516 4.07073 6.45892 3.91644 6.57929 3.71597L7.00796 3.97336C6.96207 4.04979 6.92549 4.11613 6.89836 4.1709C6.98823 4.19744 7.07682 4.23688 7.14892 4.28436C7.38237 4.43809 7.46831 4.71201 7.21802 4.91502C7.16958 4.95431 7.09098 5.08827 7.04759 5.21692C7.16701 5.22357 7.25237 5.24153 7.33105 5.28808C7.55205 5.4188 7.53126 5.65721 7.36296 5.84131C7.24368 5.9718 7.08442 6.07765 6.93438 6.13187C6.68475 6.22208 6.41767 6.18753 6.41767 5.86795L6.4176 5.86561C6.41711 5.8526 6.41628 5.83035 6.52776 5.82783L6.54947 5.8276L6.54187 5.82755L6.52776 5.82783C6.33754 5.82513 6.29683 5.72443 6.27311 5.54512C6.2671 5.4997 6.26467 5.45647 6.26133 5.36318L6.25911 5.30247L6.25643 5.24335L6.25563 5.2302C6.25187 5.17248 6.24927 5.13251 6.37866 5.13251H6.08862V4.63251H6.37866C6.54316 4.63251 6.63406 4.68806 6.68616 4.80291C6.71516 4.75083 6.7467 4.7018 6.77991 4.65784C6.73808 4.64337 6.69567 4.63405 6.66767 4.63405ZM6.98614 5.51229L6.99392 5.50397C6.99307 5.5049 6.99223 5.50609 6.99142 5.50751L6.98614 5.51229ZM6.76781 5.66053C6.76725 5.66065 6.76697 5.66071 6.76708 5.66067L6.76791 5.66051L6.76781 5.66053ZM6.76776 5.47205L6.76879 5.47954L6.76716 5.46507L6.76776 5.47205Z" fill="#A8AC71"/>
<path fill-rule="evenodd" clip-rule="evenodd" d="M9.63322 6.20145C9.63322 6.20145 10.0957 4.83077 9.36053 4.12126C8.62534 3.41174 7.77579 3.45922 7.77579 3.45922C7.77579 3.45922 7.53114 3.64099 7.77579 3.77962C8.02044 3.91825 7.91794 4.05117 7.91794 4.05117C7.91794 4.05117 7.50822 3.63515 7.23623 3.8782C6.96424 4.12126 7.49013 4.08426 7.43446 4.26727C7.37879 4.45028 7.14294 5.26281 7.48757 5.67303C7.8322 6.08326 7.16173 5.99423 7.2981 5.99423C7.43446 5.99423 7.91794 6.08972 7.91794 5.99423C7.91794 5.89874 8.08602 6.36547 8.22987 6.36547C8.37371 6.36547 8.48474 6.20145 8.48474 6.20145C8.48474 6.20145 8.68638 6.36547 8.80924 6.36547C8.9321 6.36547 9.36053 6.25813 9.36053 6.25813L8.55079 5.57587C8.55079 5.57587 8.5996 5.27494 8.48474 5.2098C8.36987 5.14467 9.40562 5.78702 9.48673 5.99423C9.56784 6.20145 9.63322 6.20145 9.63322 6.20145Z" fill="#8F4620"/>
<path d="M5.53323 5.86329C5.53323 5.86329 5.6083 5.62401 5.68868 5.6074C5.75832 5.59301 5.90475 5.72207 5.90475 5.72207C6.16487 7.167 6.79383 7.73136 7.83746 7.73136C8.89337 7.73136 9.53333 7.30252 9.90679 5.96989C9.90679 5.96989 10.1053 5.76714 10.1754 5.78968C10.2516 5.81422 10.3472 6.08246 10.3472 6.08246C10.2516 7.64077 9.12659 8.56448 7.85476 8.56448C6.57066 8.56448 5.5222 7.52947 5.53323 5.86329Z" fill="#9FAB2F"/>
<path fill-rule="evenodd" clip-rule="evenodd" d="M6.66711 6.82822C6.66711 6.82822 8.16929 7.14689 8.76221 7.14689C9.35513 7.14689 8.24198 7.63079 7.80765 7.63079C7.37331 7.63079 6.66711 6.82822 6.66711 6.82822Z" fill="#2FC2DC"/>
<rect x="7.33331" y="7.05002" width="1" height="0.535714" rx="0.0833333" fill="#F9AA51"/>
<path d="M6.08777 6.06796L6.49708 5.78079C7.0298 6.5401 7.82645 6.7899 8.94066 6.52919L9.05458 7.01604C7.75207 7.32081 6.74526 7.00512 6.08777 6.06796Z" fill="#259485"/>
<path fill-rule="evenodd" clip-rule="evenodd" d="M8.29564 6.17514C8.29564 6.17514 7.68881 6.49458 7.89108 6.49458C8.09336 6.49458 8.88501 6.6543 8.73097 6.49458C8.57692 6.33486 8.29564 6.17514 8.29564 6.17514Z" fill="#FCCA3D"/>
<path fill-rule="evenodd" clip-rule="evenodd" d="M7.5782 5.79412C7.5782 5.79412 7.4629 5.46109 7.22295 5.46109C6.98301 5.46109 7.05074 5.73428 6.93535 5.73428C6.81997 5.73428 7.04287 5.92652 7.14222 5.92652C7.24157 5.92652 7.5782 5.79412 7.5782 5.79412Z" fill="#FCCA3D"/>
</g>
<defs>
<clipPath id="clip0_8_24249">
<rect width="16" height="12" fill="white"/>
</clipPath>
</defs>
</svg>
