<svg width="16" height="12" viewBox="0 0 16 12" fill="none" xmlns="http://www.w3.org/2000/svg">
<g clip-path="url(#clip0_8_24172)">
<rect width="16" height="12" fill="white"/>
<path fill-rule="evenodd" clip-rule="evenodd" d="M0 0V12H16V0H0Z" fill="#F50101"/>
<mask id="mask0_8_24172" style="mask-type:luminance" maskUnits="userSpaceOnUse" x="0" y="0" width="16" height="12">
<path fill-rule="evenodd" clip-rule="evenodd" d="M0 0V12H16V0H0Z" fill="white"/>
</mask>
<g mask="url(#mask0_8_24172)">
<path fill-rule="evenodd" clip-rule="evenodd" d="M0 0V4H16V0H0Z" fill="#F7FCFF"/>
<path fill-rule="evenodd" clip-rule="evenodd" d="M0 8V12H16V8H0Z" fill="#5EAA22"/>
<rect width="6" height="12" fill="#F50101"/>
<path fill-rule="evenodd" clip-rule="evenodd" d="M5.38519 1.01645C5.38992 0.970839 5.33158 0.953292 5.30832 0.992807C5.12688 1.30103 4.67209 2.03425 3.92346 2.99309V2.53425C3.85205 2.45664 3.6244 2.24785 3.6244 2.24785V1.78969L4.03624 1.417L3.4706 1.00002L2.87443 1.417L3.32506 1.78969V2.24785C3.32506 2.46755 3.05186 2.53425 3.05186 2.53425L3.00184 2.9384C2.30537 2.034 1.87114 1.32883 1.68726 1.01365C1.66353 0.972971 1.60384 0.992131 1.61085 1.0387C1.66635 1.40728 1.83235 2.22508 2.29089 3.09825H2.16791V3.08199C2.16791 3.05797 2.14845 3.03851 2.12443 3.03851H1.07008C1.04607 3.03851 1.02661 3.05797 1.02661 3.08199V3.74503C1.02661 3.76904 1.04607 3.78851 1.07008 3.78851H2.12443C2.14845 3.78851 2.16791 3.76904 2.16791 3.74503V3.39693H2.30069C2.34573 3.50078 2.44916 3.57397 2.57011 3.5761C2.65461 3.70646 2.74624 3.83647 2.8456 3.96485C2.61703 3.94224 1.10635 3.81363 1.10635 4.36322C1.10635 4.69127 1.47379 4.86491 1.93461 4.95467C1.47062 5.37484 1.03266 5.77018 0.831155 5.95198C0.79846 5.98148 0.824017 6.03257 0.866758 6.02198C1.2266 5.9328 2.16983 5.65766 3.06774 5.0451L3.09571 5.04514C3.34859 5.04514 3.52447 4.93544 3.64672 4.78696C4.55998 5.53241 5.59318 5.8767 6.04168 6.00006C6.08821 6.01286 6.11337 5.95263 6.07372 5.92511C5.70943 5.67225 4.88799 5.06371 4.04805 4.1798L4.07008 4.154C4.24145 3.95177 4.39077 3.74376 4.52088 3.53518C4.57532 3.50335 4.61867 3.45492 4.64382 3.39693H4.77661L4.77661 3.74503C4.77661 3.76904 4.79607 3.78851 4.82008 3.78851H5.87443C5.89844 3.78851 5.91791 3.76904 5.91791 3.74503V3.08199C5.91791 3.05797 5.89844 3.03851 5.87443 3.03851H4.82008C4.80895 3.03851 4.79879 3.04269 4.7911 3.04958C5.22227 2.17683 5.34884 1.36702 5.38519 1.01645ZM4.77661 3.09825L4.77661 3.08199L4.77675 3.07843L4.76677 3.09825H4.77661ZM2.82008 3.28044C2.82008 3.41406 2.71059 3.52238 2.57552 3.52238C2.44045 3.52238 2.33095 3.41406 2.33095 3.28044C2.33095 3.14683 2.44045 3.03851 2.57552 3.03851C2.71059 3.03851 2.82008 3.14683 2.82008 3.28044ZM4.12443 3.28044C4.12443 3.41406 4.23393 3.52238 4.369 3.52238C4.50407 3.52238 4.61356 3.41406 4.61356 3.28044C4.61356 3.14683 4.50407 3.03851 4.369 3.03851C4.23393 3.03851 4.12443 3.14683 4.12443 3.28044Z" fill="#F7FCFF"/>
</g>
</g>
<defs>
<clipPath id="clip0_8_24172">
<rect width="16" height="12" fill="white"/>
</clipPath>
</defs>
</svg>
