<svg width="16" height="12" viewBox="0 0 16 12" fill="none" xmlns="http://www.w3.org/2000/svg">
<g clip-path="url(#clip0_8_24138)">
<rect width="16" height="12" fill="white"/>
<path fill-rule="evenodd" clip-rule="evenodd" d="M0 0V12H16V0H0Z" fill="#F7FCFF"/>
<mask id="mask0_8_24138" style="mask-type:luminance" maskUnits="userSpaceOnUse" x="0" y="0" width="16" height="12">
<path fill-rule="evenodd" clip-rule="evenodd" d="M0 0V12H16V0H0Z" fill="white"/>
</mask>
<g mask="url(#mask0_8_24138)">
<path fill-rule="evenodd" clip-rule="evenodd" d="M0 0V3H16V0H0Z" fill="#BF2714"/>
<path fill-rule="evenodd" clip-rule="evenodd" d="M0 9V12H16V9H0Z" fill="#BF2714"/>
<mask id="mask1_8_24138" style="mask-type:luminance" maskUnits="userSpaceOnUse" x="5" y="3" width="6" height="6">
<path fill-rule="evenodd" clip-rule="evenodd" d="M8 9C9.65685 9 11 7.65685 11 6C11 4.34315 9.65685 3 8 3C6.34315 3 5 4.34315 5 6C5 7.65685 6.34315 9 8 9Z" fill="white"/>
</mask>
<g mask="url(#mask1_8_24138)">
<path fill-rule="evenodd" clip-rule="evenodd" d="M7.019 6.6876L7.23875 3.0745C5.95054 3.33894 5 4.31376 5 6.10202C5 7.04537 5.627 6.93306 6.55266 6.76726C6.7009 6.7407 6.85679 6.71278 7.019 6.6876ZM8.44716 3.02692L8.95816 6.69933C9.14281 6.73303 9.31941 6.77146 9.48601 6.80771C10.3904 7.0045 11 7.13714 11 6.10202C11 4.25665 9.89193 3.20441 8.44716 3.02692Z" fill="#FA8F21"/>
<path fill-rule="evenodd" clip-rule="evenodd" d="M8 9C9.65685 9 11 8.10457 11 7C11 5.89543 9.65685 5 8 5C6.34315 5 5 5.89543 5 7C5 8.10457 6.34315 9 8 9Z" fill="#5277B9"/>
<path fill-rule="evenodd" clip-rule="evenodd" d="M5.27437 6.88238C5.247 6.79665 5.3396 6.72222 5.41744 6.76739L5.60429 6.87582C5.63216 6.89199 5.66618 6.89349 5.69536 6.87983L6.15659 6.66387C6.18892 6.64873 6.22692 6.6523 6.25587 6.67319L6.75411 7.03279L7.44284 6.66197C7.46938 6.64768 7.50101 6.64635 7.52866 6.65836L8.04737 6.8837C8.07359 6.89509 8.10347 6.89451 8.12923 6.88211L8.59457 6.65811C8.61941 6.64615 8.64812 6.64516 8.67372 6.65539L9.24944 6.88536C9.27539 6.89572 9.30451 6.89456 9.32955 6.88218L9.77551 6.66155C9.80371 6.6476 9.83688 6.64798 9.86475 6.66257L10.2738 6.87678C10.3034 6.89227 10.3388 6.89169 10.3679 6.87522L10.5806 6.75472C10.6565 6.71176 10.7466 6.78134 10.7242 6.86556L10.6797 7.03279H5.32239L5.27437 6.88238Z" fill="#5277B9"/>
<path fill-rule="evenodd" clip-rule="evenodd" d="M5.27249 7.47531C5.24592 7.38905 5.33985 7.31555 5.41719 7.36207L5.58718 7.46431C5.61568 7.48145 5.65091 7.48303 5.68082 7.46851L6.11944 7.25565C6.15254 7.23958 6.19184 7.24334 6.2213 7.26538L6.69928 7.62293L7.36111 7.2536C7.38829 7.23843 7.42105 7.23703 7.44943 7.2498L7.9443 7.47263C7.97123 7.48475 8.00218 7.48414 8.0286 7.47096L8.47243 7.24951C8.49792 7.23679 8.52766 7.23575 8.55397 7.24664L9.10406 7.47439C9.13072 7.48543 9.16089 7.4842 9.18656 7.47103L9.61142 7.25317C9.64032 7.23835 9.67468 7.23876 9.70322 7.25425L10.092 7.46529C10.1223 7.48173 10.159 7.48112 10.1888 7.46366L10.3838 7.34914C10.4592 7.30485 10.5506 7.37366 10.5289 7.45839L10.4867 7.62293H5.31796L5.27249 7.47531Z" fill="#5277B9"/>
<path fill-rule="evenodd" clip-rule="evenodd" d="M5.37082 7.86874C5.34425 7.78248 5.43818 7.70898 5.51552 7.7555L5.68551 7.85774C5.71401 7.87488 5.74923 7.87646 5.77915 7.86194L6.21777 7.64908C6.25087 7.63302 6.29017 7.63677 6.31963 7.65881L6.79761 8.01637L7.45944 7.64703C7.48662 7.63187 7.51937 7.63046 7.54775 7.64324L8.04263 7.86606C8.06956 7.87819 8.1005 7.87757 8.12693 7.86439L8.57076 7.64294C8.59625 7.63023 8.62599 7.62918 8.6523 7.64007L9.20239 7.86782C9.22905 7.87886 9.25921 7.87763 9.28489 7.86446L9.70975 7.64661C9.73865 7.63179 9.77301 7.63219 9.80155 7.64768L10.1904 7.85872C10.2207 7.87517 10.2574 7.87455 10.2871 7.85709L10.4821 7.74257C10.5576 7.69828 10.6489 7.7671 10.6272 7.85182L10.585 8.01637H5.41629L5.37082 7.86874Z" fill="#5277B9"/>
<path fill-rule="evenodd" clip-rule="evenodd" d="M5.96097 8.26224C5.9344 8.17598 6.02832 8.10247 6.10567 8.14899L6.27566 8.25124C6.30415 8.26838 6.33938 8.26996 6.3693 8.25544L6.80792 8.04257C6.84102 8.02651 6.88032 8.03026 6.90978 8.0523L7.38776 8.40986L8.04959 8.04053C8.07677 8.02536 8.10952 8.02395 8.1379 8.03673L8.63278 8.25956C8.6597 8.27168 8.69065 8.27107 8.71708 8.25788L9.16091 8.03643C9.18639 8.02372 9.21614 8.02267 9.24245 8.03357L9.79253 8.26131C9.8192 8.27235 9.84936 8.27112 9.87504 8.25796L10.2999 8.0401C10.3288 8.02528 10.3632 8.02568 10.3917 8.04118L10.7805 8.25221C10.8108 8.26866 10.8475 8.26804 10.8772 8.25059L11.0723 8.13606C11.1477 8.09178 11.2391 8.16059 11.2174 8.24531L11.1752 8.40986H6.00644L5.96097 8.26224Z" fill="#5277B9"/>
<path fill-rule="evenodd" clip-rule="evenodd" d="M5.1741 8.754C5.14754 8.66774 5.24146 8.59423 5.3188 8.64075L5.48879 8.743C5.51729 8.76014 5.55252 8.76172 5.58244 8.7472L6.02105 8.53433C6.05415 8.51827 6.09345 8.52202 6.12291 8.54406L6.60089 8.90162L7.26272 8.53229C7.2899 8.51712 7.32266 8.51571 7.35104 8.52849L7.84591 8.75132C7.87284 8.76344 7.90379 8.76283 7.93021 8.74964L8.37405 8.52819C8.39953 8.51548 8.42927 8.51443 8.45559 8.52533L9.00567 8.75307C9.03233 8.76411 9.0625 8.76289 9.08818 8.74972L9.51303 8.53186C9.54193 8.51704 9.57629 8.51744 9.60483 8.53294L9.99365 8.74397C10.0239 8.76042 10.0606 8.7598 10.0904 8.74235L10.2854 8.62782C10.3608 8.58354 10.4522 8.65235 10.4305 8.73707L10.3883 8.90162H5.21958L5.1741 8.754Z" fill="#5277B9"/>
<path d="M6.33362 4.72296H6.83362L6.82203 6.69901C6.90597 6.96507 7.02573 7.06902 7.21127 7.06902V7.56902C6.78911 7.56902 6.49043 7.30978 6.33362 6.77424V4.72296Z" fill="#FF0000"/>
<path d="M9.59589 4.72296H9.09589L9.10747 6.69901C9.02353 6.96507 8.90377 7.06902 8.71823 7.06902V7.56902C9.14039 7.56902 9.43907 7.30978 9.59589 6.77424V4.72296Z" fill="#FF0000"/>
<path fill-rule="evenodd" clip-rule="evenodd" d="M8.3624 3.45435C8.3624 3.45435 7.53296 3.23746 7.53296 3.78743C7.53296 4.3374 7.53296 5.51851 7.53296 5.51851L8.49994 5.80568V4.39077C8.49994 4.39077 8.01645 4.09534 8.01645 3.86431C8.01645 3.63327 8.3624 3.45435 8.3624 3.45435Z" fill="#FF0000"/>
<path d="M6.96686 6.44533L7.2822 6.04236" stroke="black" stroke-width="0.5"/>
<path d="M7.25443 6.43204L6.95227 6.02667" stroke="black" stroke-width="0.5"/>
<path d="M7.41931 6.44533L7.73466 6.04236" stroke="black" stroke-width="0.5"/>
<path d="M7.70688 6.43204L7.40472 6.02667" stroke="black" stroke-width="0.5"/>
<path d="M7.85205 6.44533L8.1674 6.04236" stroke="black" stroke-width="0.5"/>
<path d="M8.13962 6.43204L7.83746 6.02667" stroke="black" stroke-width="0.5"/>
<path d="M8.3045 6.44533L8.61985 6.04236" stroke="black" stroke-width="0.5"/>
<path d="M8.59207 6.43204L8.28992 6.02667" stroke="black" stroke-width="0.5"/>
<path d="M8.75702 6.44533L9.07236 6.04236" stroke="black" stroke-width="0.5"/>
<path d="M9.04459 6.43204L8.74243 6.02667" stroke="black" stroke-width="0.5"/>
</g>
</g>
</g>
<defs>
<clipPath id="clip0_8_24138">
<rect width="16" height="12" fill="white"/>
</clipPath>
</defs>
</svg>
