<svg width="16" height="12" viewBox="0 0 16 12" fill="none" xmlns="http://www.w3.org/2000/svg">
<g clip-path="url(#clip0_8_24090)">
<rect width="16" height="12" fill="white"/>
<path fill-rule="evenodd" clip-rule="evenodd" d="M0 0V12H16V0H0Z" fill="#2E42A5"/>
<g clip-path="url(#clip1_8_24090)">
<rect width="9" height="7" fill="#2E42A5"/>
<path d="M-1.00214 6.49993L0.978339 7.36853L9.04494 0.944391L10.0896 -0.346375L7.97176 -0.636686L4.68159 2.13166L2.03334 3.99688L-1.00214 6.49993Z" fill="#F7FCFF"/>
<path d="M-0.731018 7.10849L0.277943 7.61255L9.71445 -0.466309H8.29775L-0.731018 7.10849Z" fill="#F50100"/>
<path d="M10.0021 6.49993L8.02166 7.36853L-0.0449371 0.944391L-1.08959 -0.346375L1.02824 -0.636686L4.31841 2.13166L6.96666 3.99688L10.0021 6.49993Z" fill="#F7FCFF"/>
<path d="M9.93457 6.93667L8.92561 7.44073L4.90745 3.98176L3.71615 3.59529L-1.1901 -0.341973H0.226597L5.13009 3.50184L6.43256 3.96525L9.93457 6.93667Z" fill="#F50100"/>
<path fill-rule="evenodd" clip-rule="evenodd" d="M4.99226 0H3.99226V3H0V4H3.99226V7H4.99226V4H9V3H4.99226V0Z" fill="#F50100"/>
<path fill-rule="evenodd" clip-rule="evenodd" d="M3.24226 -0.75H5.74226V2.25H9.75V4.75H5.74226V7.75H3.24226V4.75H-0.75V2.25H3.24226V-0.75ZM3.99226 3H0V4H3.99226V7H4.99226V4H9V3H4.99226V0H3.99226V3Z" fill="#F7FCFF"/>
</g>
<path fill-rule="evenodd" clip-rule="evenodd" d="M10.308 5.83451C10.308 5.83451 10.3574 6.35449 10.2492 6.64913C10.1409 6.94377 10.0859 7.1148 10.0859 6.92646C10.0859 6.73813 10.0099 6.58887 9.94877 6.58887C9.88763 6.58887 9.93589 6.77564 9.87445 6.77564C9.81301 6.77564 9.60133 6.80775 9.60133 6.69831C9.60133 6.58887 9.57348 6.9919 9.71083 7.02794C9.84819 7.06398 9.64414 7.17582 9.55304 7.14118C9.55304 7.14118 9.92776 7.25689 10.0747 7.35549C10.0747 7.35549 10.5152 7.87792 10.9272 7.81419C10.9272 7.81419 10.3662 7.6302 10.465 7.27867C10.5639 6.92714 10.9272 6.87629 10.9272 6.87629C10.9272 6.87629 11.0977 6.93046 11.0926 7.07236C11.0875 7.21426 11.2173 7.02794 11.2173 7.02794C11.2173 7.02794 11.2382 6.84865 11.2152 6.8049C11.1921 6.76116 11.6057 6.67647 11.6318 6.49185C11.6318 6.49185 11.2092 6.5102 11.1802 6.46277C11.1512 6.41535 11.311 6.34099 11.261 6.24854C11.211 6.15608 10.465 6.77564 10.465 6.77564C10.465 6.77564 10.7226 6.35394 10.7226 6.12749C10.7226 5.90103 10.6572 5.74628 10.465 5.74628C10.2729 5.74628 10.308 5.83451 10.308 5.83451Z" fill="#5EAA22"/>
<path fill-rule="evenodd" clip-rule="evenodd" d="M14.1917 5.95808C14.1912 5.95886 14.1922 5.95957 14.1929 5.95895C14.2204 5.93318 14.3918 5.78325 14.5353 5.90164C14.6919 6.03078 14.4564 6.15663 14.4564 6.15663C14.4564 6.15663 14.5665 6.25807 14.6924 6.25807C14.8183 6.25807 14.8492 6.15663 14.8492 6.15663C14.8492 6.15663 14.8588 6.38238 15.2694 6.46786C15.2694 6.46786 15.4159 6.26803 15.2694 6.15863C15.2694 6.15863 15.4425 6.12452 15.4299 5.99135C15.4299 5.99135 15.2877 6.0374 15.1862 5.93158C15.0847 5.82575 14.887 5.77695 14.7432 5.80135C14.3782 5.67629 14.2139 5.92134 14.1917 5.95808Z" fill="#5EAA22"/>
<path fill-rule="evenodd" clip-rule="evenodd" d="M11.7018 7.09713C11.7018 7.09713 12.1264 7.85587 11.8611 8.01309C11.5957 8.17031 13.1229 8.05847 13.2668 8.01309C13.4107 7.96771 13.2378 7.72848 13.0782 7.66207C12.9186 7.59565 12.2625 7.37469 12.088 7.20804C11.9135 7.04139 12.02 6.98225 12.1606 6.81774C12.3012 6.65323 12.8216 6.58745 12.8216 6.43369C12.8216 6.27992 13.1517 5.64578 13.3824 5.59793C13.6131 5.55009 13.4885 5.47474 13.4354 5.47474C13.3824 5.47474 13.0634 5.78707 12.9425 5.73072C12.8216 5.67437 12.8068 5.67833 12.9425 5.54213C13.0782 5.40592 13.1804 5.24915 13.001 5.36195C12.8216 5.47474 12.5258 5.65326 12.3837 5.65326C12.2415 5.65326 11.7354 5.59237 11.7982 5.73072C11.8611 5.86907 11.8877 6.10921 12.1606 6.27145C12.4335 6.43369 12.3149 6.55241 12.088 6.70874C11.8611 6.86508 11.7018 7.09713 11.7018 7.09713Z" fill="#96877D"/>
<path d="M14.5193 6.09375L13.7102 7.63529C13.7102 7.63529 13.6867 8.07074 14.2651 7.78058C14.8435 7.49042 14.8207 7.28462 14.9875 7.28462C15.1543 7.28462 15.2073 7.19664 15.2073 7.19664L15.0962 7.11365C15.0962 7.11365 15.0833 6.96228 15.1537 6.92829C15.1537 6.92829 15.0156 6.85604 14.9959 6.91636C14.9762 6.97668 14.8789 6.7902 14.9339 6.7902C14.9339 6.7902 14.8122 6.97741 14.7865 7.05046C14.7865 7.05046 14.6104 6.98243 14.6189 6.66726C14.6273 6.35209 14.5193 6.09375 14.5193 6.09375Z" fill="#FFD018"/>
<path d="M10.6682 5.8496C10.6682 5.8496 10.2562 5.94072 10.3006 6.03554C10.345 6.13036 10.4105 6.03298 10.2088 6.14725C10.2088 6.14725 9.85444 6.40754 9.77721 6.37933C9.69997 6.35113 9.83191 6.44489 9.83191 6.14725C9.83191 5.8496 9.62613 6.09189 9.83191 5.89319C10.0377 5.6945 10.1098 5.8496 10.2088 5.73527C10.3078 5.62094 10.2188 5.68174 10.4872 5.68174C10.7557 5.68174 10.6682 5.8496 10.6682 5.8496Z" fill="#FFD018"/>
<path d="M11.9253 7.38165C11.9253 7.38165 10.7718 8.24283 10.5412 8.30711C10.3107 8.37139 11.0154 8.28943 11.1876 8.17574C11.3597 8.06204 11.9253 7.38165 11.9253 7.38165Z" fill="#FFD018"/>
<path fill-rule="evenodd" clip-rule="evenodd" d="M14.2123 8.8924C14.2123 8.8924 14.323 9.57091 14.0339 9.50413C13.7449 9.43736 13.6249 9.40282 13.6249 9.40282C13.6249 9.40282 13.731 9.71885 13.8825 9.71885C13.8825 9.71885 14.1406 10.1967 14.0413 10.3476C14.0413 10.3476 14.4859 10.0049 14.414 9.73248C14.3421 9.46003 14.5289 9.77731 14.5289 9.77731C14.5289 9.77731 14.6925 9.85237 14.8108 9.76855C14.9291 9.68473 14.8093 9.72199 14.691 9.5624C14.5728 9.40282 14.602 8.95464 14.2422 8.72236C13.8825 8.49009 13.7987 8.49751 13.7987 8.49751C13.7987 8.49751 13.5338 8.08598 13.6925 8.11319C13.6925 8.11319 14.8301 8.48366 14.8596 8.57861C14.8892 8.67356 15.1909 8.65616 15.04 8.38468C14.8892 8.11319 14.076 7.94958 13.9792 7.87302C13.8825 7.79645 13.9725 7.50607 13.7987 7.44281C13.6249 7.37955 13.1501 6.93067 13.1504 6.71435C13.1507 6.49803 12.9273 6.39621 12.733 6.39621C12.5388 6.39621 12.173 6.3429 12.0184 6.3429C11.8639 6.3429 11.7199 6.58848 11.8692 6.58848C12.0184 6.58848 11.8909 7.04826 11.641 7.14875C11.391 7.24923 11.1977 7.39366 10.9123 7.39366C10.6268 7.39366 11.3164 7.62747 11.4263 7.53514C11.5362 7.44281 11.5001 7.30523 11.8692 7.14875C12.2382 6.99227 12.5905 6.89962 12.5459 7.02418C12.5013 7.14875 12.6151 7.3571 12.7889 7.28169C12.9628 7.20628 13.0186 7.0158 13.0186 7.14875C13.0186 7.28169 13.2851 7.96451 13.4888 8.23101C13.6925 8.49751 14.2123 8.8924 14.2123 8.8924Z" fill="#5EAA22"/>
<path d="M11.7856 6.39911C11.7856 6.39911 11.6503 6.60382 11.7856 6.60382C11.9208 6.60382 12.1383 6.60382 12.0058 6.50147C11.8733 6.39911 11.7856 6.39911 11.7856 6.39911Z" fill="#FFD018"/>
<path d="M12.2375 6.39415C12.2375 6.39415 12.2381 6.53026 12.3319 6.53026C12.4256 6.53026 12.509 6.66636 12.509 6.53026C12.509 6.39415 12.6393 6.43929 12.4384 6.39415C12.2375 6.34901 12.2375 6.39415 12.2375 6.39415Z" fill="#FFD018"/>
<path d="M12.8148 6.42535C12.8148 6.42535 12.7244 6.48999 12.7696 6.60528C12.8148 6.72057 12.917 6.94872 12.7696 6.94872C12.6222 6.94872 12.501 7.03097 12.6161 7.03097C12.7312 7.03097 12.9361 7.11323 12.9361 7.03097C12.9361 6.94872 13.0194 7.1666 13.0194 7.03097C13.0194 6.89534 13.0194 6.83053 13.0194 6.75099C13.0194 6.67145 13.1027 6.64858 13.0194 6.53697C12.9361 6.42535 12.8148 6.42535 12.8148 6.42535Z" fill="#FFD018"/>
<path d="M13.0236 7.21906C13.0236 7.21906 13.2119 7.78214 13.3143 7.85474C13.4167 7.92733 13.4627 8.53884 13.5076 8.60533C13.5526 8.67181 14.165 9.00739 14.165 9.18747C14.165 9.36756 14.3535 9.04909 14.2592 8.87077C14.165 8.69244 13.8681 8.31277 13.6546 8.22997C13.4411 8.14717 13.4682 7.94668 13.4233 7.80577C13.3784 7.66487 13.6889 7.91963 13.4233 7.60001C13.1577 7.28039 13.1647 7.45191 13.2395 7.45191C13.3143 7.45191 13.3891 7.41414 13.3143 7.36447C13.2395 7.31481 13.0236 7.21906 13.0236 7.21906Z" fill="#FFD018"/>
<path d="M11.027 8.38025C11.027 8.38025 10.4153 9.40654 10.3062 9.45957C10.197 9.51259 10.1156 9.52337 10.0598 9.45957C10.0041 9.39577 9.99834 9.63079 10.0598 9.69514C10.1214 9.75948 10.3062 9.75948 10.4087 9.64522C10.4087 9.64522 10.4249 9.93394 10.5847 10.1516C10.7445 10.3693 10.811 10.3092 10.811 10.4323C10.811 10.5554 10.8488 10.7183 10.8975 10.7183C10.9463 10.7183 10.9841 11.1058 10.8975 11.1058C10.811 11.1058 11.098 11.1376 11.2231 11.0407C11.3483 10.9438 11.4017 10.87 11.375 10.87C11.3483 10.87 11.027 10.7093 11.027 10.5957C11.027 10.482 10.811 10.393 10.811 10.2243C10.811 10.0555 10.6988 9.85492 10.6988 9.77503C10.6988 9.69514 10.7947 9.80586 10.8975 9.73021C11.0003 9.65456 11.027 9.45957 11.027 9.45957C11.027 9.45957 10.8651 9.56274 10.811 9.51115C10.7569 9.45957 10.5866 9.35774 10.6988 9.18303C10.811 9.00832 11.027 8.38025 11.027 8.38025Z" fill="#FFD018"/>
<path fill-rule="evenodd" clip-rule="evenodd" d="M12.0871 5.14355C12.0871 5.14355 11.8681 5.23611 11.9411 5.37362C12.0141 5.51114 12.0403 5.57203 12.0871 5.54159C12.1339 5.51114 12.462 5.45358 12.3885 5.29857C12.315 5.14355 12.161 5.14355 12.161 5.14355H12.0871Z" fill="#5EAA22"/>
<path d="M12.8469 5.06917C12.8469 5.06917 12.5576 4.94755 12.6541 5.06917C12.7505 5.19079 12.8739 5.25491 12.9626 5.25491C13.0514 5.25491 13.2358 5.22977 13.1436 5.1807C13.0514 5.13163 12.8469 5.06917 12.8469 5.06917Z" fill="#FFD018"/>
<path fill-rule="evenodd" clip-rule="evenodd" d="M9.99069 8.23023C9.99215 8.22271 9.98327 8.21729 9.97759 8.22243C9.91763 8.27668 9.73617 8.45909 9.81303 8.61774C9.90452 8.80655 9.996 8.87211 9.996 8.87211C9.996 8.87211 10.0517 9.16119 10.1669 9.23986C10.1669 9.23986 10.3215 9.23234 10.3292 9.00733C10.3292 9.00733 10.5919 8.93412 10.6691 9.08993C10.6691 9.08993 10.6182 9.10746 10.6182 9.23986C10.6182 9.37226 10.737 9.51569 10.737 9.51569C10.737 9.51569 10.7914 9.05904 11.036 8.76462C11.2806 8.47021 11.3506 8.4121 11.3506 8.4121V8.08081C11.3506 8.08081 10.8445 8.47254 10.737 8.79825C10.737 8.79825 10.4822 8.80633 10.3786 8.76462C10.2751 8.72292 10.5079 8.65451 10.3786 8.50628C10.2493 8.35805 10.3086 8.71499 10.1669 8.61774C9.94527 8.55919 9.97535 8.30894 9.99069 8.23023Z" fill="#5EAA22"/>
<path fill-rule="evenodd" clip-rule="evenodd" d="M11.0934 7.9425L13.6857 7.9425V9.44714C13.6857 9.44714 13.4744 10.6766 12.3454 11.2823C12.3454 11.2823 11.2519 10.6682 11.0934 9.44714V7.9425Z" fill="#5EAA22"/>
<mask id="mask0_8_24090" style="mask-type:luminance" maskUnits="userSpaceOnUse" x="11" y="7" width="3" height="5">
<path fill-rule="evenodd" clip-rule="evenodd" d="M11.0934 7.9425L13.6857 7.9425V9.44714C13.6857 9.44714 13.4744 10.6766 12.3454 11.2823C12.3454 11.2823 11.2519 10.6682 11.0934 9.44714V7.9425Z" fill="white"/>
</mask>
<g mask="url(#mask0_8_24090)">
<path fill-rule="evenodd" clip-rule="evenodd" d="M12.3258 7.86121L11.1932 10.094L12.7292 8.76895L13.7863 10.4335V7.86121L12.7292 8.68446L12.3258 7.86121Z" fill="#58A5FF"/>
<path d="M12.2901 9.47568C12.2901 9.42901 12.328 9.39117 12.3746 9.39117C12.4213 9.39117 12.4591 9.42901 12.4591 9.47568V10.9009C12.4591 10.9476 12.4213 10.9854 12.3746 10.9854C12.328 10.9854 12.2901 10.9476 12.2901 10.9009L12.2901 9.47568Z" fill="#FFD018"/>
<path d="M11.9921 9.82498C11.9486 9.82498 11.9132 9.78967 11.9132 9.74611C11.9132 9.70255 11.9486 9.66724 11.9921 9.66724H12.764C12.8076 9.66724 12.8429 9.70255 12.8429 9.74611C12.8429 9.78967 12.8076 9.82498 12.764 9.82498H11.9921Z" fill="#FFD018"/>
<path d="M12.5317 10.7952L12.4457 10.8656C12.319 10.7106 12.2034 10.636 12.1013 10.636C11.9508 10.636 11.8285 10.5097 11.7288 10.2701L11.8314 10.2274C11.9157 10.4301 12.0076 10.5249 12.1013 10.5249C12.2432 10.5249 12.386 10.617 12.5317 10.7952Z" fill="#FFD018"/>
<path fill-rule="evenodd" clip-rule="evenodd" d="M11.629 9.88837C11.6285 9.8879 11.6277 9.88826 11.6277 9.88895V10.4301C11.6277 10.4306 11.6282 10.431 11.6287 10.4308L12.033 10.2632C12.0336 10.263 12.0337 10.2623 12.0333 10.2619L11.629 9.88837Z" fill="#FFD018"/>
<path d="M12.2542 10.7952L12.3402 10.8656C12.4669 10.7106 12.5825 10.636 12.6847 10.636C12.8351 10.636 12.9574 10.5097 13.0571 10.2701L12.9546 10.2274C12.8702 10.4301 12.7784 10.5249 12.6847 10.5249C12.5427 10.5249 12.3999 10.617 12.2542 10.7952Z" fill="#FFD018"/>
<path fill-rule="evenodd" clip-rule="evenodd" d="M13.1569 9.88837C13.1574 9.8879 13.1583 9.88826 13.1583 9.88895V10.4301C13.1583 10.4306 13.1577 10.431 13.1572 10.4308L12.7529 10.2632C12.7524 10.263 12.7522 10.2623 12.7527 10.2619L13.1569 9.88837Z" fill="#FFD018"/>
<rect x="12.2042" y="8.82782" width="0.338028" height="0.478481" fill="white"/>
</g>
</g>
<defs>
<clipPath id="clip0_8_24090">
<rect width="16" height="12" fill="white"/>
</clipPath>
<clipPath id="clip1_8_24090">
<rect width="9" height="7" fill="white"/>
</clipPath>
</defs>
</svg>
