<svg width="16" height="12" viewBox="0 0 16 12" fill="none" xmlns="http://www.w3.org/2000/svg">
<g clip-path="url(#clip0_8_24156)">
<rect width="16" height="12" fill="white"/>
<path fill-rule="evenodd" clip-rule="evenodd" d="M4 0H16V12H4V0Z" fill="#EF0000"/>
<path fill-rule="evenodd" clip-rule="evenodd" d="M0 0H6V12H0V0Z" fill="#2F8D00"/>
<mask id="mask0_8_24156" style="mask-type:luminance" maskUnits="userSpaceOnUse" x="2" y="2" width="8" height="8">
<path fill-rule="evenodd" clip-rule="evenodd" d="M5.95236 9.9036C3.82212 9.9036 2.09521 8.1559 2.09521 5.99999C2.09521 3.84408 3.82212 2.09637 5.95236 2.09637C8.0826 2.09637 9.8095 3.84408 9.8095 5.99999C9.8095 8.1559 8.0826 9.9036 5.95236 9.9036Z" fill="white"/>
</mask>
<g mask="url(#mask0_8_24156)">
<path fill-rule="evenodd" clip-rule="evenodd" d="M5.71423 2H6.21423V3.3494H5.71423V2Z" fill="#FFE017"/>
<path fill-rule="evenodd" clip-rule="evenodd" d="M5.71423 8.74695H6.21423V9.99996H5.71423V8.74695Z" fill="#FFE017"/>
<path d="M2.15719 6.20189L2.0174 5.84324C3.55999 5.2274 4.72427 4.83025 5.51426 4.65126C6.67332 4.38866 7.94686 4.19437 9.33496 4.06824L9.36902 4.45223C7.99685 4.57692 6.73964 4.76872 5.59749 5.02749C4.83101 5.20115 3.6829 5.59279 2.15719 6.20189Z" fill="#FFE017"/>
<path d="M9.57042 3.83192L9.45698 4.19997C8.29112 3.83192 7.34141 3.67371 6.61139 3.72271L6.58618 3.33801C7.36998 3.2854 8.36354 3.45091 9.57042 3.83192Z" fill="#FFE017"/>
<path d="M9.9738 5.88985L9.7583 6.20778C9.16396 5.79514 8.43174 5.58787 7.55664 5.58787V5.20233C8.50533 5.20233 9.31271 5.43087 9.9738 5.88985Z" fill="#FFE017"/>
<path d="M9.65101 6.00525L9.7495 6.37768C8.46818 6.72475 7.26521 6.92166 6.14049 6.96803C5.00801 7.01472 3.68808 6.8171 2.17957 6.37668L2.28516 6.00625C3.75701 6.43596 5.03733 6.62765 6.12498 6.58281C7.22039 6.53765 8.39577 6.34525 9.65101 6.00525Z" fill="#FFE017"/>
<path d="M9.50584 7.81793L8.90367 8.43527C7.75932 7.29199 6.75186 6.4745 5.88748 5.98332C5.00832 5.48374 3.86183 4.97645 2.44977 4.4635L2.73934 3.64703C4.19304 4.17511 5.38171 4.70106 6.30712 5.22692C7.2473 5.76118 8.31148 6.62468 9.50584 7.81793Z" fill="#FFE017"/>
<path d="M2.72915 8.16766L2.50122 7.85874C2.53305 7.83469 2.58984 7.79457 2.66809 7.74374C2.79729 7.6598 2.94076 7.576 3.09512 7.4977C3.52028 7.28203 3.94675 7.14737 4.3535 7.135C4.3734 7.1344 4.39321 7.13409 4.41293 7.13409V7.51964C4.39704 7.51964 4.38105 7.51988 4.36495 7.52037C4.02216 7.5308 3.64573 7.64965 3.26583 7.84237C3.12423 7.9142 2.99229 7.99126 2.87389 8.06818C2.83267 8.09496 2.7962 8.11972 2.76496 8.14179C2.74674 8.15466 2.73465 8.16351 2.72915 8.16766Z" fill="#FFE017"/>
<path d="M2.90607 8.30127L3.002 7.92816C4.27206 8.26263 5.2512 8.4293 5.93455 8.4293C6.61534 8.4293 7.62864 8.2327 8.96785 7.83813L9.07434 8.20831C7.70344 8.61221 6.65904 8.81485 5.93455 8.81485C5.21261 8.81485 4.20474 8.64328 2.90607 8.30127Z" fill="#FFE017"/>
<path d="M2.41119 4.84717L3.01473 4.2312L3.89839 5.11802L3.29485 5.73399L2.41119 4.84717Z" fill="#FFE017"/>
<path d="M7.41797 7.92385L7.86689 7.18488L9.2687 8.0571L8.81978 8.79608L7.41797 7.92385Z" fill="#FFE017"/>
</g>
<path fill-rule="evenodd" clip-rule="evenodd" d="M2.09521 5.99999C2.09521 8.1559 3.82212 9.9036 5.95236 9.9036C8.0826 9.9036 9.8095 8.1559 9.8095 5.99999C9.8095 3.84408 8.0826 2.09637 5.95236 2.09637C3.82212 2.09637 2.09521 3.84408 2.09521 5.99999ZM9.33331 6.04818C9.33331 7.91131 7.84093 9.42168 5.99998 9.42168C4.15903 9.42168 2.66664 7.91131 2.66664 6.04818C2.66664 4.18505 4.15903 2.67469 5.99998 2.67469C7.84093 2.67469 9.33331 4.18505 9.33331 6.04818Z" fill="#F9E813"/>
<path d="M3.82831 3.59265V6.72301C4.03438 7.96205 4.72861 8.58156 5.911 8.58156C7.0934 8.58156 7.78763 7.96205 7.9937 6.72301V3.59265H3.82831Z" fill="white"/>
<path d="M3.0426 3H8.57942V6.71137L8.57479 6.73706C8.30732 8.21984 7.35914 9 5.81101 9C4.26288 9 3.3147 8.21984 3.04724 6.73706L3.0426 6.71137V3Z" fill="#C51918"/>
<path fill-rule="evenodd" clip-rule="evenodd" d="M4.52378 3.953H3.62378V4.853H4.52378V3.953ZM8.02378 3.953H7.12378V4.853H8.02378V3.953Z" fill="#F9E813"/>
<path fill-rule="evenodd" clip-rule="evenodd" d="M3.62378 5.953H4.52378V6.853H3.62378V5.953ZM7.17357 5.96717H8.07357V6.86717H7.17357V5.96717ZM7.18719 7.42463H6.28719V8.32463H7.18719V7.42463Z" fill="#F9E813"/>
<path fill-rule="evenodd" clip-rule="evenodd" d="M4.32422 7.42065H5.22422V8.32065H4.32422V7.42065Z" fill="#F9E813"/>
<path d="M4.42609 4.35535H7.39595V6.5758C7.39595 6.5758 7.17556 7.72245 5.91102 7.72245C4.64647 7.72245 4.42609 6.5758 4.42609 6.5758V4.35535Z" fill="#F7FCFF"/>
<path d="M5.61902 4.60242H6.27918V5.08315C6.27918 5.08315 6.2302 5.33141 5.9491 5.33141C5.66801 5.33141 5.61902 5.08315 5.61902 5.08315V4.60242Z" fill="#013399"/>
<path d="M5.61902 5.66266H6.27918V6.1434C6.27918 6.1434 6.2302 6.39165 5.9491 6.39165C5.66801 6.39165 5.61902 6.1434 5.61902 6.1434V5.66266Z" fill="#013399"/>
<path d="M6.47614 5.66266H7.1363V6.1434C7.1363 6.1434 7.08731 6.39165 6.80622 6.39165C6.52512 6.39165 6.47614 6.1434 6.47614 6.1434V5.66266Z" fill="#013399"/>
<path d="M4.7619 5.66266H5.42207V6.1434C5.42207 6.1434 5.37308 6.39165 5.09198 6.39165C4.81089 6.39165 4.7619 6.1434 4.7619 6.1434V5.66266Z" fill="#013399"/>
<path d="M5.61902 6.7229H6.27918V7.20364C6.27918 7.20364 6.2302 7.45189 5.9491 7.45189C5.66801 7.45189 5.61902 7.20364 5.61902 7.20364V6.7229Z" fill="#013399"/>
</g>
<defs>
<clipPath id="clip0_8_24156">
<rect width="16" height="12" fill="white"/>
</clipPath>
</defs>
</svg>
