<svg width="16" height="12" viewBox="0 0 16 12" fill="none" xmlns="http://www.w3.org/2000/svg">
<g clip-path="url(#clip0_8_24161)">
<rect width="16" height="12" fill="white"/>
<path fill-rule="evenodd" clip-rule="evenodd" d="M0 0V12H16V0H0Z" fill="#4857A1"/>
<mask id="mask0_8_24161" style="mask-type:luminance" maskUnits="userSpaceOnUse" x="0" y="0" width="16" height="12">
<path fill-rule="evenodd" clip-rule="evenodd" d="M0 0V12H16V0H0Z" fill="white"/>
</mask>
<g mask="url(#mask0_8_24161)">
<path fill-rule="evenodd" clip-rule="evenodd" d="M0 0V4H16V0H0Z" fill="#C51918"/>
<path fill-rule="evenodd" clip-rule="evenodd" d="M0 8V12H16V8H0Z" fill="#F7FCFF"/>
<path fill-rule="evenodd" clip-rule="evenodd" d="M5.26048 1.34787L5.19582 1.1037C5.24894 1.11907 5.30646 1.13483 5.36711 1.15102L5.36523 1.14172C6.11938 1.21151 7.28712 1.58791 7.50689 1.98056C7.59183 2.13233 7.50943 2.26063 7.40144 2.42875L7.4014 2.42881C7.38528 2.45392 7.36858 2.47991 7.35179 2.50701C7.29752 2.59456 7.24835 2.67829 7.20201 2.75719C7.03284 3.04523 6.90139 3.26903 6.69727 3.38082L6.70123 4.02029L3.33236 3.993L3.32805 3.34872C3.1532 3.22903 3.03044 3.02 2.87639 2.75771L2.87639 2.75771C2.83005 2.67881 2.78088 2.59509 2.72661 2.50753C2.7098 2.48042 2.69309 2.4544 2.67696 2.42928C2.56897 2.26115 2.48657 2.13286 2.57151 1.98109C2.73742 1.68467 3.48364 1.39233 4.1639 1.23681C4.29225 1.19418 4.42587 1.15421 4.55839 1.11586L4.61301 1.15311C4.67197 1.14489 4.72897 1.1382 4.78345 1.13316L4.86372 1.30424H5.12721C5.12721 1.30424 5.29284 1.76761 5.29284 2.02495C5.29284 2.28228 5.12721 2.49508 5.12721 2.49508V2.67272C5.15613 2.67499 5.18648 2.67776 5.21802 2.68097C5.21803 2.66528 5.21945 2.64876 5.22243 2.63184C5.2374 2.54696 5.28605 2.48458 5.33109 2.49252C5.37614 2.50046 5.40052 2.57572 5.38555 2.66061C5.38316 2.67414 5.37992 2.68711 5.37597 2.69931C5.55353 2.72207 5.75243 2.75383 5.94085 2.7865C6.01269 2.65528 6.10028 2.52564 6.18391 2.40186L6.18391 2.40185C6.40009 2.0819 6.58981 1.80109 6.41275 1.63347C6.37895 1.60147 6.3176 1.57172 6.23848 1.54418C5.97799 1.48106 5.69419 1.43179 5.41861 1.40629L5.41138 1.37047C5.35856 1.3624 5.30784 1.35487 5.26048 1.34787ZM6.5422 2.89868C6.63702 2.91751 6.69446 2.92947 6.69446 2.92947L6.69508 3.02819C7.02919 2.78952 7.26319 2.24947 7.28325 2.07271C7.29516 1.9677 7.11964 1.84548 6.84407 1.73356C6.97004 1.9682 6.79378 2.2016 6.57307 2.49387C6.4894 2.60467 6.39933 2.72393 6.31692 2.85494L6.39998 2.87084C6.39874 2.84607 6.40167 2.81817 6.40934 2.78954C6.43165 2.70628 6.48555 2.64838 6.52973 2.66022C6.57391 2.67205 6.59164 2.74915 6.56933 2.83241C6.56271 2.85712 6.55331 2.8796 6.5422 2.89868ZM4.81918 2.67392V2.47609C4.81918 2.47609 4.67578 2.32506 4.65355 2.01052C4.63737 1.78164 4.68859 1.51188 4.71769 1.38193C4.51721 1.40748 4.3066 1.44548 4.10127 1.49164C3.93636 1.53274 3.80283 1.57996 3.74632 1.63347C3.56926 1.80109 3.75898 2.0819 3.97515 2.40185C4.05593 2.52142 4.14041 2.64645 4.21082 2.77309C4.33245 2.74827 4.45467 2.7253 4.5688 2.70701C4.56403 2.69048 4.56063 2.67244 4.55896 2.65344C4.55145 2.56757 4.5823 2.49473 4.62786 2.49074C4.67343 2.48676 4.71645 2.55314 4.72397 2.63901C4.72534 2.65473 4.72543 2.67001 4.72438 2.68452C4.75728 2.68036 4.78897 2.6768 4.81918 2.67392ZM3.84136 2.85369C3.75916 2.72318 3.6694 2.60432 3.58599 2.49387L3.58599 2.49387C3.36015 2.19481 3.18086 1.95739 3.32427 1.7172C3.00077 1.83825 2.78325 1.96837 2.79515 2.07323C2.81403 2.23964 3.0225 2.72797 3.32561 2.98376L3.32559 2.98021C3.32559 2.98021 3.44946 2.94745 3.63258 2.90307C3.62045 2.88456 3.60985 2.86256 3.60192 2.83816C3.57529 2.75618 3.58896 2.67827 3.63245 2.66413C3.67595 2.65 3.73281 2.705 3.75945 2.78698C3.76884 2.81589 3.77322 2.84429 3.77305 2.86957L3.84136 2.85369Z" fill="#F6C540"/>
<path fill-rule="evenodd" clip-rule="evenodd" d="M4.29661 1.34203C4.31971 1.35788 4.34814 1.36722 4.3789 1.36722C4.45619 1.36722 4.51886 1.30818 4.51886 1.23534C4.51886 1.1625 4.45619 1.10345 4.3789 1.10345C4.32408 1.10345 4.27662 1.13315 4.25366 1.1764C4.23056 1.16056 4.20212 1.15121 4.17137 1.15121C4.12206 1.15121 4.0787 1.17524 4.05377 1.21155C4.02959 1.19277 3.9986 1.18149 3.96482 1.18149C3.88752 1.18149 3.82486 1.24054 3.82486 1.31338C3.82486 1.31744 3.82505 1.32145 3.82544 1.32542C3.79978 1.2954 3.76046 1.2762 3.71637 1.2762C3.64631 1.2762 3.58828 1.3247 3.57802 1.38802C3.5524 1.3573 3.51261 1.33757 3.46792 1.33757C3.40076 1.33757 3.34464 1.38215 3.33109 1.44163C3.3081 1.42604 3.2799 1.41686 3.24942 1.41686C3.1874 1.41686 3.1348 1.45488 3.11643 1.50753C3.0976 1.49865 3.07634 1.49364 3.05385 1.49364C2.98479 1.49364 2.92741 1.54077 2.91596 1.60276C2.90699 1.60106 2.89771 1.60017 2.88821 1.60017C2.81165 1.60017 2.74945 1.6581 2.74827 1.72997C2.73994 1.72852 2.73136 1.72776 2.72258 1.72776C2.64529 1.72776 2.58262 1.7868 2.58262 1.85964C2.58262 1.86888 2.58363 1.87789 2.58555 1.88659C2.57632 1.88478 2.56675 1.88383 2.55695 1.88383C2.47965 1.88383 2.41699 1.94288 2.41699 2.01572C2.41699 2.07106 2.45316 2.11844 2.50444 2.13801C2.50142 2.14879 2.49981 2.16011 2.49981 2.17179C2.49981 2.22713 2.53598 2.27451 2.58726 2.29408C2.58423 2.30487 2.58262 2.31619 2.58262 2.32787C2.58262 2.39898 2.64234 2.45694 2.7171 2.45965C2.68557 2.48384 2.66544 2.52069 2.66544 2.56198C2.66544 2.63482 2.7281 2.69387 2.8054 2.69387C2.88269 2.69387 2.94536 2.63482 2.94536 2.56198C2.94536 2.49088 2.88564 2.43291 2.81088 2.4302C2.84241 2.40602 2.86254 2.36916 2.86254 2.32787C2.86254 2.27253 2.82637 2.22515 2.77509 2.20558C2.77811 2.1948 2.77973 2.18347 2.77973 2.17179C2.77973 2.11645 2.74355 2.06907 2.69227 2.0495C2.6953 2.03872 2.69691 2.0274 2.69691 2.01572C2.69691 2.00648 2.6959 1.99747 2.69399 1.98877C2.70322 1.99058 2.71278 1.99153 2.72258 1.99153C2.79914 1.99153 2.86134 1.9336 2.86252 1.86172C2.87085 1.86318 2.87944 1.86394 2.88821 1.86394C2.95727 1.86394 3.01465 1.81681 3.0261 1.75482C3.03506 1.75652 3.04434 1.75741 3.05385 1.75741C3.11587 1.75741 3.16847 1.7194 3.18683 1.66674C3.20567 1.67563 3.22692 1.68063 3.24942 1.68063C3.28013 1.68063 3.30852 1.67131 3.3316 1.65551C3.33595 1.67315 3.34406 1.68943 3.35509 1.70357C3.33804 1.72542 3.32797 1.7524 3.32797 1.7816C3.32797 1.85271 3.38768 1.91067 3.46244 1.91339C3.43092 1.93757 3.41078 1.97443 3.41078 2.01572C3.41078 2.07106 3.44695 2.11844 3.49823 2.13801C3.49521 2.14879 3.4936 2.16011 3.4936 2.17179C3.4936 2.22713 3.52977 2.27451 3.58105 2.29408C3.57802 2.30487 3.57641 2.31619 3.57641 2.32787C3.57641 2.40071 3.63907 2.45975 3.71637 2.45975C3.79367 2.45975 3.85633 2.40071 3.85633 2.32787C3.85633 2.27253 3.82016 2.22515 3.76888 2.20558C3.7719 2.1948 3.77351 2.18347 3.77351 2.17179C3.77351 2.11645 3.73734 2.06907 3.68606 2.0495C3.68909 2.03872 3.6907 2.0274 3.6907 2.01572C3.6907 1.94461 3.63098 1.88665 3.55622 1.88393C3.58775 1.85975 3.60788 1.82289 3.60788 1.7816C3.60788 1.7524 3.59781 1.72542 3.58076 1.70357C3.59781 1.68171 3.60788 1.65473 3.60788 1.62553C3.60788 1.59633 3.59781 1.56934 3.58076 1.54749C3.59383 1.53074 3.6028 1.51098 3.60627 1.48951C3.6319 1.52023 3.67169 1.53996 3.71637 1.53996C3.79367 1.53996 3.85633 1.48092 3.85633 1.40808C3.85633 1.40402 3.85613 1.4 3.85575 1.39604C3.88141 1.42605 3.92073 1.44526 3.96482 1.44526C4.01413 1.44526 4.05749 1.42123 4.08242 1.38492C4.1066 1.4037 4.13759 1.41498 4.17137 1.41498C4.22619 1.41498 4.27364 1.38528 4.29661 1.34203ZM3.46792 1.60134C3.51423 1.60134 3.55529 1.58014 3.58076 1.54749C3.55529 1.51484 3.51423 1.49364 3.46792 1.49364C3.4821 1.49364 3.4936 1.48281 3.4936 1.46945C3.4936 1.45609 3.4821 1.44526 3.46792 1.44526C3.45375 1.44526 3.44225 1.45609 3.44225 1.46945C3.44225 1.48281 3.45375 1.49364 3.46792 1.49364C3.43722 1.49364 3.40882 1.50296 3.38574 1.51876C3.37795 1.48719 3.35813 1.45998 3.33109 1.44163C3.32904 1.4506 3.32797 1.45991 3.32797 1.46945C3.32797 1.49865 3.33804 1.52564 3.35509 1.54749C3.33804 1.56934 3.32797 1.59633 3.32797 1.62553C3.32797 1.63584 3.32922 1.64588 3.3316 1.65551C3.359 1.63675 3.3789 1.60886 3.38626 1.57657C3.40924 1.59216 3.43744 1.60134 3.46792 1.60134ZM3.46792 1.64972C3.42162 1.64972 3.38056 1.67091 3.35509 1.70357C3.38056 1.73622 3.42162 1.75741 3.46792 1.75741C3.51423 1.75741 3.55529 1.73622 3.58076 1.70357C3.55529 1.67091 3.51423 1.64972 3.46792 1.64972ZM3.46792 1.64972C3.4821 1.64972 3.4936 1.63889 3.4936 1.62553C3.4936 1.61217 3.4821 1.60134 3.46792 1.60134C3.45375 1.60134 3.44225 1.61217 3.44225 1.62553C3.44225 1.63889 3.45375 1.64972 3.46792 1.64972ZM3.38626 1.57657C3.37432 1.56847 3.36379 1.55865 3.35509 1.54749C3.36367 1.53649 3.37402 1.52679 3.38574 1.51876C3.38812 1.52839 3.38938 1.53843 3.38938 1.54875C3.38938 1.55829 3.3883 1.5676 3.38626 1.57657ZM3.76888 2.20558C3.75266 2.19939 3.73494 2.19599 3.71637 2.19599C3.65147 2.19599 3.59688 2.23761 3.58105 2.29408C3.59726 2.30027 3.61499 2.30368 3.63356 2.30368C3.69846 2.30368 3.75304 2.26205 3.76888 2.20558ZM3.68606 2.0495C3.66985 2.04332 3.65212 2.03991 3.63356 2.03991C3.56865 2.03991 3.51407 2.08154 3.49823 2.13801C3.51445 2.14419 3.53217 2.1476 3.55074 2.1476C3.61564 2.1476 3.67023 2.10597 3.68606 2.0495ZM3.55622 1.88393L3.55074 1.88383C3.51726 1.88383 3.48653 1.89491 3.46244 1.91339L3.46792 1.91349C3.5014 1.91349 3.53214 1.90241 3.55622 1.88393ZM2.81088 2.4302L2.8054 2.4301C2.77192 2.4301 2.74118 2.44118 2.7171 2.45965L2.72258 2.45975C2.75606 2.45975 2.7868 2.44868 2.81088 2.4302ZM2.77509 2.20558C2.75925 2.26205 2.70467 2.30368 2.63977 2.30368C2.6212 2.30368 2.60347 2.30027 2.58726 2.29408C2.60309 2.23761 2.65768 2.19599 2.72258 2.19599C2.74115 2.19599 2.75888 2.19939 2.77509 2.20558ZM2.69227 2.0495C2.67644 2.10597 2.62185 2.1476 2.55695 2.1476C2.53838 2.1476 2.52066 2.14419 2.50444 2.13801C2.52028 2.08154 2.57486 2.03991 2.63977 2.03991C2.65834 2.03991 2.67606 2.04332 2.69227 2.0495ZM2.58555 1.88659C2.59683 1.9378 2.63964 1.97814 2.69399 1.98877C2.6827 1.93756 2.6399 1.89722 2.58555 1.88659ZM2.86252 1.86172C2.7975 1.85035 2.74826 1.79662 2.74826 1.73206L2.74827 1.72997C2.8133 1.74134 2.86254 1.79507 2.86254 1.85964L2.86252 1.86172ZM3.0261 1.75482C2.96209 1.74269 2.91389 1.68941 2.91389 1.62553C2.91389 1.61777 2.9146 1.61016 2.91596 1.60276C2.97997 1.6149 3.02817 1.66817 3.02817 1.73206C3.02817 1.73982 3.02746 1.74743 3.0261 1.75482ZM3.18683 1.66674C3.14096 1.6451 3.10946 1.60039 3.10946 1.54875C3.10946 1.53435 3.11191 1.5205 3.11643 1.50753C3.16231 1.52918 3.1938 1.57389 3.1938 1.62553C3.1938 1.63992 3.19136 1.65378 3.18683 1.66674ZM3.60627 1.48951C3.58757 1.46709 3.57641 1.43881 3.57641 1.40808C3.57641 1.40126 3.57696 1.39456 3.57802 1.38802C3.59673 1.41044 3.60788 1.43872 3.60788 1.46945C3.60788 1.47627 3.60733 1.48297 3.60627 1.48951ZM3.82544 1.32542C3.82799 1.35203 3.83893 1.37636 3.85575 1.39604C3.8532 1.36943 3.84225 1.3451 3.82544 1.32542ZM4.08242 1.38492C4.05127 1.36073 4.03141 1.3241 4.03141 1.28309C4.03141 1.25672 4.03963 1.23216 4.05377 1.21155C4.08492 1.23574 4.10478 1.27237 4.10478 1.31338C4.10478 1.33975 4.09656 1.36431 4.08242 1.38492ZM4.29661 1.34203C4.26166 1.31805 4.23894 1.2792 4.23894 1.23534C4.23894 1.21416 4.24424 1.19414 4.25366 1.1764C4.28861 1.20038 4.31133 1.23924 4.31133 1.28309C4.31133 1.30428 4.30603 1.32429 4.29661 1.34203ZM2.88821 1.75625C2.90239 1.75625 2.91389 1.74542 2.91389 1.73206C2.91389 1.71869 2.90239 1.70786 2.88821 1.70786C2.87403 1.70786 2.86254 1.71869 2.86254 1.73206C2.86254 1.74542 2.87403 1.75625 2.88821 1.75625ZM2.72258 1.88383C2.73676 1.88383 2.74826 1.873 2.74826 1.85964C2.74826 1.84628 2.73676 1.83545 2.72258 1.83545C2.7084 1.83545 2.69691 1.84628 2.69691 1.85964C2.69691 1.873 2.7084 1.88383 2.72258 1.88383ZM2.55695 2.03991C2.57113 2.03991 2.58262 2.02908 2.58262 2.01572C2.58262 2.00236 2.57113 1.99153 2.55695 1.99153C2.54277 1.99153 2.53128 2.00236 2.53128 2.01572C2.53128 2.02908 2.54277 2.03991 2.55695 2.03991ZM2.63977 2.19599C2.65395 2.19599 2.66544 2.18515 2.66544 2.17179C2.66544 2.15843 2.65395 2.1476 2.63977 2.1476C2.62559 2.1476 2.61409 2.15843 2.61409 2.17179C2.61409 2.18515 2.62559 2.19599 2.63977 2.19599ZM2.72258 2.35206C2.73676 2.35206 2.74826 2.34123 2.74826 2.32787C2.74826 2.31451 2.73676 2.30368 2.72258 2.30368C2.7084 2.30368 2.69691 2.31451 2.69691 2.32787C2.69691 2.34123 2.7084 2.35206 2.72258 2.35206ZM2.83107 2.56198C2.83107 2.57534 2.81958 2.58617 2.8054 2.58617C2.79122 2.58617 2.77973 2.57534 2.77973 2.56198C2.77973 2.54862 2.79122 2.53779 2.8054 2.53779C2.81958 2.53779 2.83107 2.54862 2.83107 2.56198ZM3.05385 1.64972C3.06802 1.64972 3.07952 1.63889 3.07952 1.62553C3.07952 1.61217 3.06802 1.60134 3.05385 1.60134C3.03967 1.60134 3.02817 1.61217 3.02817 1.62553C3.02817 1.63889 3.03967 1.64972 3.05385 1.64972ZM3.24942 1.57294C3.2636 1.57294 3.27509 1.56211 3.27509 1.54875C3.27509 1.53539 3.2636 1.52456 3.24942 1.52456C3.23524 1.52456 3.22375 1.53539 3.22375 1.54875C3.22375 1.56211 3.23524 1.57294 3.24942 1.57294ZM3.71637 1.43227C3.73055 1.43227 3.74204 1.42144 3.74204 1.40808C3.74204 1.39472 3.73055 1.38389 3.71637 1.38389C3.70219 1.38389 3.6907 1.39472 3.6907 1.40808C3.6907 1.42144 3.70219 1.43227 3.71637 1.43227ZM3.96482 1.33757C3.979 1.33757 3.99049 1.32674 3.99049 1.31338C3.99049 1.30002 3.979 1.28918 3.96482 1.28918C3.95064 1.28918 3.93915 1.30002 3.93915 1.31338C3.93915 1.32674 3.95064 1.33757 3.96482 1.33757ZM4.17137 1.30729C4.18555 1.30729 4.19704 1.29645 4.19704 1.28309C4.19704 1.26973 4.18555 1.2589 4.17137 1.2589C4.15719 1.2589 4.1457 1.26973 4.1457 1.28309C4.1457 1.29645 4.15719 1.30729 4.17137 1.30729ZM4.3789 1.25953C4.39308 1.25953 4.40457 1.2487 4.40457 1.23534C4.40457 1.22198 4.39308 1.21115 4.3789 1.21115C4.36472 1.21115 4.35322 1.22198 4.35322 1.23534C4.35322 1.2487 4.36472 1.25953 4.3789 1.25953ZM3.46792 1.8058C3.4821 1.8058 3.4936 1.79496 3.4936 1.7816C3.4936 1.76824 3.4821 1.75741 3.46792 1.75741C3.45375 1.75741 3.44225 1.76824 3.44225 1.7816C3.44225 1.79496 3.45375 1.8058 3.46792 1.8058ZM3.55074 2.03991C3.56492 2.03991 3.57641 2.02908 3.57641 2.01572C3.57641 2.00236 3.56492 1.99153 3.55074 1.99153C3.53656 1.99153 3.52507 2.00236 3.52507 2.01572C3.52507 2.02908 3.53656 2.03991 3.55074 2.03991ZM3.63356 2.19599C3.64773 2.19599 3.65923 2.18515 3.65923 2.17179C3.65923 2.15843 3.64773 2.1476 3.63356 2.1476C3.61938 2.1476 3.60788 2.15843 3.60788 2.17179C3.60788 2.18515 3.61938 2.19599 3.63356 2.19599ZM3.71637 2.35206C3.73055 2.35206 3.74204 2.34123 3.74204 2.32787C3.74204 2.31451 3.73055 2.30368 3.71637 2.30368C3.70219 2.30368 3.6907 2.31451 3.6907 2.32787C3.6907 2.34123 3.70219 2.35206 3.71637 2.35206ZM7.36026 2.58617C7.37444 2.58617 7.38594 2.57534 7.38594 2.56198C7.38594 2.54862 7.37444 2.53779 7.36026 2.53779C7.34608 2.53779 7.33459 2.54862 7.33459 2.56198C7.33459 2.57534 7.34608 2.58617 7.36026 2.58617ZM7.2203 2.56198C7.2203 2.63482 7.28297 2.69387 7.36026 2.69387C7.43756 2.69387 7.50022 2.63482 7.50022 2.56198C7.50022 2.52069 7.48009 2.48384 7.44856 2.45965C7.52332 2.45694 7.58304 2.39898 7.58304 2.32787C7.58304 2.31619 7.58143 2.30487 7.5784 2.29408C7.62968 2.27451 7.66585 2.22713 7.66585 2.17179C7.66585 2.16011 7.66424 2.14879 7.66122 2.13801C7.7125 2.11844 7.74867 2.07106 7.74867 2.01572C7.74867 1.94288 7.68601 1.88383 7.60871 1.88383C7.59891 1.88383 7.58935 1.88478 7.58011 1.88659C7.58203 1.87789 7.58304 1.86888 7.58304 1.85964C7.58304 1.7868 7.52038 1.72776 7.44308 1.72776C7.4343 1.72776 7.42572 1.72852 7.41739 1.72997C7.41621 1.6581 7.35401 1.60017 7.27745 1.60017C7.26795 1.60017 7.25867 1.60106 7.2497 1.60276C7.23825 1.54077 7.18087 1.49364 7.11182 1.49364C7.08932 1.49364 7.06806 1.49865 7.04923 1.50753C7.03086 1.45488 6.97826 1.41686 6.91624 1.41686C6.88576 1.41686 6.85756 1.42604 6.83458 1.44163C6.82102 1.38215 6.76491 1.33757 6.69774 1.33757C6.65306 1.33757 6.61326 1.3573 6.58764 1.38802C6.57738 1.3247 6.51935 1.2762 6.44929 1.2762C6.4052 1.2762 6.36588 1.2954 6.34023 1.32542C6.34061 1.32145 6.3408 1.31744 6.3408 1.31338C6.3408 1.24054 6.27814 1.18149 6.20084 1.18149C6.16706 1.18149 6.13607 1.19277 6.11189 1.21155C6.08696 1.17524 6.0436 1.15121 5.99429 1.15121C5.96354 1.15121 5.9351 1.16056 5.912 1.1764C5.88904 1.13315 5.84158 1.10345 5.78676 1.10345C5.70947 1.10345 5.64681 1.1625 5.64681 1.23534C5.64681 1.30818 5.70947 1.36722 5.78676 1.36722C5.81752 1.36722 5.84596 1.35788 5.86905 1.34203C5.89202 1.38528 5.93947 1.41498 5.99429 1.41498C6.02808 1.41498 6.05906 1.4037 6.08325 1.38492C6.10818 1.42123 6.15153 1.44526 6.20084 1.44526C6.24493 1.44526 6.28425 1.42605 6.30991 1.39604C6.30953 1.4 6.30933 1.40402 6.30933 1.40808C6.30933 1.48092 6.37199 1.53996 6.44929 1.53996C6.49397 1.53996 6.53376 1.52023 6.55939 1.48951C6.56286 1.51098 6.57183 1.53074 6.5849 1.54749C6.56785 1.56934 6.55778 1.59633 6.55778 1.62553C6.55778 1.65473 6.56785 1.68171 6.5849 1.70357C6.56785 1.72542 6.55778 1.7524 6.55778 1.7816C6.55778 1.82289 6.57791 1.85975 6.60944 1.88393C6.53468 1.88665 6.47496 1.94461 6.47496 2.01572C6.47496 2.0274 6.47657 2.03872 6.4796 2.0495C6.42832 2.06907 6.39215 2.11645 6.39215 2.17179C6.39215 2.18347 6.39376 2.1948 6.39678 2.20558C6.3455 2.22515 6.30933 2.27253 6.30933 2.32787C6.30933 2.40071 6.37199 2.45975 6.44929 2.45975C6.52659 2.45975 6.58925 2.40071 6.58925 2.32787C6.58925 2.31619 6.58764 2.30487 6.58461 2.29408C6.63589 2.27451 6.67206 2.22713 6.67206 2.17179C6.67206 2.16011 6.67045 2.14879 6.66743 2.13801C6.71871 2.11844 6.75488 2.07106 6.75488 2.01572C6.75488 1.97443 6.73475 1.93757 6.70322 1.91339C6.77798 1.91067 6.8377 1.85271 6.8377 1.7816C6.8377 1.7524 6.82762 1.72542 6.81058 1.70357C6.8216 1.68943 6.82971 1.67315 6.83406 1.65551C6.85714 1.67131 6.88554 1.68063 6.91624 1.68063C6.93874 1.68063 6.96 1.67563 6.97883 1.66674C6.99719 1.7194 7.04979 1.75741 7.11182 1.75741C7.12132 1.75741 7.1306 1.75652 7.13957 1.75482C7.15101 1.81681 7.20839 1.86394 7.27745 1.86394C7.28622 1.86394 7.29481 1.86318 7.30314 1.86172C7.30432 1.9336 7.36652 1.99153 7.44308 1.99153C7.45288 1.99153 7.46244 1.99058 7.47168 1.98877C7.46976 1.99747 7.46875 2.00648 7.46875 2.01572C7.46875 2.0274 7.47036 2.03872 7.47339 2.0495C7.42211 2.06907 7.38594 2.11645 7.38594 2.17179C7.38594 2.18347 7.38755 2.1948 7.39057 2.20558C7.33929 2.22515 7.30312 2.27253 7.30312 2.32787C7.30312 2.36916 7.32326 2.40602 7.35478 2.4302C7.28002 2.43291 7.2203 2.49088 7.2203 2.56198ZM6.7794 1.57657C6.75642 1.59216 6.72822 1.60134 6.69774 1.60134C6.65143 1.60134 6.61037 1.58014 6.5849 1.54749C6.61037 1.51484 6.65143 1.49364 6.69774 1.49364C6.72844 1.49364 6.75684 1.50296 6.77992 1.51876C6.77754 1.52839 6.77628 1.53843 6.77628 1.54875C6.77628 1.55829 6.77736 1.5676 6.7794 1.57657ZM6.81058 1.54749C6.82762 1.56934 6.8377 1.59633 6.8377 1.62553C6.8377 1.63584 6.83644 1.64588 6.83406 1.65551C6.80666 1.63675 6.78676 1.60886 6.7794 1.57657C6.79134 1.56847 6.80187 1.55865 6.81058 1.54749ZM6.81058 1.54749C6.80199 1.53649 6.79164 1.52679 6.77992 1.51876C6.78771 1.48719 6.80753 1.45998 6.83458 1.44163C6.83662 1.4506 6.8377 1.45991 6.8377 1.46945C6.8377 1.49865 6.82762 1.52564 6.81058 1.54749ZM6.58461 2.29408C6.56878 2.23761 6.51419 2.19599 6.44929 2.19599C6.43072 2.19599 6.413 2.19939 6.39678 2.20558C6.41262 2.26205 6.4672 2.30368 6.53211 2.30368C6.55067 2.30368 6.5684 2.30027 6.58461 2.29408ZM6.66743 2.13801C6.65159 2.08154 6.59701 2.03991 6.53211 2.03991C6.51354 2.03991 6.49581 2.04332 6.4796 2.0495C6.49543 2.10597 6.55002 2.1476 6.61492 2.1476C6.63349 2.1476 6.65122 2.14419 6.66743 2.13801ZM6.70322 1.91339C6.67914 1.89491 6.6484 1.88383 6.61492 1.88383L6.60944 1.88393C6.63352 1.90241 6.66426 1.91349 6.69774 1.91349L6.70322 1.91339ZM6.81058 1.70357C6.7851 1.67091 6.74405 1.64972 6.69774 1.64972C6.65143 1.64972 6.61037 1.67091 6.5849 1.70357C6.61037 1.73622 6.65143 1.75741 6.69774 1.75741C6.74405 1.75741 6.7851 1.73622 6.81058 1.70357ZM5.86905 1.34203C5.904 1.31805 5.92672 1.2792 5.92672 1.23534C5.92672 1.21416 5.92142 1.19414 5.912 1.1764C5.87705 1.20038 5.85433 1.23924 5.85433 1.28309C5.85433 1.30428 5.85963 1.32429 5.86905 1.34203ZM6.08325 1.38492C6.11439 1.36073 6.13425 1.3241 6.13425 1.28309C6.13425 1.25672 6.12604 1.23216 6.11189 1.21155C6.08074 1.23574 6.06088 1.27237 6.06088 1.31338C6.06088 1.33975 6.0691 1.36431 6.08325 1.38492ZM6.34023 1.32542C6.33767 1.35203 6.32673 1.37636 6.30991 1.39604C6.31246 1.36943 6.32341 1.3451 6.34023 1.32542ZM6.55939 1.48951C6.57809 1.46709 6.58925 1.43881 6.58925 1.40808C6.58925 1.40126 6.5887 1.39456 6.58764 1.38802C6.56893 1.41044 6.55778 1.43872 6.55778 1.46945C6.55778 1.47627 6.55833 1.48297 6.55939 1.48951ZM6.97883 1.66674C7.02471 1.6451 7.0562 1.60039 7.0562 1.54875C7.0562 1.53435 7.05375 1.5205 7.04923 1.50753C7.00335 1.52918 6.97186 1.57389 6.97186 1.62553C6.97186 1.63992 6.9743 1.65378 6.97883 1.66674ZM7.13957 1.75482C7.20357 1.74269 7.25177 1.68941 7.25177 1.62553C7.25177 1.61777 7.25106 1.61016 7.2497 1.60276C7.18569 1.6149 7.13749 1.66817 7.13749 1.73206C7.13749 1.73982 7.1382 1.74742 7.13957 1.75482ZM7.47168 1.98877C7.52603 1.97814 7.56883 1.9378 7.58011 1.88659C7.52576 1.89722 7.48296 1.93756 7.47168 1.98877ZM7.41739 1.72997L7.41741 1.73206C7.41741 1.79662 7.36817 1.85035 7.30314 1.86172L7.30312 1.85964C7.30312 1.79507 7.35236 1.74134 7.41739 1.72997ZM7.47339 2.0495C7.4896 2.04332 7.50733 2.03991 7.52589 2.03991C7.5908 2.03991 7.64538 2.08154 7.66122 2.13801C7.645 2.14419 7.62728 2.1476 7.60871 2.1476C7.54381 2.1476 7.48922 2.10597 7.47339 2.0495ZM7.39057 2.20558C7.40679 2.19939 7.42451 2.19599 7.44308 2.19599C7.50798 2.19599 7.56257 2.23761 7.5784 2.29408C7.56219 2.30027 7.54446 2.30368 7.52589 2.30368C7.46099 2.30368 7.40641 2.26205 7.39057 2.20558ZM7.44308 2.45975C7.4096 2.45975 7.37886 2.44868 7.35478 2.4302L7.36026 2.4301C7.39374 2.4301 7.42448 2.44118 7.44856 2.45965L7.44308 2.45975ZM7.44308 2.35206C7.45726 2.35206 7.46875 2.34123 7.46875 2.32787C7.46875 2.31451 7.45726 2.30368 7.44308 2.30368C7.4289 2.30368 7.41741 2.31451 7.41741 2.32787C7.41741 2.34123 7.4289 2.35206 7.44308 2.35206ZM7.5259 2.19599C7.54007 2.19599 7.55157 2.18515 7.55157 2.17179C7.55157 2.15843 7.54007 2.1476 7.5259 2.1476C7.51172 2.1476 7.50022 2.15843 7.50022 2.17179C7.50022 2.18515 7.51172 2.19599 7.5259 2.19599ZM7.60871 2.03991C7.62289 2.03991 7.63438 2.02908 7.63438 2.01572C7.63438 2.00236 7.62289 1.99153 7.60871 1.99153C7.59453 1.99153 7.58304 2.00236 7.58304 2.01572C7.58304 2.02908 7.59453 2.03991 7.60871 2.03991ZM7.44308 1.88383C7.45726 1.88383 7.46875 1.873 7.46875 1.85964C7.46875 1.84628 7.45726 1.83545 7.44308 1.83545C7.4289 1.83545 7.41741 1.84628 7.41741 1.85964C7.41741 1.873 7.4289 1.88383 7.44308 1.88383ZM7.27745 1.75625C7.29163 1.75625 7.30312 1.74542 7.30312 1.73206C7.30312 1.71869 7.29163 1.70786 7.27745 1.70786C7.26327 1.70786 7.25177 1.71869 7.25177 1.73206C7.25177 1.74542 7.26327 1.75625 7.27745 1.75625ZM7.11182 1.64972C7.126 1.64972 7.13749 1.63889 7.13749 1.62553C7.13749 1.61217 7.126 1.60134 7.11182 1.60134C7.09764 1.60134 7.08614 1.61217 7.08614 1.62553C7.08614 1.63889 7.09764 1.64972 7.11182 1.64972ZM6.91624 1.57294C6.93042 1.57294 6.94192 1.56211 6.94192 1.54875C6.94192 1.53539 6.93042 1.52456 6.91624 1.52456C6.90206 1.52456 6.89057 1.53539 6.89057 1.54875C6.89057 1.56211 6.90206 1.57294 6.91624 1.57294ZM6.69774 1.49364C6.71192 1.49364 6.72341 1.48281 6.72341 1.46945C6.72341 1.45609 6.71192 1.44526 6.69774 1.44526C6.68356 1.44526 6.67206 1.45609 6.67206 1.46945C6.67206 1.48281 6.68356 1.49364 6.69774 1.49364ZM6.44929 1.43227C6.46347 1.43227 6.47496 1.42144 6.47496 1.40808C6.47496 1.39472 6.46347 1.38389 6.44929 1.38389C6.43511 1.38389 6.42362 1.39472 6.42362 1.40808C6.42362 1.42144 6.43511 1.43227 6.44929 1.43227ZM6.20084 1.33757C6.21502 1.33757 6.22652 1.32674 6.22652 1.31338C6.22652 1.30002 6.21502 1.28918 6.20084 1.28918C6.18666 1.28918 6.17517 1.30002 6.17517 1.31338C6.17517 1.32674 6.18666 1.33757 6.20084 1.33757ZM5.99429 1.30729C6.00847 1.30729 6.01996 1.29645 6.01996 1.28309C6.01996 1.26973 6.00847 1.2589 5.99429 1.2589C5.98011 1.2589 5.96862 1.26973 5.96862 1.28309C5.96862 1.29645 5.98011 1.30729 5.99429 1.30729ZM5.78676 1.25953C5.80094 1.25953 5.81244 1.2487 5.81244 1.23534C5.81244 1.22198 5.80094 1.21115 5.78676 1.21115C5.77259 1.21115 5.76109 1.22198 5.76109 1.23534C5.76109 1.2487 5.77259 1.25953 5.78676 1.25953ZM6.69774 1.64972C6.71192 1.64972 6.72341 1.63889 6.72341 1.62553C6.72341 1.61217 6.71192 1.60134 6.69774 1.60134C6.68356 1.60134 6.67206 1.61217 6.67206 1.62553C6.67206 1.63889 6.68356 1.64972 6.69774 1.64972ZM6.69774 1.8058C6.71192 1.8058 6.72341 1.79496 6.72341 1.7816C6.72341 1.76824 6.71192 1.75741 6.69774 1.75741C6.68356 1.75741 6.67206 1.76824 6.67206 1.7816C6.67206 1.79496 6.68356 1.8058 6.69774 1.8058ZM6.61492 2.03991C6.6291 2.03991 6.64059 2.02908 6.64059 2.01572C6.64059 2.00236 6.6291 1.99153 6.61492 1.99153C6.60074 1.99153 6.58925 2.00236 6.58925 2.01572C6.58925 2.02908 6.60074 2.03991 6.61492 2.03991ZM6.53211 2.19599C6.54628 2.19599 6.55778 2.18515 6.55778 2.17179C6.55778 2.15843 6.54628 2.1476 6.53211 2.1476C6.51793 2.1476 6.50643 2.15843 6.50643 2.17179C6.50643 2.18515 6.51793 2.19599 6.53211 2.19599ZM6.44929 2.35206C6.46347 2.35206 6.47496 2.34123 6.47496 2.32787C6.47496 2.31451 6.46347 2.30368 6.44929 2.30368C6.43511 2.30368 6.42362 2.31451 6.42362 2.32787C6.42362 2.34123 6.43511 2.35206 6.44929 2.35206Z" fill="white"/>
<path fill-rule="evenodd" clip-rule="evenodd" d="M5.11044 0.460696L4.89156 0.467068L4.88705 0.808364L4.48315 0.813636L4.48499 1.02077L4.88431 1.01556L4.87916 1.40456L5.09804 1.39819L5.10314 1.01271L5.50048 1.00752L5.49864 0.800381L5.10588 0.805508L5.11044 0.460696Z" fill="#F6C540"/>
<path fill-rule="evenodd" clip-rule="evenodd" d="M2.01987 4.00299H7.96272V8.75947C7.96272 8.75947 7.78301 11.1288 4.9913 11.1288C2.19958 11.1288 2.01987 8.75947 2.01987 8.75947V4.00299Z" fill="#C51918"/>
<path fill-rule="evenodd" clip-rule="evenodd" d="M3.8135 4.1676C3.759 4.1676 3.67512 4.20448 3.56392 4.24625C3.45273 4.28801 3.33595 4.37817 3.44994 4.46848C3.56392 4.55879 3.7271 4.757 3.7271 4.6829C3.7271 4.60879 3.92203 4.53693 3.92203 4.57286C3.92203 4.60879 3.86168 4.6829 4.01998 4.6829C4.17828 4.6829 4.25984 4.72697 4.09093 4.72697C3.92203 4.72697 3.90367 4.79978 3.7939 4.79978C3.68413 4.79978 3.44994 4.72642 3.44994 4.6829C3.44994 4.63937 3.58556 4.89687 3.7271 4.89687C3.86864 4.89687 3.94903 5.02216 4.01998 4.95952C4.09093 4.89687 4.08254 4.89687 4.19716 4.89687C4.31179 4.89687 4.26996 4.64388 4.26996 4.64388C4.26996 4.64388 3.86799 4.1676 3.8135 4.1676Z" fill="#E8AA00"/>
<path fill-rule="evenodd" clip-rule="evenodd" d="M6.10691 4.1676C6.16141 4.1676 6.24529 4.20448 6.35649 4.24625C6.46768 4.28801 6.58446 4.37817 6.47047 4.46848C6.35649 4.55879 6.19331 4.757 6.19331 4.6829C6.19331 4.60879 5.99838 4.53693 5.99838 4.57286C5.99838 4.60879 6.05873 4.6829 5.90043 4.6829C5.74213 4.6829 5.66057 4.72697 5.82948 4.72697C5.99838 4.72697 6.01674 4.79978 6.12651 4.79978C6.23628 4.79978 6.47047 4.72642 6.47047 4.6829C6.47047 4.63937 6.33485 4.89687 6.19331 4.89687C6.05177 4.89687 5.97138 5.02216 5.90043 4.95952C5.82948 4.89687 5.83787 4.89687 5.72325 4.89687C5.60862 4.89687 5.65045 4.64388 5.65045 4.64388C5.65045 4.64388 6.05242 4.1676 6.10691 4.1676Z" fill="#E8AA00"/>
<path fill-rule="evenodd" clip-rule="evenodd" d="M6.83541 4.68471C6.94933 4.93505 6.07623 5.86502 6.07623 5.86502H5.97847C5.93739 5.86502 5.86098 5.76977 5.76872 5.65476C5.70549 5.57593 5.63481 5.48783 5.56296 5.41474C5.42779 5.27725 5.49943 5.16175 5.56621 5.05408C5.58672 5.02101 5.60678 4.98867 5.62024 4.95666C5.6494 4.88732 5.65355 4.85966 5.65829 4.82806C5.66286 4.79758 5.66799 4.76343 5.69662 4.68471C5.7387 4.56902 5.8854 4.41976 5.98713 4.31626C6.0264 4.27629 6.05898 4.24315 6.07623 4.2214C6.13069 4.15274 6.08937 4.15314 5.97568 4.15424C5.96009 4.15439 5.94312 4.15455 5.92486 4.15455C5.7735 4.15455 5.48434 4.2214 5.39791 4.29948C5.31148 4.37755 5.22085 4.39421 5.08768 4.39421C4.95451 4.39421 5.03665 4.47871 5.15793 4.53578C5.02735 4.5593 4.94364 4.76442 4.89445 4.94654C4.86762 4.76442 4.80843 4.5593 4.67784 4.53578C4.79912 4.47871 4.88126 4.39421 4.74809 4.39421C4.61492 4.39421 4.52429 4.37755 4.43786 4.29948C4.35143 4.2214 4.06228 4.15455 3.91091 4.15455C3.89265 4.15455 3.87569 4.15439 3.86009 4.15424C3.7464 4.15314 3.70508 4.15274 3.75954 4.2214C3.7768 4.24315 3.80937 4.27629 3.84865 4.31626C3.95037 4.41976 4.09708 4.56902 4.13915 4.68471C4.16779 4.76343 4.17291 4.79758 4.17748 4.82806C4.18222 4.85966 4.18637 4.88732 4.21553 4.95666C4.22899 4.98867 4.24905 5.02101 4.26957 5.05408C4.33635 5.16175 4.40798 5.27725 4.27281 5.41474C4.20096 5.48783 4.13029 5.57593 4.06706 5.65476C3.9748 5.76977 3.89839 5.86502 3.85731 5.86502H3.75954C3.75954 5.86502 2.88645 4.93505 3.00037 4.68471C3.0444 4.58795 3.11542 4.49677 3.1742 4.42131C3.26748 4.30155 3.32992 4.2214 3.20461 4.2214C3.00037 4.2214 2.18616 4.7079 2.18616 5.80487C2.18616 6.90184 2.26137 7.52572 2.43595 7.9628C2.55509 8.26108 2.44596 8.55075 2.36463 8.76663C2.32678 8.8671 2.29495 8.95158 2.29495 9.01352C2.29495 9.20855 2.61553 9.03766 2.61553 8.91553C2.61553 8.85744 2.65942 8.94394 2.70546 9.03467C2.75622 9.1347 2.80959 9.23986 2.80959 9.162C2.80959 9.07892 2.8607 8.99119 2.90572 8.91389C2.94117 8.85303 2.97285 8.79865 2.97285 8.75811C2.97285 8.71757 3.01782 8.71908 3.06814 8.72076C3.13206 8.72289 3.20461 8.72531 3.20461 8.64224C3.20461 8.58619 3.2277 8.575 3.25644 8.56106C3.30383 8.53808 3.36661 8.50764 3.36661 8.2563C3.36661 8.07001 3.40619 8.13601 3.45159 8.21172C3.49337 8.28139 3.54009 8.35929 3.56542 8.2563C3.56788 8.24627 3.59411 8.20308 3.62653 8.14968C3.67372 8.07197 3.73403 7.97265 3.75332 7.92249C3.69385 8.14189 3.55116 8.37052 3.46055 8.47943C3.36661 8.59236 3.20461 8.8375 3.20461 8.8375C3.20461 8.8375 3.35569 8.91688 3.46055 8.8375C3.51912 8.79316 3.52308 8.83488 3.52739 8.88035C3.5308 8.91629 3.53442 8.95458 3.56542 8.95458C3.58488 8.95458 3.6032 8.95758 3.61952 8.96024C3.63159 8.96222 3.64256 8.96401 3.65209 8.96428C3.61709 9.0483 3.58569 9.18267 3.691 9.09289C3.76621 9.02878 3.81895 9.00276 3.85389 8.98553C3.89432 8.96558 3.91091 8.95739 3.91091 8.91553C3.91091 8.87375 3.92734 8.8879 3.95307 8.91007C3.97541 8.92931 4.00475 8.95458 4.03645 8.95458C4.07729 8.95458 4.0858 8.90098 4.09817 8.82303C4.10646 8.77077 4.11649 8.70758 4.13915 8.64224C4.14444 8.62702 4.1494 8.61239 4.1541 8.59852C4.1997 8.46402 4.22097 8.4013 4.27281 8.57096C4.29704 8.65025 4.33984 8.70638 4.37711 8.75527C4.42781 8.82178 4.46828 8.87487 4.43786 8.95458C4.42595 8.98579 4.41101 9.02106 4.39502 9.05881C4.34013 9.18838 4.27281 9.34729 4.27281 9.47242C4.27281 9.54681 4.20095 9.6482 4.13341 9.74348C4.05425 9.85518 3.98103 9.95849 4.03645 10.0001C4.13915 10.0772 4.01487 10.3369 3.91091 10.4701C3.80695 10.6034 4.67784 10.9091 4.82992 10.9091C4.83208 10.9091 4.83419 10.908 4.83627 10.9057V10.9091C4.83627 10.9091 5.92486 10.8594 5.92486 10.4701C5.8209 10.3369 5.69662 10.0772 5.79932 10.0001C5.85475 9.95849 5.78152 9.85518 5.70236 9.74348C5.63482 9.6482 5.56296 9.54681 5.56296 9.47242C5.56296 9.34729 5.49564 9.18838 5.44075 9.05881C5.42476 9.02106 5.40982 8.98579 5.39791 8.95458C5.36749 8.87487 5.40797 8.82178 5.45867 8.75527C5.49593 8.70638 5.53873 8.65025 5.56296 8.57096C5.6148 8.4013 5.63607 8.46402 5.68167 8.59852C5.68638 8.61239 5.69134 8.62702 5.69662 8.64224C5.71929 8.70758 5.72931 8.77078 5.73761 8.82303C5.74997 8.90098 5.75848 8.95458 5.79932 8.95458C5.83102 8.95458 5.86036 8.92931 5.8827 8.91007C5.90843 8.8879 5.92486 8.87375 5.92486 8.91553C5.92486 8.95739 5.94145 8.96558 5.98189 8.98553C6.01682 9.00276 6.06956 9.02878 6.14477 9.09289C6.25009 9.18267 6.21869 9.0483 6.18368 8.96428C6.19321 8.96401 6.20418 8.96222 6.21626 8.96024C6.23257 8.95758 6.2509 8.95458 6.27036 8.95458C6.30135 8.95458 6.30498 8.91629 6.30838 8.88035C6.31269 8.83488 6.31665 8.79316 6.37522 8.8375C6.48008 8.91688 6.63116 8.8375 6.63116 8.8375C6.63116 8.8375 6.46916 8.59236 6.37522 8.47943C6.28461 8.37052 6.14192 8.14189 6.08245 7.92249C6.10174 7.97265 6.16205 8.07197 6.20924 8.14968C6.24166 8.20308 6.26789 8.24627 6.27036 8.2563C6.29568 8.35929 6.3424 8.28139 6.38418 8.21172C6.42958 8.13601 6.46916 8.07001 6.46916 8.2563C6.46916 8.50764 6.53194 8.53808 6.57933 8.56106C6.60807 8.575 6.63116 8.58619 6.63116 8.64224C6.63116 8.72531 6.70371 8.72289 6.76763 8.72076C6.81795 8.71908 6.86292 8.71757 6.86292 8.75811C6.86292 8.79865 6.8946 8.85303 6.93005 8.91389C6.97507 8.99119 7.02618 9.07892 7.02618 9.162C7.02618 9.23986 7.07955 9.1347 7.13031 9.03467C7.17635 8.94394 7.22025 8.85744 7.22025 8.91553C7.22025 9.03766 7.54082 9.20855 7.54082 9.01352C7.54082 8.95158 7.50899 8.8671 7.47114 8.76663C7.38981 8.55075 7.28069 8.26108 7.39982 7.9628C7.57441 7.52572 7.64962 6.90184 7.64962 5.80487C7.64962 4.7079 6.83541 4.2214 6.63116 4.2214C6.50586 4.2214 6.56829 4.30155 6.66158 4.42131C6.72035 4.49677 6.79137 4.58795 6.83541 4.68471ZM6.07623 7.89829C6.07819 7.90634 6.08026 7.91441 6.08245 7.92249C6.07846 7.91211 6.07623 7.90384 6.07623 7.89829ZM6.14477 8.91553C6.14477 8.88815 6.16475 8.91886 6.18368 8.96428C6.15962 8.96496 6.14477 8.95593 6.14477 8.91553ZM3.65209 8.96428C3.67616 8.96496 3.691 8.95593 3.691 8.91553C3.691 8.88815 3.67102 8.91886 3.65209 8.96428ZM3.75332 7.92249C3.75731 7.91211 3.75954 7.90384 3.75954 7.89829C3.75759 7.90634 3.75551 7.91441 3.75332 7.92249Z" fill="#F7FCFF"/>
<path fill-rule="evenodd" clip-rule="evenodd" d="M3.884 5.94153H6.09858V7.59088C6.09858 7.59088 5.86084 8.41246 4.99129 8.41246C4.12174 8.41246 3.884 7.59088 3.884 7.59088V5.94153Z" fill="#C51918"/>
<path fill-rule="evenodd" clip-rule="evenodd" d="M5.28986 5.9176H4.71015V6.86446H3.88199V7.20263H4.71015V8.42002H5.28986V7.20263H6.11801V6.86446H5.28986V5.9176Z" fill="#F7FCFF"/>
<path fill-rule="evenodd" clip-rule="evenodd" d="M3.43684 9.66349C3.706 9.35386 3.95826 9.07849 3.73382 8.88339C3.50939 8.68829 3.24144 8.85742 2.97228 9.16705C2.70311 9.47668 2.53467 9.80957 2.75911 10.0047C2.98355 10.1998 3.16768 9.97312 3.43684 9.66349Z" fill="#E8AA00"/>
<path fill-rule="evenodd" clip-rule="evenodd" d="M6.36791 9.66349C6.09875 9.35386 5.84649 9.07849 6.07092 8.88339C6.29536 8.68829 6.56331 8.85742 6.83247 9.16705C7.10163 9.47668 7.27008 9.80957 7.04564 10.0047C6.8212 10.1998 6.63707 9.97312 6.36791 9.66349Z" fill="#E8AA00"/>
</g>
</g>
<defs>
<clipPath id="clip0_8_24161">
<rect width="16" height="12" fill="white"/>
</clipPath>
</defs>
</svg>
