<svg width="16" height="12" viewBox="0 0 16 12" fill="none" xmlns="http://www.w3.org/2000/svg">
<g clip-path="url(#clip0_8_24164)">
<rect width="16" height="12" fill="white"/>
<rect width="16" height="12" fill="#67BD23"/>
<path d="M3.49086 2.28776C3.49086 2.28776 3.7462 3.45242 3.49086 3.22905C3.23551 3.00567 2.66819 3.85693 3.26083 3.54299C3.85347 3.22905 3.95779 2.90364 3.95779 3.54299C3.95779 4.18234 4.24118 3.85704 3.75101 4.33227C3.26083 4.8075 5.46903 4.81492 4.47994 5.11239C3.49086 5.40985 3.02207 6.04407 3.75101 5.81088C4.47994 5.57768 5.65344 4.59 5.34714 4.33227C5.04083 4.07454 5.19142 4.12734 5.19142 3.54299C5.19142 2.95864 4.99696 2.80794 4.74347 2.65703C4.48998 2.50611 5.72972 3.67776 6.14395 2.98276C6.55817 2.28776 6.50831 2.73647 6.80774 2.98276C7.10717 3.22905 7.57345 3.52629 7.57345 2.98276C7.57345 2.43922 8.18824 1.39045 8.18824 2.46672C8.18824 3.54299 8.95992 4.0994 8.95992 3.37822C8.95992 2.65703 9.66958 1.95068 9.66958 2.46672C9.66958 2.98276 10.077 2.95886 10.4252 2.80794C10.7735 2.65703 10.744 2.25884 10.744 3.37822C10.744 4.49759 10.8899 6.24692 10.4252 6.09945C9.9606 5.95197 10.3949 5.28633 9.95984 4.33227C9.52477 3.37822 10.4032 3.37483 9.49531 4.59285C8.58741 5.81088 8.73159 5.63192 8.45992 5.11239C8.18824 4.59285 9.34639 4.07169 8.45992 4.33227C7.57345 4.59285 8.05533 6.05149 7.81439 5.58194C7.57345 5.11239 6.95797 2.61807 6.88285 3.86523C6.80774 5.11239 7.11941 5.81088 6.45992 5.81088C5.80043 5.81088 5.2426 5.86129 5.69327 5.58194C6.14395 5.30259 6.14395 4.33227 6.14395 4.33227" stroke="white" stroke-width="0.5"/>
<path fill-rule="evenodd" clip-rule="evenodd" d="M6.96684 7.92781C6.56023 7.97704 4.50554 7.96861 3.89174 7.82053C3.75422 7.79152 3.83284 8.41867 3.92182 8.56279C4.01081 8.70692 4.70934 8.85132 4.95289 8.88458C5.16187 8.91311 5.96705 8.86819 6.804 8.8215C6.94247 8.81378 7.0818 8.80601 7.21946 8.79851C7.95219 8.7586 9.0226 8.82815 9.58236 8.86452C9.76336 8.87628 9.89098 8.88458 9.93651 8.88458C10.1081 8.88458 10.0952 8.94247 10.0693 9.05881C10.067 9.06885 10.0647 9.07932 10.0624 9.09024C10.0331 9.22757 10.1869 9.52255 10.2547 9.55029C10.3225 9.57804 10.8269 9.55029 11.1017 9.44425C11.2581 9.38389 11.2766 9.39225 11.3173 9.41065C11.3481 9.42458 11.3917 9.44425 11.5173 9.44425C11.7061 9.44425 11.7159 9.17393 11.7228 8.98309C11.7266 8.87897 11.7295 8.79851 11.7601 8.79851C11.7945 8.79851 11.8407 8.90059 11.8839 8.99614C11.9498 9.14185 12.0088 9.2724 12.0088 9.00268C12.0088 8.5561 11.4836 7.97127 11.3119 8.01806C11.1915 8.05087 10.9933 8.01468 10.8587 7.99011C10.8013 7.97963 10.7555 7.97127 10.7323 7.97127C10.6986 7.97127 10.7087 7.96311 10.731 7.94513C10.7601 7.92161 10.8101 7.88132 10.8101 7.82053C10.8101 7.71324 10.708 7.69806 10.623 7.69806C10.538 7.69806 10.4926 7.76754 10.4926 7.82053C10.4926 7.87352 10.5567 7.92781 10.5567 7.92781C10.5434 7.92781 10.4763 7.92692 10.3692 7.92551C9.67812 7.91637 7.31889 7.88518 6.96684 7.92781ZM10.4375 8.87306C10.4375 8.87296 10.4916 8.84162 10.617 8.68704C10.7558 8.51589 10.8049 8.5706 10.8561 8.62762C10.8825 8.65702 10.9094 8.68704 10.9495 8.68704C11.0673 8.68704 11.2229 8.68704 11.3241 8.77293C11.4253 8.85883 11.1909 8.9769 11.1227 8.9769C11.0888 8.9769 11.0637 8.95576 11.0385 8.93445C11.0129 8.91281 10.987 8.891 10.9515 8.891C10.9097 8.891 10.8745 8.92133 10.8459 8.94594C10.8264 8.96275 10.8099 8.9769 10.7966 8.9769C10.785 8.9769 10.7592 8.96216 10.7257 8.94309C10.6646 8.9082 10.5781 8.85883 10.5069 8.85883C10.4625 8.85883 10.4376 8.87313 10.4375 8.87306Z" fill="white"/>
<path d="M3.89174 7.82053L3.90347 7.7719L3.90206 7.7716L3.89174 7.82053ZM6.96684 7.92781L6.97285 7.97745L6.96684 7.92781ZM3.92182 8.56279L3.96437 8.53653L3.92182 8.56279ZM4.95289 8.88458L4.95966 8.83504L4.95289 8.88458ZM6.804 8.8215L6.80121 8.77158L6.804 8.8215ZM7.21946 8.79851L7.22217 8.84843L7.21946 8.79851ZM9.58236 8.86452L9.57912 8.91442L9.58236 8.86452ZM10.0693 9.05881L10.1181 9.06968V9.06968L10.0693 9.05881ZM10.0624 9.09024L10.0135 9.07983V9.07983L10.0624 9.09024ZM11.1017 9.44425L11.1197 9.4909L11.1017 9.44425ZM11.3173 9.41065L11.3379 9.36509V9.36509L11.3173 9.41065ZM11.7228 8.98309L11.7728 8.9849V8.9849L11.7228 8.98309ZM11.8839 8.99614L11.9294 8.97555V8.97555L11.8839 8.99614ZM11.3119 8.01806L11.2988 7.96982V7.96982L11.3119 8.01806ZM10.8587 7.99011L10.8497 8.0393L10.8587 7.99011ZM10.731 7.94513L10.6996 7.90621V7.90621L10.731 7.94513ZM10.5567 7.92781V7.97781H10.693L10.589 7.88967L10.5567 7.92781ZM10.3692 7.92551L10.3686 7.9755L10.3692 7.92551ZM10.617 8.68704L10.6558 8.71854L10.617 8.68704ZM10.4375 8.87306L10.4809 8.84816L10.4808 8.84798L10.4375 8.87306ZM10.8561 8.62762L10.8189 8.66102L10.8189 8.66102L10.8561 8.62762ZM11.3241 8.77293L11.3565 8.73482L11.3241 8.77293ZM11.0385 8.93445L11.0062 8.97265L11.0385 8.93445ZM10.8459 8.94594L10.8785 8.98383L10.8459 8.94594ZM10.7257 8.94309L10.7505 8.89966L10.7257 8.94309ZM10.5069 8.85883V8.80883V8.85883ZM3.88001 7.86913C4.19311 7.94467 4.86587 7.98371 5.50586 7.99815C6.14663 8.0126 6.76545 8.00256 6.97285 7.97745L6.96083 7.87817C6.76162 7.90229 6.14979 7.91265 5.50812 7.89817C4.86566 7.88368 4.20417 7.84447 3.90347 7.77192L3.88001 7.86913ZM3.96437 8.53653C3.94684 8.50813 3.92664 8.44905 3.90902 8.37093C3.89182 8.29468 3.8783 8.20604 3.87169 8.12278C3.86501 8.03867 3.86569 7.96364 3.87507 7.91313C3.8799 7.88714 3.88604 7.87341 3.8901 7.86791C3.8917 7.86575 3.89141 7.86703 3.88843 7.86833C3.88496 7.86984 3.88201 7.86957 3.88142 7.86945L3.90206 7.7716C3.88428 7.76785 3.86583 7.76908 3.84844 7.77667C3.83156 7.78404 3.81894 7.79596 3.8097 7.80845C3.79209 7.83226 3.7825 7.86389 3.77675 7.89487C3.76498 7.9583 3.76509 8.04363 3.772 8.13069C3.77898 8.21861 3.7932 8.31196 3.81147 8.39294C3.82931 8.47203 3.85232 8.54539 3.87928 8.58906L3.96437 8.53653ZM4.95966 8.83504C4.84 8.8187 4.60657 8.77471 4.39241 8.71698C4.28527 8.68811 4.18442 8.65618 4.10556 8.62309C4.0661 8.60653 4.03333 8.59017 4.00845 8.5744C3.98266 8.55805 3.96957 8.54495 3.96437 8.53653L3.87928 8.58906C3.89633 8.61667 3.92453 8.6396 3.95492 8.65887C3.98622 8.67871 4.02453 8.69754 4.06687 8.7153C4.15163 8.75087 4.25732 8.78414 4.36638 8.81354C4.58462 8.87236 4.82223 8.9172 4.94613 8.93412L4.95966 8.83504ZM6.80121 8.77158C6.38261 8.79493 5.9725 8.81781 5.64093 8.83129C5.30697 8.84487 5.05871 8.84856 4.95966 8.83504L4.94613 8.93412C5.05605 8.94913 5.31488 8.94463 5.64499 8.93121C5.97748 8.91769 6.38843 8.89476 6.80678 8.87143L6.80121 8.77158ZM7.21674 8.74858C7.07905 8.75608 6.93967 8.76386 6.80121 8.77158L6.80678 8.87143C6.94526 8.8637 7.08456 8.85593 7.22217 8.84843L7.21674 8.74858ZM9.5856 8.81463C9.02679 8.77832 7.95308 8.70848 7.21674 8.74858L7.22217 8.84843C7.95129 8.80872 9.01841 8.87799 9.57912 8.91442L9.5856 8.81463ZM9.93651 8.83458C9.8931 8.83458 9.76799 8.82648 9.5856 8.81463L9.57912 8.91442C9.75874 8.92609 9.88885 8.93458 9.93651 8.93458V8.83458ZM10.1181 9.06968C10.1243 9.04156 10.1308 9.01288 10.1333 8.98747C10.1358 8.96229 10.1355 8.93247 10.1214 8.90513C10.1062 8.87566 10.0798 8.85788 10.0486 8.84784C10.0187 8.83824 9.98129 8.83458 9.93651 8.83458V8.93458C9.97751 8.93458 10.0028 8.93815 10.018 8.94304C10.0252 8.94536 10.0288 8.94759 10.0305 8.94886C10.0319 8.94993 10.0323 8.95057 10.0325 8.951C10.0334 8.95268 10.0357 8.95915 10.0338 8.97754C10.032 8.9957 10.0271 9.01789 10.0204 9.04793L10.1181 9.06968ZM10.1113 9.10064C10.1135 9.09 10.1158 9.07975 10.1181 9.06968L10.0204 9.04793C10.0182 9.05794 10.0158 9.06865 10.0135 9.07983L10.1113 9.10064ZM10.2737 9.50402C10.2748 9.50449 10.2708 9.50277 10.2617 9.49342C10.2535 9.48494 10.2438 9.47287 10.233 9.45742C10.2115 9.4266 10.1883 9.38552 10.1676 9.34052C10.147 9.29553 10.1296 9.24803 10.1192 9.20449C10.1085 9.15987 10.1062 9.12424 10.1113 9.10064L10.0135 9.07983C10.0039 9.1249 10.0099 9.17765 10.0219 9.22782C10.0342 9.27909 10.0541 9.33281 10.0767 9.3822C10.0994 9.43158 10.1255 9.47803 10.151 9.51461C10.1637 9.53287 10.1768 9.54947 10.1899 9.56297C10.2021 9.57559 10.2177 9.58916 10.2358 9.59657L10.2737 9.50402ZM11.0837 9.39761C10.9526 9.44819 10.7631 9.48111 10.5956 9.49769C10.5124 9.50593 10.436 9.51 10.3767 9.51034C10.347 9.51052 10.3222 9.50975 10.3034 9.50822C10.2939 9.50745 10.2865 9.50653 10.2809 9.50557C10.2749 9.50453 10.273 9.50375 10.2737 9.50402L10.2358 9.59657C10.2522 9.60327 10.2745 9.6062 10.2953 9.60789C10.318 9.60974 10.3459 9.61052 10.3773 9.61034C10.4402 9.60997 10.5198 9.60568 10.6055 9.5972C10.7758 9.58033 10.9759 9.54636 11.1197 9.4909L11.0837 9.39761ZM11.3379 9.36509C11.3284 9.3608 11.3155 9.3548 11.3003 9.35109C11.2841 9.34711 11.2672 9.34608 11.2475 9.3482C11.2109 9.35215 11.1615 9.36756 11.0837 9.39761L11.1197 9.4909C11.1982 9.46058 11.2363 9.44999 11.2582 9.44763C11.2678 9.44659 11.2729 9.44733 11.2765 9.44821C11.2812 9.44936 11.2858 9.4513 11.2967 9.45622L11.3379 9.36509ZM11.5173 9.39425C11.457 9.39425 11.4184 9.38952 11.3924 9.38383C11.3671 9.3783 11.3523 9.37161 11.3379 9.36509L11.2967 9.45622C11.3131 9.46362 11.3355 9.47373 11.3711 9.48152C11.4059 9.48915 11.452 9.49425 11.5173 9.49425V9.39425ZM11.6728 8.98127C11.6693 9.0784 11.6651 9.1869 11.6403 9.27112C11.628 9.31284 11.6119 9.34397 11.5923 9.36416C11.574 9.38286 11.5509 9.39425 11.5173 9.39425V9.49425C11.5781 9.49425 11.627 9.47185 11.6639 9.43391C11.6994 9.39745 11.7216 9.34906 11.7362 9.29935C11.7652 9.2007 11.7694 9.07862 11.7728 8.9849L11.6728 8.98127ZM11.7601 8.74851C11.7251 8.74851 11.7058 8.7734 11.6973 8.79012C11.689 8.8066 11.6847 8.82635 11.682 8.84424C11.6764 8.88088 11.6747 8.93043 11.6728 8.98127L11.7728 8.9849C11.7747 8.93162 11.7763 8.88888 11.7808 8.85926C11.7831 8.84403 11.7856 8.83715 11.7865 8.83529C11.7873 8.83367 11.7798 8.84851 11.7601 8.84851V8.74851ZM11.9294 8.97555C11.9081 8.92845 11.8848 8.87671 11.8622 8.83684C11.851 8.81704 11.8386 8.79771 11.8253 8.78273C11.8143 8.77044 11.7921 8.74851 11.7601 8.74851V8.84851C11.7454 8.84851 11.7418 8.83934 11.7505 8.84918C11.7569 8.85631 11.7652 8.86848 11.7752 8.88615C11.7951 8.92121 11.8164 8.96828 11.8383 9.01674L11.9294 8.97555ZM11.9588 9.00268C11.9588 9.0356 11.9579 9.06165 11.9563 9.08186C11.9546 9.10247 11.9524 9.11526 11.9504 9.12244C11.9494 9.12599 11.9488 9.12668 11.9494 9.12573C11.9498 9.12497 11.9527 9.11994 11.9596 9.11547C11.9678 9.11021 11.9779 9.10821 11.9873 9.10975C11.9953 9.11105 12 9.11441 12.0009 9.11511C12.002 9.11596 12.0018 9.11598 12.0001 9.11406C11.9986 9.11228 11.9966 9.10955 11.994 9.10565C11.9887 9.09777 11.9826 9.08704 11.9756 9.07354C11.9615 9.04648 11.9461 9.01236 11.9294 8.97555L11.8383 9.01674C11.8546 9.05278 11.8713 9.08963 11.8868 9.11959C11.8946 9.13461 11.9026 9.14891 11.9107 9.16108C11.9182 9.1723 11.9283 9.18572 11.9411 9.19529C11.9478 9.20027 11.958 9.20628 11.9712 9.20844C11.9858 9.21083 12.0008 9.20787 12.0136 9.19965C12.035 9.18595 12.043 9.16257 12.0467 9.14943C12.0553 9.11868 12.0588 9.07 12.0588 9.00268H11.9588ZM11.3251 8.0663C11.3313 8.0646 11.3461 8.0644 11.3725 8.07501C11.3979 8.08521 11.4286 8.10329 11.4632 8.12932C11.5322 8.18126 11.6109 8.26051 11.6853 8.35607C11.8354 8.54893 11.9588 8.79587 11.9588 9.00268H12.0588C12.0588 8.76291 11.9195 8.49414 11.7642 8.29464C11.6859 8.19402 11.6011 8.10793 11.5233 8.04942C11.4845 8.02022 11.446 7.9968 11.4098 7.98223C11.3746 7.96807 11.3354 7.95983 11.2988 7.96982L11.3251 8.0663ZM10.8497 8.0393C10.9167 8.05153 11.0019 8.06711 11.0857 8.07536C11.1684 8.0835 11.2556 8.08522 11.3251 8.0663L11.2988 7.96982C11.2478 7.98371 11.1758 7.98374 11.0955 7.97584C11.0165 7.96806 10.9353 7.95326 10.8677 7.94092L10.8497 8.0393ZM10.7323 8.02127C10.7395 8.02127 10.7533 8.02274 10.7749 8.02615C10.7957 8.02944 10.8209 8.03402 10.8497 8.0393L10.8677 7.94092C10.8392 7.93572 10.8128 7.93089 10.7905 7.92737C10.7691 7.92399 10.7483 7.92127 10.7323 7.92127V8.02127ZM10.6996 7.90621C10.6945 7.9103 10.6882 7.91539 10.6831 7.92011C10.6805 7.92252 10.677 7.92591 10.6737 7.93C10.671 7.93341 10.6651 7.94123 10.6622 7.9525C10.6586 7.96664 10.6603 7.98475 10.6727 7.99974C10.6826 8.01157 10.6948 8.01592 10.7002 8.01756C10.7114 8.02096 10.7237 8.02127 10.7323 8.02127V7.92127C10.724 7.92127 10.7249 7.92057 10.7292 7.92187C10.7312 7.92246 10.7411 7.9255 10.7496 7.93574C10.7543 7.94146 10.7581 7.94872 10.7597 7.95709C10.7612 7.96519 10.7604 7.97225 10.759 7.97739C10.7567 7.98651 10.7522 7.9919 10.7517 7.9926C10.7506 7.99398 10.75 7.99437 10.751 7.99349C10.753 7.99162 10.7563 7.98895 10.7624 7.98405L10.6996 7.90621ZM10.7601 7.82053C10.7601 7.83632 10.7538 7.85102 10.7421 7.86598C10.73 7.88148 10.7145 7.89416 10.6996 7.90621L10.7624 7.98405C10.7766 7.97258 10.8007 7.95335 10.8208 7.92763C10.8414 7.90136 10.8601 7.86552 10.8601 7.82053H10.7601ZM10.623 7.74806C10.6644 7.74806 10.7015 7.75211 10.7269 7.76421C10.7387 7.76981 10.7463 7.77636 10.7511 7.78368C10.7558 7.7908 10.7601 7.80194 10.7601 7.82053H10.8601C10.8601 7.78547 10.8516 7.75448 10.8345 7.72858C10.8176 7.70288 10.7943 7.68552 10.7699 7.67392C10.723 7.6516 10.6666 7.64806 10.623 7.64806V7.74806ZM10.5426 7.82053C10.5426 7.79091 10.5697 7.74806 10.623 7.74806V7.64806C10.5063 7.64806 10.4426 7.74416 10.4426 7.82053H10.5426ZM10.5567 7.92781C10.589 7.88967 10.589 7.88968 10.589 7.88968C10.589 7.88969 10.589 7.88969 10.589 7.8897C10.5891 7.88971 10.5891 7.88971 10.5891 7.88972C10.5891 7.88973 10.5891 7.88975 10.5891 7.88975C10.5891 7.88977 10.5891 7.88977 10.5891 7.88976C10.5891 7.88974 10.589 7.88968 10.5889 7.88956C10.5886 7.88934 10.5882 7.88892 10.5875 7.88833C10.5862 7.88716 10.5842 7.88531 10.5818 7.88289C10.5768 7.87799 10.5703 7.87108 10.5638 7.86298C10.5492 7.84449 10.5426 7.82916 10.5426 7.82053H10.4426C10.4426 7.86489 10.4681 7.9032 10.4855 7.9251C10.4951 7.9372 10.5045 7.94717 10.5116 7.95411C10.5151 7.95761 10.5181 7.96041 10.5203 7.96241C10.5214 7.96341 10.5224 7.96422 10.523 7.96481C10.5234 7.96511 10.5237 7.96535 10.5239 7.96554C10.524 7.96564 10.5241 7.96572 10.5242 7.96579C10.5242 7.96582 10.5242 7.96585 10.5243 7.96588C10.5243 7.96589 10.5243 7.9659 10.5243 7.96592C10.5243 7.96592 10.5243 7.96593 10.5243 7.96593C10.5243 7.96594 10.5244 7.96595 10.5567 7.92781ZM10.3686 7.9755C10.4753 7.97691 10.5429 7.97781 10.5567 7.97781V7.87781C10.5438 7.87781 10.4773 7.87693 10.3699 7.87551L10.3686 7.9755ZM6.97285 7.97745C7.0575 7.9672 7.26778 7.96112 7.55031 7.95818C7.83142 7.95525 8.18063 7.95544 8.54064 7.95725C9.26061 7.96086 10.023 7.97093 10.3686 7.9755L10.3699 7.87551C10.0244 7.87094 9.26157 7.86086 8.54114 7.85725C8.18094 7.85544 7.83114 7.85525 7.54927 7.85818C7.26884 7.8611 7.0522 7.86711 6.96083 7.87817L6.97285 7.97745ZM10.5781 8.65554C10.5166 8.73143 10.4733 8.77612 10.4461 8.80138C10.4326 8.81399 10.4231 8.82169 10.4175 8.82597C10.4147 8.8281 10.4129 8.8294 10.412 8.83003C10.4115 8.83035 10.4112 8.83053 10.4111 8.83061C10.4109 8.83072 10.411 8.83064 10.4107 8.83085C10.4107 8.83085 10.4103 8.83114 10.4098 8.83148C10.4096 8.83156 10.4087 8.83219 10.4076 8.83303C10.4072 8.83328 10.4054 8.83462 10.4033 8.83657C10.4021 8.83782 10.3986 8.84164 10.3966 8.84431C10.3926 8.85105 10.3878 8.87871 10.3943 8.89814L10.4808 8.84798C10.4872 8.86742 10.4824 8.89507 10.4784 8.90181C10.4764 8.90449 10.473 8.9083 10.4717 8.90955C10.4696 8.9115 10.4678 8.91283 10.4675 8.91308C10.4664 8.91392 10.4655 8.91452 10.4654 8.91459C10.4651 8.91478 10.4649 8.91492 10.4648 8.91497C10.4647 8.91503 10.4646 8.91507 10.4646 8.91507C10.4645 8.91514 10.465 8.91486 10.4652 8.9147C10.4659 8.91423 10.4669 8.91358 10.4682 8.91273C10.4707 8.91103 10.474 8.90865 10.4783 8.90542C10.4867 8.89896 10.4986 8.88914 10.5143 8.87458C10.5455 8.84549 10.592 8.79722 10.6558 8.71854L10.5781 8.65554ZM10.8933 8.59423C10.8813 8.58083 10.8653 8.56275 10.8467 8.54878C10.8269 8.53396 10.801 8.52125 10.7686 8.52178C10.7369 8.52229 10.7064 8.53533 10.6764 8.55703C10.6465 8.57866 10.6143 8.61102 10.5781 8.65554L10.6558 8.71854C10.6891 8.67749 10.7151 8.6525 10.735 8.63804C10.7549 8.62365 10.7659 8.62183 10.7702 8.62176C10.7738 8.6217 10.7785 8.62266 10.7867 8.62879C10.796 8.63576 10.8053 8.64591 10.8189 8.66102L10.8933 8.59423ZM10.9495 8.63704C10.9432 8.63704 10.9366 8.63501 10.9275 8.62822C10.9172 8.62059 10.9072 8.60973 10.8933 8.59423L10.8189 8.66102C10.8415 8.68624 10.8833 8.73704 10.9495 8.73704V8.63704ZM11.3565 8.73482C11.2963 8.68369 11.222 8.65992 11.1511 8.64842C11.0802 8.63694 11.0078 8.63704 10.9495 8.63704V8.73704C11.009 8.73704 11.0734 8.73714 11.1351 8.74713C11.1966 8.75711 11.2508 8.77629 11.2918 8.81105L11.3565 8.73482ZM11.1227 9.0269C11.1499 9.0269 11.1849 9.01629 11.2163 9.00331C11.2494 8.98962 11.2856 8.97029 11.3167 8.94734C11.3463 8.92545 11.3777 8.89556 11.3917 8.85883C11.3991 8.83922 11.402 8.8166 11.3956 8.79313C11.3892 8.76986 11.3749 8.75048 11.3565 8.73482L11.2918 8.81105C11.2952 8.81399 11.2971 8.81625 11.2981 8.81764C11.2985 8.81833 11.2988 8.81883 11.2989 8.81913C11.2991 8.81942 11.2991 8.81957 11.2991 8.81959C11.2991 8.81961 11.2991 8.81962 11.2991 8.81961C11.2991 8.81961 11.2991 8.8196 11.2991 8.81961C11.2991 8.81961 11.2991 8.81963 11.2991 8.81967C11.2991 8.81971 11.2991 8.81978 11.2991 8.81988C11.2991 8.82027 11.2989 8.82136 11.2982 8.82326C11.2946 8.83282 11.2821 8.84855 11.2572 8.86691C11.2338 8.88422 11.205 8.89977 11.1781 8.91091C11.1494 8.92275 11.1295 8.9269 11.1227 8.9269V9.0269ZM11.0062 8.97265C11.0287 8.99158 11.0675 9.0269 11.1227 9.0269V8.9269C11.11 8.9269 11.0988 8.91994 11.0708 8.89625L11.0062 8.97265ZM10.9515 8.941C10.9659 8.941 10.978 8.94882 11.0062 8.97265L11.0708 8.89625C11.0477 8.8768 11.0082 8.841 10.9515 8.841V8.941ZM10.8785 8.98383C10.8933 8.97109 10.9062 8.96016 10.9196 8.95202C10.9327 8.94409 10.943 8.941 10.9515 8.941V8.841C10.9183 8.841 10.89 8.85308 10.8678 8.86647C10.8461 8.87964 10.827 8.89618 10.8133 8.90805L10.8785 8.98383ZM10.7966 9.0269C10.8193 9.0269 10.8376 9.01557 10.8472 9.00895C10.8582 9.00144 10.8694 8.99167 10.8785 8.98383L10.8133 8.90805C10.8028 8.91702 10.7961 8.92274 10.7906 8.9265C10.7881 8.92824 10.7872 8.9286 10.7875 8.92844C10.7879 8.9283 10.7912 8.9269 10.7966 8.9269V9.0269ZM10.701 8.98652C10.7172 8.99581 10.7334 9.00503 10.7469 9.01183C10.7537 9.01525 10.761 9.01862 10.7681 9.02123C10.7743 9.02349 10.7847 9.0269 10.7966 9.0269V8.9269C10.8027 8.9269 10.8056 8.92846 10.8026 8.92736C10.8005 8.92661 10.7971 8.92511 10.7918 8.92246C10.7812 8.91712 10.7677 8.90944 10.7505 8.89966L10.701 8.98652ZM10.5069 8.90883C10.5322 8.90883 10.564 8.91792 10.6 8.93368C10.6354 8.94916 10.6701 8.96889 10.701 8.98652L10.7505 8.89966C10.7203 8.8824 10.6811 8.86001 10.6401 8.84207C10.5998 8.82443 10.5528 8.80883 10.5069 8.80883V8.90883ZM10.3942 8.89797C10.4041 8.91023 10.4253 8.92155 10.4337 8.92292C10.438 8.92306 10.4447 8.92255 10.4471 8.92214C10.4511 8.92136 10.4541 8.92025 10.4547 8.92001C10.4567 8.91928 10.4582 8.91858 10.4585 8.91846C10.4594 8.91804 10.4601 8.91768 10.4602 8.91765C10.4604 8.91754 10.4606 8.91744 10.4606 8.91742C10.4607 8.91738 10.4608 8.91734 10.4608 8.91733C10.4609 8.91728 10.4609 8.91726 10.461 8.91722C10.4611 8.91716 10.4615 8.91696 10.4622 8.91666C10.4636 8.91606 10.4662 8.91499 10.47 8.91383C10.4777 8.91153 10.4901 8.90883 10.5069 8.90883V8.80883C10.4793 8.80883 10.4571 8.81328 10.4411 8.81811C10.4331 8.82052 10.4268 8.82302 10.4221 8.82507C10.4197 8.8261 10.4178 8.82701 10.4164 8.82772C10.4157 8.82807 10.4151 8.82835 10.4149 8.8285C10.4146 8.82863 10.4148 8.82852 10.415 8.82841C10.415 8.8284 10.4157 8.82805 10.4166 8.82765C10.4169 8.82754 10.4184 8.82684 10.4203 8.82611C10.421 8.82588 10.424 8.82477 10.4279 8.82399C10.4304 8.82358 10.4371 8.82307 10.4414 8.82321C10.4497 8.82457 10.471 8.8359 10.4809 8.84816L10.3942 8.89797Z" fill="white"/>
<path d="M13.1161 2.37274C13.1161 2.37274 13.9232 6.00001 13.1161 6.00001C12.309 6.00001 12.309 5.68362 12.309 5.68362C12.309 5.68362 13.1953 6.09119 12.9502 5.02539C12.7051 3.9596 12.4764 4.69333 12.4764 3.75608C12.4764 2.81883 12.309 2.19007 12.309 2.66934C12.309 3.1486 12.1979 6.04361 11.7601 5.45141C11.3223 4.8592 11.4287 3.02529 11.4287 2.84731" stroke="white" stroke-width="0.5"/>
</g>
<defs>
<clipPath id="clip0_8_24164">
<rect width="16" height="12" fill="white"/>
</clipPath>
</defs>
</svg>
