<svg width="16" height="12" viewBox="0 0 16 12" fill="none" xmlns="http://www.w3.org/2000/svg">
<g clip-path="url(#clip0_8_24225)">
<rect width="16" height="12" fill="white"/>
<path fill-rule="evenodd" clip-rule="evenodd" d="M0 0V12H16V0H0Z" fill="#2E42A5"/>
<mask id="mask0_8_24225" style="mask-type:luminance" maskUnits="userSpaceOnUse" x="0" y="0" width="16" height="12">
<path fill-rule="evenodd" clip-rule="evenodd" d="M0 0V12H16V0H0Z" fill="white"/>
</mask>
<g mask="url(#mask0_8_24225)">
<path fill-rule="evenodd" clip-rule="evenodd" d="M0 0V4H16V0H0Z" fill="#F7FCFF"/>
<path fill-rule="evenodd" clip-rule="evenodd" d="M0 8V12H16V8H0Z" fill="#C51918"/>
<path fill-rule="evenodd" clip-rule="evenodd" d="M6.87012 2.51815C6.87012 2.51815 5.81775 2.02118 4.50885 2.02118C3.19995 2.02118 2.14758 2.51815 2.14758 2.51815C2.14758 2.51815 2.2647 4.5155 2.4498 5.57361C2.52883 6.02538 2.9087 6.6843 3.2526 6.99618C3.64458 7.35165 4.50885 7.7728 4.50885 7.7728C4.75896 7.60046 5.22659 7.52296 5.82431 6.99618C6.42202 6.4694 6.57059 5.57361 6.57059 5.57361L6.87012 2.51815Z" fill="#2E42A5"/>
<path d="M6.73099 2.45288L7.16925 2.67174L6.86839 5.68305C6.76302 6.32039 6.49936 6.82298 6.07772 7.19458C5.84899 7.39616 5.62573 7.54678 5.38636 7.67193C5.25125 7.74257 4.68608 8.0337 4.691 8.03132C4.63437 8.05862 4.59143 8.08252 4.55655 8.10655L4.50189 8.14422L4.44287 8.11546C3.85749 7.83022 3.31134 7.44635 3.03993 7.20022C2.66944 6.86423 2.2788 6.1767 2.19552 5.70063C2.07099 4.9888 1.95932 4.00835 1.88095 2.67174L2.27465 2.46577C2.35243 3.79231 2.44632 4.84977 2.5686 5.54875C2.64094 5.96229 3.00117 6.59629 3.32979 6.8943C3.57265 7.11454 3.96392 7.35876 4.50189 7.62437C4.53398 7.60556 4.56954 7.58695 4.61022 7.56734C4.61137 7.56679 4.97733 7.40427 5.10451 7.33778C5.32758 7.22115 5.53493 7.08127 5.74841 6.89312C6.1227 6.56326 6.3563 6.11902 6.45078 5.55468L6.73099 2.45288Z" fill="#C51918"/>
<path fill-rule="evenodd" clip-rule="evenodd" d="M2.77103 5.51209C2.77103 5.51209 3.02889 6.301 3.48049 6.74134C3.93208 7.18167 4.49035 7.3975 4.49035 7.3975C4.49035 7.3975 5.15529 7.19629 5.53267 6.77267C5.91006 6.34904 6.29641 5.51209 6.29641 5.51209L5.41876 4.6698L5.06993 5.04833L4.49035 4.22205L4.00512 5.04833L3.63305 4.6698L2.77103 5.51209Z" fill="white"/>
<path fill-rule="evenodd" clip-rule="evenodd" d="M3.57339 2.94314H3.22183L3.4945 2.6877L3.22183 2.41777H3.57339L3.72183 2.15576L3.87087 2.41777H4.22183L3.9628 2.67149L4.1928 2.94314H3.87087L3.72183 3.21964L3.57339 2.94314Z" fill="#FECA00"/>
<path fill-rule="evenodd" clip-rule="evenodd" d="M5.23028 2.94314H4.87872L5.15139 2.6877L4.87872 2.41777H5.23028L5.37872 2.15576L5.52776 2.41777H5.87872L5.61969 2.67149L5.8497 2.94314H5.52776L5.37872 3.21964L5.23028 2.94314Z" fill="#FECA00"/>
<path fill-rule="evenodd" clip-rule="evenodd" d="M4.29996 3.78378H3.94839L4.22106 3.52834L3.94839 3.25841H4.29996L4.44839 2.9964L4.59743 3.25841H4.94839L4.68936 3.51213L4.91937 3.78378H4.59743L4.44839 4.06028L4.29996 3.78378Z" fill="#FECA00"/>
</g>
</g>
<defs>
<clipPath id="clip0_8_24225">
<rect width="16" height="12" fill="white"/>
</clipPath>
</defs>
</svg>
