<svg width="16" height="12" viewBox="0 0 16 12" fill="none" xmlns="http://www.w3.org/2000/svg">
<g clip-path="url(#clip0_8_24188)">
<rect width="16" height="12" fill="white"/>
<path fill-rule="evenodd" clip-rule="evenodd" d="M0 0V12H16V0H0Z" fill="#3D58DB"/>
<mask id="mask0_8_24188" style="mask-type:luminance" maskUnits="userSpaceOnUse" x="0" y="0" width="16" height="12">
<path fill-rule="evenodd" clip-rule="evenodd" d="M0 0V12H16V0H0Z" fill="white"/>
</mask>
<g mask="url(#mask0_8_24188)">
<path fill-rule="evenodd" clip-rule="evenodd" d="M0 0V4H16V0H0Z" fill="#F7FCFF"/>
<path fill-rule="evenodd" clip-rule="evenodd" d="M0 8V12H16V8H0Z" fill="#E31D1C"/>
<path d="M7.80196 3.0152L8.05055 2.98875L8.02677 2.7652H7.80196H3.17241H2.9387L2.92298 2.99838L3.17241 3.0152L2.92298 2.99842L2.92297 2.99853L2.92294 2.99893L2.92284 3.00046L2.92244 3.00643L2.92092 3.02955L2.91525 3.11765C2.91042 3.19384 2.90365 3.30347 2.89586 3.43744C2.88027 3.70532 2.86058 4.07093 2.84417 4.46151C2.81183 5.23131 2.79039 6.1325 2.84639 6.55337C2.95568 7.3746 3.45575 9.21817 5.38991 10.0536L5.49078 10.0972L5.59109 10.0524C7.4282 9.23091 8.04263 7.5766 8.18436 6.55473C8.25589 6.03901 8.21954 5.13659 8.16933 4.38669C8.14388 4.00668 8.11422 3.65751 8.09092 3.40341C8.07927 3.27631 8.0692 3.17288 8.06204 3.10111L8.05363 3.0182L8.05136 2.99642L8.05077 2.99077L8.05061 2.9893L8.05057 2.98891L8.05056 2.9888L7.80196 3.0152Z" fill="#E31D1C" stroke="white" stroke-width="0.5"/>
<mask id="mask1_8_24188" style="mask-type:luminance" maskUnits="userSpaceOnUse" x="2" y="2" width="7" height="9">
<path d="M7.80196 3.0152L8.05055 2.98875L8.02677 2.7652H7.80196H3.17241H2.9387L2.92298 2.99838L3.17241 3.0152L2.92298 2.99842L2.92297 2.99853L2.92294 2.99893L2.92284 3.00046L2.92244 3.00643L2.92092 3.02955L2.91525 3.11765C2.91042 3.19384 2.90365 3.30347 2.89586 3.43744C2.88027 3.70532 2.86058 4.07093 2.84417 4.46151C2.81183 5.23131 2.79039 6.1325 2.84639 6.55337C2.95568 7.3746 3.45575 9.21817 5.38991 10.0536L5.49078 10.0972L5.59109 10.0524C7.4282 9.23091 8.04263 7.5766 8.18436 6.55473C8.25589 6.03901 8.21954 5.13659 8.16933 4.38669C8.14388 4.00668 8.11422 3.65751 8.09092 3.40341C8.07927 3.27631 8.0692 3.17288 8.06204 3.10111L8.05363 3.0182L8.05136 2.99642L8.05077 2.99077L8.05061 2.9893L8.05057 2.98891L8.05056 2.9888L7.80196 3.0152Z" fill="white" stroke="white" stroke-width="0.5"/>
</mask>
<g mask="url(#mask1_8_24188)">
<path fill-rule="evenodd" clip-rule="evenodd" d="M4.93117 3.29492C4.93117 3.29492 5.03442 3.45223 5.08064 3.69277C5.12686 3.93332 5.13483 4.20695 5.13483 4.20695L4.35279 4.08636V4.97683L5.15671 4.8493L5.13266 5.78307C5.13266 5.78307 5.03051 5.81413 4.78482 5.78307C4.53913 5.75202 4.05511 5.62192 4.05511 5.62192V6.47211C4.05511 6.47211 4.54686 6.31479 4.78482 6.27869C5.02277 6.24259 5.13266 6.27869 5.13266 6.27869L5.14044 7.09395H5.9378L5.93003 6.27869C5.93003 6.27869 6.18096 6.24006 6.44605 6.28188C6.71114 6.3237 6.96259 6.47211 6.96259 6.47211V5.62192C6.96259 5.62192 6.70784 5.74884 6.46757 5.78042C6.22729 5.812 5.93003 5.78307 5.93003 5.78307L5.95408 4.8493C5.95408 4.8493 6.09325 4.81487 6.27985 4.8402C6.46646 4.86553 6.70002 4.97683 6.70002 4.97683V4.08636C6.70002 4.08636 6.47238 4.21023 6.29326 4.2327C6.11415 4.25517 5.93219 4.20695 5.93219 4.20695C5.93219 4.20695 5.93885 3.91984 5.97736 3.70806C6.01588 3.49628 6.12494 3.29492 6.12494 3.29492H4.93117Z" fill="#F7FCFF"/>
<path fill-rule="evenodd" clip-rule="evenodd" d="M3.44867 8.12268C3.44867 8.12268 3.66842 7.65105 4.02598 7.56137C4.38355 7.47169 4.75849 7.84203 4.75849 7.84203C4.75849 7.84203 4.98744 7.09381 5.54549 7.09381C6.10354 7.09381 6.2994 7.84203 6.2994 7.84203C6.2994 7.84203 6.53749 7.56137 6.87988 7.56137C7.22227 7.56137 7.53948 8.12268 7.53948 8.12268C7.53948 8.12268 6.51678 9.97939 5.49408 9.97939C4.47137 9.97939 3.44867 8.12268 3.44867 8.12268Z" fill="#2E42A5"/>
</g>
</g>
</g>
<defs>
<clipPath id="clip0_8_24188">
<rect width="16" height="12" fill="white"/>
</clipPath>
</defs>
</svg>
