<svg width="16" height="12" viewBox="0 0 16 12" fill="none" xmlns="http://www.w3.org/2000/svg">
<g clip-path="url(#clip0_8_24182)">
<rect width="16" height="12" fill="white"/>
<path fill-rule="evenodd" clip-rule="evenodd" d="M0 0V12H16V0H0Z" fill="#F7FCFF"/>
<mask id="mask0_8_24182" style="mask-type:luminance" maskUnits="userSpaceOnUse" x="0" y="0" width="16" height="12">
<path fill-rule="evenodd" clip-rule="evenodd" d="M0 0V12H16V0H0Z" fill="white"/>
</mask>
<g mask="url(#mask0_8_24182)">
<path fill-rule="evenodd" clip-rule="evenodd" d="M0 0V4H16V0H0Z" fill="#3D58DB"/>
<path fill-rule="evenodd" clip-rule="evenodd" d="M0 8V12H16V8H0Z" fill="#3D58DB"/>
<path d="M9.71268 5.92911C9.71268 6.93476 8.89744 7.75001 7.89179 7.75001C6.88613 7.75001 6.07089 6.93476 6.07089 5.92911C6.07089 4.92346 6.88613 4.10822 7.89179 4.10822C8.89744 4.10822 9.71268 4.92346 9.71268 5.92911Z" stroke="#E8AA00" stroke-width="0.5"/>
<path fill-rule="evenodd" clip-rule="evenodd" d="M6.90532 4.83118C6.90532 4.83118 6.42905 5.61501 6.42905 6.15311C6.42905 6.69121 6.99914 7.36756 7.89608 7.36756C8.77098 7.36756 9.39982 6.84495 9.41884 6.15311C9.43786 5.46127 8.94818 4.96876 8.94818 4.96876C8.94818 4.96876 9.22531 5.96482 9.08675 6.36843C8.94818 6.77205 8.49966 7.26038 7.89608 7.19821C7.29249 7.13604 6.71968 6.39312 6.71968 6.15311C6.71968 5.9131 6.90532 4.83118 6.90532 4.83118Z" fill="#1E601B"/>
<path d="M7.08026 6.16417H8.68391" stroke="#188396" stroke-width="0.5"/>
<path d="M7.22949 5.903H8.60926" stroke="#E8AA00" stroke-width="0.5"/>
<path d="M8.52476 6.20561H7.29666L7.91632 5.17745L8.52476 6.20561Z" stroke="#E8AA00" stroke-width="0.5"/>
</g>
</g>
<defs>
<clipPath id="clip0_8_24182">
<rect width="16" height="12" fill="white"/>
</clipPath>
</defs>
</svg>
