<svg width="16" height="12" viewBox="0 0 16 12" fill="none" xmlns="http://www.w3.org/2000/svg">
<g clip-path="url(#clip0_8_24064)">
<rect width="16" height="12" fill="white"/>
<path fill-rule="evenodd" clip-rule="evenodd" d="M0 0H16V12H0V0Z" fill="#3D58DB"/>
<path d="M0 2.5H-0.5V3V9V9.5H0H16H16.5V9V3V2.5H16H0Z" fill="#C51918" stroke="#FFD018"/>
<path d="M3.57466 4.66556C3.51469 4.66556 3.46606 4.52996 3.46606 4.36269C3.46606 4.19542 3.51469 4.05981 3.57466 4.05981H12.28C12.34 4.05981 12.3886 4.19542 12.3886 4.36269C12.3886 4.52996 12.34 4.66556 12.28 4.66556H3.57466Z" fill="#FFD018"/>
<path fill-rule="evenodd" clip-rule="evenodd" d="M12.0476 4.30114L12.5531 3.65625L13.4476 4.30114L12.5531 4.963L12.0476 4.30114Z" fill="#F7FCFF"/>
<path d="M3.57466 6.66556C3.51469 6.66556 3.46606 6.52996 3.46606 6.36269C3.46606 6.19542 3.51469 6.05981 3.57466 6.05981H12.28C12.34 6.05981 12.3886 6.19542 12.3886 6.36269C12.3886 6.52996 12.34 6.66556 12.28 6.66556H3.57466Z" fill="#FFD018"/>
<path fill-rule="evenodd" clip-rule="evenodd" d="M12.0476 6.30114L12.5531 5.65625L13.4476 6.30114L12.5531 6.963L12.0476 6.30114Z" fill="#F7FCFF"/>
<path d="M2.17277 7.91093C2.09235 7.91093 2.02716 7.75696 2.02716 7.56704C2.02716 7.37711 2.09235 7.22314 2.17277 7.22314H13.8449C13.9253 7.22314 13.9905 7.37711 13.9905 7.56704C13.9905 7.75696 13.9253 7.91093 13.8449 7.91093H2.17277Z" fill="#FFD018"/>
<path fill-rule="evenodd" clip-rule="evenodd" d="M4.40863 6.02639C4.40863 6.02639 5.8293 3.03638 7.86126 3.03638C9.89322 3.03638 11.3617 6.02639 11.3617 6.02639C11.3617 6.02639 9.56859 8.97711 7.88515 8.97711C6.20171 8.97711 4.40863 6.02639 4.40863 6.02639Z" fill="#F7FCFF"/>
<mask id="mask0_8_24064" style="mask-type:luminance" maskUnits="userSpaceOnUse" x="4" y="3" width="8" height="6">
<path fill-rule="evenodd" clip-rule="evenodd" d="M4.40863 6.02639C4.40863 6.02639 5.8293 3.03638 7.86126 3.03638C9.89322 3.03638 11.3617 6.02639 11.3617 6.02639C11.3617 6.02639 9.56859 8.97711 7.88515 8.97711C6.20171 8.97711 4.40863 6.02639 4.40863 6.02639Z" fill="white"/>
</mask>
<g mask="url(#mask0_8_24064)">
<path fill-rule="evenodd" clip-rule="evenodd" d="M7.96209 2.84009C7.96209 2.84009 7.49846 3.40319 7.653 3.94015C7.80755 4.47711 8.16762 4.42039 8.16762 4.89327C8.16762 5.36615 8.00128 5.84843 8.16762 5.84843C8.33396 5.84843 8.3916 6.17475 8.23957 6.39598C8.08755 6.61721 7.95308 6.62404 7.96209 6.98409C7.9711 7.34414 8.75811 7.69759 8.37686 7.69759C7.99561 7.69759 7.49313 8.06763 7.653 8.06763C7.81287 8.06763 8.64931 8.35594 8.64931 8.73432C8.64931 9.1127 8.64931 9.41551 8.64931 9.41551H4.28558V2.84009H7.96209Z" fill="#272727"/>
<path fill-rule="evenodd" clip-rule="evenodd" d="M5.90946 4.96155H5.69226V5.84616H5.90946V4.96155ZM6.55018 4.96155H6.33298V5.84616H6.55018V4.96155ZM6.01262 4.96155H6.22982V5.84616H6.01262V4.96155ZM6.87054 4.96155H6.65335V5.84616H6.87054V4.96155ZM6.97371 4.96155H7.1909V5.84616H6.97371V4.96155ZM7.51127 4.96155H7.29407V5.84616H7.51127V4.96155ZM5.69226 6.23078H5.90946V7.11539H5.69226V6.23078ZM6.55018 6.23078H6.33298V7.11539H6.55018V6.23078ZM6.01262 6.23078H6.22982V7.11539H6.01262V6.23078ZM6.87054 6.23078H6.65335V7.11539H6.87054V6.23078ZM6.97371 6.23078H7.1909V7.11539H6.97371V6.23078ZM7.51127 6.23078H7.29407V7.11539H7.51127V6.23078Z" fill="#F7FCFF"/>
<path fill-rule="evenodd" clip-rule="evenodd" d="M8.48868 4.96155H8.27148V5.84616H8.48868V4.96155ZM9.1294 4.96155H8.91221V5.84616H9.1294V4.96155ZM8.59185 4.96155H8.80904V5.84616H8.59185V4.96155ZM9.44976 4.96155H9.23257V5.84616H9.44976V4.96155ZM9.55293 4.96155H9.77013V5.84616H9.55293V4.96155ZM10.0905 4.96155H9.87329V5.84616H10.0905V4.96155ZM8.27148 6.23078H8.48868V7.11539H8.27148V6.23078ZM9.1294 6.23078H8.91221V7.11539H9.1294V6.23078ZM8.59185 6.23078H8.80904V7.11539H8.59185V6.23078ZM9.44976 6.23078H9.23257V7.11539H9.44976V6.23078ZM9.55293 6.23078H9.77013V7.11539H9.55293V6.23078ZM10.0905 6.23078H9.87329V7.11539H10.0905V6.23078Z" fill="#272727"/>
<path fill-rule="evenodd" clip-rule="evenodd" d="M6.61576 3.53579C6.31151 3.63005 6.17228 4.42796 6.20629 4.62082C6.2403 4.81368 6.34352 4.59662 6.34352 4.59662C6.34352 4.59662 6.55405 5.05417 6.57575 5.17727C6.59746 5.30037 6.70832 4.99119 6.70832 4.99119C6.70832 4.99119 7.07348 5.24275 7.12291 5.52306C7.17233 5.80336 7.24667 5.2023 7.24667 5.2023L7.32939 5.18771L7.27706 4.89091L7.43481 5.0258L7.38614 4.74978C7.38614 4.74978 7.50494 4.90504 7.47481 4.73415C7.44467 4.56326 7.42785 4.46785 7.42785 4.46785L7.38666 4.23427L7.5428 4.20674C7.5428 4.20674 6.92001 3.44152 6.61576 3.53579Z" fill="#3D58DB"/>
</g>
<path fill-rule="evenodd" clip-rule="evenodd" d="M13.0442 6.84797C12.7282 6.88796 12.4525 7.64957 12.4525 7.84541C12.4525 8.04125 12.5919 7.84541 12.5919 7.84541C12.5919 7.84541 12.7197 8.33257 12.7197 8.45757C12.7197 8.58257 12.8826 8.29733 12.8826 8.29733C12.8826 8.29733 13.1985 8.60848 13.1985 8.89311C13.1985 9.17774 13.3761 8.59872 13.3761 8.59872H13.4601V8.29733L13.592 8.45757V8.17729C13.592 8.17729 13.6821 8.35082 13.6821 8.17729C13.6821 8.00376 13.6821 7.90689 13.6821 7.90689V7.66971H13.8406C13.8406 7.66971 13.3602 6.80797 13.0442 6.84797Z" fill="#3D58DB"/>
<path fill-rule="evenodd" clip-rule="evenodd" d="M2.79646 6.73255C3.11246 6.77255 3.38812 7.53416 3.38812 7.72999C3.38812 7.92583 3.24877 7.72999 3.24877 7.72999C3.24877 7.72999 3.1209 8.21715 3.1209 8.34215C3.1209 8.46715 2.95803 8.18192 2.95803 8.18192C2.95803 8.18192 2.6421 8.49306 2.6421 8.7777C2.6421 9.06233 2.46452 8.4833 2.46452 8.4833H2.38052V8.18192L2.24859 8.34215V8.06188C2.24859 8.06188 2.15856 8.2354 2.15856 8.06188C2.15856 7.88835 2.15856 7.79147 2.15856 7.79147V7.55429H2.00001C2.00001 7.55429 2.48046 6.69255 2.79646 6.73255Z" fill="#3D58DB"/>
</g>
<defs>
<clipPath id="clip0_8_24064">
<rect width="16" height="12" fill="white"/>
</clipPath>
</defs>
</svg>
