<svg width="16" height="12" viewBox="0 0 16 12" fill="none" xmlns="http://www.w3.org/2000/svg">
<g clip-path="url(#clip0_8_24211)">
<rect width="16" height="12" fill="white"/>
<path fill-rule="evenodd" clip-rule="evenodd" d="M0 0V12H16V0H0Z" fill="#29C470"/>
<mask id="mask0_8_24211" style="mask-type:luminance" maskUnits="userSpaceOnUse" x="0" y="0" width="16" height="12">
<path fill-rule="evenodd" clip-rule="evenodd" d="M0 0V12H16V0H0Z" fill="white"/>
</mask>
<g mask="url(#mask0_8_24211)">
<rect x="1" y="-0.161438" width="5" height="13.1615" fill="#C51918"/>
<mask id="mask1_8_24211" style="mask-type:luminance" maskUnits="userSpaceOnUse" x="1" y="-1" width="5" height="14">
<rect x="1" y="-0.161438" width="5" height="13.1615" fill="white"/>
</mask>
<g mask="url(#mask1_8_24211)">
<path fill-rule="evenodd" clip-rule="evenodd" d="M1.29768 0.452813L1.02463 0.803672L1 0.779317L1.26491 0.43891V0.370577L1.26591 0.364229L1.29671 0.269388L1.27786 0.236349L1.12163 0.392556L1.42278 -0.076449V0.0838128L1.48057 0.135977L1.61861 -0.105454L1.4801 -0.337812L1.38014 -0.260993L1.42068 -0.17956L1.39281 -0.160205L1.16715 -0.537715L1.31091 -0.439416L1.33624 -0.476137L1.19848 -0.616462L1.25941 -0.683567L1.05807 -0.977425L1.084 -1L1.30317 -0.680123L1.24632 -0.617511L1.38078 -0.480546L1.31887 -0.390776L1.27764 -0.418968L1.3563 -0.287371L1.4889 -0.389275L1.65783 -0.105877L1.48844 0.190395L1.39001 0.101553V0.0375752L1.2912 0.191457L1.33308 0.264847L1.29768 0.373851V0.452813ZM1.02463 3.31512L1.29768 2.96426V2.8853L1.33308 2.77629L1.2912 2.7029L1.39001 2.54902V2.613L1.48844 2.70184L1.65783 2.40557L1.4889 2.12217L1.3563 2.22408L1.27764 2.09248L1.31887 2.12067L1.38078 2.0309L1.24632 1.89394L1.30317 1.83132L1.084 1.51145L1.05807 1.53402L1.25941 1.82788L1.19848 1.89499L1.33624 2.03531L1.31091 2.07203L1.16715 1.97373L1.39281 2.35124L1.42068 2.33189L1.38014 2.25045L1.4801 2.17364L1.61861 2.40599L1.48057 2.64742L1.42278 2.59526V2.435L1.12163 2.904L1.27786 2.7478L1.29671 2.78083L1.26591 2.87568L1.26491 2.88202V2.95036L1 3.29076L1.02463 3.31512ZM1.29768 5.25411L1.02463 5.60497L1 5.58061L1.26491 5.24021V5.17187L1.26591 5.16553L1.29671 5.07068L1.27786 5.03764L1.12163 5.19385L1.42278 4.72485V4.88511L1.48057 4.93727L1.61861 4.69584L1.4801 4.46348L1.38014 4.5403L1.42068 4.62174L1.39281 4.64109L1.16715 4.26358L1.31091 4.36188L1.33624 4.32516L1.19848 4.18483L1.25941 4.11773L1.05807 3.82387L1.084 3.8013L1.30317 4.12117L1.24632 4.18378L1.38078 4.32075L1.31887 4.41052L1.27764 4.38233L1.3563 4.51392L1.4889 4.41202L1.65783 4.69542L1.48844 4.99169L1.39001 4.90285V4.83887L1.2912 4.99275L1.33308 5.06614L1.29768 5.17515V5.25411ZM1.02463 7.93175L1.29768 7.58089V7.50193L1.33308 7.39293L1.2912 7.31954L1.39001 7.16565V7.22963L1.48844 7.31847L1.65783 7.0222L1.4889 6.7388L1.3563 6.84071L1.27764 6.70911L1.31887 6.7373L1.38078 6.64753L1.24632 6.51057L1.30317 6.44795L1.084 6.12808L1.05807 6.15065L1.25941 6.44451L1.19848 6.51162L1.33624 6.65194L1.31091 6.68866L1.16715 6.59036L1.39281 6.96787L1.42068 6.94852L1.38014 6.86708L1.4801 6.79027L1.61861 7.02262L1.48057 7.26406L1.42278 7.21189V7.05163L1.12163 7.52063L1.27786 7.36443L1.29671 7.39746L1.26591 7.49231L1.26491 7.49866V7.56699L1 7.90739L1.02463 7.93175ZM1.02463 10L1.29768 9.64914V9.57018L1.33308 9.46118L1.2912 9.38779L1.39001 9.2339V9.29788L1.48844 9.38672L1.65783 9.09045L1.4889 8.80705L1.3563 8.90896L1.27764 8.77736L1.31887 8.80555L1.38078 8.71578L1.24632 8.57882L1.30317 8.5162L1.084 8.19633L1.05807 8.2189L1.25941 8.51276L1.19848 8.57987L1.33624 8.72019L1.31091 8.75691L1.16715 8.65861L1.39281 9.03612L1.42068 9.01677L1.38014 8.93534L1.4801 8.85852L1.61861 9.09087L1.48057 9.33231L1.42278 9.28014V9.11988L1.12163 9.58888L1.27786 9.43268L1.29671 9.46572L1.26591 9.56056L1.26491 9.56691V9.63524L1 9.97565L1.02463 10ZM5.97537 10L5.70232 9.64914V9.57018L5.66692 9.46118L5.7088 9.38779L5.60999 9.2339V9.29788L5.51156 9.38672L5.34217 9.09045L5.5111 8.80705L5.6437 8.90896L5.72236 8.77736L5.68113 8.80555L5.61922 8.71578L5.75368 8.57882L5.69683 8.5162L5.916 8.19633L5.94193 8.2189L5.74059 8.51276L5.80152 8.57987L5.66376 8.72019L5.68909 8.75691L5.83285 8.65861L5.60719 9.03612L5.57932 9.01677L5.61986 8.93534L5.5199 8.85852L5.38139 9.09087L5.51943 9.33231L5.57722 9.28014V9.11988L5.87837 9.58888L5.72214 9.43268L5.70329 9.46572L5.73409 9.56056L5.73509 9.56691V9.63524L6 9.97565L5.97537 10ZM5.70232 7.58089L5.97537 7.93175L6 7.90739L5.73509 7.56699V7.49866L5.73409 7.49231L5.70329 7.39746L5.72214 7.36443L5.87837 7.52063L5.57722 7.05163V7.21189L5.51943 7.26406L5.38139 7.02262L5.5199 6.79027L5.61986 6.86708L5.57932 6.94852L5.60719 6.96787L5.83285 6.59036L5.68909 6.68866L5.66376 6.65194L5.80152 6.51162L5.74059 6.44451L5.94193 6.15065L5.916 6.12808L5.69683 6.44795L5.75368 6.51057L5.61922 6.64753L5.68113 6.7373L5.72236 6.70911L5.6437 6.84071L5.5111 6.7388L5.34217 7.0222L5.51156 7.31847L5.60999 7.22963V7.16565L5.7088 7.31954L5.66692 7.39293L5.70232 7.50193V7.58089ZM5.97537 5.60497L5.70232 5.25411V5.17515L5.66692 5.06614L5.7088 4.99275L5.60999 4.83887V4.90285L5.51156 4.99169L5.34217 4.69542L5.5111 4.41202L5.6437 4.51392L5.72236 4.38233L5.68113 4.41052L5.61922 4.32075L5.75368 4.18378L5.69683 4.12117L5.916 3.8013L5.94193 3.82387L5.74059 4.11773L5.80152 4.18483L5.66376 4.32516L5.68909 4.36188L5.83285 4.26358L5.60719 4.64109L5.57932 4.62174L5.61986 4.5403L5.5199 4.46348L5.38139 4.69584L5.51943 4.93727L5.57722 4.88511V4.72485L5.87837 5.19385L5.72214 5.03764L5.70329 5.07068L5.73409 5.16553L5.73509 5.17187V5.24021L6 5.58061L5.97537 5.60497ZM5.70232 2.96426L5.97537 3.31512L6 3.29076L5.73509 2.95036V2.88202L5.73409 2.87568L5.70329 2.78083L5.72214 2.7478L5.87837 2.904L5.57722 2.435V2.59526L5.51943 2.64742L5.38139 2.40599L5.5199 2.17364L5.61986 2.25045L5.57932 2.33189L5.60719 2.35124L5.83285 1.97373L5.68909 2.07203L5.66376 2.03531L5.80152 1.89499L5.74059 1.82788L5.94193 1.53402L5.916 1.51145L5.69683 1.83132L5.75368 1.89394L5.61922 2.0309L5.68113 2.12067L5.72236 2.09248L5.6437 2.22408L5.5111 2.12217L5.34217 2.40557L5.51156 2.70184L5.60999 2.613V2.54902L5.7088 2.7029L5.66692 2.77629L5.70232 2.8853V2.96426ZM5.97537 0.803672L5.70232 0.452813V0.373851L5.66692 0.264847L5.7088 0.191457L5.60999 0.0375752V0.101553L5.51156 0.190395L5.34217 -0.105877L5.5111 -0.389275L5.6437 -0.287371L5.72236 -0.418968L5.68113 -0.390776L5.61922 -0.480546L5.75368 -0.617511L5.69683 -0.680123L5.916 -1L5.94193 -0.977425L5.74059 -0.683567L5.80152 -0.616462L5.66376 -0.476137L5.68909 -0.439416L5.83285 -0.537715L5.60719 -0.160205L5.57932 -0.17956L5.61986 -0.260993L5.5199 -0.337812L5.38139 -0.105454L5.51943 0.135977L5.57722 0.0838128V-0.076449L5.87837 0.392556L5.72214 0.236349L5.70329 0.269388L5.73409 0.364229L5.73509 0.370577V0.43891L6 0.779317L5.97537 0.803672Z" fill="#E8AA00"/>
<path fill-rule="evenodd" clip-rule="evenodd" d="M3.65335 7.28234H4.4301V7.46463H4.60709V7.61046H4.81948V8.08442H4.60709V8.23025H4.4301V8.37609H3.67408L3.46492 8.56197L3.25476 8.37609H2.55399V8.23025H2.377V8.08442H2.20001V7.61046H2.377V7.46463H2.55399V7.28234H3.27558L3.46492 7.11487L3.65335 7.28234Z" fill="#389F5D"/>
<path d="M4.4301 7.28234H4.5051V7.20734H4.4301V7.28234ZM3.65335 7.28234L3.60353 7.3384L3.62484 7.35734H3.65335V7.28234ZM4.4301 7.46463H4.3551V7.53963H4.4301V7.46463ZM4.60709 7.46463H4.68209V7.38963H4.60709V7.46463ZM4.60709 7.61046H4.53209V7.68546H4.60709V7.61046ZM4.81948 7.61046H4.89448V7.53546H4.81948V7.61046ZM4.81948 8.08442V8.15942H4.89448V8.08442H4.81948ZM4.60709 8.08442V8.00942H4.53209V8.08442H4.60709ZM4.60709 8.23025V8.30525H4.68209V8.23025H4.60709ZM4.4301 8.23025V8.15525H4.3551V8.23025H4.4301ZM4.4301 8.37609V8.45109H4.5051V8.37609H4.4301ZM3.67408 8.37609V8.30109H3.64556L3.62425 8.32003L3.67408 8.37609ZM3.46492 8.56197L3.41522 8.61815L3.46503 8.66221L3.51474 8.61803L3.46492 8.56197ZM3.25476 8.37609L3.30445 8.31991L3.28317 8.30109H3.25476V8.37609ZM2.55399 8.37609H2.47899V8.45109H2.55399V8.37609ZM2.55399 8.23025H2.62899V8.15525H2.55399V8.23025ZM2.377 8.23025H2.302V8.30525H2.377V8.23025ZM2.377 8.08442H2.452V8.00942H2.377V8.08442ZM2.20001 8.08442H2.12501V8.15942H2.20001V8.08442ZM2.20001 7.61046V7.53546H2.12501V7.61046H2.20001ZM2.377 7.61046V7.68546H2.452V7.61046H2.377ZM2.377 7.46463V7.38963H2.302V7.46463H2.377ZM2.55399 7.46463V7.53963H2.62899V7.46463H2.55399ZM2.55399 7.28234V7.20734H2.47899V7.28234H2.55399ZM3.27558 7.28234V7.35734H3.30399L3.32527 7.33851L3.27558 7.28234ZM3.46492 7.11487L3.51474 7.05881L3.46503 7.01463L3.41523 7.05869L3.46492 7.11487ZM4.4301 7.20734H3.65335V7.35734H4.4301V7.20734ZM4.5051 7.46463V7.28234H4.3551V7.46463H4.5051ZM4.60709 7.38963H4.4301V7.53963H4.60709V7.38963ZM4.68209 7.61046V7.46463H4.53209V7.61046H4.68209ZM4.81948 7.53546H4.60709V7.68546H4.81948V7.53546ZM4.89448 8.08442V7.61046H4.74448V8.08442H4.89448ZM4.60709 8.15942H4.81948V8.00942H4.60709V8.15942ZM4.68209 8.23025V8.08442H4.53209V8.23025H4.68209ZM4.4301 8.30525H4.60709V8.15525H4.4301V8.30525ZM4.5051 8.37609V8.23025H4.3551V8.37609H4.5051ZM3.67408 8.45109H4.4301V8.30109H3.67408V8.45109ZM3.51474 8.61803L3.7239 8.43215L3.62425 8.32003L3.41509 8.50591L3.51474 8.61803ZM3.20507 8.43226L3.41522 8.61815L3.51461 8.5058L3.30445 8.31991L3.20507 8.43226ZM2.55399 8.45109H3.25476V8.30109H2.55399V8.45109ZM2.47899 8.23025V8.37609H2.62899V8.23025H2.47899ZM2.377 8.30525H2.55399V8.15525H2.377V8.30525ZM2.302 8.08442V8.23025H2.452V8.08442H2.302ZM2.20001 8.15942H2.377V8.00942H2.20001V8.15942ZM2.12501 7.61046V8.08442H2.27501V7.61046H2.12501ZM2.377 7.53546H2.20001V7.68546H2.377V7.53546ZM2.302 7.46463V7.61046H2.452V7.46463H2.302ZM2.55399 7.38963H2.377V7.53963H2.55399V7.38963ZM2.47899 7.28234V7.46463H2.62899V7.28234H2.47899ZM3.27558 7.20734H2.55399V7.35734H3.27558V7.20734ZM3.32527 7.33851L3.51461 7.17105L3.41523 7.05869L3.22589 7.22616L3.32527 7.33851ZM3.41509 7.17093L3.60353 7.3384L3.70317 7.22628L3.51474 7.05881L3.41509 7.17093Z" fill="#E8AA00"/>
<path fill-rule="evenodd" clip-rule="evenodd" d="M2.65765 7.70373V7.38165H3.03294L2.65765 7.70373ZM4.23648 7.70373V7.38165H3.86119L4.23648 7.70373ZM2.65765 8.28706V7.96499L3.03294 8.28706H2.65765ZM4.23648 7.96499V8.28706H3.86119L4.23648 7.96499Z" fill="#C51918"/>
<path fill-rule="evenodd" clip-rule="evenodd" d="M3.32257 7.40933L3.45211 7.23969L3.58003 7.40933H3.32257ZM3.32257 7.56781L3.45211 7.73745L3.58003 7.56781H3.32257ZM3.45211 7.96885L3.32257 8.1385H3.58003L3.45211 7.96885ZM3.32257 8.29698L3.45211 8.46662L3.58003 8.29698H3.32257Z" fill="#E8AA00"/>
<path fill-rule="evenodd" clip-rule="evenodd" d="M3.32523 7.38922V7.46214H3.25085V7.56214H3.32523V7.63505H3.58477V7.56214H3.65915V7.46214H3.58477V7.38922H3.32523ZM3.58477 8.1913V8.11839H3.32523V8.1913H3.25085V8.2913H3.32523V8.36422H3.58477V8.2913H3.65915V8.1913H3.58477Z" fill="#AF0100"/>
<path fill-rule="evenodd" clip-rule="evenodd" d="M2.82697 7.77471L2.95028 7.60431L3.07204 7.77471H2.82697ZM2.82697 7.9339L2.95028 8.10431L3.07204 7.9339H2.82697ZM3.97682 7.60431L3.85351 7.77471H4.09858L3.97682 7.60431ZM3.85351 7.9339L3.97682 8.10431L4.09858 7.9339H3.85351Z" fill="#AF0100"/>
<path fill-rule="evenodd" clip-rule="evenodd" d="M2.82611 7.75385V7.82822H2.75531V7.93022H2.82611V8.0046H3.07316V7.93022H3.14396V7.82822H3.07316V7.75385H2.82611ZM4.09971 7.82822V7.75385H3.85266V7.82822H3.78186V7.93022H3.85266V8.0046H4.09971V7.93022H4.17051V7.82822H4.09971Z" fill="#E8AA00"/>
<mask id="mask2_8_24211" style="mask-type:luminance" maskUnits="userSpaceOnUse" x="2" y="8" width="3" height="3">
<path fill-rule="evenodd" clip-rule="evenodd" d="M3.1085 8.62549L2.22272 9.12494V9.95275L3.1085 10.4724H4.0679L4.97475 9.95275V9.12494L4.0679 8.62549H3.1085Z" fill="white"/>
</mask>
<g mask="url(#mask2_8_24211)">
<path d="M2.23541 9.54797H3.61594V10.4594H2.23541V9.54797Z" fill="#E8AA00"/>
<rect x="2.09381" y="8.63647" width="1.52212" height="0.911458" fill="#F9E8E7"/>
<path d="M2.44781 9.16762L2.90607 8.89166V9.16762H2.44781Z" fill="#E8AA00"/>
<rect width="1.52212" height="0.911458" transform="matrix(-1 0 0 1 5.13806 8.63647)" fill="#E8AA00"/>
<path d="M4.67786 9.16762L4.2196 8.89166V9.16762H4.67786Z" fill="#F9E8E7"/>
<rect x="4.99646" y="10.4594" width="1.38053" height="0.911458" transform="rotate(180 4.99646 10.4594)" fill="#F9E8E7"/>
<path d="M4.64246 9.92827L4.1842 10.2042V9.92827H4.64246Z" fill="#E8AA00"/>
<path d="M2.44775 9.87065L2.90601 10.1466V9.87065H2.44775Z" fill="#FCFCFC"/>
</g>
<path fill-rule="evenodd" clip-rule="evenodd" d="M3.12036 9.18339H3.35045L3.58054 9.11047L3.81063 9.18339H4.04072V9.8761H3.81063L3.58054 9.98547L3.35045 9.8761H3.12036V9.18339Z" fill="#C51918"/>
<path fill-rule="evenodd" clip-rule="evenodd" d="M3.89909 8.76886H4.02409V8.90992H4.07531V9.00992H4.02409V9.06374H3.89909V8.76886ZM2.64355 9.20636H2.51855V9.50124H2.64355V9.44742H2.69478V9.34742H2.64355V9.20636ZM2.82055 9.20636H2.69555V9.50124H2.82055V9.20636ZM2.64355 9.57094H2.51855V9.86582H2.64355V9.81201H2.69478V9.71201H2.64355V9.57094ZM2.69555 9.57094H2.82055V9.86582H2.69555V9.57094ZM4.46546 9.20636H4.59046V9.34742H4.64168V9.44742H4.59046V9.50124H4.46546V9.20636ZM4.76745 9.20636H4.64245V9.50124H4.76745V9.20636ZM4.59046 9.57094H4.46546V9.86582H4.59046V9.81201H4.64168V9.71201H4.59046V9.57094ZM4.64245 9.57094H4.76745V9.86582H4.64245V9.57094ZM4.20108 8.76886H4.07608V9.06374H4.20108V8.76886ZM3.17453 8.76886H3.04953V9.06374H3.17453V9.00992H3.22575V8.90992H3.17453V8.76886ZM3.22652 8.76886H3.35152V9.06374H3.22652V8.76886ZM3.89909 10.0084H4.02409V10.1495H4.07531V10.2495H4.02409V10.3033H3.89909V10.0084ZM4.20108 10.0084H4.07608V10.3033H4.20108V10.0084ZM3.17453 10.0084H3.04953V10.3033H3.17453V10.2495H3.22575V10.1495H3.17453V10.0084ZM3.22652 10.0084H3.35152V10.3033H3.22652V10.0084Z" fill="#C9343F"/>
<path fill-rule="evenodd" clip-rule="evenodd" d="M3.51255 9.3332H3.54795V9.23407H3.37109V9.34741H3.22534V9.50986H3.36087V9.4734H3.26074V9.38387H3.38095L3.56188 9.54044L3.38095 9.69701H3.26074V9.60749H3.36087V9.57103H3.22534V9.73347H3.37109V9.84681H3.54795V9.74768H3.51255V9.81036H3.40649V9.72253L3.59049 9.56331L3.77448 9.72253V9.81036H3.66842V9.74768H3.63302V9.84681H3.80988V9.73347H3.95563V9.57103H3.82011V9.60749H3.92023V9.69701H3.80002L3.61909 9.54044L3.80002 9.38387H3.92023V9.4734H3.82011V9.50986H3.95563V9.34741H3.80988V9.23407H3.63302V9.3332H3.66842V9.27053H3.77448V9.35835L3.59049 9.51758L3.40649 9.35835V9.27053H3.51255V9.3332Z" fill="white"/>
<path fill-rule="evenodd" clip-rule="evenodd" d="M3.79218 2.40002H3.16881V4.40002H3.79218V2.40002ZM2.38959 2.8231H2.7792V3.90002H2.38959V2.8231ZM4.22076 2.8231H4.61037V3.90002H4.22076V2.8231Z" fill="#E8AA00"/>
<path fill-rule="evenodd" clip-rule="evenodd" d="M3.16883 2.55389H2.77922V4.09236H3.16883V2.55389ZM2.38961 2.97697H2V3.70774H2.38961V2.97697ZM4.61039 2.97697H5V3.70774H4.61039V2.97697ZM4.18182 2.55389H3.79221V4.09236H4.18182V2.55389Z" fill="#389F5D"/>
<path fill-rule="evenodd" clip-rule="evenodd" d="M3.09093 2.74618C3.09093 2.80991 3.0386 2.86157 2.97405 2.86157C2.90949 2.86157 2.85716 2.80991 2.85716 2.74618C2.85716 2.68246 2.90949 2.6308 2.97405 2.6308C3.0386 2.6308 3.09093 2.68246 3.09093 2.74618ZM2.31171 3.1308C2.31171 3.19452 2.25938 3.24618 2.19483 3.24618C2.13027 3.24618 2.07794 3.19452 2.07794 3.1308C2.07794 3.06707 2.13027 3.01541 2.19483 3.01541C2.25938 3.01541 2.31171 3.06707 2.31171 3.1308ZM2.31171 3.55388C2.31171 3.6176 2.25938 3.66926 2.19483 3.66926C2.13027 3.66926 2.07794 3.6176 2.07794 3.55388C2.07794 3.49015 2.13027 3.43849 2.19483 3.43849C2.25938 3.43849 2.31171 3.49015 2.31171 3.55388ZM2.97405 4.01541C3.0386 4.01541 3.09093 3.96375 3.09093 3.90003C3.09093 3.8363 3.0386 3.78464 2.97405 3.78464C2.90949 3.78464 2.85716 3.8363 2.85716 3.90003C2.85716 3.96375 2.90949 4.01541 2.97405 4.01541ZM4.80521 3.24618C4.86977 3.24618 4.9221 3.19452 4.9221 3.1308C4.9221 3.06707 4.86977 3.01541 4.80521 3.01541C4.74066 3.01541 4.68833 3.06707 4.68833 3.1308C4.68833 3.19452 4.74066 3.24618 4.80521 3.24618ZM4.9221 3.55388C4.9221 3.6176 4.86977 3.66926 4.80521 3.66926C4.74066 3.66926 4.68833 3.6176 4.68833 3.55388C4.68833 3.49015 4.74066 3.43849 4.80521 3.43849C4.86977 3.43849 4.9221 3.49015 4.9221 3.55388ZM3.98703 4.01541C4.05159 4.01541 4.10392 3.96375 4.10392 3.90003C4.10392 3.8363 4.05159 3.78464 3.98703 3.78464C3.92248 3.78464 3.87015 3.8363 3.87015 3.90003C3.87015 3.96375 3.92248 4.01541 3.98703 4.01541ZM4.10392 2.74618C4.10392 2.80991 4.05159 2.86157 3.98703 2.86157C3.92248 2.86157 3.87015 2.80991 3.87015 2.74618C3.87015 2.68246 3.92248 2.6308 3.98703 2.6308C4.05159 2.6308 4.10392 2.68246 4.10392 2.74618Z" fill="#E1E5E8"/>
<path fill-rule="evenodd" clip-rule="evenodd" d="M3.5974 2.59231C3.5974 2.65604 3.54507 2.7077 3.48052 2.7077C3.41596 2.7077 3.36363 2.65604 3.36363 2.59231C3.36363 2.52859 3.41596 2.47693 3.48052 2.47693C3.54507 2.47693 3.5974 2.52859 3.5974 2.59231ZM2.7013 3.01539C2.7013 3.07912 2.64897 3.13077 2.58441 3.13077C2.51986 3.13077 2.46753 3.07912 2.46753 3.01539C2.46753 2.95167 2.51986 2.90001 2.58441 2.90001C2.64897 2.90001 2.7013 2.95167 2.7013 3.01539ZM3.48052 4.36154C3.54507 4.36154 3.5974 4.30988 3.5974 4.24616C3.5974 4.18243 3.54507 4.13077 3.48052 4.13077C3.41596 4.13077 3.36363 4.18243 3.36363 4.24616C3.36363 4.30988 3.41596 4.36154 3.48052 4.36154ZM4.53246 3.01539C4.53246 3.07912 4.48013 3.13077 4.41558 3.13077C4.35103 3.13077 4.2987 3.07912 4.2987 3.01539C4.2987 2.95167 4.35103 2.90001 4.41558 2.90001C4.48013 2.90001 4.53246 2.95167 4.53246 3.01539ZM2.58441 3.82308C2.64897 3.82308 2.7013 3.77142 2.7013 3.7077C2.7013 3.64397 2.64897 3.59231 2.58441 3.59231C2.51986 3.59231 2.46753 3.64397 2.46753 3.7077C2.46753 3.77142 2.51986 3.82308 2.58441 3.82308ZM4.53246 3.7077C4.53246 3.77142 4.48013 3.82308 4.41558 3.82308C4.35103 3.82308 4.2987 3.77142 4.2987 3.7077C4.2987 3.64397 4.35103 3.59231 4.41558 3.59231C4.48013 3.59231 4.53246 3.64397 4.53246 3.7077Z" fill="#C51918"/>
<path fill-rule="evenodd" clip-rule="evenodd" d="M2.80324 3.19575L3.18253 2.85321H3.79837L4.23058 3.24619H4.80517V3.40004H4.24616V3.40807L3.79837 3.8635H3.18253L2.80324 3.45246V3.40004H2.15582V3.24619H2.80324V3.19575Z" fill="#C51918"/>
<path fill-rule="evenodd" clip-rule="evenodd" d="M3.50553 3.13827L3.68971 3.32493L3.49635 3.50809L3.30299 3.32493L3.48717 3.13827L3.49635 3.12981L3.50553 3.13827ZM3.53906 3.58896L3.56063 3.56899L3.53855 3.54807L3.73049 3.36626L3.93068 3.56914L3.84059 3.66416H3.78717L3.6878 3.72667L3.53906 3.58896ZM3.49635 3.6285L3.31176 3.7994L3.18849 3.72185H3.12676L2.98122 3.56835L3.22004 3.32631L2.97968 3.09863L3.1374 2.94558L3.19456 2.99048L3.27726 2.90694L3.2524 2.88175L3.29427 2.84149L3.49635 3.04629L3.69843 2.84149L3.7403 2.88175L3.71543 2.90694L3.79814 2.99048L3.8553 2.94558L4.01302 3.09863L3.77266 3.32631L4.01148 3.56835L3.86593 3.72185H3.80421L3.68093 3.7994L3.49635 3.6285ZM3.59935 3.15068L3.60178 3.14812L3.54643 3.09705L3.53948 3.09001L3.68345 2.95717L3.79323 3.06807L3.85122 3.02252L3.92914 3.09813L3.73188 3.28499L3.59935 3.15068ZM3.47572 3.56851L3.30489 3.72667L3.20553 3.66416H3.15211L3.06202 3.56914L3.26221 3.36626L3.47572 3.56851ZM3.06356 3.09813L3.26082 3.28499L3.45321 3.09001L3.30925 2.95717L3.19946 3.06807L3.14148 3.02252L3.06356 3.09813Z" fill="#E8AA00"/>
<path fill-rule="evenodd" clip-rule="evenodd" d="M2.22418 10.7208C2.11967 10.5882 2.04913 10.4987 2.03055 10.5C1.97222 10.5043 1.91751 11.1219 2.67572 11.5918C2.67572 11.5918 2.78764 11.654 2.85283 11.5918C2.91801 11.5296 2.85283 11.438 2.85283 11.438C2.60773 11.2077 2.37878 10.9171 2.22418 10.7208L2.22418 10.7208ZM4.77582 10.7208L4.77582 10.7208L4.77583 10.7208C4.88034 10.5882 4.95087 10.4987 4.96945 10.5C5.02778 10.5043 5.08249 11.1219 4.32428 11.5918C4.32428 11.5918 4.21236 11.654 4.14717 11.5918C4.08199 11.5296 4.14717 11.438 4.14717 11.438C4.39227 11.2077 4.62122 10.9171 4.77582 10.7208ZM4.72035 11.5518C4.47121 11.6255 4.18265 11.6409 4.07231 11.5933C4.03711 11.5781 3.99974 11.5662 3.96048 11.5573C3.85072 11.5324 3.74372 11.5321 3.61676 11.546L3.56664 11.5518C3.55469 11.5532 3.54778 11.5538 3.54647 11.5538C3.53902 11.5538 3.53087 11.5549 3.52192 11.557C3.51298 11.5549 3.50482 11.5538 3.49738 11.5538C3.49606 11.5538 3.48916 11.5532 3.4772 11.5518L3.42709 11.546C3.30012 11.5321 3.19313 11.5324 3.08336 11.5573C3.0441 11.5662 3.00673 11.5781 2.97154 11.5933C2.8612 11.6409 2.57264 11.6255 2.32349 11.5518C2.32349 11.5518 2.77687 11.7339 3.04614 11.6532C3.07225 11.642 3.09979 11.6332 3.12877 11.6266C3.20542 11.6092 3.28393 11.6076 3.37837 11.6165C3.33865 11.635 3.29247 11.6561 3.23876 11.6779V11.7C3.3448 11.657 3.46906 11.6366 3.52192 11.6303C3.57478 11.6366 3.69905 11.657 3.80509 11.7V11.6779C3.75137 11.6561 3.70519 11.635 3.66547 11.6165C3.75991 11.6076 3.83842 11.6092 3.91507 11.6266C3.94405 11.6332 3.97159 11.642 3.9977 11.6532C4.26697 11.7339 4.72035 11.5518 4.72035 11.5518Z" fill="#E8AA00"/>
<path fill-rule="evenodd" clip-rule="evenodd" d="M2.88201 4.98877L2.25604 5.5404V6.06579L2.80328 6.61569H3.92067L4.53675 6.02894V5.58165L3.92067 4.98877H2.88201Z" fill="#389F5D"/>
<path fill-rule="evenodd" clip-rule="evenodd" d="M3.09734 5.04712H2.95575V5.15649H3.09734V5.04712ZM3.09734 6.47713H2.95575V6.58651H3.09734V6.47713ZM3.30973 6.47713H3.45132V6.58651H3.30973V6.47713ZM3.45132 5.04712H3.30973V5.15649H3.45132V5.04712ZM3.66371 6.47713H3.80531V6.58651H3.66371V6.47713ZM3.80531 5.04712H3.66371V5.15649H3.80531V5.04712Z" fill="#C51918"/>
<path fill-rule="evenodd" clip-rule="evenodd" d="M3.27688 5.0188H3.13275V5.12817H3.27688V5.0188ZM3.27688 6.47713H3.13275V6.58651H3.27688V6.47713ZM3.49308 5.0188H3.63722V5.12817H3.49308V5.0188ZM3.63722 6.47713H3.49308V6.58651H3.63722V6.47713Z" fill="#E8AA00"/>
<path fill-rule="evenodd" clip-rule="evenodd" d="M2.45689 4.92102H4.34691V5.21308H4.61753V6.42049H4.34691V6.67008H2.45689V6.42049H2.16302V5.21308H2.45689V4.92102ZM2.56309 5.32246H2.26922V6.31111H2.56309V6.5607H4.24071V6.31111H4.51134V5.32246H4.24071V5.0304H2.56309V5.32246Z" fill="#750100"/>
<path fill-rule="evenodd" clip-rule="evenodd" d="M3.20357 4.80005H3.02657V4.98234H3.20357V4.80005ZM3.48675 4.80005H3.30976V4.98234H3.48675V4.80005ZM3.59295 4.80005H3.76994V4.98234H3.59295V4.80005ZM3.20357 6.62297H3.02657V6.80526H3.20357V6.62297ZM3.30976 6.62297H3.48675V6.80526H3.30976V6.62297ZM3.76994 6.62297H3.59295V6.80526H3.76994V6.62297ZM1.99738 6.21927V6.04228H2.17967V6.21927H1.99738ZM1.99738 5.75062V5.92761H2.17967V5.75062H1.99738ZM1.99738 5.63594V5.45895H2.17967V5.63594H1.99738ZM4.54605 6.04228V6.21927H4.72834V6.04228H4.54605ZM4.54605 5.92761V5.75062H4.72834V5.92761H4.54605ZM4.54605 5.45895V5.63594H4.72834V5.45895H4.54605Z" fill="#389F5D"/>
<path fill-rule="evenodd" clip-rule="evenodd" d="M2.88919 5.14233L2.58392 5.40784V6.26698L2.83727 6.44625H3.93558L4.18855 6.26698V5.40784L3.90305 5.14233H2.88919Z" fill="#C51918"/>
<path fill-rule="evenodd" clip-rule="evenodd" d="M3.40167 5.49847L3.03333 5.81319H3.40167V5.49847Z" fill="#E1E5E8"/>
<path d="M3.40167 6.09869L3.03333 5.78398H3.40167V6.09869Z" fill="#E8AA00"/>
<path fill-rule="evenodd" clip-rule="evenodd" d="M3.36957 5.49847L3.73792 5.81319H3.36957V5.49847Z" fill="#E8AA00"/>
<path fill-rule="evenodd" clip-rule="evenodd" d="M3.38592 5.89817C3.44753 5.89817 3.49748 5.84823 3.49748 5.78661C3.49748 5.725 3.44753 5.67505 3.38592 5.67505C3.3243 5.67505 3.27435 5.725 3.27435 5.78661C3.27435 5.84823 3.3243 5.89817 3.38592 5.89817Z" fill="#29AE66"/>
<path d="M3.36957 6.09869L3.73792 5.78398H3.36957V6.09869Z" fill="#E1E5E8"/>
<path fill-rule="evenodd" clip-rule="evenodd" d="M2.60179 5.67505H2.2832V5.77705H2.60179V5.67505ZM2.60179 5.86099H2.2832V5.96299H2.60179V5.86099ZM4.19471 5.67505H4.51329V5.77705H4.19471V5.67505ZM4.51329 5.86099H4.19471V5.96299H4.51329V5.86099Z" fill="#C51918"/>
<path fill-rule="evenodd" clip-rule="evenodd" d="M2.56639 5.56567H2.2832V5.67724H2.56639V5.56567ZM2.56639 5.75161H2.2832V5.86317H2.56639V5.75161ZM2.2832 5.93755H2.56639V6.04911H2.2832V5.93755ZM4.47789 5.56567H4.19471V5.67724H4.47789V5.56567ZM4.19471 5.75161H4.47789V5.86317H4.19471V5.75161ZM4.47789 5.93755H4.19471V6.04911H4.47789V5.93755Z" fill="#E8AA00"/>
<path fill-rule="evenodd" clip-rule="evenodd" d="M4.99248 0.795207L4.99141 0.997795H3.51194L3.51089 1.9178H3.04699C2.96601 1.9178 2.74398 1.7623 2.74398 1.7623H2.3673L2.19341 1.58465V1.40614L2.00677 1.18454L2.00785 0.981951H3.48731L3.48837 0.0619507H3.95227C4.03325 0.0619507 4.25528 0.217448 4.25528 0.217448H4.63195L4.80585 0.3951V0.573604L4.99248 0.795207Z" fill="#E8AA00"/>
<path fill-rule="evenodd" clip-rule="evenodd" d="M2.00679 0.795207L2.00786 0.997795H3.48732L3.48838 1.9178H3.95228C4.03326 1.9178 4.25529 1.7623 4.25529 1.7623H4.63197L4.80586 1.58465V1.40614L4.99249 1.18454L4.99142 0.981951H3.51195L3.5109 0.0619507H3.047C2.96602 0.0619507 2.74399 0.217448 2.74399 0.217448H2.36731L2.19342 0.3951V0.573604L2.00679 0.795207Z" fill="#E1E5E8"/>
<path fill-rule="evenodd" clip-rule="evenodd" d="M3.00106 0.342713L2.98486 0.264466L3.30399 0.19108C3.3423 0.17258 3.40879 0.119879 3.50036 0.0342407L3.54327 0.0825283L3.55063 0.0742407C3.64221 0.159879 3.7087 0.21258 3.74701 0.23108L4.06614 0.304466L4.04994 0.382713L3.87296 0.346154L3.88989 0.361294C3.87773 0.36858 3.8645 0.379202 3.85032 0.393095L3.7756 0.382092L3.78255 0.356824L3.76379 0.353769C3.75005 0.379694 3.73433 0.416785 3.71754 0.46438L3.64281 0.442378L3.67307 0.297435L3.50417 0.139025L3.38585 0.250006C3.40057 0.263351 3.41525 0.278669 3.42995 0.296C3.41739 0.300776 3.40539 0.304991 3.39393 0.308648L3.38887 0.309856L3.40818 0.402378L3.33345 0.42438C3.3237 0.396727 3.31431 0.372619 3.30545 0.352188L3.29929 0.353095C3.28512 0.339202 3.27189 0.32858 3.25972 0.321294L3.28088 0.302382C3.27741 0.296448 3.27408 0.291305 3.27093 0.286966L3.00106 0.342713ZM3.01419 0.629211L3.0568 0.56223L2.83639 0.414449L2.8609 0.380173L2.79809 0.332828L2.77105 0.370639L2.68358 0.311992L2.64097 0.378973L2.72487 0.435222L2.70759 0.459384L2.7704 0.506729L2.7902 0.479031L3.01419 0.629211ZM2.74146 0.709211L2.78407 0.64223L2.56366 0.494449L2.58817 0.460173L2.52536 0.412828L2.49832 0.450639L2.41085 0.391992L2.36825 0.458973L2.45214 0.515222L2.43486 0.539384L2.49767 0.586729L2.51748 0.559031L2.74146 0.709211ZM2.62458 0.949211L2.66719 0.88223L2.44678 0.734449L2.47129 0.700173L2.40848 0.652828L2.38144 0.690639L2.29397 0.631992L2.25136 0.698973L2.33525 0.755222L2.31798 0.779384L2.38079 0.826729L2.40059 0.799031L2.62458 0.949211ZM2.62823 1.14122L2.58562 1.07424L2.36163 1.22442L2.34183 1.19672L2.27902 1.24407L2.29629 1.26823L2.2124 1.32448L2.25501 1.39146L2.34248 1.33281L2.36952 1.37062L2.43233 1.32328L2.40782 1.289L2.62823 1.14122ZM2.7025 1.31424L2.74511 1.38122L2.5247 1.529L2.54921 1.56328L2.4864 1.61062L2.45936 1.57281L2.37189 1.63146L2.32929 1.56448L2.41318 1.50823L2.3959 1.48407L2.45871 1.43672L2.47852 1.46442L2.7025 1.31424ZM2.97523 1.39424L3.01784 1.46122L2.79743 1.609L2.82194 1.64328L2.75913 1.69062L2.73209 1.65281L2.64462 1.71146L2.60201 1.64448L2.6859 1.58823L2.66863 1.56407L2.73144 1.51672L2.75124 1.54442L2.97523 1.39424ZM3.39098 1.77656C3.37843 1.77179 3.36643 1.76757 3.35497 1.76392L3.34014 1.76038L3.36922 1.62107L3.29449 1.59907C3.27062 1.66675 3.24891 1.71319 3.23197 1.73649L2.9621 1.68074L2.94589 1.75899L3.25349 1.82972L3.2534 1.83001L3.29789 1.85956L3.30374 1.85591C3.34251 1.88295 3.39545 1.92754 3.4614 1.98921L3.48654 1.96092L3.51167 1.98921C3.60325 1.90357 3.66974 1.85087 3.70805 1.83237L3.7184 1.82999C3.73185 1.84147 3.74535 1.85132 3.75895 1.85956L3.80344 1.83001L3.79894 1.81476L3.8039 1.81033L4.02718 1.75899L4.01098 1.68074L3.7411 1.73649C3.72416 1.71319 3.70245 1.66675 3.67858 1.59907L3.60385 1.62107L3.63411 1.76602L3.48654 1.90443L3.37242 1.79739C3.37861 1.79081 3.38479 1.78386 3.39098 1.77656ZM4.34485 1.14122L4.38745 1.07424L4.61144 1.22442L4.63125 1.19672L4.69406 1.24407L4.67678 1.26823L4.76067 1.32448L4.71806 1.39146L4.63059 1.33281L4.60355 1.37062L4.54074 1.32328L4.56525 1.289L4.34485 1.14122ZM4.22796 1.38122L4.27057 1.31424L4.49456 1.46442L4.51436 1.43672L4.57717 1.48407L4.55989 1.50823L4.64379 1.56448L4.60118 1.63146L4.51371 1.57281L4.48667 1.61062L4.42386 1.56328L4.44837 1.529L4.22796 1.38122ZM3.95524 1.46122L3.99784 1.39424L4.22183 1.54442L4.24164 1.51672L4.30445 1.56407L4.28717 1.58823L4.37106 1.64448L4.32845 1.71146L4.24098 1.65281L4.21394 1.69062L4.15113 1.64328L4.17564 1.609L3.95524 1.46122ZM4.38381 0.92223L4.42641 0.989211L4.6504 0.839031L4.67021 0.866729L4.73302 0.819384L4.71574 0.795222L4.79963 0.738973L4.75702 0.671992L4.66955 0.730639L4.64251 0.692828L4.5797 0.740173L4.60421 0.774449L4.38381 0.92223ZM4.26692 0.68223L4.30953 0.749211L4.53352 0.599031L4.55332 0.626729L4.61613 0.579384L4.59886 0.555222L4.68275 0.498973L4.64014 0.431992L4.55267 0.490639L4.52563 0.452828L4.46282 0.500173L4.48733 0.534449L4.26692 0.68223ZM3.9942 0.60223L4.0368 0.669211L4.26079 0.519031L4.2806 0.546729L4.34341 0.499384L4.32613 0.475222L4.41002 0.418973L4.36741 0.351992L4.27994 0.410639L4.2529 0.372828L4.19009 0.420173L4.2146 0.454449L3.9942 0.60223Z" fill="#C51918"/>
<path fill-rule="evenodd" clip-rule="evenodd" d="M3.10379 0.576534L3.54506 0.342529V0.982529H4.63597L4.37603 1.16974V1.41469H3.96461L3.52334 1.64869V1.00869H2.43243L2.69238 0.821475V0.576534H3.10379Z" fill="#C51918"/>
<path fill-rule="evenodd" clip-rule="evenodd" d="M3.96463 0.576534L3.52336 0.342529V0.982529H2.43245L2.69239 1.16974V1.41469H3.10381L3.54508 1.64869V1.00869H4.63599L4.37604 0.821475V0.576534H3.96463Z" fill="#29AE66"/>
<path fill-rule="evenodd" clip-rule="evenodd" d="M2.8894 0.742362L2.96141 0.600464L3.14458 0.698433L3.19504 0.623352L3.32331 0.714225L3.28386 0.772927L3.82601 1.0629L3.85943 1.01317L3.9877 1.10405L3.96529 1.1374L4.02385 1.16872L3.95185 1.31062L3.87609 1.2701L3.8146 1.36159L3.68633 1.27072L3.73681 1.19561L3.19466 0.905631L3.15021 0.971768L3.02194 0.880895L3.05538 0.831137L2.8894 0.742362Z" fill="#29AE66"/>
<path fill-rule="evenodd" clip-rule="evenodd" d="M4.04481 0.703382L3.96308 0.566851L3.78719 0.677359L3.73162 0.605981L3.61 0.70558L3.65345 0.761387L3.13285 1.08847L3.09604 1.0412L2.97442 1.1408L2.99911 1.1725L2.94287 1.20783L3.0246 1.34436L3.09734 1.29866L3.16507 1.38564L3.28668 1.28604L3.23108 1.21463L3.75169 0.887546L3.80065 0.950421L3.92226 0.850822L3.88543 0.803518L4.04481 0.703382Z" fill="#C51918"/>
</g>
<path fill-rule="evenodd" clip-rule="evenodd" d="M9.53669 1C9.53669 1 10.7018 3.7608 9.66665 4.93326C8.63152 6.10572 6 5.87967 6 5.87967C6 5.87967 9.3782 7.4055 10.8501 5.30453C12.3219 3.20356 9.53669 1 9.53669 1Z" fill="#F7FCFF"/>
<path fill-rule="evenodd" clip-rule="evenodd" d="M7.42216 2.62424L7.11388 2.84122L7.22264 2.47761L6.92336 2.2481L7.29885 2.24036L7.42216 1.88153L7.54547 2.24036L7.92095 2.2481L7.62168 2.47761L7.73043 2.84122L7.42216 2.62424ZM7.48179 3.62691L7.17352 3.84389L7.28227 3.48028L6.98299 3.25077L7.35848 3.24303L7.48179 2.8842L7.6051 3.24303L7.98059 3.25077L7.68131 3.48028L7.79006 3.84389L7.48179 3.62691ZM6.23636 3.92133L6.54463 3.70435L6.85291 3.92133L6.74415 3.55772L7.04343 3.32821L6.66794 3.32047L6.54463 2.96164L6.42132 3.32047L6.04584 3.32821L6.34512 3.55772L6.23636 3.92133ZM7.48179 4.67864L7.17352 4.89563L7.28227 4.53201L6.98299 4.3025L7.35848 4.29476L7.48179 3.93593L7.6051 4.29476L7.98059 4.3025L7.68131 4.53201L7.79006 4.89563L7.48179 4.67864ZM8.19232 3.53745L8.50059 3.32047L8.80887 3.53745L8.70011 3.17384L8.99939 2.94433L8.6239 2.93659L8.50059 2.57776L8.37728 2.93659L8.0018 2.94433L8.30107 3.17384L8.19232 3.53745Z" fill="#F7FCFF"/>
</g>
</g>
<defs>
<clipPath id="clip0_8_24211">
<rect width="16" height="12" fill="white"/>
</clipPath>
</defs>
</svg>
