<svg width="16" height="12" viewBox="0 0 16 12" fill="none" xmlns="http://www.w3.org/2000/svg">
<g clip-path="url(#clip0_8_24255)">
<rect width="16" height="12" fill="white"/>
<path fill-rule="evenodd" clip-rule="evenodd" d="M0 0H16V12H0V0Z" fill="#E31D1C"/>
<path fill-rule="evenodd" clip-rule="evenodd" d="M0 1V2H16V1H0ZM0 3V4H16V3H0ZM0 6V5H16V6H0ZM0 7V8H16V7H0ZM0 10V9H16V10H0ZM0 12V11H16V12H0Z" fill="#F7FCFF"/>
<rect width="9" height="7" fill="#2E42A5"/>
<path fill-rule="evenodd" clip-rule="evenodd" d="M1.03999 2.17381L1.56991 1.80468L1.98097 2.10061H1.74823L2.2189 2.51691L2.05993 3.10061H1.81094L1.56917 2.56451L1.36299 3.10061H0.74823L1.2189 3.51691L1.03999 4.17381L1.56991 3.80468L1.98097 4.10061H1.74823L2.2189 4.51691L2.05993 5.10061H1.81094L1.56917 4.56451L1.36299 5.10061H0.74823L1.2189 5.51691L1.03999 6.17381L1.56991 5.80468L2.08265 6.17381L1.92323 5.51691L2.335 5.10061H2.14507L2.56991 4.80468L2.98097 5.10061H2.74823L3.2189 5.51691L3.03999 6.17381L3.56991 5.80468L4.08265 6.17381L3.92323 5.51691L4.335 5.10061H4.14507L4.56991 4.80468L4.98097 5.10061H4.74823L5.2189 5.51691L5.03999 6.17381L5.56991 5.80468L6.08265 6.17381L5.92323 5.51691L6.335 5.10061H6.14507L6.56991 4.80468L6.98097 5.10061H6.74823L7.2189 5.51691L7.03999 6.17381L7.56991 5.80468L8.08265 6.17381L7.92323 5.51691L8.335 5.10061H7.81094L7.56917 4.56451L7.36299 5.10061H7.06488L6.92323 4.51691L7.335 4.10061H7.14507L7.56991 3.80468L8.08265 4.17381L7.92323 3.51691L8.335 3.10061H7.81094L7.56917 2.56451L7.36299 3.10061H7.06488L6.92323 2.51691L7.335 2.10061H7.14507L7.56991 1.80468L8.08265 2.17381L7.92323 1.51691L8.335 1.10061H7.81094L7.56917 0.564514L7.36299 1.10061H6.74823L7.2189 1.51691L7.05993 2.10061H6.81094L6.56917 1.56451L6.36299 2.10061H6.06488L5.92323 1.51691L6.335 1.10061H5.81094L5.56917 0.564514L5.36299 1.10061H4.74823L5.2189 1.51691L5.05993 2.10061H4.81094L4.56917 1.56451L4.36299 2.10061H4.06488L3.92323 1.51691L4.335 1.10061H3.81094L3.56917 0.564514L3.36299 1.10061H2.74823L3.2189 1.51691L3.05993 2.10061H2.81094L2.56917 1.56451L2.36299 2.10061H2.06488L1.92323 1.51691L2.335 1.10061H1.81094L1.56917 0.564514L1.36299 1.10061H0.74823L1.2189 1.51691L1.03999 2.17381ZM7.05993 4.10061L7.2189 3.51691L6.74823 3.10061H6.98097L6.56991 2.80468L6.14507 3.10061H6.335L5.92323 3.51691L6.06488 4.10061H6.36299L6.56917 3.56451L6.81094 4.10061H7.05993ZM5.98097 4.10061L5.56991 3.80468L5.14507 4.10061H5.335L4.92323 4.51691L5.06488 5.10061H5.36299L5.56917 4.56451L5.81094 5.10061H6.05993L6.2189 4.51691L5.74823 4.10061H5.98097ZM4.2189 4.51691L4.05993 5.10061H3.81094L3.56917 4.56451L3.36299 5.10061H3.06488L2.92323 4.51691L3.335 4.10061H3.14507L3.56991 3.80468L3.98097 4.10061H3.74823L4.2189 4.51691ZM4.36299 4.10061H4.06488L3.92323 3.51691L4.335 3.10061H4.14507L4.56991 2.80468L4.98097 3.10061H4.74823L5.2189 3.51691L5.05993 4.10061H4.81094L4.56917 3.56451L4.36299 4.10061ZM3.05993 4.10061L3.2189 3.51691L2.74823 3.10061H2.98097L2.56991 2.80468L2.14507 3.10061H2.335L1.92323 3.51691L2.06488 4.10061H2.36299L2.56917 3.56451L2.81094 4.10061H3.05993ZM6.2189 2.51691L6.05993 3.10061H5.81094L5.56917 2.56451L5.36299 3.10061H5.06488L4.92323 2.51691L5.335 2.10061H5.14507L5.56991 1.80468L5.98097 2.10061H5.74823L6.2189 2.51691ZM3.98097 2.10061L3.56991 1.80468L3.14507 2.10061H3.335L2.92323 2.51691L3.06488 3.10061H3.36299L3.56917 2.56451L3.81094 3.10061H4.05993L4.2189 2.51691L3.74823 2.10061H3.98097Z" fill="#F7FCFF"/>
</g>
<defs>
<clipPath id="clip0_8_24255">
<rect width="16" height="12" fill="white"/>
</clipPath>
</defs>
</svg>
