<svg width="16" height="12" viewBox="0 0 16 12" fill="none" xmlns="http://www.w3.org/2000/svg">
<g clip-path="url(#clip0_8_24197)">
<rect width="16" height="12" fill="white"/>
<path fill-rule="evenodd" clip-rule="evenodd" d="M0 0H16V12H0V0Z" fill="#F7FCFF"/>
<path fill-rule="evenodd" clip-rule="evenodd" d="M0 0V4H16V0H0Z" fill="#C51918"/>
<path fill-rule="evenodd" clip-rule="evenodd" d="M0 8V12H16V8H0Z" fill="#5EAA22"/>
<path fill-rule="evenodd" clip-rule="evenodd" d="M0 -1L8.33479 6L0 13V-1Z" fill="#272727"/>
<mask id="path-5-outside-1_8_24197" maskUnits="userSpaceOnUse" x="-1" y="-4.67749" width="18" height="21" fill="black">
<rect fill="white" x="-1" y="-4.67749" width="18" height="21"/>
<path fill-rule="evenodd" clip-rule="evenodd" d="M0 -1.67749L8.70415 4.99998H16V6.99998H8.58469L0 13.4057V11.1701L7 5.99998L0 0.767236V-1.67749Z"/>
</mask>
<path fill-rule="evenodd" clip-rule="evenodd" d="M0 -1.67749L8.70415 4.99998H16V6.99998H8.58469L0 13.4057V11.1701L7 5.99998L0 0.767236V-1.67749Z" fill="#FFD018"/>
<path d="M8.70415 4.99998L8.09547 5.7934L8.36475 5.99998H8.70415V4.99998ZM0 -1.67749L0.608678 -2.47091L-1 -3.70502V-1.67749H0ZM16 4.99998H17V3.99998H16V4.99998ZM16 6.99998V7.99998H17V6.99998H16ZM8.58469 6.99998V5.99998H8.25272L7.98665 6.19852L8.58469 6.99998ZM0 13.4057H-1V15.3996L0.598041 14.2072L0 13.4057ZM0 11.1701L-0.594107 10.3657L-1 10.6655V11.1701H0ZM7 5.99998L7.59411 6.80437L8.67665 6.00482L7.59874 5.19904L7 5.99998ZM0 0.767236H-1V1.26822L-0.598736 1.56818L0 0.767236ZM9.31283 4.20657L0.608678 -2.47091L-0.608678 -0.884073L8.09547 5.7934L9.31283 4.20657ZM16 3.99998H8.70415V5.99998H16V3.99998ZM17 6.99998V4.99998H15V6.99998H17ZM8.58469 7.99998H16V5.99998H8.58469V7.99998ZM0.598041 14.2072L9.18273 7.80145L7.98665 6.19852L-0.598041 12.6043L0.598041 14.2072ZM-1 11.1701V13.4057H1V11.1701H-1ZM6.40589 5.1956L-0.594107 10.3657L0.594107 11.9745L7.59411 6.80437L6.40589 5.1956ZM-0.598736 1.56818L6.40126 6.80093L7.59874 5.19904L0.598736 -0.0337108L-0.598736 1.56818ZM-1 -1.67749V0.767236H1V-1.67749H-1Z" fill="#272727" mask="url(#path-5-outside-1_8_24197)"/>
<path d="M2.43687 8.38408L2.43787 7.5939C3.14204 7.43856 3.60851 7.23649 3.83557 6.99349C4.39469 6.30442 4.02301 4.68998 2.87432 4.70053C2.30523 4.70053 1.71673 4.97172 1.71673 5.60999C1.71673 6.40271 1.87987 6.74159 2.43787 6.74159C2.9924 6.74159 3.1957 6.77123 3.56097 6.27337L3.95737 6.39585C3.56594 6.92935 3.03832 7.35078 2.43687 7.35078C1.4461 7.35078 0.906921 6.60376 0.906921 5.7398C0.906921 4.67324 1.77276 3.92627 2.81673 3.92627C3.59569 3.92627 4.82776 4.88037 4.82776 5.7398C4.82776 6.59922 4.82776 6.99349 4.15218 7.5939C3.88006 7.83574 3.20584 8.26763 2.43687 8.38408Z" fill="#FFD018"/>
<path fill-rule="evenodd" clip-rule="evenodd" d="M2.49572 4.94001C2.45758 4.92994 2.41849 4.95269 2.40842 4.99083L2.38112 5.09424C2.37975 5.09247 2.37838 5.0907 2.37701 5.08892C2.3529 5.0577 2.30804 5.05194 2.27682 5.07605C2.2456 5.10016 2.23983 5.14502 2.26394 5.17624C2.28049 5.19767 2.29682 5.21885 2.31293 5.23977L2.23061 5.31578C2.20163 5.34254 2.19983 5.38773 2.22659 5.41672C2.25336 5.4457 2.29855 5.4475 2.32753 5.42074L2.40027 5.35357C2.44369 5.41034 2.48531 5.46501 2.52507 5.51753L2.38814 5.59104C2.35338 5.6097 2.34034 5.653 2.35899 5.68776C2.37765 5.72252 2.42096 5.73557 2.45571 5.71691L2.6121 5.63295C2.64962 5.68293 2.6852 5.73062 2.71878 5.77594L2.531 5.87676C2.49624 5.89542 2.48319 5.93872 2.50185 5.97347C2.52051 6.00823 2.56381 6.02128 2.59857 6.00262L2.80434 5.89215C2.85906 5.96702 2.90704 6.03379 2.948 6.09199L2.81671 6.16247C2.78196 6.18113 2.76891 6.22443 2.78757 6.25919C2.80623 6.29395 2.84953 6.307 2.88428 6.28834L3.02959 6.21033C3.09003 6.30039 3.12132 6.35441 3.12132 6.36863C3.12132 6.40808 3.1533 6.44006 3.19275 6.44006C3.2322 6.44006 3.26418 6.40808 3.26418 6.36863C3.26418 6.33248 3.22657 6.25643 3.14798 6.13457C3.14911 6.13259 3.15016 6.13056 3.15111 6.12847L3.2568 5.89575C3.27312 5.85983 3.25722 5.81749 3.22131 5.80118C3.18539 5.78486 3.14305 5.80076 3.12673 5.83667L3.05452 5.99566C3.00941 5.93073 2.95675 5.85724 2.89629 5.77472L2.97109 5.61003C2.9874 5.57412 2.97151 5.53177 2.93559 5.51546C2.89967 5.49915 2.85733 5.51504 2.84102 5.55096L2.79909 5.64328L2.72704 5.54713L2.82823 5.32432C2.84455 5.2884 2.82865 5.24606 2.79273 5.22975C2.75682 5.21343 2.71448 5.22933 2.69816 5.26525L2.62899 5.41754C2.58543 5.36023 2.53949 5.30011 2.49114 5.23713L2.54654 5.0273C2.55662 4.98916 2.53386 4.95008 2.49572 4.94001Z" fill="#FFD018"/>
<path fill-rule="evenodd" clip-rule="evenodd" d="M2.97614 4.94001C3.01429 4.92994 3.05337 4.95269 3.06344 4.99083L3.09075 5.09424C3.09211 5.09247 3.09348 5.0907 3.09485 5.08892C3.11897 5.0577 3.16382 5.05194 3.19505 5.07605C3.22627 5.10016 3.23203 5.14502 3.20792 5.17624C3.19137 5.19767 3.17504 5.21885 3.15893 5.23977L3.24125 5.31578C3.27023 5.34254 3.27203 5.38773 3.24527 5.41672C3.21851 5.4457 3.17332 5.4475 3.14433 5.42074L3.0716 5.35357C3.02817 5.41034 2.98655 5.46501 2.94679 5.51753L3.08372 5.59104C3.11848 5.6097 3.13153 5.653 3.11287 5.68776C3.09421 5.72252 3.05091 5.73557 3.01615 5.71691L2.85976 5.63295C2.82224 5.68293 2.78667 5.73062 2.75308 5.77594L2.94086 5.87676C2.97562 5.89542 2.98867 5.93872 2.97001 5.97347C2.95135 6.00823 2.90805 6.02128 2.87329 6.00262L2.66753 5.89215C2.6128 5.96702 2.56482 6.03379 2.52386 6.09199L2.65515 6.16247C2.68991 6.18113 2.70296 6.22443 2.6843 6.25919C2.66564 6.29395 2.62233 6.307 2.58758 6.28834L2.44227 6.21033C2.38183 6.30039 2.35054 6.35441 2.35054 6.36863C2.35054 6.40808 2.31856 6.44006 2.27911 6.44006C2.23966 6.44006 2.20768 6.40808 2.20768 6.36863C2.20768 6.33248 2.24529 6.25643 2.32389 6.13457C2.32275 6.13259 2.3217 6.13056 2.32076 6.12847L2.21506 5.89575C2.19875 5.85983 2.21464 5.81749 2.25056 5.80118C2.28647 5.78486 2.32882 5.80076 2.34513 5.83667L2.41734 5.99566C2.46245 5.93073 2.51511 5.85724 2.57557 5.77472L2.50077 5.61003C2.48446 5.57412 2.50035 5.53177 2.53627 5.51546C2.57219 5.49915 2.61453 5.51504 2.63084 5.55096L2.67277 5.64328L2.74482 5.54713L2.64363 5.32432C2.62732 5.2884 2.64321 5.24606 2.67913 5.22975C2.71505 5.21343 2.75739 5.22933 2.7737 5.26525L2.84287 5.41754C2.88643 5.36023 2.93237 5.30011 2.98072 5.23713L2.92532 5.0273C2.91525 4.98916 2.938 4.95008 2.97614 4.94001Z" fill="#FFD018"/>
</g>
<defs>
<clipPath id="clip0_8_24197">
<rect width="16" height="12" fill="white"/>
</clipPath>
</defs>
</svg>
